  0
SECTION
  2
HEADER
  9
$ACADVER
  1
AC1015
  9
$ACADMAINTVER
 70
     6
  9
$DWGCODEPAGE
  3
ANSI_936
  9
$INSBASE
 10
0.0
 20
0.0
 30
0.0
  9
$EXTMIN
 10
-128.9098955504
 20
121.3443222576
 30
0.0
  9
$EXTMAX
 10
128.9098955504
 20
235.5169930437
 30
0.0
  9
$LIMMIN
 10
0.0
 20
0.0
  9
$LIMMAX
 10
420.0
 20
297.0
  9
$ORTHOMODE
 70
     0
  9
$REGENMODE
 70
     1
  9
$FILLMODE
 70
     1
  9
$QTEXTMODE
 70
     0
  9
$MIRRTEXT
 70
     1
  9
$LTSCALE
 40
1.0
  9
$ATTMODE
 70
     1
  9
$TEXTSIZE
 40
3.5
  9
$TRACEWID
 40
1.0
  9
$TEXTSTYLE
  7
Standard
  9
$CLAYER
  8
0
  9
$CELTYPE
  6
ByLayer
  9
$CECOLOR
 62
   256
  9
$CELTSCALE
 40
1.0
  9
$DISPSILH
 70
     0
  9
$DIMSCALE
 40
1.0
  9
$DIMASZ
 40
4.08
  9
$DIMEXO
 40
0.0
  9
$DIMDLI
 40
3.75
  9
$DIMRND
 40
0.0
  9
$DIMDLE
 40
0.0
  9
$DIMEXE
 40
2.0
  9
$DIMTP
 40
0.0
  9
$DIMTM
 40
0.0
  9
$DIMTXT
 40
3.5
  9
$DIMCEN
 40
2.5
  9
$DIMTSZ
 40
0.0
  9
$DIMTOL
 70
     0
  9
$DIMLIM
 70
     0
  9
$DIMTIH
 70
     1
  9
$DIMTOH
 70
     1
  9
$DIMSE1
 70
     0
  9
$DIMSE2
 70
     0
  9
$DIMTAD
 70
     1
  9
$DIMZIN
 70
     0
  9
$DIMBLK
  1

  9
$DIMASO
 70
     1
  9
$DIMSHO
 70
     1
  9
$DIMPOST
  1

  9
$DIMAPOST
  1

  9
$DIMALT
 70
     0
  9
$DIMALTD
 70
     3
  9
$DIMALTF
 40
0.0393700787
  9
$DIMLFAC
 40
1.0
  9
$DIMTOFL
 70
     1
  9
$DIMTVP
 40
0.0
  9
$DIMTIX
 70
     0
  9
$DIMSOXD
 70
     0
  9
$DIMSAH
 70
     0
  9
$DIMBLK1
  1

  9
$DIMBLK2
  1

  9
$DIMSTYLE
  2
ISO-25
  9
$DIMCLRD
 70
     0
  9
$DIMCLRE
 70
     0
  9
$DIMCLRT
 70
     0
  9
$DIMTFAC
 40
1.0
  9
$DIMGAP
 40
1.524
  9
$DIMJUST
 70
     0
  9
$DIMSD1
 70
     0
  9
$DIMSD2
 70
     0
  9
$DIMTOLJ
 70
     0
  9
$DIMTZIN
 70
     0
  9
$DIMALTZ
 70
     0
  9
$DIMALTTZ
 70
     0
  9
$DIMUPT
 70
     0
  9
$DIMDEC
 70
     2
  9
$DIMTDEC
 70
     2
  9
$DIMALTU
 70
     2
  9
$DIMALTTD
 70
     3
  9
$DIMTXSTY
  7
Standard
  9
$DIMAUNIT
 70
     0
  9
$DIMADEC
 70
     2
  9
$DIMALTRND
 40
0.0
  9
$DIMAZIN
 70
     0
  9
$DIMDSEP
 70
    44
  9
$DIMATFIT
 70
     3
  9
$DIMFRAC
 70
     0
  9
$DIMLDRBLK
  1

  9
$DIMLUNIT
 70
     2
  9
$DIMLWD
 70
    -2
  9
$DIMLWE
 70
    -2
  9
$DIMTMOVE
 70
     0
  9
$LUNITS
 70
     2
  9
$LUPREC
 70
     2
  9
$SKETCHINC
 40
1.0
  9
$FILLETRAD
 40
0.0
  9
$AUNITS
 70
     0
  9
$AUPREC
 70
     2
  9
$MENU
  1
.
  9
$ELEVATION
 40
0.0
  9
$PELEVATION
 40
0.0
  9
$THICKNESS
 40
0.0
  9
$LIMCHECK
 70
     0
  9
$CHAMFERA
 40
0.0
  9
$CHAMFERB
 40
0.0
  9
$CHAMFERC
 40
0.0
  9
$CHAMFERD
 40
0.0
  9
$SKPOLY
 70
     0
  9
$TDCREATE
 40
2460790.485905463
  9
$TDUCREATE
 40
2460790.15257213
  9
$TDUPDATE
 40
2460790.485933032
  9
$TDUUPDATE
 40
2460790.152599699
  9
$TDINDWG
 40
0.0000000116
  9
$TDUSRTIMER
 40
0.0000000116
  9
$USRTIMER
 70
     1
  9
$ANGBASE
 50
0.0
  9
$ANGDIR
 70
     0
  9
$PDMODE
 70
     0
  9
$PDSIZE
 40
-1.0
  9
$PLINEWID
 40
0.0
  9
$SPLFRAME
 70
     0
  9
$SPLINETYPE
 70
     6
  9
$SPLINESEGS
 70
     8
  9
$HANDSEED
  5
554
  9
$SURFTAB1
 70
     6
  9
$SURFTAB2
 70
     6
  9
$SURFTYPE
 70
     6
  9
$SURFU
 70
     6
  9
$SURFV
 70
     6
  9
$UCSBASE
  2

  9
$UCSNAME
  2

  9
$UCSORG
 10
0.0
 20
0.0
 30
0.0
  9
$UCSXDIR
 10
1.0
 20
0.0
 30
0.0
  9
$UCSYDIR
 10
0.0
 20
1.0
 30
0.0
  9
$UCSORTHOREF
  2

  9
$UCSORTHOVIEW
 70
     0
  9
$UCSORGTOP
 10
0.0
 20
0.0
 30
0.0
  9
$UCSORGBOTTOM
 10
0.0
 20
0.0
 30
0.0
  9
$UCSORGLEFT
 10
0.0
 20
0.0
 30
0.0
  9
$UCSORGRIGHT
 10
0.0
 20
0.0
 30
0.0
  9
$UCSORGFRONT
 10
0.0
 20
0.0
 30
0.0
  9
$UCSORGBACK
 10
0.0
 20
0.0
 30
0.0
  9
$PUCSBASE
  2

  9
$PUCSNAME
  2

  9
$PUCSORG
 10
0.0
 20
0.0
 30
0.0
  9
$PUCSXDIR
 10
1.0
 20
0.0
 30
0.0
  9
$PUCSYDIR
 10
0.0
 20
1.0
 30
0.0
  9
$PUCSORTHOREF
  2

  9
$PUCSORTHOVIEW
 70
     0
  9
$PUCSORGTOP
 10
0.0
 20
0.0
 30
0.0
  9
$PUCSORGBOTTOM
 10
0.0
 20
0.0
 30
0.0
  9
$PUCSORGLEFT
 10
0.0
 20
0.0
 30
0.0
  9
$PUCSORGRIGHT
 10
0.0
 20
0.0
 30
0.0
  9
$PUCSORGFRONT
 10
0.0
 20
0.0
 30
0.0
  9
$PUCSORGBACK
 10
0.0
 20
0.0
 30
0.0
  9
$USERI1
 70
     0
  9
$USERI2
 70
     0
  9
$USERI3
 70
     0
  9
$USERI4
 70
     0
  9
$USERI5
 70
     0
  9
$USERR1
 40
0.0
  9
$USERR2
 40
0.0
  9
$USERR3
 40
0.0
  9
$USERR4
 40
0.0
  9
$USERR5
 40
0.0
  9
$WORLDVIEW
 70
     1
  9
$SHADEDGE
 70
     3
  9
$SHADEDIF
 70
    70
  9
$TILEMODE
 70
     1
  9
$MAXACTVP
 70
    64
  9
$PINSBASE
 10
0.0
 20
0.0
 30
0.0
  9
$PLIMCHECK
 70
     0
  9
$PEXTMIN
 10
1.0000000000E+20
 20
1.0000000000E+20
 30
1.0000000000E+20
  9
$PEXTMAX
 10
-1.0000000000E+20
 20
-1.0000000000E+20
 30
-1.0000000000E+20
  9
$PLIMMIN
 10
0.0
 20
0.0
  9
$PLIMMAX
 10
420.0
 20
297.0
  9
$UNITMODE
 70
     0
  9
$VISRETAIN
 70
     1
  9
$PLINEGEN
 70
     0
  9
$PSLTSCALE
 70
     1
  9
$TREEDEPTH
 70
  3020
  9
$CMLSTYLE
  2
Standard
  9
$CMLJUST
 70
     0
  9
$CMLSCALE
 40
20.0
  9
$PROXYGRAPHICS
 70
     1
  9
$MEASUREMENT
 70
     1
  9
$CELWEIGHT
370
    -1
  9
$ENDCAPS
280
     0
  9
$JOINSTYLE
280
     0
  9
$LWDISPLAY
290
     1
  9
$INSUNITS
 70
     4
  9
$HYPERLINKBASE
  1

  9
$STYLESHEET
  1

  9
$XEDIT
290
     1
  9
$CEPSNTYPE
380
     0
  9
$PSTYLEMODE
290
     1
  9
$FINGERPRINTGUID
  2
{44c17ddc-3e0a-4500-beaa-10e3b9945f5c}
  9
$VERSIONGUID
  2
{FAEB1C32-E019-11D5-929B-00C0DF256EC4}
  9
$EXTNAMES
290
     1
  9
$PSVPSCALE
 40
0.0
  9
$OLESTARTUP
290
     0
  0
ENDSEC
  0
SECTION
  2
CLASSES
  0
CLASS
  1
ACDBDICTIONARYWDFLT
  2
AcDbDictionaryWithDefault
  3
ObjectDBX Classes
 90
        0
280
     0
281
     0
  0
CLASS
  1
VISUALSTYLE
  2
AcDbVisualStyle
  3
ObjectDBX Classes
 90
     4095
280
     0
281
     0
  0
CLASS
  1
MATERIAL
  2
AcDbMaterial
  3
ObjectDBX Classes
 90
     1153
280
     0
281
     0
  0
CLASS
  1
SCALE
  2
AcDbScale
  3
ObjectDBX Classes
 90
     1153
280
     0
281
     0
  0
CLASS
  1
TABLESTYLE
  2
AcDbTableStyle
  3
ObjectDBX Classes
 90
     4095
280
     0
281
     0
  0
CLASS
  1
MLEADERSTYLE
  2
AcDbMLeaderStyle
  3
ACDB_MLEADERSTYLE_CLASS
 90
     4095
280
     0
281
     0
  0
CLASS
  1
SUN
  2
AcDbSun
  3
SCENEOE
 90
     1153
280
     0
281
     0
  0
CLASS
  1
ACDBPLACEHOLDER
  2
AcDbPlaceHolder
  3
ObjectDBX Classes
 90
        0
280
     0
281
     0
  0
CLASS
  1
LAYOUT
  2
AcDbLayout
  3
ObjectDBX Classes
 90
        0
280
     0
281
     0
  0
ENDSEC
  0
SECTION
  2
TABLES
  0
TABLE
  2
VPORT
  5
8
330
0
100
AcDbSymbolTable
 70
     1
  0
VPORT
  5
29
330
8
100
AcDbSymbolTableRecord
100
AcDbViewportTableRecord
  2
*Active
 70
     0
 10
0.0
 20
0.0
 11
1.0
 21
1.0
 12
0.0
 22
178.4306576507
 13
0.0
 23
0.0
 14
10.0
 24
10.0
 15
10.0
 25
10.0
 16
0.0
 26
0.0
 36
1.0
 17
0.0
 27
0.0
 37
0.0
 40
116.4561242018
 41
2.2581567842
 42
50.0
 43
0.0
 44
0.0
 50
0.0
 51
0.0
 71
     0
 72
   100
 73
     1
 74
     3
 75
     0
 76
     0
 77
     0
 78
     0
281
     0
 65
     1
110
0.0
120
0.0
130
0.0
111
1.0
121
0.0
131
0.0
112
0.0
122
1.0
132
0.0
 79
     0
146
0.0
  0
ENDTAB
  0
TABLE
  2
LTYPE
  5
5
330
0
100
AcDbSymbolTable
 70
     6
  0
LTYPE
  5
14
330
5
100
AcDbSymbolTableRecord
100
AcDbLinetypeTableRecord
  2
ByBlock
 70
     0
  3

 72
    65
 73
     0
 40
0.0
  0
LTYPE
  5
15
330
5
100
AcDbSymbolTableRecord
100
AcDbLinetypeTableRecord
  2
ByLayer
 70
     0
  3

 72
    65
 73
     0
 40
0.0
  0
LTYPE
  5
16
330
5
100
AcDbSymbolTableRecord
100
AcDbLinetypeTableRecord
  2
Continuous
 70
     0
  3
Solid line
 72
    65
 73
     0
 40
0.0
  0
LTYPE
  5
5E
330
5
100
AcDbSymbolTableRecord
100
AcDbLinetypeTableRecord
  2
HIDDEN
 70
     0
  3
Hidden __ __ __ __ __ __ __ __ __ __ __ __ __ __
 72
    65
 73
     2
 40
1.905
 49
1.27
 74
     0
 49
-0.635
 74
     0
  0
LTYPE
  5
5F
330
5
100
AcDbSymbolTableRecord
100
AcDbLinetypeTableRecord
  2
PHANTOM
 70
     0
  3
Phantom ______  __  __  ______  __  __  ______
 72
    65
 73
     6
 40
12.7
 49
6.35
 74
     0
 49
-1.27
 74
     0
 49
1.27
 74
     0
 49
-1.27
 74
     0
 49
1.27
 74
     0
 49
-1.27
 74
     0
  0
LTYPE
  5
60
330
5
100
AcDbSymbolTableRecord
100
AcDbLinetypeTableRecord
  2
CENTER
 70
     0
  3
Center ____ _ ____ _ ____ _ ____ _ ____ _ ____
 72
    65
 73
     4
 40
10.16
 49
6.35
 74
     0
 49
-1.27
 74
     0
 49
1.27
 74
     0
 49
-1.27
 74
     0
  0
LTYPE
  5
61
330
5
100
AcDbSymbolTableRecord
100
AcDbLinetypeTableRecord
  2
CENTERX2
 70
     0
  3
Center (2x) ________  __  ________  __  _____
 72
    65
 73
     4
 40
20.32
 49
12.7
 74
     0
 49
-2.54
 74
     0
 49
2.54
 74
     0
 49
-2.54
 74
     0
  0
LTYPE
  5
62
330
5
100
AcDbSymbolTableRecord
100
AcDbLinetypeTableRecord
  2
DOT2
 70
     0
  3
Dot (.5x) ........................................
 72
    65
 73
     2
 40
0.635
 49
0.0
 74
     0
 49
-0.635
 74
     0
  0
ENDTAB
  0
TABLE
  2
LAYER
  5
2
330
0
100
AcDbSymbolTable
 70
     1
  0
LAYER
  5
10
330
2
100
AcDbSymbolTableRecord
100
AcDbLayerTableRecord
  2
0
 70
     0
 62
     7
  6
Continuous
370
    -3
390
F
  0
ENDTAB
  0
TABLE
  2
STYLE
  5
3
330
0
100
AcDbSymbolTable
 70
     1
  0
STYLE
  5
11
330
3
100
AcDbSymbolTableRecord
100
AcDbTextStyleTableRecord
  2
Standard
 70
     0
 40
0.0
 41
1.0
 50
0.0
 71
     0
 42
3.5
  3
txt
  4

  0
ENDTAB
  0
TABLE
  2
VIEW
  5
6
330
0
100
AcDbSymbolTable
 70
     0
  0
ENDTAB
  0
TABLE
  2
UCS
  5
7
330
0
100
AcDbSymbolTable
 70
     0
  0
ENDTAB
  0
TABLE
  2
APPID
  5
9
330
0
100
AcDbSymbolTable
 70
     1
  0
APPID
  5
12
330
9
100
AcDbSymbolTableRecord
100
AcDbRegAppTableRecord
  2
ACAD
 70
     0
  0
ENDTAB
  0
TABLE
  2
DIMSTYLE
  5
A
330
0
100
AcDbSymbolTable
 70
     1
100
AcDbDimStyleTable
  0
DIMSTYLE
105
27
330
A
100
AcDbSymbolTableRecord
100
AcDbDimStyleTableRecord
  2
ISO-25
 70
     0
 41
2.5
 42
0.625
 43
3.75
 44
1.25
 73
     0
 74
     0
 77
     1
 78
     8
140
2.5
141
2.5
143
0.0393700787
147
0.625
171
     3
172
     1
178
     0
271
     2
272
     2
274
     3
278
    44
283
     0
284
     8
340
11
  0
ENDTAB
  0
TABLE
  2
BLOCK_RECORD
  5
1
330
0
100
AcDbSymbolTable
 70
     1
  0
BLOCK_RECORD
  5
1F
330
1
100
AcDbSymbolTableRecord
100
AcDbBlockTableRecord
  2
*Model_Space
340
22
  0
BLOCK_RECORD
  5
1B
330
1
100
AcDbSymbolTableRecord
100
AcDbBlockTableRecord
  2
*Paper_Space
340
1E
  0
BLOCK_RECORD
  5
23
330
1
100
AcDbSymbolTableRecord
100
AcDbBlockTableRecord
  2
*Paper_Space0
340
26
  0
ENDTAB
  0
ENDSEC
  0
SECTION
  2
BLOCKS
  0
BLOCK
  5
20
330
1F
100
AcDbEntity
  8
0
100
AcDbBlockBegin
  2
*Model_Space
 70
     0
 10
0.0
 20
0.0
 30
0.0
  3
*Model_Space
  1

  0
ENDBLK
  5
21
330
1F
100
AcDbEntity
  8
0
100
AcDbBlockEnd
  0
BLOCK
  5
1C
330
1B
100
AcDbEntity
 67
     1
  8
0
100
AcDbBlockBegin
  2
*Paper_Space
 70
     0
 10
0.0
 20
0.0
 30
0.0
  3
*Paper_Space
  1

  0
ENDBLK
  5
1D
330
1B
100
AcDbEntity
 67
     1
  8
0
100
AcDbBlockEnd
  0
BLOCK
  5
24
330
23
100
AcDbEntity
  8
0
100
AcDbBlockBegin
  2
*Paper_Space0
 70
     0
 10
0.0
 20
0.0
 30
0.0
  3
*Paper_Space0
  1

  0
ENDBLK
  5
25
330
23
100
AcDbEntity
  8
0
100
AcDbBlockEnd
  0
ENDSEC
  0
SECTION
  2
ENTITIES
  0
SPLINE
  5
8F
330
1F
100
AcDbEntity
  8
0
  6
Continuous
 62
     7
370
    25
100
AcDbSpline
210
0.0
220
0.0
230
1.0
 70
     8
 71
     3
 72
     8
 73
     4
 74
     0
 42
0.00000001
 43
0.00000001
 40
0.0
 40
0.0
 40
0.0
 40
0.0
 40
1.0
 40
1.0
 40
1.0
 40
1.0
 10
39.43587419837301
 20
154.6255996781958
 30
0.0
 10
39.44719066228383
 20
154.6674459338957
 30
0.0
 10
39.46214403997077
 20
154.7083079850251
 30
0.0
 10
39.48051054102108
 20
154.7475742951486
 30
0.0
  0
SPLINE
  5
91
330
1F
100
AcDbEntity
  8
0
  6
Continuous
 62
     7
370
    25
100
AcDbSpline
210
0.0
220
0.0
230
1.0
 70
     8
 71
     3
 72
     8
 73
     4
 74
     0
 42
0.00000001
 43
0.00000001
 40
0.0
 40
0.0
 40
0.0
 40
0.0
 40
1.0
 40
1.0
 40
1.0
 40
1.0
 10
38.51867665735328
 20
152.1192379984759
 30
0.0
 10
38.52999308459452
 20
152.1610840499136
 30
0.0
 10
38.54494639042924
 20
152.2019459046975
 30
0.0
 10
38.56331278764509
 20
152.2412120351376
 30
0.0
  0
LINE
  5
2E1
330
1F
100
AcDbEntity
  8
0
  6
Continuous
 62
     7
370
    25
100
AcDbLine
 10
59.4900685801
 20
137.7681534163
 30
0.0
 11
59.4925005108
 21
137.7672634534
 31
0.0
  0
LINE
  5
2E2
330
1F
100
AcDbEntity
  8
0
  6
Continuous
 62
     7
370
    25
100
AcDbLine
 10
60.1702387576
 20
137.519245743
 30
0.0
 11
60.4433614907
 21
137.419296721
 31
0.0
  0
LINE
  5
2E3
330
1F
100
AcDbEntity
  8
0
  6
Continuous
 62
     7
370
    25
100
AcDbLine
 10
60.7728041656
 20
136.2538989078
 30
0.0
 11
63.8708812827
 21
135.1201716729
 31
0.0
  0
LINE
  5
2E4
330
1F
100
AcDbEntity
  8
0
  6
Continuous
 62
     7
370
    25
100
AcDbLine
 10
64.8814708178
 20
135.7951785477
 30
0.0
 11
65.153651144
 21
135.6955748254
 31
0.0
  0
LINE
  5
2E5
330
1F
100
AcDbEntity
  8
0
  6
Continuous
 62
     7
370
    25
100
AcDbLine
 10
66.2805912061
 20
136.6855189308
 30
0.0
 11
67.7488944972
 21
140.6978440319
 31
0.0
  0
LINE
  5
2E6
330
1F
100
AcDbEntity
  8
0
  6
Continuous
 62
     7
370
    25
100
AcDbLine
 10
68.8144066473
 20
141.2059597264
 30
0.0
 11
69.6643334976
 21
143.5284871088
 31
0.0
  0
LINE
  5
2E7
330
1F
100
AcDbEntity
  8
0
  6
Continuous
 62
     7
370
    25
100
AcDbLine
 10
69.1784600739
 20
144.6043172218
 30
0.0
 11
69.6021052304
 21
145.7619826079
 31
0.0
  0
LINE
  5
2E8
330
1F
100
AcDbEntity
  8
0
  6
Continuous
 62
     7
370
    25
100
AcDbLine
 10
69.3803294941
 20
147.2454915664
 30
0.0
 11
69.1239822469
 21
147.3393016143
 31
0.0
  0
LINE
  5
2E9
330
1F
100
AcDbEntity
  8
0
  6
Continuous
 62
     7
370
    25
100
AcDbLine
 10
68.7511201422
 20
148.4560553721
 30
0.0
 11
65.6530480061
 21
149.5897891796
 31
0.0
  0
LINE
  5
2EA
330
1F
100
AcDbEntity
  8
0
  6
Continuous
 62
     7
370
    25
100
AcDbLine
 10
64.6541940338
 20
148.9750126336
 30
0.0
 11
64.3969079916
 21
149.0691658292
 31
0.0
  0
LINE
  5
2EB
330
1F
100
AcDbEntity
  8
0
  6
Continuous
 62
     7
370
    25
100
AcDbLine
 10
63.7191747163
 20
149.3171806576
 30
0.0
 11
63.7167386335
 21
149.3180721361
 31
0.0
  0
LINE
  5
2EC
330
1F
100
AcDbEntity
  8
0
  6
Continuous
 62
     7
370
    25
100
AcDbLine
 10
63.7167386335
 20
149.3180721361
 30
0.0
 11
63.7162470759
 21
149.3167288943
 31
0.0
  0
LINE
  5
2ED
330
1F
100
AcDbEntity
  8
0
  6
Continuous
 62
     7
370
    25
100
AcDbLine
 10
63.2653249104
 20
148.0845283597
 30
0.0
 11
62.6066471933
 21
146.2846101092
 31
0.0
  0
LINE
  5
2EE
330
1F
100
AcDbEntity
  8
0
  6
Continuous
 62
     7
370
    25
100
AcDbLine
 10
62.6066471933
 20
146.2846101092
 30
0.0
 11
61.1779061027
 21
146.8074558999
 31
0.0
  0
LINE
  5
2EF
330
1F
100
AcDbEntity
  8
0
  6
Continuous
 62
     7
370
    25
100
AcDbLine
 10
62.4288036017
 20
150.2256939699
 30
0.0
 11
61.1779061027
 21
146.8074558999
 31
0.0
  0
LINE
  5
2F0
330
1F
100
AcDbEntity
  8
0
  6
Continuous
 62
     7
370
    25
100
AcDbLine
 10
62.7934196042
 20
151.222054025
 30
0.0
 11
62.7932435659
 21
151.2215729776
 31
0.0
  0
LINE
  5
2F1
330
1F
100
AcDbEntity
  8
0
  6
Continuous
 62
     7
370
    25
100
AcDbLine
 10
62.7929382666
 20
151.2222301696
 30
0.0
 11
62.7934196042
 21
151.222054025
 31
0.0
  0
LINE
  5
2F2
330
1F
100
AcDbEntity
  8
0
  6
Continuous
 62
     7
370
    25
100
AcDbLine
 10
50.6375435761
 20
155.6704729499
 30
0.0
 11
61.7976602408
 21
151.5864502056
 31
0.0
  0
LINE
  5
2F3
330
1F
100
AcDbEntity
  8
0
  6
Continuous
 62
     7
370
    25
100
AcDbLine
 10
49.2771677238
 20
155.0385101211
 30
0.0
 11
48.0262687325
 21
151.6202692405
 31
0.0
  0
LINE
  5
2F4
330
1F
100
AcDbEntity
  8
0
  6
Continuous
 62
     7
370
    25
100
AcDbLine
 10
48.0262687325
 20
151.6202692405
 30
0.0
 11
46.5950901702
 21
152.144008128
 31
0.0
  0
LINE
  5
2F5
330
1F
100
AcDbEntity
  8
0
  6
Continuous
 62
     7
370
    25
100
AcDbLine
 10
46.5950901702
 20
152.144008128
 30
0.0
 11
47.2532766345
 21
153.9425839696
 31
0.0
  0
LINE
  5
2F6
330
1F
100
AcDbEntity
  8
0
  6
Continuous
 62
     7
370
    25
100
AcDbLine
 10
47.027444804
 20
155.4254865235
 30
0.0
 11
46.7701606807
 21
155.519639111
 31
0.0
  0
LINE
  5
2F7
330
1F
100
AcDbEntity
  8
0
  6
Continuous
 62
     7
370
    25
100
AcDbLine
 10
46.4006756414
 20
156.6351562103
 30
0.0
 11
43.3026034077
 21
157.7688900535
 31
0.0
  0
LINE
  5
2F8
330
1F
100
AcDbEntity
  8
0
  6
Continuous
 62
     7
370
    25
100
AcDbLine
 10
42.3003726811
 20
157.155348147
 30
0.0
 11
42.0440290682
 21
157.249156061
 31
0.0
  0
LINE
  5
2F9
330
1F
100
AcDbEntity
  8
0
  6
Continuous
 62
     7
370
    25
100
AcDbLine
 10
40.9143899197
 20
156.2622845423
 30
0.0
 11
40.4902044551
 21
155.1031436648
 31
0.0
  0
LINE
  5
2FA
330
1F
100
AcDbEntity
  8
0
  6
Continuous
 62
     7
370
    25
100
AcDbLine
 10
39.4358741984
 20
154.6255996782
 30
0.0
 11
38.5633127876
 21
152.2412120351
 31
0.0
  0
LINE
  5
2FB
330
1F
100
AcDbEntity
  8
0
  6
Continuous
 62
     7
370
    25
100
AcDbLine
 10
39.0603703713
 20
151.1959412032
 30
0.0
 11
37.5915281094
 21
147.1821402958
 31
0.0
  0
LINE
  5
2FC
330
1F
100
AcDbEntity
  8
0
  6
Continuous
 62
     7
370
    25
100
AcDbLine
 10
37.8173593135
 20
145.6992376465
 30
0.0
 11
38.0895411383
 21
145.5996329491
 31
0.0
  0
LINE
  5
2FD
330
1F
100
AcDbEntity
  8
0
  6
Continuous
 62
     7
370
    25
100
AcDbLine
 10
38.4223622047
 20
144.432999746
 30
0.0
 11
41.5204320476
 21
143.2992658482
 31
0.0
  0
LINE
  5
2FE
330
1F
100
AcDbEntity
  8
0
  6
Continuous
 62
     7
370
    25
100
AcDbLine
 10
42.5276516258
 20
143.9755166407
 30
0.0
 11
42.8007749384
 21
143.875567735
 31
0.0
  0
LINE
  5
2FF
330
1F
100
AcDbEntity
  8
0
  6
Continuous
 62
     7
370
    25
100
AcDbLine
 10
43.9304153801
 20
144.8624377733
 30
0.0
 11
45.0142900686
 21
147.8242672085
 31
0.0
  0
LINE
  5
300
330
1F
100
AcDbEntity
  8
0
  6
Continuous
 62
     7
370
    25
100
AcDbLine
 10
45.0142900686
 20
147.8242672085
 30
0.0
 11
46.4454686309
 21
147.3005334011
 31
0.0
  0
LINE
  5
301
330
1F
100
AcDbEntity
  8
0
  6
Continuous
 62
     7
370
    25
100
AcDbLine
 10
46.4454686309
 20
147.3005334011
 30
0.0
 11
45.195021663
 21
143.8835258783
 31
0.0
  0
LINE
  5
302
330
1F
100
AcDbEntity
  8
0
  6
Continuous
 62
     7
370
    25
100
AcDbLine
 10
56.9860554909
 20
138.4392359684
 30
0.0
 11
45.8266547636
 21
142.5229967168
 31
0.0
  0
LINE
  5
303
330
1F
100
AcDbEntity
  8
0
  6
Continuous
 62
     7
370
    25
100
AcDbLine
 10
57.9821742781
 20
138.0747082573
 30
0.0
 11
57.9820662811
 21
138.0747477786
 31
0.0
  0
LINE
  5
304
330
1F
100
AcDbEntity
  8
0
  6
Continuous
 62
     7
370
    25
100
AcDbLine
 10
57.9822138041
 20
138.0748162672
 30
0.0
 11
57.9821742781
 21
138.0747082573
 31
0.0
  0
LINE
  5
305
330
1F
100
AcDbEntity
  8
0
  6
Continuous
 62
     7
370
    25
100
AcDbLine
 10
59.5971062988
 20
142.4877174115
 30
0.0
 11
58.3466588629
 21
139.0707091963
 31
0.0
  0
LINE
  5
306
330
1F
100
AcDbEntity
  8
0
  6
Continuous
 62
     7
370
    25
100
AcDbLine
 10
59.5971062988
 20
142.4877174115
 30
0.0
 11
61.0258470917
 21
141.9648717297
 31
0.0
  0
LINE
  5
307
330
1F
100
AcDbEntity
  8
0
  6
Continuous
 62
     7
370
    25
100
AcDbLine
 10
61.0258470917
 20
141.9648717297
 30
0.0
 11
59.9414806589
 21
139.0016967453
 31
0.0
  0
LINE
  5
308
330
1F
100
AcDbEntity
  8
0
  6
Continuous
 62
     7
370
    25
100
AcDbLine
 10
59.4905592999
 20
137.7694943732
 30
0.0
 11
59.4900685801
 21
137.7681534163
 31
0.0
  0
LINE
  5
309
330
1F
100
AcDbEntity
  8
0
  6
Continuous
 62
     7
370
    25
100
AcDbLine
 10
45.9033249003
 20
160.3438733768
 30
0.0
 11
49.3164263987
 21
172.2660961954
 31
0.0
  0
LINE
  5
30A
330
1F
100
AcDbEntity
  8
0
  6
Continuous
 62
     7
370
    25
100
AcDbLine
 10
92.0703556577
 20
139.0694874206
 30
0.0
 11
98.9161628086
 21
149.4098726376
 31
0.0
  0
LINE
  5
30B
330
1F
100
AcDbEntity
  8
0
  6
Continuous
 62
     7
370
    25
100
AcDbLine
 10
-117.8358910266
 20
181.0573498497
 30
0.0
 11
-123.9998176899
 21
191.2352024995
 31
0.0
  0
LINE
  5
30C
330
1F
100
AcDbEntity
  8
0
  6
Continuous
 62
     7
370
    25
100
AcDbLine
 10
-106.2125191275
 20
186.8776662963
 30
0.0
 11
-116.4038148682
 21
180.7055982077
 31
0.0
  0
LINE
  5
30D
330
1F
100
AcDbEntity
  8
0
  6
Continuous
 62
     7
370
    25
100
AcDbLine
 10
-112.0246941487
 20
198.4875951045
 30
0.0
 11
-105.8607674854
 21
188.3097424547
 31
0.0
  0
LINE
  5
30E
330
1F
100
AcDbEntity
  8
0
  6
Continuous
 62
     7
370
    25
100
AcDbLine
 10
-123.6427643822
 20
192.6888631742
 30
0.0
 11
-113.4783548234
 21
198.8446484122
 31
0.0
  0
LINE
  5
30F
330
1F
100
AcDbEntity
  8
0
  6
Continuous
 62
     7
370
    25
100
AcDbLine
 10
-89.782245262
 20
210.6080475005
 30
0.0
 11
-78.7529979268
 21
214.9748354365
 31
0.0
  0
LINE
  5
310
330
1F
100
AcDbEntity
  8
0
  6
Continuous
 62
     7
370
    25
100
AcDbLine
 10
-85.9997266754
 20
198.1951750328
 30
0.0
 11
-90.3706499804
 21
209.2348671179
 31
0.0
  0
LINE
  5
311
330
1F
100
AcDbEntity
  8
0
  6
Continuous
 62
     7
370
    25
100
AcDbLine
 10
-73.5677692244
 20
201.9704003632
 30
0.0
 11
-84.6614756259
 21
197.5780912775
 31
0.0
  0
LINE
  5
312
330
1F
100
AcDbEntity
  8
0
  6
Continuous
 62
     7
370
    25
100
AcDbLine
 10
-77.3642592655
 20
214.4151564333
 30
0.0
 11
-72.9740968791
 21
203.3268719755
 31
0.0
  0
LINE
  5
313
330
1F
100
AcDbEntity
  8
0
  6
Continuous
 62
     7
370
    25
100
AcDbLine
 10
-71.8490000581
 20
217.3807316302
 30
0.0
 11
-60.5002153324
 21
220.8071317515
 31
0.0
  0
LINE
  5
314
330
1F
100
AcDbEntity
  8
0
  6
Continuous
 62
     7
370
    25
100
AcDbLine
 10
-69.1165832351
 20
204.7063392506
 30
0.0
 11
-72.5446116847
 21
216.0605172597
 31
0.0
  0
LINE
  5
315
330
1F
100
AcDbEntity
  8
0
  6
Continuous
 62
     7
370
    25
100
AcDbLine
 10
-56.4150468551
 20
207.4163208599
 30
0.0
 11
-67.8435924805
 21
203.9658395033
 31
0.0
  0
LINE
  5
316
330
1F
100
AcDbEntity
  8
0
  6
Continuous
 62
     7
370
    25
100
AcDbLine
 10
-59.1548433702
 20
220.149138919
 30
0.0
 11
-55.703521516
 21
208.7178094314
 31
0.0
  0
LINE
  5
317
330
1F
100
AcDbEntity
  8
0
  6
Continuous
 62
     7
370
    25
100
AcDbLine
 10
-53.4132909565
 20
222.6291934544
 30
0.0
 11
-41.823067133
 21
225.0927715793
 31
0.0
  0
LINE
  5
318
330
1F
100
AcDbEntity
  8
0
  6
Continuous
 62
     7
370
    25
100
AcDbLine
 10
-51.7467423443
 20
209.7810831019
 30
0.0
 11
-54.2099205995
 21
221.369425686
 31
0.0
  0
LINE
  5
319
330
1F
100
AcDbEntity
  8
0
  6
Continuous
 62
     7
370
    25
100
AcDbLine
 10
-38.8679695555
 20
211.4081000674
 30
0.0
 11
-50.5500233779
 21
208.9250028737
 31
0.0
  0
LINE
  5
31A
330
1F
100
AcDbEntity
  8
0
  6
Continuous
 62
     7
370
    25
100
AcDbLine
 10
-40.528343284
 20
224.3390803132
 30
0.0
 11
-38.0422839492
 21
212.6430907129
 31
0.0
  0
LINE
  5
31B
330
1F
100
AcDbEntity
  8
0
  6
Continuous
 62
     7
370
    25
100
AcDbLine
 10
22.7371384218
 20
227.8161378031
 30
0.0
 11
34.4891696175
 21
226.3315110066
 31
0.0
  0
LINE
  5
31C
330
1F
100
AcDbEntity
  8
0
  6
Continuous
 62
     7
370
    25
100
AcDbLine
 10
20.1247330649
 20
215.1548738878
 30
0.0
 11
21.6032894114
 21
226.8588525242
 31
0.0
  0
LINE
  5
31D
330
1F
100
AcDbEntity
  8
0
  6
Continuous
 62
     7
370
    25
100
AcDbLine
 10
32.7813717927
 20
212.4359562909
 30
0.0
 11
20.9291615779
 21
213.9332386405
 31
0.0
  0
LINE
  5
31E
330
1F
100
AcDbEntity
  8
0
  6
Continuous
 62
     7
370
    25
100
AcDbLine
 10
35.509041476
 20
225.2317750277
 30
0.0
 11
34.0011092486
 21
213.2952623496
 31
0.0
  0
LINE
  5
31F
330
1F
100
AcDbEntity
  8
0
  6
Continuous
 62
     7
370
    25
100
AcDbLine
 10
-34.6043154624
 20
226.3169647036
 30
0.0
 11
-22.8522806667
 21
227.8015919548
 31
0.0
  0
LINE
  5
320
330
1F
100
AcDbEntity
  8
0
  6
Continuous
 62
     7
370
    25
100
AcDbLine
 10
-34.01225703
 20
213.383526392
 30
0.0
 11
-35.4954738589
 21
225.1243965459
 31
0.0
  0
LINE
  5
321
330
1F
100
AcDbEntity
  8
0
  6
Continuous
 62
     7
370
    25
100
AcDbLine
 10
-21.0495387173
 20
213.9180314713
 30
0.0
 11
-32.9017430703
 21
212.4207498622
 31
0.0
  0
LINE
  5
322
330
1F
100
AcDbEntity
  8
0
  6
Continuous
 62
     7
370
    25
100
AcDbLine
 10
-21.6154743511
 20
226.9553265198
 30
0.0
 11
-20.1146596403
 21
215.0751547873
 31
0.0
  0
LINE
  5
323
330
1F
100
AcDbEntity
  8
0
  6
Continuous
 62
     7
370
    25
100
AcDbLine
 10
2.0502776059
 20
216.0800353542
 30
0.0
 11
2.5447852775
 21
227.8786309685
 31
0.0
  0
LINE
  5
324
330
1F
100
AcDbEntity
  8
0
  6
Continuous
 62
     7
370
    25
100
AcDbLine
 10
14.9010038311
 20
214.4335358373
 30
0.0
 11
2.9633764192
 21
214.9338706678
 31
0.0
  0
LINE
  5
325
330
1F
100
AcDbEntity
  8
0
  6
Continuous
 62
     7
370
    25
100
AcDbLine
 10
16.5371896839
 20
227.403480184
 30
0.0
 11
16.0341885466
 21
215.4022366207
 31
0.0
  0
LINE
  5
326
330
1F
100
AcDbEntity
  8
0
  6
Continuous
 62
     7
370
    25
100
AcDbLine
 10
3.6046886829
 20
228.9193108448
 30
0.0
 11
15.437884052
 21
228.4233530137
 31
0.0
  0
LINE
  5
327
330
1F
100
AcDbEntity
  8
0
  6
Continuous
 62
     7
370
    25
100
AcDbLine
 10
-15.5538468487
 20
228.4184927325
 30
0.0
 11
-3.7206502756
 21
228.914450614
 31
0.0
  0
LINE
  5
328
330
1F
100
AcDbEntity
  8
0
  6
Continuous
 62
     7
370
    25
100
AcDbLine
 10
-16.0377873078
 20
215.4881611167
 30
0.0
 11
-16.5328154479
 21
227.2991747311
 31
0.0
  0
LINE
  5
329
330
1F
100
AcDbEntity
  8
0
  6
Continuous
 62
     7
370
    25
100
AcDbLine
 10
-3.0846063102
 20
214.92878963
 30
0.0
 11
-15.0222317463
 21
214.4284548823
 31
0.0
  0
LINE
  5
32A
330
1F
100
AcDbEntity
  8
0
  6
Continuous
 62
     7
370
    25
100
AcDbLine
 10
-2.5490007756
 20
227.9792703622
 30
0.0
 11
-2.0467942387
 21
215.9969853877
 31
0.0
  0
LINE
  5
32B
330
1F
100
AcDbEntity
  8
0
  6
Continuous
 62
     7
370
    25
100
AcDbLine
 10
105.8963323629
 20
188.368462144
 30
0.0
 11
111.98170877
 21
198.4166129046
 31
0.0
  0
LINE
  5
32C
330
1F
100
AcDbEntity
  8
0
  6
Continuous
 62
     7
370
    25
100
AcDbLine
 10
116.3001132042
 20
180.7684021678
 30
0.0
 11
106.1087972187
 21
186.940482517
 31
0.0
  0
LINE
  5
32D
330
1F
100
AcDbEntity
  8
0
  6
Continuous
 62
     7
370
    25
100
AcDbLine
 10
124.0665423836
 20
191.3453731609
 30
0.0
 11
117.7819331092
 21
180.9682498351
 31
0.0
  0
LINE
  5
32E
330
1F
100
AcDbEntity
  8
0
  6
Continuous
 62
     7
370
    25
100
AcDbLine
 10
124.548123546
 20
192.1405581749
 30
0.0
 11
124.5153687544
 21
192.0864735856
 31
0.0
  0
LINE
  5
32F
330
1F
100
AcDbEntity
  8
0
  6
Continuous
 62
     7
370
    25
100
AcDbLine
 10
124.505311302
 20
192.1664861915
 30
0.0
 11
124.548123546
 21
192.1405581749
 31
0.0
  0
LINE
  5
330
330
1F
100
AcDbEntity
  8
0
  6
Continuous
 62
     7
370
    25
100
AcDbLine
 10
113.3791733784
 20
198.9047148303
 30
0.0
 11
123.5435685192
 21
192.7489383242
 31
0.0
  0
LINE
  5
331
330
1F
100
AcDbEntity
  8
0
  6
Continuous
 62
     7
370
    25
100
AcDbLine
 10
50.4313571034
 20
208.950226169
 30
0.0
 11
38.7492937268
 21
211.4333253935
 31
0.0
  0
LINE
  5
332
330
1F
100
AcDbEntity
  8
0
  6
Continuous
 62
     7
370
    25
100
AcDbLine
 10
54.2332523193
 20
221.4791805807
 30
0.0
 11
51.7276180365
 21
209.6910980905
 31
0.0
  0
LINE
  5
333
330
1F
100
AcDbEntity
  8
0
  6
Continuous
 62
     7
370
    25
100
AcDbLine
 10
41.7095564954
 20
225.1168990101
 30
0.0
 11
53.2997743607
 21
222.6533221517
 31
0.0
  0
LINE
  5
334
330
1F
100
AcDbEntity
  8
0
  6
Continuous
 62
     7
370
    25
100
AcDbLine
 10
38.0584429296
 20
212.7191005215
 30
0.0
 11
40.5088120376
 21
224.2471808063
 31
0.0
  0
LINE
  5
335
330
1F
100
AcDbEntity
  8
0
  6
Continuous
 62
     7
370
    25
100
AcDbLine
 10
55.7252601938
 20
208.7898026179
 30
0.0
 11
59.1285804577
 21
220.0621431681
 31
0.0
  0
LINE
  5
336
330
1F
100
AcDbEntity
  8
0
  6
Continuous
 62
     7
370
    25
100
AcDbLine
 10
67.7274671033
 20
204.0008998217
 30
0.0
 11
56.2989085436
 21
207.4513850835
 31
0.0
  0
LINE
  5
337
330
1F
100
AcDbEntity
  8
0
  6
Continuous
 62
     7
370
    25
100
AcDbLine
 10
72.5782266403
 20
216.1718465762
 30
0.0
 11
69.0891096282
 21
204.6153334863
 31
0.0
  0
LINE
  5
338
330
1F
100
AcDbEntity
  8
0
  6
Continuous
 62
     7
370
    25
100
AcDbLine
 10
72.8518008904
 20
217.0779682087
 30
0.0
 11
72.8482147258
 21
217.0660902583
 31
0.0
  0
LINE
  5
339
330
1F
100
AcDbEntity
  8
0
  6
Continuous
 62
     7
370
    25
100
AcDbLine
 10
72.8421384541
 20
217.0808854702
 30
0.0
 11
72.8518008904
 21
217.0779682087
 31
0.0
  0
LINE
  5
33A
330
1F
100
AcDbEntity
  8
0
  6
Continuous
 62
     7
370
    25
100
AcDbLine
 10
60.3891368394
 20
220.8406683257
 30
0.0
 11
71.7379133133
 21
217.4142706959
 31
0.0
  0
LINE
  5
33B
330
1F
100
AcDbEntity
  8
0
  6
Continuous
 62
     7
370
    25
100
AcDbLine
 10
89.7639021204
 20
196.5714793887
 30
0.0
 11
94.9908767763
 21
207.1011515535
 31
0.0
  0
LINE
  5
33C
330
1F
100
AcDbEntity
  8
0
  6
Continuous
 62
     7
370
    25
100
AcDbLine
 10
100.7774267905
 20
189.860453882
 30
0.0
 11
90.0972048716
 21
195.1621620848
 31
0.0
  0
LINE
  5
33D
330
1F
100
AcDbEntity
  8
0
  6
Continuous
 62
     7
370
    25
100
AcDbLine
 10
107.6181082294
 20
201.0519940552
 30
0.0
 11
102.2325983613
 21
190.2029547762
 31
0.0
  0
LINE
  5
33E
330
1F
100
AcDbEntity
  8
0
  6
Continuous
 62
     7
370
    25
100
AcDbLine
 10
108.0334091248
 20
201.8886122839
 30
0.0
 11
108.0131975056
 21
201.8478962409
 31
0.0
  0
LINE
  5
33F
330
1F
100
AcDbEntity
  8
0
  6
Continuous
 62
     7
370
    25
100
AcDbLine
 10
108.000967922
 20
201.9047162369
 30
0.0
 11
108.0334091248
 21
201.8886122839
 31
0.0
  0
LINE
  5
340
330
1F
100
AcDbEntity
  8
0
  6
Continuous
 62
     7
370
    25
100
AcDbLine
 10
96.3497820377
 20
207.688415138
 30
0.0
 11
106.9833930698
 21
202.4098447803
 31
0.0
  0
LINE
  5
341
330
1F
100
AcDbEntity
  8
0
  6
Continuous
 62
     7
370
    25
100
AcDbLine
 10
73.0009175126
 20
203.3946062633
 30
0.0
 11
77.3318616372
 21
214.333322465
 31
0.0
  0
LINE
  5
342
330
1F
100
AcDbEntity
  8
0
  6
Continuous
 62
     7
370
    25
100
AcDbLine
 10
84.5487085314
 20
197.6227389286
 30
0.0
 11
73.454986233
 21
202.0150543084
 31
0.0
  0
LINE
  5
343
330
1F
100
AcDbEntity
  8
0
  6
Continuous
 62
     7
370
    25
100
AcDbLine
 10
90.4149945344
 20
209.3468617765
 30
0.0
 11
85.9636020523
 21
198.1039277501
 31
0.0
  0
LINE
  5
344
330
1F
100
AcDbEntity
  8
0
  6
Continuous
 62
     7
370
    25
100
AcDbLine
 10
90.7609176012
 20
210.22056371
 30
0.0
 11
90.7504437337
 21
210.1941097404
 31
0.0
  0
LINE
  5
345
330
1F
100
AcDbEntity
  8
0
  6
Continuous
 62
     7
370
    25
100
AcDbLine
 10
90.7396457147
 20
210.2289858457
 30
0.0
 11
90.7609176012
 21
210.22056371
 31
0.0
  0
LINE
  5
346
330
1F
100
AcDbEntity
  8
0
  6
Continuous
 62
     7
370
    25
100
AcDbLine
 10
78.6451346605
 20
215.0175415248
 30
0.0
 11
89.6743715453
 21
210.6507577264
 31
0.0
  0
LINE
  5
347
330
1F
100
AcDbEntity
  8
0
  6
Continuous
 62
     7
370
    25
100
AcDbLine
 10
-102.2775865176
 20
190.293588542
 30
0.0
 11
-107.5626857923
 21
200.9403519922
 31
0.0
  0
LINE
  5
348
330
1F
100
AcDbEntity
  8
0
  6
Continuous
 62
     7
370
    25
100
AcDbLine
 10
-90.2058390644
 20
195.1082356032
 30
0.0
 11
-100.8860426276
 21
189.8065365122
 31
0.0
  0
LINE
  5
349
330
1F
100
AcDbEntity
  8
0
  6
Continuous
 62
     7
370
    25
100
AcDbLine
 10
-95.0288381484
 20
207.1776299543
 30
0.0
 11
-89.7324804266
 21
196.5081865097
 31
0.0
  0
LINE
  5
34A
330
1F
100
AcDbEntity
  8
0
  6
Continuous
 62
     7
370
    25
100
AcDbLine
 10
-107.0872936541
 20
202.3582680823
 30
0.0
 11
-96.453670103
 21
207.6368446545
 31
0.0
  0
LINE
  5
34B
330
1F
100
AcDbEntity
  8
0
  6
Continuous
 62
     7
370
    25
100
AcDbLine
 10
-109.390075124
 20
167.1116489224
 30
0.0
 11
-115.545860362
 21
177.2760584813
 31
0.0
  0
LINE
  5
34C
330
1F
100
AcDbEntity
  8
0
  6
Continuous
 62
     7
370
    25
100
AcDbLine
 10
-97.7585617995
 20
172.918522278
 30
0.0
 11
-107.9364144493
 21
166.7545956147
 31
0.0
  0
LINE
  5
34D
330
1F
100
AcDbEntity
  8
0
  6
Continuous
 62
     7
370
    25
100
AcDbLine
 10
-103.5788782461
 20
184.5418941772
 30
0.0
 11
-97.4068101575
 21
174.3505984364
 31
0.0
  0
LINE
  5
34E
330
1F
100
AcDbEntity
  8
0
  6
Continuous
 62
     7
370
    25
100
AcDbLine
 10
-115.1888070543
 20
178.7297191559
 30
0.0
 11
-105.0109544045
 21
184.8936458192
 31
0.0
  0
LINE
  5
34F
330
1F
100
AcDbEntity
  8
0
  6
Continuous
 62
     7
370
    25
100
AcDbLine
 10
-83.7700300582
 20
195.4363479517
 30
0.0
 11
-72.7174507333
 21
199.8123736759
 31
0.0
  0
LINE
  5
350
330
1F
100
AcDbEntity
  8
0
  6
Continuous
 62
     7
370
    25
100
AcDbLine
 10
-79.9945466838
 20
183.0278263372
 30
0.0
 11
-84.3640601799
 21
194.0639576516
 31
0.0
  0
LINE
  5
351
330
1F
100
AcDbEntity
  8
0
  6
Continuous
 62
     7
370
    25
100
AcDbLine
 10
-67.5549457883
 20
186.7989416306
 30
0.0
 11
-78.6291974387
 21
182.4143352257
 31
0.0
  0
LINE
  5
352
330
1F
100
AcDbEntity
  8
0
  6
Continuous
 62
     7
370
    25
100
AcDbLine
 10
-71.3571207732
 20
199.2428611299
 30
0.0
 11
-66.9670944159
 21
188.1549202423
 31
0.0
  0
LINE
  5
353
330
1F
100
AcDbEntity
  8
0
  6
Continuous
 62
     7
370
    25
100
AcDbLine
 10
-67.1242238061
 20
201.7601133876
 30
0.0
 11
-55.7482379551
 21
205.1947260127
 31
0.0
  0
LINE
  5
354
330
1F
100
AcDbEntity
  8
0
  6
Continuous
 62
     7
370
    25
100
AcDbLine
 10
-64.4005289584
 20
189.0860108157
 30
0.0
 11
-67.8291305721
 21
200.4420872363
 31
0.0
  0
LINE
  5
355
330
1F
100
AcDbEntity
  8
0
  6
Continuous
 62
     7
370
    25
100
AcDbLine
 10
-51.6895349112
 20
191.7959247357
 30
0.0
 11
-63.0961074684
 21
188.3520774395
 31
0.0
  0
LINE
  5
356
330
1F
100
AcDbEntity
  8
0
  6
Continuous
 62
     7
370
    25
100
AcDbLine
 10
-54.4362680105
 20
204.5204602543
 30
0.0
 11
-50.9876881228
 21
193.0982125978
 31
0.0
  0
LINE
  5
357
330
1F
100
AcDbEntity
  8
0
  6
Continuous
 62
     7
370
    25
100
AcDbLine
 10
-50.0084478338
 20
206.6687956768
 30
0.0
 11
-38.3880289281
 21
209.1387919646
 31
0.0
  0
LINE
  5
358
330
1F
100
AcDbEntity
  8
0
  6
Continuous
 62
     7
370
    25
100
AcDbLine
 10
-48.3536142002
 20
193.8176637886
 30
0.0
 11
-50.8183764219
 21
205.4134583497
 31
0.0
  0
LINE
  5
359
330
1F
100
AcDbEntity
  8
0
  6
Continuous
 62
     7
370
    25
100
AcDbLine
 10
-35.4623346563
 20
195.4478705871
 30
0.0
 11
-47.1204022471
 21
192.9698718243
 31
0.0
  0
LINE
  5
35A
330
1F
100
AcDbEntity
  8
0
  6
Continuous
 62
     7
370
    25
100
AcDbLine
 10
-37.1325870694
 20
208.3632969004
 30
0.0
 11
-34.6505412407
 21
196.6861893616
 31
0.0
  0
LINE
  5
35B
330
1F
100
AcDbEntity
  8
0
  6
Continuous
 62
     7
370
    25
100
AcDbLine
 10
20.7229271628
 20
211.6213519477
 30
0.0
 11
32.5071322887
 21
210.1326606387
 31
0.0
  0
LINE
  5
35C
330
1F
100
AcDbEntity
  8
0
  6
Continuous
 62
     7
370
    25
100
AcDbLine
 10
18.0783253427
 20
198.9558881361
 30
0.0
 11
19.5603383734
 21
210.6872292459
 31
0.0
  0
LINE
  5
35D
330
1F
100
AcDbEntity
  8
0
  6
Continuous
 62
     7
370
    25
100
AcDbLine
 10
30.767967754
 20
196.2410684599
 30
0.0
 11
18.9410779963
 21
197.7351520919
 31
0.0
  0
LINE
  5
35E
330
1F
100
AcDbEntity
  8
0
  6
Continuous
 62
     7
370
    25
100
AcDbLine
 10
33.4584494653
 20
208.9996672219
 30
0.0
 11
31.9586684541
 21
197.1276780644
 31
0.0
  0
LINE
  5
35F
330
1F
100
AcDbEntity
  8
0
  6
Continuous
 62
     7
370
    25
100
AcDbLine
 10
-32.5427076233
 20
210.1281664288
 30
0.0
 11
-20.7584459761
 21
211.6168648781
 31
0.0
  0
LINE
  5
360
330
1F
100
AcDbEntity
  8
0
  6
Continuous
 62
     7
370
    25
100
AcDbLine
 10
-31.9664649317
 20
197.1894138057
 30
0.0
 11
-33.4513145161
 21
208.9432085494
 31
0.0
  0
LINE
  5
361
330
1F
100
AcDbEntity
  8
0
  6
Continuous
 62
     7
370
    25
100
AcDbLine
 10
-18.9871227025
 20
197.7293352928
 30
0.0
 11
-30.8139461079
 21
196.235260043
 31
0.0
  0
LINE
  5
362
330
1F
100
AcDbEntity
  8
0
  6
Continuous
 62
     7
370
    25
100
AcDbLine
 10
-19.5675417231
 20
210.7442698963
 30
0.0
 11
-18.0704623593
 21
198.8936664794
 31
0.0
  0
LINE
  5
363
330
1F
100
AcDbEntity
  8
0
  6
Continuous
 62
     7
370
    25
100
AcDbLine
 10
1.3665877114
 20
199.7676845542
 30
0.0
 11
1.8620598807
 21
211.5892923844
 31
0.0
  0
LINE
  5
364
330
1F
100
AcDbEntity
  8
0
  6
Continuous
 62
     7
370
    25
100
AcDbLine
 10
14.2444604434
 20
198.1271934225
 30
0.0
 11
2.3329021017
 21
198.6264356352
 31
0.0
  0
LINE
  5
365
330
1F
100
AcDbEntity
  8
0
  6
Continuous
 62
     7
370
    25
100
AcDbLine
 10
15.8523491711
 20
211.0636764637
 30
0.0
 11
15.3515558454
 21
199.1151096861
 31
0.0
  0
LINE
  5
366
330
1F
100
AcDbEntity
  8
0
  6
Continuous
 62
     7
370
    25
100
AcDbLine
 10
2.9473357833
 20
212.6130023585
 30
0.0
 11
14.8137624277
 21
212.1156517243
 31
0.0
  0
LINE
  5
367
330
1F
100
AcDbEntity
  8
0
  6
Continuous
 62
     7
370
    25
100
AcDbLine
 10
-14.8494454942
 20
212.1141561607
 30
0.0
 11
-2.9829999287
 21
212.6115075879
 31
0.0
  0
LINE
  5
368
330
1F
100
AcDbEntity
  8
0
  6
Continuous
 62
     7
370
    25
100
AcDbLine
 10
-15.3541660298
 20
199.177447457
 30
0.0
 11
-15.8499552717
 21
211.0066204089
 31
0.0
  0
LINE
  5
369
330
1F
100
AcDbEntity
  8
0
  6
Continuous
 62
     7
370
    25
100
AcDbLine
 10
-2.3793951219
 20
198.6244870003
 30
0.0
 11
-14.2909311195
 21
198.1252457241
 31
0.0
  0
LINE
  5
36A
330
1F
100
AcDbEntity
  8
0
  6
Continuous
 62
     7
370
    25
100
AcDbLine
 10
-1.8644569133
 20
211.646544505
 30
0.0
 11
-1.3639655822
 21
199.7051831028
 31
0.0
  0
LINE
  5
36B
330
1F
100
AcDbEntity
  8
0
  6
Continuous
 62
     7
370
    25
100
AcDbLine
 10
47.0753754008
 20
192.9794425759
 30
0.0
 11
35.4171994609
 21
195.4574643691
 31
0.0
  0
LINE
  5
36C
330
1F
100
AcDbEntity
  8
0
  6
Continuous
 62
     7
370
    25
100
AcDbLine
 10
50.8301694309
 20
205.4689278782
 30
0.0
 11
48.3407137639
 21
193.7569597909
 31
0.0
  0
LINE
  5
36D
330
1F
100
AcDbEntity
  8
0
  6
Continuous
 62
     7
370
    25
100
AcDbLine
 10
38.3527845457
 20
209.1462833893
 30
0.0
 11
49.9731100587
 21
206.6763069528
 31
0.0
  0
LINE
  5
36E
330
1F
100
AcDbEntity
  8
0
  6
Continuous
 62
     7
370
    25
100
AcDbLine
 10
34.6636153078
 20
196.7476857945
 30
0.0
 11
37.1205975766
 21
208.3068785551
 31
0.0
  0
LINE
  5
36F
330
1F
100
AcDbEntity
  8
0
  6
Continuous
 62
     7
370
    25
100
AcDbLine
 10
51.0059047019
 20
193.1585400307
 30
0.0
 11
54.4195488338
 21
204.4650748814
 31
0.0
  0
LINE
  5
370
330
1F
100
AcDbEntity
  8
0
  6
Continuous
 62
     7
370
    25
100
AcDbLine
 10
63.0524686396
 20
188.3652527787
 30
0.0
 11
51.6457489903
 21
191.8091444847
 31
0.0
  0
LINE
  5
371
330
1F
100
AcDbEntity
  8
0
  6
Continuous
 62
     7
370
    25
100
AcDbLine
 10
67.8454672455
 20
200.496188121
 30
0.0
 11
64.3826417229
 21
189.0267566453
 31
0.0
  0
LINE
  5
372
330
1F
100
AcDbEntity
  8
0
  6
Continuous
 62
     7
370
    25
100
AcDbLine
 10
55.7134045976
 20
205.2052428234
 30
0.0
 11
67.0892614134
 21
201.7706691562
 31
0.0
  0
LINE
  5
373
330
1F
100
AcDbEntity
  8
0
  6
Continuous
 62
     7
370
    25
100
AcDbLine
 10
97.4396557709
 20
174.4048280871
 30
0.0
 11
103.5486739996
 21
184.4920161351
 31
0.0
  0
LINE
  5
374
330
1F
100
AcDbEntity
  8
0
  6
Continuous
 62
     7
370
    25
100
AcDbLine
 10
107.8992194859
 20
166.7771216853
 30
0.0
 11
97.7211332725
 21
172.9411897997
 31
0.0
  0
LINE
  5
375
330
1F
100
AcDbEntity
  8
0
  6
Continuous
 62
     7
370
    25
100
AcDbLine
 10
115.5748572811
 20
177.3239331825
 30
0.0
 11
109.3582515346
 21
167.0590970274
 31
0.0
  0
LINE
  5
376
330
1F
100
AcDbEntity
  8
0
  6
Continuous
 62
     7
370
    25
100
AcDbLine
 10
104.9782785084
 20
184.9134350453
 30
0.0
 11
115.1559078673
 21
178.7496436118
 31
0.0
  0
LINE
  5
377
330
1F
100
AcDbEntity
  8
0
  6
Continuous
 62
     7
370
    25
100
AcDbLine
 10
78.5873537105
 20
182.4309023297
 30
0.0
 11
67.5129205927
 21
186.8155805826
 31
0.0
  0
LINE
  5
378
330
1F
100
AcDbEntity
  8
0
  6
Continuous
 62
     7
370
    25
100
AcDbLine
 10
84.3847966123
 20
194.1163250016
 30
0.0
 11
79.9718229172
 21
182.9704257546
 31
0.0
  0
LINE
  5
379
330
1F
100
AcDbEntity
  8
0
  6
Continuous
 62
     7
370
    25
100
AcDbLine
 10
72.6831734713
 20
199.825945004
 30
0.0
 11
83.7355898619
 21
195.44998379
 31
0.0
  0
LINE
  5
37A
330
1F
100
AcDbEntity
  8
0
  6
Continuous
 62
     7
370
    25
100
AcDbLine
 10
66.9903460534
 20
188.213640275
 30
0.0
 11
71.33576496
 21
199.188915603
 31
0.0
  0
LINE
  5
37B
330
1F
100
AcDbEntity
  8
0
  6
Continuous
 62
     7
370
    25
100
AcDbLine
 10
82.5046066249
 20
181.9477234574
 30
0.0
 11
87.7505307545
 21
192.5155690896
 31
0.0
  0
LINE
  5
37C
330
1F
100
AcDbEntity
  8
0
  6
Continuous
 62
     7
370
    25
100
AcDbLine
 10
93.571245823
 20
175.2180080747
 30
0.0
 11
82.9073946354
 21
180.511589776
 31
0.0
  0
LINE
  5
37D
330
1F
100
AcDbEntity
  8
0
  6
Continuous
 62
     7
370
    25
100
AcDbLine
 10
100.331947126
 20
186.3741177077
 30
0.0
 11
94.998839296
 21
175.63064165
 31
0.0
  0
LINE
  5
37E
330
1F
100
AcDbEntity
  8
0
  6
Continuous
 62
     7
370
    25
100
AcDbLine
 10
89.1432280532
 20
193.046154498
 30
0.0
 11
99.7953568336
 21
187.7583918502
 31
0.0
  0
LINE
  5
37F
330
1F
100
AcDbEntity
  8
0
  6
Continuous
 62
     7
370
    25
100
AcDbLine
 10
-95.0262181595
 20
175.6858017254
 30
0.0
 11
-100.3069822586
 21
186.323832021
 31
0.0
  0
LINE
  5
380
330
1F
100
AcDbEntity
  8
0
  6
Continuous
 62
     7
370
    25
100
AcDbLine
 10
-82.9472859101
 20
180.4917875752
 30
0.0
 11
-93.6109265595
 21
175.198310386
 31
0.0
  0
LINE
  5
381
330
1F
100
AcDbEntity
  8
0
  6
Continuous
 62
     7
370
    25
100
AcDbLine
 10
-87.7763936441
 20
192.5676752554
 30
0.0
 11
-82.4764659727
 21
181.8910401939
 31
0.0
  0
LINE
  5
382
330
1F
100
AcDbEntity
  8
0
  6
Continuous
 62
     7
370
    25
100
AcDbLine
 10
-99.8291145226
 20
187.7416343878
 30
0.0
 11
-89.1767911964
 21
193.029493609
 31
0.0
  0
LINE
  5
383
330
1F
100
AcDbEntity
  8
0
  6
Continuous
 62
     7
370
    25
100
AcDbLine
 10
-88.9249242923
 20
175.0257143866
 30
0.0
 11
-78.160524527
 21
180.0910564248
 31
0.0
  0
LINE
  5
384
330
1F
100
AcDbEntity
  8
0
  6
Continuous
 62
     7
370
    25
100
AcDbLine
 10
-84.3743807745
 20
162.8642139269
 30
0.0
 11
-89.4330311727
 21
173.6143932331
 31
0.0
  0
LINE
  5
385
330
1F
100
AcDbEntity
  8
0
  6
Continuous
 62
     7
370
    25
100
AcDbLine
 10
-72.1996025488
 20
167.4234524093
 30
0.0
 11
-82.9660056387
 21
162.3571676781
 31
0.0
  0
LINE
  5
386
330
1F
100
AcDbEntity
  8
0
  6
Continuous
 62
     7
370
    25
100
AcDbLine
 10
-76.7730614903
 20
179.5915389949
 30
0.0
 11
-71.700085119
 21
168.8109154461
 31
0.0
  0
LINE
  5
387
330
1F
100
AcDbEntity
  8
0
  6
Continuous
 62
     7
370
    25
100
AcDbLine
 10
12.1996199708
 20
183.0391454588
 30
0.0
 11
13.4389866765
 21
194.8309319897
 31
0.0
  0
LINE
  5
388
330
1F
100
AcDbEntity
  8
0
  6
Continuous
 62
     7
370
    25
100
AcDbLine
 10
24.9635797919
 20
180.6103632061
 30
0.0
 11
13.1155159019
 21
181.8556449007
 31
0.0
  0
LINE
  5
389
330
1F
100
AcDbEntity
  8
0
  6
Continuous
 62
     7
370
    25
100
AcDbLine
 10
27.3659980685
 20
193.4025155658
 30
0.0
 11
26.1186387836
 21
181.5346847239
 31
0.0
  0
LINE
  5
38A
330
1F
100
AcDbEntity
  8
0
  6
Continuous
 62
     7
370
    25
100
AcDbLine
 10
14.6030495507
 20
195.7764428219
 30
0.0
 11
26.4193891746
 21
194.5344954821
 31
0.0
  0
LINE
  5
38B
330
1F
100
AcDbEntity
  8
0
  6
Continuous
 62
     7
370
    25
100
AcDbLine
 10
41.2264091107
 20
177.6052449686
 30
0.0
 11
29.5420677534
 21
179.9188068583
 31
0.0
  0
LINE
  5
38C
330
1F
100
AcDbEntity
  8
0
  6
Continuous
 62
     7
370
    25
100
AcDbLine
 10
44.7819248388
 20
190.1262312364
 30
0.0
 11
42.4634307753
 21
178.4169805814
 31
0.0
  0
LINE
  5
38D
330
1F
100
AcDbEntity
  8
0
  6
Continuous
 62
     7
370
    25
100
AcDbLine
 10
32.2835304144
 20
193.6478154121
 30
0.0
 11
43.9407877387
 21
191.3396163053
 31
0.0
  0
LINE
  5
38E
330
1F
100
AcDbEntity
  8
0
  6
Continuous
 62
     7
370
    25
100
AcDbLine
 10
28.738915084
 20
181.1811338563
 30
0.0
 11
31.0410951906
 21
192.8079930084
 31
0.0
  0
LINE
  5
38F
330
1F
100
AcDbEntity
  8
0
  6
Continuous
 62
     7
370
    25
100
AcDbLine
 10
45.0415675481
 20
177.830833764
 30
0.0
 11
48.3869610794
 21
189.1975058809
 31
0.0
  0
LINE
  5
390
330
1F
100
AcDbEntity
  8
0
  6
Continuous
 62
     7
370
    25
100
AcDbLine
 10
57.1496464833
 20
173.138988699
 30
0.0
 11
45.7263541429
 21
176.5010464683
 31
0.0
  0
LINE
  5
391
330
1F
100
AcDbEntity
  8
0
  6
Continuous
 62
     7
370
    25
100
AcDbLine
 10
61.8289774851
 20
185.2841104893
 30
0.0
 11
58.4578883564
 21
173.8301322221
 31
0.0
  0
LINE
  5
392
330
1F
100
AcDbEntity
  8
0
  6
Continuous
 62
     7
370
    25
100
AcDbLine
 10
49.6977894315
 20
189.9259808034
 30
0.0
 11
61.1012193267
 21
186.5697688696
 31
0.0
  0
LINE
  5
393
330
1F
100
AcDbEntity
  8
0
  6
Continuous
 62
     7
370
    25
100
AcDbLine
 10
-4.439927999
 20
183.3895945525
 30
0.0
 11
-4.2743213834
 21
195.2495239468
 31
0.0
  0
LINE
  5
394
330
1F
100
AcDbEntity
  8
0
  6
Continuous
 62
     7
370
    25
100
AcDbLine
 10
8.4948543186
 20
182.1295122137
 30
0.0
 11
-3.4181348741
 21
182.2958597321
 31
0.0
  0
LINE
  5
395
330
1F
100
AcDbEntity
  8
0
  6
Continuous
 62
     7
370
    25
100
AcDbLine
 10
9.7247879418
 20
195.0859970568
 30
0.0
 11
9.5582229989
 21
183.157436993
 31
0.0
  0
LINE
  5
396
330
1F
100
AcDbEntity
  8
0
  6
Continuous
 62
     7
370
    25
100
AcDbLine
 10
-3.1982738892
 20
196.2941824338
 30
0.0
 11
8.6811824455
 21
196.1283031529
 31
0.0
  0
LINE
  5
397
330
1F
100
AcDbEntity
  8
0
  6
Continuous
 62
     7
370
    25
100
AcDbLine
 10
-20.9740411309
 20
195.1965783053
 30
0.0
 11
-9.1279191403
 21
196.1080877156
 31
0.0
  0
LINE
  5
398
330
1F
100
AcDbEntity
  8
0
  6
Continuous
 62
     7
370
    25
100
AcDbLine
 10
-21.0425147592
 20
182.2296744794
 30
0.0
 11
-21.9528233879
 21
194.0601909207
 31
0.0
  0
LINE
  5
399
330
1F
100
AcDbEntity
  8
0
  6
Continuous
 62
     7
370
    25
100
AcDbLine
 10
-8.0443516505
 20
182.1500522312
 30
0.0
 11
-19.9228865907
 21
181.2360487804
 31
0.0
  0
LINE
  5
39A
330
1F
100
AcDbEntity
  8
0
  6
Continuous
 62
     7
370
    25
100
AcDbLine
 10
-7.9962585301
 20
195.1628709077
 30
0.0
 11
-7.0812874221
 21
183.2717601406
 31
0.0
  0
LINE
  5
39B
330
1F
100
AcDbEntity
  8
0
  6
Continuous
 62
     7
370
    25
100
AcDbLine
 10
-37.471264918
 20
179.5690486256
 30
0.0
 11
-39.4507785156
 21
191.2726357845
 31
0.0
  0
LINE
  5
39C
330
1F
100
AcDbEntity
  8
0
  6
Continuous
 62
     7
370
    25
100
AcDbLine
 10
-24.5180111046
 20
180.6716475853
 30
0.0
 11
-36.2630221717
 21
178.685127658
 31
0.0
  0
LINE
  5
39D
330
1F
100
AcDbEntity
  8
0
  6
Continuous
 62
     7
370
    25
100
AcDbLine
 10
-25.6510665622
 20
193.6325902065
 30
0.0
 11
-23.6626968533
 21
181.8766425736
 31
0.0
  0
LINE
  5
39E
330
1F
100
AcDbEntity
  8
0
  6
Continuous
 62
     7
370
    25
100
AcDbLine
 10
-38.5780344365
 20
192.4924410084
 30
0.0
 11
-26.8614411051
 21
194.4741544354
 31
0.0
  0
LINE
  5
39F
330
1F
100
AcDbEntity
  8
0
  6
Continuous
 62
     7
370
    25
100
AcDbLine
 10
-53.5907643997
 20
175.4297731203
 30
0.0
 11
-56.6239068001
 21
186.9097563362
 31
0.0
  0
LINE
  5
3A0
330
1F
100
AcDbEntity
  8
0
  6
Continuous
 62
     7
370
    25
100
AcDbLine
 10
-40.7905946789
 20
177.7062722372
 30
0.0
 11
-52.3042193165
 21
174.6642413898
 31
0.0
  0
LINE
  5
3A1
330
1F
100
AcDbEntity
  8
0
  6
Continuous
 62
     7
370
    25
100
AcDbLine
 10
-43.0941302398
 20
190.5078725326
 30
0.0
 11
-40.0492706406
 21
178.9835414993
 31
0.0
  0
LINE
  5
3A2
330
1F
100
AcDbEntity
  8
0
  6
Continuous
 62
     7
370
    25
100
AcDbLine
 10
-55.8654081366
 20
188.2037745838
 30
0.0
 11
-44.3735498545
 21
191.240054512
 31
0.0
  0
LINE
  5
3A3
330
1F
100
AcDbEntity
  8
0
  6
Continuous
 62
     7
370
    25
100
AcDbLine
 10
72.6024070588
 20
167.248407403
 30
0.0
 11
61.5351493174
 21
171.6302447234
 31
0.0
  0
LINE
  5
3A4
330
1F
100
AcDbEntity
  8
0
  6
Continuous
 62
     7
370
    25
100
AcDbLine
 10
78.3665814214
 20
178.9160467355
 30
0.0
 11
73.9702106311
 21
167.8120816392
 31
0.0
  0
LINE
  5
3A5
330
1F
100
AcDbEntity
  8
0
  6
Continuous
 62
     7
370
    25
100
AcDbLine
 10
66.702656583
 20
184.6416962098
 30
0.0
 11
77.7594597996
 21
180.2639981287
 31
0.0
  0
LINE
  5
3A6
330
1F
100
AcDbEntity
  8
0
  6
Continuous
 62
     7
370
    25
100
AcDbLine
 10
60.973113855
 20
173.0158447646
 30
0.0
 11
65.3336787929
 21
184.0293746009
 31
0.0
  0
LINE
  5
3A7
330
1F
100
AcDbEntity
  8
0
  6
Continuous
 62
     7
370
    25
100
AcDbLine
 10
-69.2681853354
 20
169.8461042819
 30
0.0
 11
-73.3305884017
 21
181.0074649753
 31
0.0
  0
LINE
  5
3A8
330
1F
100
AcDbEntity
  8
0
  6
Continuous
 62
     7
370
    25
100
AcDbLine
 10
-56.7281933936
 20
173.2781305404
 30
0.0
 11
-67.9146378681
 21
169.2065977244
 31
0.0
  0
LINE
  5
3A9
330
1F
100
AcDbEntity
  8
0
  6
Continuous
 62
     7
370
    25
100
AcDbLine
 10
-60.1817190936
 20
185.8145867536
 30
0.0
 11
-56.105873574
 21
174.6162932233
 31
0.0
  0
LINE
  5
3AA
330
1F
100
AcDbEntity
  8
0
  6
Continuous
 62
     7
370
    25
100
AcDbLine
 10
-72.6938896123
 20
182.3656108952
 30
0.0
 11
-61.5202406977
 21
186.4324865083
 31
0.0
  0
LINE
  5
3AB
330
1F
100
AcDbEntity
  8
0
  6
Continuous
 62
     7
370
    25
100
AcDbLine
 10
-70.5975885053
 20
165.5873626504
 30
0.0
 11
-59.5060698779
 21
169.8894792004
 31
0.0
  0
LINE
  5
3AC
330
1F
100
AcDbEntity
  8
0
  6
Continuous
 62
     7
370
    25
100
AcDbLine
 10
-66.9072739221
 20
153.1401213287
 30
0.0
 11
-71.2029064498
 21
164.2149231486
 31
0.0
  0
LINE
  5
3AD
330
1F
100
AcDbEntity
  8
0
  6
Continuous
 62
     7
370
    25
100
AcDbLine
 10
-54.443315793
 20
156.8369199342
 30
0.0
 11
-65.5348344203
 21
152.5348033842
 31
0.0
  0
LINE
  5
3AE
330
1F
100
AcDbEntity
  8
0
  6
Continuous
 62
     7
370
    25
100
AcDbLine
 10
-58.1568312059
 20
169.294394041
 30
0.0
 11
-53.8482306336
 21
158.1861586062
 31
0.0
  0
LINE
  5
3AF
330
1F
100
AcDbEntity
  8
0
  6
Continuous
 62
     7
370
    25
100
AcDbLine
 10
-5.9234179899
 20
165.911927843
 30
0.0
 11
-17.800920211
 21
165.0605378974
 31
0.0
  0
LINE
  5
3B0
330
1F
100
AcDbEntity
  8
0
  6
Continuous
 62
     7
370
    25
100
AcDbLine
 10
-5.8071875592
 20
178.9202369724
 30
0.0
 11
-4.9547006401
 21
167.0274311817
 31
0.0
  0
LINE
  5
3B1
330
1F
100
AcDbEntity
  8
0
  6
Continuous
 62
     7
370
    25
100
AcDbLine
 10
-18.7855418069
 20
179.0259083241
 30
0.0
 11
-6.9303821399
 21
179.8756967355
 31
0.0
  0
LINE
  5
3B2
330
1F
100
AcDbEntity
  8
0
  6
Continuous
 62
     7
370
    25
100
AcDbLine
 10
-18.921164324
 20
166.0580613107
 30
0.0
 11
-19.7695702893
 21
177.8939348598
 31
0.0
  0
LINE
  5
3B3
330
1F
100
AcDbEntity
  8
0
  6
Continuous
 62
     7
370
    25
100
AcDbLine
 10
-18.8442999151
 20
164.9857475103
 30
0.0
 11
-18.8443203015
 21
164.9860319154
 31
0.0
  0
LINE
  5
3B4
330
1F
100
AcDbEntity
  8
0
  6
Continuous
 62
     7
370
    25
100
AcDbLine
 10
-18.8440076231
 20
164.985768462
 30
0.0
 11
-18.8442999151
 21
164.9857475103
 31
0.0
  0
LINE
  5
3B5
330
1F
100
AcDbEntity
  8
0
  6
Continuous
 62
     7
370
    25
100
AcDbLine
 10
-35.1374684904
 20
162.2983775355
 30
0.0
 11
-35.1376946653
 21
162.2996869484
 31
0.0
  0
LINE
  5
3B6
330
1F
100
AcDbEntity
  8
0
  6
Continuous
 62
     7
370
    25
100
AcDbLine
 10
-35.1361330318
 20
162.2986082093
 30
0.0
 11
-35.1374684904
 21
162.2983775355
 31
0.0
  0
LINE
  5
3B7
330
1F
100
AcDbEntity
  8
0
  6
Continuous
 62
     7
370
    25
100
AcDbLine
 10
-22.3705395886
 20
164.5036090722
 30
0.0
 11
-34.1026291304
 21
162.4771253307
 31
0.0
  0
LINE
  5
3B8
330
1F
100
AcDbEntity
  8
0
  6
Continuous
 62
     7
370
    25
100
AcDbLine
 10
-23.5483924833
 20
177.4565262825
 30
0.0
 11
-21.519477609
 21
165.7103619833
 31
0.0
  0
LINE
  5
3B9
330
1F
100
AcDbEntity
  8
0
  6
Continuous
 62
     7
370
    25
100
AcDbLine
 10
-36.4729028742
 20
176.2750508944
 30
0.0
 11
-24.75873071
 21
178.2984397675
 31
0.0
  0
LINE
  5
3BA
330
1F
100
AcDbEntity
  8
0
  6
Continuous
 62
     7
370
    25
100
AcDbLine
 10
-35.3197717734
 20
163.3538009745
 30
0.0
 11
-37.3402872891
 21
175.051338174
 31
0.0
  0
LINE
  5
3BB
330
1F
100
AcDbEntity
  8
0
  6
Continuous
 62
     7
370
    25
100
AcDbLine
 10
10.5814917385
 20
165.679977758
 30
0.0
 11
-1.3222995309
 21
166.0124807552
 31
0.0
  0
LINE
  5
3BC
330
1F
100
AcDbEntity
  8
0
  6
Continuous
 62
     7
370
    25
100
AcDbLine
 10
11.9918801492
 20
178.6137413863
 30
0.0
 11
11.6588680739
 21
166.6917248405
 31
0.0
  0
LINE
  5
3BD
330
1F
100
AcDbEntity
  8
0
  6
Continuous
 62
     7
370
    25
100
AcDbLine
 10
-0.9134565003
 20
180.0065492047
 30
0.0
 11
10.967056785
 21
179.6746964205
 31
0.0
  0
LINE
  5
3BE
330
1F
100
AcDbEntity
  8
0
  6
Continuous
 62
     7
370
    25
100
AcDbLine
 10
-2.3346766725
 20
167.1193167311
 30
0.0
 11
-2.0034806869
 21
178.9763162638
 31
0.0
  0
LINE
  5
3BF
330
1F
100
AcDbEntity
  8
0
  6
Continuous
 62
     7
370
    25
100
AcDbLine
 10
26.9811245265
 20
163.810260035
 30
0.0
 11
15.1704452098
 21
165.3232429495
 31
0.0
  0
LINE
  5
3C0
330
1F
100
AcDbEntity
  8
0
  6
Continuous
 62
     7
370
    25
100
AcDbLine
 10
29.6725081273
 20
176.5399621425
 30
0.0
 11
28.156627838
 21
164.7066652775
 31
0.0
  0
LINE
  5
3C1
330
1F
100
AcDbEntity
  8
0
  6
Continuous
 62
     7
370
    25
100
AcDbLine
 10
16.966750649
 20
179.2075642051
 30
0.0
 11
28.7567396935
 21
177.6972317755
 31
0.0
  0
LINE
  5
3C2
330
1F
100
AcDbEntity
  8
0
  6
Continuous
 62
     7
370
    25
100
AcDbLine
 10
14.2753723381
 20
166.5269026834
 30
0.0
 11
15.7819911423
 21
178.2879023466
 31
0.0
  0
LINE
  5
3C3
330
1F
100
AcDbEntity
  8
0
  6
Continuous
 62
     7
370
    25
100
AcDbLine
 10
34.6784288239
 20
176.6371091892
 30
0.0
 11
46.2628583899
 21
173.9626328901
 31
0.0
  0
LINE
  5
3C4
330
1F
100
AcDbEntity
  8
0
  6
Continuous
 62
     7
370
    25
100
AcDbLine
 10
30.744405051
 20
164.2865854447
 30
0.0
 11
33.4107197337
 21
175.8356631661
 31
0.0
  0
LINE
  5
3C5
330
1F
100
AcDbEntity
  8
0
  6
Continuous
 62
     7
370
    25
100
AcDbLine
 10
43.113492624
 20
160.3214350836
 30
0.0
 11
31.5143249664
 21
162.9993139393
 31
0.0
  0
LINE
  5
3C6
330
1F
100
AcDbEntity
  8
0
  6
Continuous
 62
     7
370
    25
100
AcDbLine
 10
47.059551756
 20
172.7193648217
 30
0.0
 11
44.3751711518
 21
161.0920349969
 31
0.0
  0
LINE
  5
3C7
330
1F
100
AcDbEntity
  8
0
  6
Continuous
 62
     7
370
    25
100
AcDbLine
 10
-51.3680991284
 20
159.0334951253
 30
0.0
 11
-54.5415481381
 21
170.4765825753
 31
0.0
  0
LINE
  5
3C8
330
1F
100
AcDbEntity
  8
0
  6
Continuous
 62
     7
370
    25
100
AcDbLine
 10
-51.0831658809
 20
158.0060590272
 30
0.0
 11
-51.0835026925
 21
158.0072735304
 31
0.0
  0
LINE
  5
3C9
330
1F
100
AcDbEntity
  8
0
  6
Continuous
 62
     7
370
    25
100
AcDbLine
 10
-51.0819385567
 20
158.0063993944
 30
0.0
 11
-51.0831658809
 21
158.0060590272
 31
0.0
  0
LINE
  5
3CA
330
1F
100
AcDbEntity
  8
0
  6
Continuous
 62
     7
370
    25
100
AcDbLine
 10
-38.5973152127
 20
161.468691871
 30
0.0
 11
-50.0664627304
 21
158.2880157649
 31
0.0
  0
LINE
  5
3CB
330
1F
100
AcDbEntity
  8
0
  6
Continuous
 62
     7
370
    25
100
AcDbLine
 10
-41.0560498388
 20
174.2372367032
 30
0.0
 11
-37.8713309549
 21
162.7535113999
 31
0.0
  0
LINE
  5
3CC
330
1F
100
AcDbEntity
  8
0
  6
Continuous
 62
     7
370
    25
100
AcDbLine
 10
-53.8006969909
 20
171.7808409419
 30
0.0
 11
-42.3418588177
 21
174.9586580137
 31
0.0
  0
LINE
  5
3CD
330
1F
100
AcDbEntity
  8
0
  6
Continuous
 62
     7
370
    25
100
AcDbLine
 10
-81.7202921022
 20
126.7549111033
 30
0.0
 11
-87.6865575062
 21
137.026589218
 31
0.0
  0
LINE
  5
3CE
330
1F
100
AcDbEntity
  8
0
  6
Continuous
 62
     7
370
    25
100
AcDbLine
 10
-69.9832092984
 20
132.3457481988
 30
0.0
 11
-80.2703919492
 21
126.3704770436
 31
0.0
  0
LINE
  5
3CF
330
1F
100
AcDbEntity
  8
0
  6
Continuous
 62
     7
370
    25
100
AcDbLine
 10
-75.58955093
 20
144.0738252515
 30
0.0
 11
-69.6052740236
 21
133.7711380645
 31
0.0
  0
LINE
  5
3D0
330
1F
100
AcDbEntity
  8
0
  6
Continuous
 62
     7
370
    25
100
AcDbLine
 10
-87.3021234465
 20
138.476489371
 30
0.0
 11
-77.0149407957
 21
144.4517605262
 31
0.0
  0
LINE
  5
3D1
330
1F
100
AcDbEntity
  8
0
  6
Continuous
 62
     7
370
    25
100
AcDbLine
 10
-40.149934508
 20
157.6926811026
 30
0.0
 11
-36.7074405656
 21
146.2545260205
 31
0.0
  0
LINE
  5
3D2
330
1F
100
AcDbEntity
  8
0
  6
Continuous
 62
     7
370
    25
100
AcDbLine
 10
-52.8454879688
 20
154.9351423492
 30
0.0
 11
-41.4683111503
 21
158.3592839174
 31
0.0
  0
LINE
  5
3D3
330
1F
100
AcDbEntity
  8
0
  6
Continuous
 62
     7
370
    25
100
AcDbLine
 10
-50.1289271554
 20
142.2711407752
 30
0.0
 11
-53.5404995299
 21
153.6065547357
 31
0.0
  0
LINE
  5
3D4
330
1F
100
AcDbEntity
  8
0
  6
Continuous
 62
     7
370
    25
100
AcDbLine
 10
-37.4213862376
 20
144.9569205969
 30
0.0
 11
-48.8284740191
 21
141.5237768507
 31
0.0
  0
LINE
  5
3D5
330
1F
100
AcDbEntity
  8
0
  6
Continuous
 62
     7
370
    25
100
AcDbLine
 10
-15.7945955266
 20
150.039546771
 30
0.0
 11
-16.4839575908
 21
161.8164178822
 31
0.0
  0
LINE
  5
3D6
330
1F
100
AcDbEntity
  8
0
  6
Continuous
 62
     7
370
    25
100
AcDbLine
 10
-2.8291411392
 20
149.6817556924
 30
0.0
 11
-14.7284253262
 21
148.9852281485
 31
0.0
  0
LINE
  5
3D7
330
1F
100
AcDbEntity
  8
0
  6
Continuous
 62
     7
370
    25
100
AcDbLine
 10
-2.5132045988
 20
162.7259401728
 30
0.0
 11
-1.813139067
 21
150.7662139763
 31
0.0
  0
LINE
  5
3D8
330
1F
100
AcDbEntity
  8
0
  6
Continuous
 62
     7
370
    25
100
AcDbLine
 10
-15.5199090894
 20
162.9628905549
 30
0.0
 11
-3.6654855722
 21
163.6567921684
 31
0.0
  0
LINE
  5
3D9
330
1F
100
AcDbEntity
  8
0
  6
Continuous
 62
     7
370
    25
100
AcDbLine
 10
-34.4167994299
 20
160.0410343358
 30
0.0
 11
-22.7221353028
 21
162.1136435954
 31
0.0
  0
LINE
  5
3DA
330
1F
100
AcDbEntity
  8
0
  6
Continuous
 62
     7
370
    25
100
AcDbLine
 10
-33.1899630523
 20
147.1608643037
 30
0.0
 11
-35.2521437863
 21
158.7966856438
 31
0.0
  0
LINE
  5
3DB
330
1F
100
AcDbEntity
  8
0
  6
Continuous
 62
     7
370
    25
100
AcDbLine
 10
-20.2628636779
 20
148.3312985557
 30
0.0
 11
-31.9972540326
 21
146.2516487392
 31
0.0
  0
LINE
  5
3DC
330
1F
100
AcDbEntity
  8
0
  6
Continuous
 62
     7
370
    25
100
AcDbLine
 10
-21.4795774882
 20
161.3111336597
 30
0.0
 11
-19.392110768
 21
149.5326365525
 31
0.0
  0
LINE
  5
3DD
330
1F
100
AcDbEntity
  8
0
  6
Continuous
 62
     7
370
    25
100
AcDbLine
 10
16.4898678384
 20
161.917343453
 30
0.0
 11
15.7886903503
 21
149.9386209033
 31
0.0
  0
LINE
  5
3DE
330
1F
100
AcDbEntity
  8
0
  6
Continuous
 62
     7
370
    25
100
AcDbLine
 10
3.5874482757
 20
163.6613601008
 30
0.0
 11
15.4418717928
 21
162.9674584874
 31
0.0
  0
LINE
  5
3DF
330
1F
100
AcDbEntity
  8
0
  6
Continuous
 62
     7
370
    25
100
AcDbLine
 10
1.8190609847
 20
150.8673389163
 30
0.0
 11
2.5072877524
 21
162.6248149359
 31
0.0
  0
LINE
  5
3E0
330
1F
100
AcDbEntity
  8
0
  6
Continuous
 62
     7
370
    25
100
AcDbLine
 10
14.6420267299
 20
148.9902855118
 30
0.0
 11
2.7427425429
 21
149.6868130556
 31
0.0
  0
LINE
  5
3E1
330
1F
100
AcDbEntity
  8
0
  6
Continuous
 62
     7
370
    25
100
AcDbLine
 10
19.4098235578
 20
149.6325661265
 30
0.0
 11
21.4618697004
 21
161.2112031991
 31
0.0
  0
LINE
  5
3E2
330
1F
100
AcDbEntity
  8
0
  6
Continuous
 62
     7
370
    25
100
AcDbLine
 10
31.9124811217
 20
146.2666727808
 30
0.0
 11
20.178090767
 21
148.3463225972
 31
0.0
  0
LINE
  5
3E3
330
1F
100
AcDbEntity
  8
0
  6
Continuous
 62
     7
370
    25
100
AcDbLine
 10
35.2697522858
 20
158.8960267614
 30
0.0
 11
33.1723595549
 21
147.0615222996
 31
0.0
  0
LINE
  5
3E4
330
1F
100
AcDbEntity
  8
0
  6
Continuous
 62
     7
370
    25
100
AcDbLine
 10
22.6447656344
 20
162.1273555831
 30
0.0
 11
34.3394297615
 21
160.0547463235
 31
0.0
  0
LINE
  5
3E5
330
1F
100
AcDbEntity
  8
0
  6
Continuous
 62
     7
370
    25
100
AcDbLine
 10
87.7369030422
 20
137.1132603485
 30
0.0
 11
81.669950959
 21
126.6682374212
 31
0.0
  0
LINE
  5
3E6
330
1F
100
AcDbEntity
  8
0
  6
Continuous
 62
     7
370
    25
100
AcDbLine
 10
76.9438312286
 20
144.4930642495
 30
0.0
 11
87.2310138794
 21
138.5177930943
 31
0.0
  0
LINE
  5
3E7
330
1F
100
AcDbEntity
  8
0
  6
Continuous
 62
     7
370
    25
100
AcDbLine
 10
69.6564963164
 20
133.8593186424
 30
0.0
 11
75.53833303
 21
143.985642122
 31
0.0
  0
LINE
  5
3E8
330
1F
100
AcDbEntity
  8
0
  6
Continuous
 62
     7
370
    25
100
AcDbLine
 10
80.1992823821
 20
126.4117807668
 30
0.0
 11
69.9120997312
 21
132.387051922
 31
0.0
  0
LINE
  5
3E9
330
1F
100
AcDbEntity
  8
0
  6
Continuous
 62
     7
370
    25
100
AcDbLine
 10
-66.3797576815
 20
135.4378039183
 30
0.0
 11
-71.0987534314
 21
146.3167030866
 31
0.0
  0
LINE
  5
3EA
330
1F
100
AcDbEntity
  8
0
  6
Continuous
 62
     7
370
    25
100
AcDbLine
 10
-54.0705992888
 20
139.6042133172
 30
0.0
 11
-64.9928724847
 21
134.8664029935
 31
0.0
  0
LINE
  5
3EB
330
1F
100
AcDbEntity
  8
0
  6
Continuous
 62
     7
370
    25
100
AcDbLine
 10
-58.2691066301
 20
151.9204695254
 30
0.0
 11
-53.521937636
 21
140.9766213935
 31
0.0
  0
LINE
  5
3EC
330
1F
100
AcDbEntity
  8
0
  6
Continuous
 62
     7
370
    25
100
AcDbLine
 10
-70.5545223065
 20
147.7143189352
 30
0.0
 11
-59.6485053977
 21
152.4450776861
 31
0.0
  0
LINE
  5
3ED
330
1F
100
AcDbEntity
  8
0
  6
Continuous
 62
     7
370
    25
100
AcDbLine
 10
-105.3083536411
 20
165.6858289103
 30
0.0
 11
-95.095055069
 21
171.751488515
 31
0.0
  0
LINE
  5
3EE
330
1F
100
AcDbEntity
  8
0
  6
Continuous
 62
     7
370
    25
100
AcDbLine
 10
-99.6130403408
 20
154.0189679505
 30
0.0
 11
-105.6786999455
 21
164.2322665226
 31
0.0
  0
LINE
  5
3EF
330
1F
100
AcDbEntity
  8
0
  6
Continuous
 62
     7
370
    25
100
AcDbLine
 10
-87.9461793811
 20
159.7142812508
 30
0.0
 11
-98.1594779532
 21
153.6486216461
 31
0.0
  0
LINE
  5
3F0
330
1F
100
AcDbEntity
  8
0
  6
Continuous
 62
     7
370
    25
100
AcDbLine
 10
-93.6414926814
 20
171.3811422106
 30
0.0
 11
-87.5758330767
 21
161.1678436385
 31
0.0
  0
LINE
  5
3F1
330
1F
100
AcDbEntity
  8
0
  6
Continuous
 62
     7
370
    25
100
AcDbLine
 10
-74.8269364627
 20
148.1978740036
 30
0.0
 11
-85.2323296073
 21
142.4679972448
 31
0.0
  0
LINE
  5
3F2
330
1F
100
AcDbEntity
  8
0
  6
Continuous
 62
     7
370
    25
100
AcDbLine
 10
-80.1393322815
 20
160.0439994844
 30
0.0
 11
-74.4094555228
 21
149.6386063398
 31
0.0
  0
LINE
  5
3F3
330
1F
100
AcDbEntity
  8
0
  6
Continuous
 62
     7
370
    25
100
AcDbLine
 10
-91.9854577623
 20
154.7316036656
 30
0.0
 11
-81.5800646178
 21
160.4614804243
 31
0.0
  0
LINE
  5
3F4
330
1F
100
AcDbEntity
  8
0
  6
Continuous
 62
     7
370
    25
100
AcDbLine
 10
-86.6730619435
 20
142.8854781848
 30
0.0
 11
-92.4029387023
 21
153.2908713293
 31
0.0
  0
LINE
  5
3F5
330
1F
100
AcDbEntity
  8
0
  6
Continuous
 62
     7
370
    25
100
AcDbLine
 10
89.6532890606
 20
174.6537469617
 30
0.0
 11
100.0520749589
 21
168.9118878547
 31
0.0
  0
LINE
  5
3F6
330
1F
100
AcDbEntity
  8
0
  6
Continuous
 62
     7
370
    25
100
AcDbLine
 10
82.4702176698
 20
163.8391400046
 30
0.0
 11
88.2120767768
 21
174.2379259028
 31
0.0
  0
LINE
  5
3F7
330
1F
100
AcDbEntity
  8
0
  6
Continuous
 62
     7
370
    25
100
AcDbLine
 10
93.2848246269
 20
156.6560686137
 30
0.0
 11
82.8860387286
 21
162.3979277207
 31
0.0
  0
LINE
  5
3F8
330
1F
100
AcDbEntity
  8
0
  6
Continuous
 62
     7
370
    25
100
AcDbLine
 10
100.4678960177
 20
167.4706755708
 30
0.0
 11
94.7260369107
 21
157.0718896726
 31
0.0
  0
LINE
  5
3F9
330
1F
100
AcDbEntity
  8
0
  6
Continuous
 62
     7
370
    25
100
AcDbLine
 10
-128.4786233172
 20
190.4773660147
 30
0.0
 11
-123.7254832064
 21
183.4305469389
 31
0.0
  0
LINE
  5
3FA
330
1F
100
AcDbEntity
  8
0
  6
Continuous
 62
     7
370
    25
100
AcDbLine
 10
123.7254832064
 20
183.4305469389
 30
0.0
 11
128.4786233172
 21
190.4773660147
 31
0.0
  0
LINE
  5
3FB
330
1F
100
AcDbEntity
  8
0
  6
Continuous
 62
     7
370
    25
100
AcDbLine
 10
122.8866937751
 20
182.1869906314
 30
0.0
 11
123.7157308242
 21
181.6277980072
 31
0.0
  0
LINE
  5
3FC
330
1F
100
AcDbEntity
  8
0
  6
Continuous
 62
     7
370
    25
100
AcDbLine
 10
123.9855754083
 20
180.2395675147
 30
0.0
 11
119.5120317746
 21
173.6072672081
 31
0.0
  0
LINE
  5
3FD
330
1F
100
AcDbEntity
  8
0
  6
Continuous
 62
     7
370
    25
100
AcDbLine
 10
117.294764233
 20
173.8966152482
 30
0.0
 11
118.1238012821
 21
173.3374226239
 31
0.0
  0
LINE
  5
3FE
330
1F
100
AcDbEntity
  8
0
  6
Continuous
 62
     7
370
    25
100
AcDbLine
 10
94.2905022113
 20
139.7913987682
 30
0.0
 11
116.4559748017
 21
172.6530589407
 31
0.0
  0
LINE
  5
3FF
330
1F
100
AcDbEntity
  8
0
  6
Continuous
 62
     7
370
    25
100
AcDbLine
 10
93.45171278
 20
138.5478424607
 30
0.0
 11
94.2807498291
 21
137.9886498365
 31
0.0
  0
LINE
  5
400
330
1F
100
AcDbEntity
  8
0
  6
Continuous
 62
     7
370
    25
100
AcDbLine
 10
94.5505944132
 20
136.600419344
 30
0.0
 11
90.0770507795
 21
129.9681190374
 31
0.0
  0
LINE
  5
401
330
1F
100
AcDbEntity
  8
0
  6
Continuous
 62
     7
370
    25
100
AcDbLine
 10
87.8597832378
 20
130.2574670775
 30
0.0
 11
88.6888202869
 21
129.6982744532
 31
0.0
  0
LINE
  5
402
330
1F
100
AcDbEntity
  8
0
  6
Continuous
 62
     7
370
    25
100
AcDbLine
 10
82.2678536957
 20
121.9670916942
 30
0.0
 11
87.0209938065
 21
129.01391077
 31
0.0
  0
LINE
  5
403
330
1F
100
AcDbEntity
  8
0
  6
Continuous
 62
     7
370
    25
100
AcDbLine
 10
-87.0209938065
 20
129.01391077
 30
0.0
 11
-82.2678536957
 21
121.9670916942
 31
0.0
  0
LINE
  5
404
330
1F
100
AcDbEntity
  8
0
  6
Continuous
 62
     7
370
    25
100
AcDbLine
 10
-87.8597832378
 20
130.2574670775
 30
0.0
 11
-88.6888202869
 21
129.6982744532
 31
0.0
  0
LINE
  5
405
330
1F
100
AcDbEntity
  8
0
  6
Continuous
 62
     7
370
    25
100
AcDbLine
 10
-94.5505944132
 20
136.600419344
 30
0.0
 11
-90.0770507795
 21
129.9681190374
 31
0.0
  0
LINE
  5
406
330
1F
100
AcDbEntity
  8
0
  6
Continuous
 62
     7
370
    25
100
AcDbLine
 10
-93.45171278
 20
138.5478424607
 30
0.0
 11
-94.2807498291
 21
137.9886498365
 31
0.0
  0
LINE
  5
407
330
1F
100
AcDbEntity
  8
0
  6
Continuous
 62
     7
370
    25
100
AcDbLine
 10
-116.4559748017
 20
172.6530589407
 30
0.0
 11
-94.2905022113
 21
139.7913987682
 31
0.0
  0
LINE
  5
408
330
1F
100
AcDbEntity
  8
0
  6
Continuous
 62
     7
370
    25
100
AcDbLine
 10
-117.294764233
 20
173.8966152482
 30
0.0
 11
-118.1238012821
 21
173.3374226239
 31
0.0
  0
LINE
  5
409
330
1F
100
AcDbEntity
  8
0
  6
Continuous
 62
     7
370
    25
100
AcDbLine
 10
-123.9855754083
 20
180.2395675147
 30
0.0
 11
-119.5120317746
 21
173.6072672081
 31
0.0
  0
LINE
  5
40A
330
1F
100
AcDbEntity
  8
0
  6
Continuous
 62
     7
370
    25
100
AcDbLine
 10
-122.8866937751
 20
182.1869906314
 30
0.0
 11
-123.7157308242
 21
181.6277980072
 31
0.0
  0
ARC
  5
40B
330
1F
100
AcDbEntity
  8
0
  6
Continuous
 62
     7
370
    25
100
AcDbCircle
 10
60.0573220995
 20
138.2606969068
 30
0.0
 40
0.7500000000000228
100
AcDbArc
 50
221.1407683409
 51
278.6591225172
  0
ARC
  5
40C
330
1F
100
AcDbEntity
  8
0
  6
Continuous
 62
     7
370
    25
100
AcDbCircle
 10
61.033916352
 20
136.9569753658
 30
0.0
 40
0.7499973864204335
100
AcDbArc
 50
141.9440544843
 51
249.6257488802
  0
ARC
  5
40D
330
1F
100
AcDbEntity
  8
0
  6
Continuous
 62
     7
370
    25
100
AcDbCircle
 10
64.1319963341
 20
135.8232498549
 30
0.0
 40
0.7500000000000164
100
AcDbArc
 50
249.6255895562
 51
357.8550090846
  0
ARC
  5
40E
330
1F
100
AcDbEntity
  8
0
  6
Continuous
 62
     7
370
    25
100
AcDbCircle
 10
65.7184722732
 20
136.1890088049
 30
0.0
 40
0.7499999999999932
100
AcDbArc
 50
221.1408217037
 51
41.4536152253
  0
ARC
  5
40F
330
1F
100
AcDbEntity
  8
0
  6
Continuous
 62
     7
370
    25
100
AcDbCircle
 10
68.0824714785
 20
141.3695779059
 30
0.0
 40
0.7499999999999829
100
AcDbArc
 50
243.5914198699
 51
347.3991586159
  0
ARC
  5
410
330
1F
100
AcDbEntity
  8
0
  6
Continuous
 62
     7
370
    25
100
AcDbCircle
 10
68.9996704849
 20
143.8759393784
 30
0.0
 40
0.7499999999999868
100
AcDbArc
 50
332.4017031009
 51
76.2086926616
  0
ARC
  5
411
330
1F
100
AcDbEntity
  8
0
  6
Continuous
 62
     7
370
    25
100
AcDbCircle
 10
69.4932377429
 20
146.504039122
 30
0.0
 40
0.7500000000000036
100
AcDbArc
 50
278.3463505473
 51
98.6584726844
  0
ARC
  5
412
330
1F
100
AcDbEntity
  8
0
  6
Continuous
 62
     7
370
    25
100
AcDbCircle
 10
68.4967518006
 20
147.7504973916
 30
0.0
 40
0.7500000000000332
100
AcDbArc
 50
326.7522055903
 51
70.1747113156
  0
ARC
  5
413
330
1F
100
AcDbEntity
  8
0
  6
Continuous
 62
     7
370
    25
100
AcDbCircle
 10
65.3986795405
 20
148.8842308601
 30
0.0
 40
0.7499999999999689
100
AcDbArc
 50
70.1747112495
 51
173.0477357909
  0
ARC
  5
414
330
1F
100
AcDbEntity
  8
0
  6
Continuous
 62
     7
370
    25
100
AcDbCircle
 10
63.8320892087
 20
148.575729164
 30
0.0
 40
0.7500000000001457
100
AcDbArc
 50
41.141094147
 51
98.6589551667
  0
ARC
  5
415
330
1F
100
AcDbEntity
  8
0
  6
Continuous
 62
     7
370
    25
100
AcDbCircle
 10
63.8320892087
 20
148.575729164
 30
0.0
 40
0.7499999999999905
100
AcDbArc
 50
98.8852576803
 51
220.9146764402
  0
ARC
  5
416
330
1F
100
AcDbEntity
  8
0
  6
Continuous
 62
     7
370
    25
100
AcDbCircle
 10
62.1129032333
 20
150.9059196363
 30
0.0
 40
0.750000000000017
100
AcDbArc
 50
294.9104027377
 51
24.8895972623
  0
ARC
  5
417
330
1F
100
AcDbEntity
  8
0
  6
Continuous
 62
     7
370
    25
100
AcDbCircle
 10
62.1129032333
 20
150.9059196363
 30
0.0
 40
0.7499999999999415
100
AcDbArc
 50
24.9449559858
 51
114.8550440142
  0
ARC
  5
418
330
1F
100
AcDbEntity
  8
0
  6
Continuous
 62
     7
370
    25
100
AcDbCircle
 10
49.9575080804
 20
155.3541634107
 30
0.0
 40
0.7500000000000016
100
AcDbArc
 50
24.9448722332
 51
204.8895929147
  0
ARC
  5
419
330
1F
100
AcDbEntity
  8
0
  6
Continuous
 62
     7
370
    25
100
AcDbCircle
 10
47.1403612254
 20
154.6840353236
 30
0.0
 40
0.7500000000000151
100
AcDbArc
 50
278.6590260019
 51
98.6591042234
  0
ARC
  5
41A
330
1F
100
AcDbEntity
  8
0
  6
Continuous
 62
     7
370
    25
100
AcDbCircle
 10
46.1429306922
 20
155.9308355865
 30
0.0
 40
0.7500000000000161
100
AcDbArc
 50
326.7521418158
 51
69.8999855012
  0
ARC
  5
41B
330
1F
100
AcDbEntity
  8
0
  6
Continuous
 62
     7
370
    25
100
AcDbCircle
 10
43.044858556
 20
157.0645693939
 30
0.0
 40
0.7500000000000179
100
AcDbArc
 50
69.899993437
 51
173.0479682399
  0
ARC
  5
41C
330
1F
100
AcDbEntity
  8
0
  6
Continuous
 62
     7
370
    25
100
AcDbCircle
 10
41.4792104413
 20
156.7557192173
 30
0.0
 40
0.7499999999999982
100
AcDbArc
 50
41.1411122555
 51
221.1408922593
  0
ARC
  5
41D
330
1F
100
AcDbEntity
  8
0
  6
Continuous
 62
     7
370
    25
100
AcDbCircle
 10
40.1598676907
 20
154.4298104471
 30
0.0
 40
0.7500000000000085
100
AcDbArc
 50
63.8674661681
 51
154.9325351805
  0
ARC
  5
41E
330
1F
100
AcDbEntity
  8
0
  6
Continuous
 62
     7
370
    25
100
AcDbCircle
 10
39.2426700688
 20
151.923448468
 30
0.0
 40
0.7500000000000138
100
AcDbArc
 50
164.8674647664
 51
255.93241535
  0
ARC
  5
41F
330
1F
100
AcDbEntity
  8
0
  6
Continuous
 62
     7
370
    25
100
AcDbCircle
 10
37.7044444642
 20
146.4406890858
 30
0.0
 40
0.7500000000000665
100
AcDbArc
 50
98.6590990815
 51
278.6589827395
  0
ARC
  5
420
330
1F
100
AcDbEntity
  8
0
  6
Continuous
 62
     7
370
    25
100
AcDbCircle
 10
38.6801064038
 20
145.1373206443
 30
0.0
 40
0.7499999999999946
100
AcDbArc
 50
141.9450888603
 51
249.9000465172
  0
ARC
  5
421
330
1F
100
AcDbEntity
  8
0
  6
Continuous
 62
     7
370
    25
100
AcDbCircle
 10
41.7781770856
 20
144.0035864396
 30
0.0
 40
0.75000000000002
100
AcDbArc
 50
249.8999782768
 51
357.8551243907
  0
ARC
  5
422
330
1F
100
AcDbEntity
  8
0
  6
Continuous
 62
     7
370
    25
100
AcDbCircle
 10
43.3655952484
 20
144.3690026521
 30
0.0
 40
0.7500000000000101
100
AcDbArc
 50
221.1409168281
 51
41.1409375198
  0
ARC
  5
423
330
1F
100
AcDbEntity
  8
0
  6
Continuous
 62
     7
370
    25
100
AcDbCircle
 10
45.5109124175
 20
143.2032957473
 30
0.0
 40
0.7499999999999988
100
AcDbArc
 50
114.9095929607
 51
294.8970931487
  0
ARC
  5
424
330
1F
100
AcDbEntity
  8
0
  6
Continuous
 62
     7
370
    25
100
AcDbCircle
 10
57.6663229413
 20
138.755046348
 30
0.0
 40
0.7499999999999962
100
AcDbArc
 50
204.9028231601
 51
294.8971768399
  0
ARC
  5
425
330
1F
100
AcDbEntity
  8
0
  6
Continuous
 62
     7
370
    25
100
AcDbCircle
 10
57.6663229413
 20
138.755046348
 30
0.0
 40
0.7499999999999544
100
AcDbArc
 50
294.9096020802
 51
24.8903979198
  0
ARC
  5
426
330
1F
100
AcDbEntity
  8
0
  6
Continuous
 62
     7
370
    25
100
AcDbCircle
 10
60.0573220995
 20
138.2606969068
 30
0.0
 40
0.7500000000000071
100
AcDbArc
 50
98.8852041558
 51
220.9148512608
  0
ARC
  5
427
330
1F
100
AcDbEntity
  8
0
  6
Continuous
 62
     7
370
    25
100
AcDbCircle
 10
97.6654262445
 20
150.2379173511
 30
0.0
 40
1.499999999999975
100
AcDbArc
 50
326.4936219101
 51
56.9344507497
  0
ARC
  5
428
330
1F
100
AcDbEntity
  8
0
  6
Continuous
 62
     7
370
    25
100
AcDbCircle
 10
0.3506806545
 20
0.7610141776
 30
0.0
 40
179.8634051356625
100
AcDbArc
 50
56.9344507497
 51
73.5837816258
  0
ARC
  5
429
330
1F
100
AcDbEntity
  8
0
  6
Continuous
 62
     7
370
    25
100
AcDbCircle
 10
50.758496387
 20
171.853259486
 30
0.0
 40
1.499999999999989
100
AcDbArc
 50
73.5837816258
 51
164.0246082708
  0
ARC
  5
42A
330
1F
100
AcDbEntity
  8
0
  6
Continuous
 62
     7
370
    25
100
AcDbCircle
 10
47.3453948886
 20
159.9310366673
 30
0.0
 40
1.499999999999999
100
AcDbArc
 50
164.0246082707
 51
253.5472885345
  0
ARC
  5
42B
330
1F
100
AcDbEntity
  8
0
  6
Continuous
 62
     7
370
    25
100
AcDbCircle
 10
0.3207904806
 20
0.696144592
 30
0.0
 40
164.5333227818523
100
AcDbArc
 50
56.9709456162
 51
73.5472885345
  0
ARC
  5
42C
330
1F
100
AcDbEntity
  8
0
  6
Continuous
 62
     7
370
    25
100
AcDbCircle
 10
90.8196190937
 20
139.8975321341
 30
0.0
 40
1.500000000000079
100
AcDbArc
 50
236.9709456162
 51
326.4936219101
  0
ARC
  5
42D
330
1F
100
AcDbEntity
  8
0
  6
Continuous
 62
     7
370
    25
100
AcDbCircle
 10
-117.1526086939
 20
180.7481165175
 30
0.0
 40
0.7500000000000014
100
AcDbArc
 50
155.649901988
 51
356.750098012
  0
ARC
  5
42E
330
1F
100
AcDbEntity
  8
0
  6
Continuous
 62
     7
370
    25
100
AcDbCircle
 10
-105.9032857952
 20
187.560948629
 30
0.0
 40
0.7500000000000131
100
AcDbArc
 50
245.649901988
 51
86.750098012
  0
ARC
  5
42F
330
1F
100
AcDbEntity
  8
0
  6
Continuous
 62
     7
370
    25
100
AcDbCircle
 10
-112.7399712525
 20
198.7131580997
 30
0.0
 40
0.7500000000000137
100
AcDbArc
 50
342.4973049088
 51
169.9026950912
  0
ARC
  5
430
330
1F
100
AcDbEntity
  8
0
  6
Continuous
 62
     7
370
    25
100
AcDbCircle
 10
-123.8683273774
 20
191.9735860704
 30
0.0
 40
0.7500000000000334
100
AcDbArc
 50
72.4973049088
 51
259.9026950912
  0
ARC
  5
431
330
1F
100
AcDbEntity
  8
0
  6
Continuous
 62
     7
370
    25
100
AcDbCircle
 10
-90.1383731931
 20
209.947992278
 30
0.0
 40
0.7500000000000416
100
AcDbArc
 50
61.6512466392
 51
251.958704365
  0
ARC
  5
432
330
1F
100
AcDbEntity
  8
0
  6
Continuous
 62
     7
370
    25
100
AcDbCircle
 10
-85.3891841264
 20
197.759586011
 30
0.0
 40
0.7500000000000113
100
AcDbArc
 50
144.4942001822
 51
345.9958025523
  0
ARC
  5
433
330
1F
100
AcDbEntity
  8
0
  6
Continuous
 62
     7
370
    25
100
AcDbCircle
 10
-73.1610598668
 20
202.6005491539
 30
0.0
 40
0.7499999999999967
100
AcDbArc
 50
237.1610747958
 51
75.5648539188
  0
ARC
  5
434
330
1F
100
AcDbEntity
  8
0
  6
Continuous
 62
     7
370
    25
100
AcDbCircle
 10
-78.0417410023
 20
214.7368993373
 30
0.0
 40
0.7500000000000173
100
AcDbArc
 50
334.596485766
 51
161.5034150398
  0
ARC
  5
435
330
1F
100
AcDbEntity
  8
0
  6
Continuous
 62
     7
370
    25
100
AcDbCircle
 10
-72.2641228846
 20
216.7560933037
 30
0.0
 40
0.7500000000000501
100
AcDbArc
 50
56.3927388303
 51
248.0384023486
  0
ARC
  5
436
330
1F
100
AcDbEntity
  8
0
  6
Continuous
 62
     7
370
    25
100
AcDbCircle
 10
-68.5517083608
 20
204.2129667986
 30
0.0
 40
0.7500000000000002
100
AcDbArc
 50
138.8654193813
 51
340.7613839318
  0
ARC
  5
437
330
1F
100
AcDbEntity
  8
0
  6
Continuous
 62
     7
370
    25
100
AcDbCircle
 10
-55.9613221648
 20
208.0135091932
 30
0.0
 40
0.7500000000000356
100
AcDbArc
 50
232.7735864422
 51
69.8954543314
  0
ARC
  5
438
330
1F
100
AcDbEntity
  8
0
  6
Continuous
 62
     7
370
    25
100
AcDbCircle
 10
-59.8091242503
 20
220.5157675184
 30
0.0
 40
0.750000000000027
100
AcDbArc
 50
330.7357560239
 51
157.1396954807
  0
ARC
  5
439
330
1F
100
AcDbEntity
  8
0
  6
Continuous
 62
     7
370
    25
100
AcDbCircle
 10
-53.882780577
 20
222.0443178298
 30
0.0
 40
0.7500000000000453
100
AcDbArc
 50
51.245394317
 51
244.1391707104
  0
ARC
  5
43A
330
1F
100
AcDbEntity
  8
0
  6
Continuous
 62
     7
370
    25
100
AcDbCircle
 10
-51.2331913614
 20
209.2344887478
 30
0.0
 40
0.7500000000000033
100
AcDbArc
 50
133.2147419715
 51
335.6287236317
  0
ARC
  5
43B
330
1F
100
AcDbEntity
  8
0
  6
Continuous
 62
     7
370
    25
100
AcDbCircle
 10
-38.3688925211
 20
211.9679412178
 30
0.0
 40
0.7500000000000585
100
AcDbArc
 50
228.2842136511
 51
64.184280247
  0
ARC
  5
43C
330
1F
100
AcDbEntity
  8
0
  6
Continuous
 62
     7
370
    25
100
AcDbCircle
 10
-41.1568147494
 20
224.7483768038
 30
0.0
 40
0.7500000000000377
100
AcDbArc
 50
326.925528622
 51
152.6649522889
  0
ARC
  5
43D
330
1F
100
AcDbEntity
  8
0
  6
Continuous
 62
     7
370
    25
100
AcDbCircle
 10
22.0995523597
 20
227.4211896882
 30
0.0
 40
0.750000000000008
100
AcDbArc
 50
31.7758476398
 51
228.5715742543
  0
ARC
  5
43E
330
1F
100
AcDbEntity
  8
0
  6
Continuous
 62
     7
370
    25
100
AcDbCircle
 10
20.3881308911
 20
214.452647724
 30
0.0
 40
0.7500000000000254
100
AcDbArc
 50
110.5605526895
 51
316.1680578382
  0
ARC
  5
43F
330
1F
100
AcDbEntity
  8
0
  6
Continuous
 62
     7
370
    25
100
AcDbCircle
 10
33.4356969136
 20
212.8025059276
 30
0.0
 40
0.750000000000009
100
AcDbArc
 50
209.2573293894
 51
41.0721258554
  0
ARC
  5
440
330
1F
100
AcDbEntity
  8
0
  6
Continuous
 62
     7
370
    25
100
AcDbCircle
 10
35.0068146518
 20
225.7887922779
 30
0.0
 40
0.7500000000000049
100
AcDbArc
 50
312.0389592399
 51
133.645418442
  0
ARC
  5
441
330
1F
100
AcDbEntity
  8
0
  6
Continuous
 62
     7
370
    25
100
AcDbCircle
 10
-35.1233318754
 20
225.7755573126
 30
0.0
 40
0.7500000000000185
100
AcDbArc
 50
46.2096276225
 51
240.2517945113
  0
ARC
  5
442
330
1F
100
AcDbEntity
  8
0
  6
Continuous
 62
     7
370
    25
100
AcDbCircle
 10
-33.5551606726
 20
212.7889148213
 30
0.0
 40
0.7500000000000225
100
AcDbArc
 50
127.5505984809
 51
330.601127314
  0
ARC
  5
443
330
1F
100
AcDbEntity
  8
0
  6
Continuous
 62
     7
370
    25
100
AcDbCircle
 10
-20.5072205807
 20
214.4360961765
 30
0.0
 40
0.7500000000000041
100
AcDbArc
 50
223.6897401937
 51
58.4384247618
  0
ARC
  5
444
330
1F
100
AcDbEntity
  8
0
  6
Continuous
 62
     7
370
    25
100
AcDbCircle
 10
-22.2156995364
 20
227.405026116
 30
0.0
 40
0.7500000000000023
100
AcDbArc
 50
323.1587834136
 51
148.0786632826
  0
ARC
  5
445
330
1F
100
AcDbEntity
  8
0
  6
Continuous
 62
     7
370
    25
100
AcDbCircle
 10
2.3815881795
 20
215.4071807608
 30
0.0
 40
0.7500000000000453
100
AcDbArc
 50
116.2154273914
 51
320.870142845
  0
ARC
  5
446
330
1F
100
AcDbEntity
  8
0
  6
Continuous
 62
     7
370
    25
100
AcDbCircle
 10
15.5214845002
 20
214.8548477638
 30
0.0
 40
0.750000000000012
100
AcDbArc
 50
214.1768555377
 51
46.8739721448
  0
ARC
  5
447
330
1F
100
AcDbEntity
  8
0
  6
Continuous
 62
     7
370
    25
100
AcDbCircle
 10
16.0001995195
 20
227.9270654811
 30
0.0
 40
0.7500000000000299
100
AcDbArc
 50
315.7241365232
 51
138.5690693528
  0
ARC
  5
448
330
1F
100
AcDbEntity
  8
0
  6
Continuous
 62
     7
370
    25
100
AcDbCircle
 10
3.0015997798
 20
228.4734591038
 30
0.0
 40
0.7499999999999949
100
AcDbArc
 50
36.4747867129
 51
232.4765556602
  0
ARC
  5
449
330
1F
100
AcDbEntity
  8
0
  6
Continuous
 62
     7
370
    25
100
AcDbCircle
 10
-16.1174156341
 20
227.9236288885
 30
0.0
 40
0.7499999999999946
100
AcDbArc
 50
41.2860288852
 51
236.3673280639
  0
ARC
  5
44A
330
1F
100
AcDbEntity
  8
0
  6
Continuous
 62
     7
370
    25
100
AcDbCircle
 10
-15.6416666193
 20
214.8513028907
 30
0.0
 40
0.7500000000000422
100
AcDbArc
 50
121.8812794813
 51
325.6811816184
  0
ARC
  5
44B
330
1F
100
AcDbEntity
  8
0
  6
Continuous
 62
     7
370
    25
100
AcDbCircle
 10
-2.5016453164
 20
215.4006545256
 30
0.0
 40
0.7499999999999903
100
AcDbArc
 50
218.9876743358
 51
52.6654403385
  0
ARC
  5
44C
330
1F
100
AcDbEntity
  8
0
  6
Continuous
 62
     7
370
    25
100
AcDbCircle
 10
-3.1186922563
 20
228.4670732084
 30
0.0
 40
0.7500000000000299
100
AcDbArc
 50
319.4279467932
 51
143.3801332995
  0
ARC
  5
44D
330
1F
100
AcDbEntity
  8
0
  6
Continuous
 62
     7
370
    25
100
AcDbCircle
 10
105.8012296181
 20
187.624516267
 30
0.0
 40
0.7500000000000026
100
AcDbArc
 50
82.7150731978
 51
294.2104970112
  0
ARC
  5
44E
330
1F
100
AcDbEntity
  8
0
  6
Continuous
 62
     7
370
    25
100
AcDbCircle
 10
117.0490064447
 20
180.8091319404
 30
0.0
 40
0.7500000000000134
100
AcDbArc
 50
183.1130568693
 51
12.2487992906
  0
ARC
  5
44F
330
1F
100
AcDbEntity
  8
0
  6
Continuous
 62
     7
370
    25
100
AcDbCircle
 10
123.7672719336
 20
192.0330774562
 30
0.0
 40
0.7500000000002066
100
AcDbArc
 50
293.5173822915
 51
4.0826177085
  0
ARC
  5
450
330
1F
100
AcDbEntity
  8
0
  6
Continuous
 62
     7
370
    25
100
AcDbCircle
 10
123.7672719336
 20
192.0330774562
 30
0.0
 40
0.7500000000000012
100
AcDbArc
 50
10.2462019039
 51
107.3537980961
  0
ARC
  5
451
330
1F
100
AcDbEntity
  8
0
  6
Continuous
 62
     7
370
    25
100
AcDbCircle
 10
112.6404452555
 20
198.7751742559
 30
0.0
 40
0.7500000000000314
100
AcDbArc
 50
9.9460479705
 51
208.5601962319
  0
ARC
  5
452
330
1F
100
AcDbEntity
  8
0
  6
Continuous
 62
     7
370
    25
100
AcDbCircle
 10
51.115284264
 20
209.2580307158
 30
0.0
 40
0.7500000000000028
100
AcDbArc
 50
204.2303455607
 51
35.2695052325
  0
ARC
  5
453
330
1F
100
AcDbEntity
  8
0
  6
Continuous
 62
     7
370
    25
100
AcDbCircle
 10
53.7677798694
 20
222.0672582953
 30
0.0
 40
0.7500000000000004
100
AcDbArc
 50
308.3621501339
 51
128.6093662493
  0
ARC
  5
454
330
1F
100
AcDbEntity
  8
0
  6
Continuous
 62
     7
370
    25
100
AcDbCircle
 10
41.0424279008
 20
224.7742046297
 30
0.0
 40
0.7500000000000097
100
AcDbArc
 50
27.1889148178
 51
224.6439024444
  0
ARC
  5
455
330
1F
100
AcDbEntity
  8
0
  6
Continuous
 62
     7
370
    25
100
AcDbCircle
 10
38.2516059555
 20
211.9944019322
 30
0.0
 40
0.7500000000000188
100
AcDbArc
 50
104.9247789088
 51
311.5737618749
  0
ARC
  5
456
330
1F
100
AcDbEntity
  8
0
  6
Continuous
 62
     7
370
    25
100
AcDbCircle
 10
55.8466617467
 20
208.0496933942
 30
0.0
 40
0.7500000000000696
100
AcDbArc
 50
99.3153810814
 51
307.0847535827
  0
ARC
  5
457
330
1F
100
AcDbEntity
  8
0
  6
Continuous
 62
     7
370
    25
100
AcDbCircle
 10
68.436185303
 20
204.2462944295
 30
0.0
 40
0.7500000000000183
100
AcDbArc
 50
199.0984787873
 51
29.4755480251
  0
ARC
  5
458
330
1F
100
AcDbEntity
  8
0
  6
Continuous
 62
     7
370
    25
100
AcDbCircle
 10
72.1514456763
 20
216.7885782916
 30
0.0
 40
0.7500000000000817
100
AcDbArc
 50
304.6833986868
 51
21.7166013132
  0
ARC
  5
459
330
1F
100
AcDbEntity
  8
0
  6
Continuous
 62
     7
370
    25
100
AcDbCircle
 10
72.1514456763
 20
216.7885782916
 30
0.0
 40
0.7499999999999892
100
AcDbArc
 50
22.9385031396
 51
123.4614968604
  0
ARC
  5
45A
330
1F
100
AcDbEntity
  8
0
  6
Continuous
 62
     7
370
    25
100
AcDbCircle
 10
59.6973004056
 20
220.5510783591
 30
0.0
 40
0.7500000000000321
100
AcDbArc
 50
22.7132860864
 51
220.6860340535
  0
ARC
  5
45B
330
1F
100
AcDbEntity
  8
0
  6
Continuous
 62
     7
370
    25
100
AcDbCircle
 10
89.7403931701
 20
195.8218479264
 30
0.0
 40
0.7500000000000414
100
AcDbArc
 50
88.2037542646
 51
298.4081243402
  0
ARC
  5
45C
330
1F
100
AcDbEntity
  8
0
  6
Continuous
 62
     7
370
    25
100
AcDbCircle
 10
101.5191212272
 20
189.9717613958
 30
0.0
 40
0.7500000000000168
100
AcDbArc
 50
188.5347960355
 51
17.9542711937
  0
ARC
  5
45D
330
1F
100
AcDbEntity
  8
0
  6
Continuous
 62
     7
370
    25
100
AcDbCircle
 10
107.2744242386
 20
201.7186133727
 30
0.0
 40
0.7500000000001864
100
AcDbArc
 50
297.2739391195
 51
9.9260608805
  0
ARC
  5
45E
330
1F
100
AcDbEntity
  8
0
  6
Continuous
 62
     7
370
    25
100
AcDbCircle
 10
107.2744242386
 20
201.7186133727
 30
0.0
 40
0.750000000000005
100
AcDbArc
 50
14.3673057887
 51
112.8326942113
  0
ARC
  5
45F
330
1F
100
AcDbEntity
  8
0
  6
Continuous
 62
     7
370
    25
100
AcDbCircle
 10
95.6223557809
 20
207.5057924643
 30
0.0
 40
0.7500000000000159
100
AcDbArc
 50
14.0930224711
 51
212.651051783
  0
ARC
  5
460
330
1F
100
AcDbEntity
  8
0
  6
Continuous
 62
     7
370
    25
100
AcDbCircle
 10
73.0498301917
 20
202.6462029297
 30
0.0
 40
0.7499999999999999
100
AcDbArc
 50
93.7393073294
 51
302.6978031854
  0
ARC
  5
461
330
1F
100
AcDbEntity
  8
0
  6
Continuous
 62
     7
370
    25
100
AcDbCircle
 10
85.2768557568
 20
197.8024654381
 30
0.0
 40
0.750000000000008
100
AcDbArc
 50
193.8650191887
 51
23.7001234426
  0
ARC
  5
462
330
1F
100
AcDbEntity
  8
0
  6
Continuous
 62
     7
370
    25
100
AcDbCircle
 10
90.0288101629
 20
209.9897938345
 30
0.0
 40
0.7500000000000758
100
AcDbArc
 50
300.9916062398
 51
15.8083937602
  0
ARC
  5
463
330
1F
100
AcDbEntity
  8
0
  6
Continuous
 62
     7
370
    25
100
AcDbCircle
 10
90.0288101629
 20
209.9897938345
 30
0.0
 40
0.7499999999999676
100
AcDbArc
 50
18.5977857453
 51
118.2022142547
  0
ARC
  5
464
330
1F
100
AcDbEntity
  8
0
  6
Continuous
 62
     7
370
    25
100
AcDbCircle
 10
77.933264852
 20
214.7814454093
 30
0.0
 40
0.7500000000000284
100
AcDbArc
 50
18.3484277535
 51
216.6908615295
  0
ARC
  5
465
330
1F
100
AcDbEntity
  8
0
  6
Continuous
 62
     7
370
    25
100
AcDbCircle
 10
-101.6274666776
 20
189.9196310663
 30
0.0
 40
0.7500000000000012
100
AcDbArc
 50
150.0919212731
 51
351.3271302827
  0
ARC
  5
466
330
1F
100
AcDbEntity
  8
0
  6
Continuous
 62
     7
370
    25
100
AcDbCircle
 10
-89.8474115811
 20
195.7670449377
 30
0.0
 40
0.7499999999999792
100
AcDbArc
 50
241.451446742
 51
81.1851744804
  0
ARC
  5
467
330
1F
100
AcDbEntity
  8
0
  6
Continuous
 62
     7
370
    25
100
AcDbCircle
 10
-95.7267230377
 20
207.4523237499
 30
0.0
 40
0.7500000000000068
100
AcDbArc
 50
338.5149530422
 51
165.7574140533
  0
ARC
  5
468
330
1F
100
AcDbEntity
  8
0
  6
Continuous
 62
     7
370
    25
100
AcDbCircle
 10
-107.3801042647
 20
201.6677885776
 30
0.0
 40
0.7500000000000157
100
AcDbArc
 50
67.0197286851
 51
255.9102183698
  0
ARC
  5
469
330
1F
100
AcDbEntity
  8
0
  6
Continuous
 62
     7
370
    25
100
AcDbCircle
 10
-108.6747980202
 20
166.8860859272
 30
0.0
 40
0.7500000000000052
100
AcDbArc
 50
162.4973049088
 51
349.9026950912
  0
ARC
  5
46A
330
1F
100
AcDbEntity
  8
0
  6
Continuous
 62
     7
370
    25
100
AcDbCircle
 10
-97.4493284673
 20
173.6018046107
 30
0.0
 40
0.750000000000019
100
AcDbArc
 50
245.649901988
 51
86.750098012
  0
ARC
  5
46B
330
1F
100
AcDbEntity
  8
0
  6
Continuous
 62
     7
370
    25
100
AcDbCircle
 10
-104.2621605788
 20
184.8511275094
 30
0.0
 40
0.7500000000000131
100
AcDbArc
 50
335.649901988
 51
176.750098012
  0
ARC
  5
46C
330
1F
100
AcDbEntity
  8
0
  6
Continuous
 62
     7
370
    25
100
AcDbCircle
 10
-115.4143700495
 20
178.0144420521
 30
0.0
 40
0.7500000000000488
100
AcDbArc
 50
72.4973049088
 51
259.9026950912
  0
ARC
  5
46D
330
1F
100
AcDbEntity
  8
0
  6
Continuous
 62
     7
370
    25
100
AcDbCircle
 10
-84.1207004838
 20
194.7733771736
 30
0.0
 40
0.7500000000000098
100
AcDbArc
 50
62.1239361424
 51
251.0659506159
  0
ARC
  5
46E
330
1F
100
AcDbEntity
  8
0
  6
Continuous
 62
     7
370
    25
100
AcDbCircle
 10
-79.3317934245
 20
182.6767449829
 30
0.0
 40
0.7500000000000303
100
AcDbArc
 50
152.0884167143
 51
339.5200442466
  0
ARC
  5
46F
330
1F
100
AcDbEntity
  8
0
  6
Continuous
 62
     7
370
    25
100
AcDbCircle
 10
-67.1433871576
 20
187.4259340495
 30
0.0
 40
0.7500000000000161
100
AcDbArc
 50
236.7190536356
 51
76.4050179061
  0
ARC
  5
470
330
1F
100
AcDbEntity
  8
0
  6
Continuous
 62
     7
370
    25
100
AcDbCircle
 10
-71.9843503004
 20
199.6540583091
 30
0.0
 40
0.7500000000000157
100
AcDbArc
 50
326.7520775307
 51
167.8139300522
  0
ARC
  5
471
330
1F
100
AcDbEntity
  8
0
  6
Continuous
 62
     7
370
    25
100
AcDbCircle
 10
-67.5322966929
 20
201.1308467358
 30
0.0
 40
0.7500000000000412
100
AcDbArc
 50
57.0370101905
 51
246.685463686
  0
ARC
  5
472
330
1F
100
AcDbEntity
  8
0
  6
Continuous
 62
     7
370
    25
100
AcDbCircle
 10
-63.7726224782
 20
188.6758481015
 30
0.0
 40
0.750000000000029
100
AcDbArc
 50
146.8465222252
 51
334.4248725194
  0
ARC
  5
473
330
1F
100
AcDbEntity
  8
0
  6
Continuous
 62
     7
370
    25
100
AcDbCircle
 10
-51.2294959731
 20
192.3882626253
 30
0.0
 40
0.7500000000000179
100
AcDbArc
 50
232.1653167836
 51
71.191237483
  0
ARC
  5
474
330
1F
100
AcDbEntity
  8
0
  6
Continuous
 62
     7
370
    25
100
AcDbCircle
 10
-55.0300383677
 20
204.9786488213
 30
0.0
 40
0.7500000000000003
100
AcDbArc
 50
322.344083555
 51
163.2555852425
  0
ARC
  5
475
330
1F
100
AcDbEntity
  8
0
  6
Continuous
 62
     7
370
    25
100
AcDbCircle
 10
-50.4700050864
 20
206.0776401114
 30
0.0
 40
0.7500000000000017
100
AcDbArc
 50
52.0183063134
 51
242.3224484104
  0
ARC
  5
476
330
1F
100
AcDbEntity
  8
0
  6
Continuous
 62
     7
370
    25
100
AcDbCircle
 10
-47.7659461124
 20
193.3516742838
 30
0.0
 40
0.7500000000000323
100
AcDbArc
 50
141.5874562104
 51
329.3981008538
  0
ARC
  5
477
330
1F
100
AcDbEntity
  8
0
  6
Continuous
 62
     7
370
    25
100
AcDbCircle
 10
-34.9561170305
 20
196.0012634994
 30
0.0
 40
0.7500000000000484
100
AcDbArc
 50
227.5492017627
 51
65.9562314626
  0
ARC
  5
478
330
1F
100
AcDbEntity
  8
0
  6
Continuous
 62
     7
370
    25
100
AcDbCircle
 10
-37.6895695004
 20
208.8655623397
 30
0.0
 40
0.7499999999999993
100
AcDbArc
 50
317.9570686143
 51
158.6351107531
  0
ARC
  5
479
330
1F
100
AcDbEntity
  8
0
  6
Continuous
 62
     7
370
    25
100
AcDbCircle
 10
20.0913273673
 20
211.2168996041
 30
0.0
 40
0.7500000000000063
100
AcDbArc
 50
32.6339442097
 51
224.9287686353
  0
ARC
  5
47A
330
1F
100
AcDbEntity
  8
0
  6
Continuous
 62
     7
370
    25
100
AcDbCircle
 10
18.4589299569
 20
198.3096373121
 30
0.0
 40
0.7500000000000294
100
AcDbArc
 50
120.4956416185
 51
310.0057177268
  0
ARC
  5
47B
330
1F
100
AcDbEntity
  8
0
  6
Continuous
 62
     7
370
    25
100
AcDbCircle
 10
31.4274719211
 20
196.5982158435
 30
0.0
 40
0.7500000000000155
100
AcDbArc
 50
208.4372833929
 51
44.9063141894
  0
ARC
  5
47C
330
1F
100
AcDbEntity
  8
0
  6
Continuous
 62
     7
370
    25
100
AcDbCircle
 10
33.0776137176
 20
209.6457818659
 30
0.0
 40
0.7500000000000164
100
AcDbArc
 50
300.5161357786
 51
139.5208195505
  0
ARC
  5
47D
330
1F
100
AcDbEntity
  8
0
  6
Continuous
 62
     7
370
    25
100
AcDbCircle
 10
-33.0535552234
 20
209.5790446486
 30
0.0
 40
0.7500000000000223
100
AcDbArc
 50
47.0679810958
 51
237.9711830446
  0
ARC
  5
47E
330
1F
100
AcDbEntity
  8
0
  6
Continuous
 62
     7
370
    25
100
AcDbCircle
 10
-31.42408642
 20
196.6714123095
 30
0.0
 40
0.7500000000000332
100
AcDbArc
 50
136.3169374497
 51
324.4413256044
  0
ARC
  5
47F
330
1F
100
AcDbEntity
  8
0
  6
Continuous
 62
     7
370
    25
100
AcDbCircle
 10
-18.4374439286
 20
198.2395835124
 30
0.0
 40
0.7500000000000391
100
AcDbArc
 50
222.869510797
 51
60.7048415613
  0
ARC
  5
480
330
1F
100
AcDbEntity
  8
0
  6
Continuous
 62
     7
370
    25
100
AcDbCircle
 10
-20.0846252838
 20
211.2875236043
 30
0.0
 40
0.7500000000000131
100
AcDbArc
 50
313.5861718828
 51
153.9521445371
  0
ARC
  5
481
330
1F
100
AcDbEntity
  8
0
  6
Continuous
 62
     7
370
    25
100
AcDbCircle
 10
1.8049390184
 20
199.159122206
 30
0.0
 40
0.7500000000000123
100
AcDbArc
 50
125.7654444408
 51
314.744841182
  0
ARC
  5
482
330
1F
100
AcDbEntity
  8
0
  6
Continuous
 62
     7
370
    25
100
AcDbCircle
 10
14.8712173613
 20
198.5391106056
 30
0.0
 40
0.7499999999999988
100
AcDbArc
 50
213.3137177286
 51
50.1745190622
  0
ARC
  5
483
330
1F
100
AcDbEntity
  8
0
  6
Continuous
 62
     7
370
    25
100
AcDbCircle
 10
15.4235503584
 20
211.6790069263
 30
0.0
 40
0.7499999999999923
100
AcDbArc
 50
304.8710744665
 51
144.3950606286
  0
ARC
  5
484
330
1F
100
AcDbEntity
  8
0
  6
Continuous
 62
     7
370
    25
100
AcDbCircle
 10
2.351332641
 20
212.1577219456
 30
0.0
 40
0.7500000000000326
100
AcDbArc
 50
37.3758217471
 51
229.2799487802
  0
ARC
  5
485
330
1F
100
AcDbEntity
  8
0
  6
Continuous
 62
     7
370
    25
100
AcDbCircle
 10
-15.405161863
 20
211.6104902819
 30
0.0
 40
0.7500000000000228
100
AcDbArc
 50
42.1871559128
 51
233.6256938695
  0
ARC
  5
486
330
1F
100
AcDbEntity
  8
0
  6
Continuous
 62
     7
370
    25
100
AcDbCircle
 10
-14.8617175431
 20
198.6117669041
 30
0.0
 40
0.7499999999999952
100
AcDbArc
 50
131.0409287814
 51
319.5567244423
  0
ARC
  5
487
330
1F
100
AcDbEntity
  8
0
  6
Continuous
 62
     7
370
    25
100
AcDbCircle
 10
-1.7893915452
 20
199.087515919
 30
0.0
 40
0.7500000000000182
100
AcDbArc
 50
218.1244690467
 51
55.442388535
  0
ARC
  5
488
330
1F
100
AcDbEntity
  8
0
  6
Continuous
 62
     7
370
    25
100
AcDbCircle
 10
-2.3387431802
 20
212.2275372219
 30
0.0
 40
0.7500000000000269
100
AcDbArc
 50
309.2260586519
 51
149.2054946763
  0
ARC
  5
489
330
1F
100
AcDbEntity
  8
0
  6
Continuous
 62
     7
370
    25
100
AcDbCircle
 10
47.7631935397
 20
193.2784512846
 30
0.0
 40
0.7500000000000314
100
AcDbArc
 50
203.4955772364
 51
39.6436895958
  0
ARC
  5
48A
330
1F
100
AcDbEntity
  8
0
  6
Continuous
 62
     7
370
    25
100
AcDbCircle
 10
50.4995647561
 20
206.1421295931
 30
0.0
 40
0.75000000000002
100
AcDbArc
 50
296.1553333015
 51
134.5828259825
  0
ARC
  5
48B
330
1F
100
AcDbEntity
  8
0
  6
Continuous
 62
     7
370
    25
100
AcDbCircle
 10
37.6903371766
 20
208.7946251986
 30
0.0
 40
0.7500000000000154
100
AcDbArc
 50
27.9614629621
 51
220.5664009482
  0
ARC
  5
48C
330
1F
100
AcDbEntity
  8
0
  6
Continuous
 62
     7
370
    25
100
AcDbCircle
 10
34.9833908421
 20
196.06927323
 30
0.0
 40
0.7499999999999972
100
AcDbArc
 50
115.2372447888
 51
305.3388928146
  0
ARC
  5
48D
330
1F
100
AcDbEntity
  8
0
  6
Continuous
 62
     7
370
    25
100
AcDbCircle
 10
51.2623661822
 20
192.4537510488
 30
0.0
 40
0.750000000000014
100
AcDbArc
 50
109.9956403236
 51
300.7422661278
  0
ARC
  5
48E
330
1F
100
AcDbEntity
  8
0
  6
Continuous
 62
     7
370
    25
100
AcDbCircle
 10
63.763751147
 20
188.6031123899
 30
0.0
 40
0.7500000000000063
100
AcDbArc
 50
198.4904235261
 51
34.3925010912
  0
ARC
  5
48F
330
1F
100
AcDbEntity
  8
0
  6
Continuous
 62
     7
370
    25
100
AcDbCircle
 10
67.5671501118
 20
201.1926359461
 30
0.0
 40
0.7500000000000132
100
AcDbArc
 50
291.7828259839
 51
129.5822257529
  0
ARC
  5
490
330
1F
100
AcDbEntity
  8
0
  6
Continuous
 62
     7
370
    25
100
AcDbCircle
 10
55.0248662497
 20
204.9078963195
 30
0.0
 40
0.7500000000000334
100
AcDbArc
 50
23.3571868243
 51
216.1874277285
  0
ARC
  5
491
330
1F
100
AcDbEntity
  8
0
  6
Continuous
 62
     7
370
    25
100
AcDbCircle
 10
97.4974552002
 20
173.6570585865
 30
0.0
 40
0.7500000000000423
100
AcDbArc
 50
94.4199336365
 51
287.3517697863
  0
ARC
  5
492
330
1F
100
AcDbEntity
  8
0
  6
Continuous
 62
     7
370
    25
100
AcDbCircle
 10
108.6481131891
 20
166.8178429492
 30
0.0
 40
0.7500000000000061
100
AcDbArc
 50
183.1124058925
 51
18.764076846
  0
ARC
  5
493
330
1F
100
AcDbEntity
  8
0
  6
Continuous
 62
     7
370
    25
100
AcDbCircle
 10
115.4634975156
 20
178.0656197757
 30
0.0
 40
0.7500000000000294
100
AcDbArc
 50
278.5388324868
 51
114.2123437803
  0
ARC
  5
494
330
1F
100
AcDbEntity
  8
0
  6
Continuous
 62
     7
370
    25
100
AcDbCircle
 10
104.2395519999
 20
184.7838852646
 30
0.0
 40
0.7500000000000182
100
AcDbArc
 50
9.9467620042
 51
202.9021700511
  0
ARC
  5
495
330
1F
100
AcDbEntity
  8
0
  6
Continuous
 62
     7
370
    25
100
AcDbCircle
 10
79.3168655869
 20
182.60500696
 30
0.0
 40
0.7500000000000169
100
AcDbArc
 50
193.4230662712
 51
29.1583553799
  0
ARC
  5
496
330
1F
100
AcDbEntity
  8
0
  6
Continuous
 62
     7
370
    25
100
AcDbCircle
 10
84.1606030785
 20
194.8320325252
 30
0.0
 40
0.7500000000000103
100
AcDbArc
 50
287.3930302763
 51
124.5193332572
  0
ARC
  5
497
330
1F
100
AcDbEntity
  8
0
  6
Continuous
 62
     7
370
    25
100
AcDbCircle
 10
71.973274682
 20
199.5839869312
 30
0.0
 40
0.750000000000027
100
AcDbArc
 50
18.8208865025
 51
211.786920699
  0
ARC
  5
498
330
1F
100
AcDbEntity
  8
0
  6
Continuous
 62
     7
370
    25
100
AcDbCircle
 10
67.1816231073
 20
187.4884416204
 30
0.0
 40
0.7500000000000325
100
AcDbArc
 50
104.7757225867
 51
296.2143128955
  0
ARC
  5
499
330
1F
100
AcDbEntity
  8
0
  6
Continuous
 62
     7
370
    25
100
AcDbCircle
 10
82.6294529645
 20
181.2081875276
 30
0.0
 40
0.7500000000000117
100
AcDbArc
 50
99.5821631286
 51
291.7519405151
  0
ARC
  5
49A
330
1F
100
AcDbEntity
  8
0
  6
Continuous
 62
     7
370
    25
100
AcDbCircle
 10
94.3133975024
 20
175.3262249168
 30
0.0
 40
0.7499999999999923
100
AcDbArc
 50
188.2961160378
 51
23.9468470602
  0
ARC
  5
49B
330
1F
100
AcDbEntity
  8
0
  6
Continuous
 62
     7
370
    25
100
AcDbCircle
 10
100.163484033
 20
187.1049529739
 30
0.0
 40
0.750000000000024
100
AcDbArc
 50
282.9803843085
 51
119.3955617315
  0
ARC
  5
49C
330
1F
100
AcDbEntity
  8
0
  6
Continuous
 62
     7
370
    25
100
AcDbCircle
 10
88.4166320561
 20
192.8602559853
 30
0.0
 40
0.7500000000000286
100
AcDbArc
 50
14.3511910587
 51
207.360172052
  0
ARC
  5
49D
330
1F
100
AcDbEntity
  8
0
  6
Continuous
 62
     7
370
    25
100
AcDbCircle
 10
-94.3342770949
 20
175.3964618506
 30
0.0
 40
0.7499999999999994
100
AcDbArc
 50
157.3074241891
 51
344.6804619
  0
ARC
  5
49E
330
1F
100
AcDbEntity
  8
0
  6
Continuous
 62
     7
370
    25
100
AcDbCircle
 10
-82.5861195836
 20
181.1490994377
 30
0.0
 40
0.7500000000000412
100
AcDbArc
 50
241.2129824796
 51
81.5929464502
  0
ARC
  5
49F
330
1F
100
AcDbEntity
  8
0
  6
Continuous
 62
     7
370
    25
100
AcDbCircle
 10
-88.433533455
 20
192.9291545342
 30
0.0
 40
0.7500000000000212
100
AcDbArc
 50
331.1856998636
 51
172.3116067582
  0
ARC
  5
4A0
330
1F
100
AcDbEntity
  8
0
  6
Continuous
 62
     7
370
    25
100
AcDbCircle
 10
-100.1188122672
 20
187.0498430776
 30
0.0
 40
0.7499999999999892
100
AcDbArc
 50
67.2777877919
 51
255.4696193362
  0
ARC
  5
4A1
330
1F
100
AcDbEntity
  8
0
  6
Continuous
 62
     7
370
    25
100
AcDbCircle
 10
-89.1789777325
 20
174.3200538098
 30
0.0
 40
0.7500000000000073
100
AcDbArc
 50
70.2
 51
250.2
  0
ARC
  5
4A2
330
1F
100
AcDbEntity
  8
0
  6
Continuous
 62
     7
370
    25
100
AcDbCircle
 10
-83.6865997868
 20
162.5651197728
 30
0.0
 40
0.7500000000000022
100
AcDbArc
 50
156.4973049088
 51
343.9026950912
  0
ARC
  5
4A3
330
1F
100
AcDbEntity
  8
0
  6
Continuous
 62
     7
370
    25
100
AcDbCircle
 10
-71.8206407769
 20
168.0706679649
 30
0.0
 40
0.7499999999999857
100
AcDbArc
 50
239.649901988
 51
80.750098012
  0
ARC
  5
4A4
330
1F
100
AcDbEntity
  8
0
  6
Continuous
 62
     7
370
    25
100
AcDbCircle
 10
-77.4202770459
 20
179.9705007669
 30
0.0
 40
0.7500000000000087
100
AcDbArc
 50
329.649901988
 51
170.750098012
  0
ARC
  5
4A5
330
1F
100
AcDbEntity
  8
0
  6
Continuous
 62
     7
370
    25
100
AcDbCircle
 10
12.6171245727
 20
182.4160965784
 30
0.0
 40
0.750000000000035
100
AcDbArc
 50
123.8260107301
 51
311.6456475163
  0
ARC
  5
4A6
330
1F
100
AcDbEntity
  8
0
  6
Continuous
 62
     7
370
    25
100
AcDbCircle
 10
25.6185631038
 20
180.9757354287
 30
0.0
 40
0.7500000000000026
100
AcDbArc
 50
209.15428134
 51
48.181927928
  0
ARC
  5
4A7
330
1F
100
AcDbEntity
  8
0
  6
Continuous
 62
     7
370
    25
100
AcDbCircle
 10
26.9960084922
 20
194.0549017348
 30
0.0
 40
0.7500000000000469
100
AcDbArc
 50
299.5589929094
 51
140.2485596316
  0
ARC
  5
4A8
330
1F
100
AcDbEntity
  8
0
  6
Continuous
 62
     7
370
    25
100
AcDbCircle
 10
14.011215828
 20
195.3157554608
 30
0.0
 40
0.7499999999999912
100
AcDbArc
 50
37.8974307018
 51
220.2730740516
  0
ARC
  5
4A9
330
1F
100
AcDbEntity
  8
0
  6
Continuous
 62
     7
370
    25
100
AcDbCircle
 10
41.9125942313
 20
177.907982446
 30
0.0
 40
0.7500000000000341
100
AcDbArc
 50
203.8065549411
 51
42.739345379
  0
ARC
  5
4AA
330
1F
100
AcDbEntity
  8
0
  6
Continuous
 62
     7
370
    25
100
AcDbCircle
 10
44.4702195034
 20
190.8083894174
 30
0.0
 40
0.7500000000000265
100
AcDbArc
 50
294.5575551498
 51
134.9030292289
  0
ARC
  5
4AB
330
1F
100
AcDbEntity
  8
0
  6
Continuous
 62
     7
370
    25
100
AcDbCircle
 10
31.6532264147
 20
193.2413466335
 30
0.0
 40
0.7500000000000188
100
AcDbArc
 50
32.8170534442
 51
215.2962939792
  0
ARC
  5
4AC
330
1F
100
AcDbEntity
  8
0
  6
Continuous
 62
     7
370
    25
100
AcDbCircle
 10
29.0952992973
 20
180.5212169733
 30
0.0
 40
0.7500000000000103
100
AcDbArc
 50
118.3710021499
 51
306.5619272182
  0
ARC
  5
4AD
330
1F
100
AcDbEntity
  8
0
  6
Continuous
 62
     7
370
    25
100
AcDbCircle
 10
45.3338005823
 20
177.1401096124
 30
0.0
 40
0.7500000000000046
100
AcDbArc
 50
112.9323526986
 51
301.5609135873
  0
ARC
  5
4AE
330
1F
100
AcDbEntity
  8
0
  6
Continuous
 62
     7
370
    25
100
AcDbCircle
 10
57.8613690507
 20
173.3755283088
 30
0.0
 40
0.7500000000000152
100
AcDbArc
 50
198.3841266702
 51
37.3108157228
  0
ARC
  5
4AF
330
1F
100
AcDbEntity
  8
0
  6
Continuous
 62
     7
370
    25
100
AcDbCircle
 10
61.5781056882
 20
185.9909084389
 30
0.0
 40
0.7500000000000419
100
AcDbArc
 50
289.5418764238
 51
129.4829432356
  0
ARC
  5
4B0
330
1F
100
AcDbEntity
  8
0
  6
Continuous
 62
     7
370
    25
100
AcDbCircle
 10
49.0344925572
 20
189.5759275838
 30
0.0
 40
0.7500000000000062
100
AcDbArc
 50
27.8227363063
 51
210.3022992245
  0
ARC
  5
4B1
330
1F
100
AcDbEntity
  8
0
  6
Continuous
 62
     7
370
    25
100
AcDbCircle
 10
-3.9649841108
 20
182.8091392975
 30
0.0
 40
0.75000000000001
100
AcDbArc
 50
129.2909413203
 51
316.8137022512
  0
ARC
  5
4B2
330
1F
100
AcDbEntity
  8
0
  6
Continuous
 62
     7
370
    25
100
AcDbCircle
 10
9.1134982602
 20
182.5535165456
 30
0.0
 40
0.7500000000000361
100
AcDbArc
 50
214.4258429714
 51
53.632209071
  0
ARC
  5
4B3
330
1F
100
AcDbEntity
  8
0
  6
Continuous
 62
     7
370
    25
100
AcDbCircle
 10
9.2994170154
 20
195.7037021441
 30
0.0
 40
0.7500000000000231
100
AcDbArc
 50
304.5525063436
 51
145.5188774491
  0
ARC
  5
4B4
330
1F
100
AcDbEntity
  8
0
  6
Continuous
 62
     7
370
    25
100
AcDbCircle
 10
-3.746212588
 20
195.782066058
 30
0.0
 40
0.7500000000000139
100
AcDbArc
 50
43.064546617
 51
225.2394838949
  0
ARC
  5
4B5
330
1F
100
AcDbEntity
  8
0
  6
Continuous
 62
     7
370
    25
100
AcDbCircle
 10
-21.4727814605
 20
194.636437177
 30
0.0
 40
0.7500000000000241
100
AcDbArc
 50
48.3186637801
 51
230.2040118094
  0
ARC
  5
4B6
330
1F
100
AcDbEntity
  8
0
  6
Continuous
 62
     7
370
    25
100
AcDbCircle
 10
-20.5144311135
 20
181.6971074291
 30
0.0
 40
0.7500000000000026
100
AcDbArc
 50
134.7578103399
 51
322.0666159407
  0
ARC
  5
4B7
330
1F
100
AcDbEntity
  8
0
  6
Continuous
 62
     7
370
    25
100
AcDbCircle
 10
-7.4666393109
 20
182.6283287753
 30
0.0
 40
0.7500000000000289
100
AcDbArc
 50
219.6206804498
 51
59.0825528139
  0
ARC
  5
4B8
330
1F
100
AcDbEntity
  8
0
  6
Continuous
 62
     7
370
    25
100
AcDbCircle
 10
-8.4737787005
 20
195.7412086004
 30
0.0
 40
0.7500000000000259
100
AcDbArc
 50
309.5457061679
 51
150.7138158602
  0
ARC
  5
4B9
330
1F
100
AcDbEntity
  8
0
  6
Continuous
 62
     7
370
    25
100
AcDbCircle
 10
-36.8948898472
 20
179.0891613704
 30
0.0
 40
0.7499999999999933
100
AcDbArc
 50
140.2193890456
 51
327.4040240029
  0
ARC
  5
4BA
330
1F
100
AcDbEntity
  8
0
  6
Continuous
 62
     7
370
    25
100
AcDbCircle
 10
-23.9852702067
 20
181.1995558497
 30
0.0
 40
0.7500000000000254
100
AcDbArc
 50
224.7389451685
 51
64.5262327765
  0
ARC
  5
4BB
330
1F
100
AcDbEntity
  8
0
  6
Continuous
 62
     7
370
    25
100
AcDbCircle
 10
-26.1771713989
 20
194.1671121431
 30
0.0
 40
0.7500000000000137
100
AcDbArc
 50
314.5453120853
 51
155.8334960746
  0
ARC
  5
4BC
330
1F
100
AcDbEntity
  8
0
  6
Continuous
 62
     7
370
    25
100
AcDbCircle
 10
-39.022467623
 20
191.8883059715
 30
0.0
 40
0.7500000000000167
100
AcDbArc
 50
53.6598646144
 51
235.1743451042
  0
ARC
  5
4BD
330
1F
100
AcDbEntity
  8
0
  6
Continuous
 62
     7
370
    25
100
AcDbCircle
 10
-52.9714257699
 20
175.0067841588
 30
0.0
 40
0.7500000000000132
100
AcDbArc
 50
145.6681428858
 51
332.8241054373
  0
ARC
  5
4BE
330
1F
100
AcDbEntity
  8
0
  6
Continuous
 62
     7
370
    25
100
AcDbCircle
 10
-40.3063216878
 20
178.2789673306
 30
0.0
 40
0.7499999999999937
100
AcDbArc
 50
229.7820216014
 51
69.9564235744
  0
ARC
  5
4BF
330
1F
100
AcDbEntity
  8
0
  6
Continuous
 62
     7
370
    25
100
AcDbCircle
 10
-43.6649288278
 20
190.994379441
 30
0.0
 40
0.7500000000000214
100
AcDbArc
 50
319.5581570215
 51
160.878845819
  0
ARC
  5
4C0
330
1F
100
AcDbEntity
  8
0
  6
Continuous
 62
     7
370
    25
100
AcDbCircle
 10
-56.2507049858
 20
187.5603102585
 30
0.0
 40
0.7500000000000129
100
AcDbArc
 50
59.0874537999
 51
240.1584963119
  0
ARC
  5
4C1
330
1F
100
AcDbEntity
  8
0
  6
Continuous
 62
     7
370
    25
100
AcDbCircle
 10
73.3335090298
 20
167.4157092501
 30
0.0
 40
0.7500000000000051
100
AcDbArc
 50
192.8893619624
 51
31.9039268379
  0
ARC
  5
4C2
330
1F
100
AcDbEntity
  8
0
  6
Continuous
 62
     7
370
    25
100
AcDbCircle
 10
78.1787402982
 20
179.6421429498
 30
0.0
 40
0.7499999999999957
100
AcDbArc
 50
284.5044283641
 51
123.9894792562
  0
ARC
  5
4C3
330
1F
100
AcDbEntity
  8
0
  6
Continuous
 62
     7
370
    25
100
AcDbCircle
 10
66.011835531
 20
184.349692316
 30
0.0
 40
0.7500000000000101
100
AcDbArc
 50
22.9133467646
 51
205.2830436573
  0
ARC
  5
4C4
330
1F
100
AcDbEntity
  8
0
  6
Continuous
 62
     7
370
    25
100
AcDbCircle
 10
61.1988632648
 20
172.3006264735
 30
0.0
 40
0.7500000000000373
100
AcDbArc
 50
107.5176280568
 51
296.6398838037
  0
ARC
  5
4C5
330
1F
100
AcDbEntity
  8
0
  6
Continuous
 62
     7
370
    25
100
AcDbCircle
 10
-68.6116079132
 20
169.4836045045
 30
0.0
 40
0.750000000000024
100
AcDbArc
 50
151.0966848782
 51
338.3249345254
  0
ARC
  5
4C6
330
1F
100
AcDbEntity
  8
0
  6
Continuous
 62
     7
370
    25
100
AcDbCircle
 10
-56.2953485811
 20
173.8906216573
 30
0.0
 40
0.7500000000000068
100
AcDbArc
 50
234.7513171424
 51
75.3666052644
  0
ARC
  5
4C7
330
1F
100
AcDbEntity
  8
0
  6
Continuous
 62
     7
370
    25
100
AcDbCircle
 10
-60.7929950375
 20
186.2491459791
 30
0.0
 40
0.7499999999999949
100
AcDbArc
 50
324.5907823881
 51
165.8504285714
  0
ARC
  5
4C8
330
1F
100
AcDbEntity
  8
0
  6
Continuous
 62
     7
370
    25
100
AcDbCircle
 10
-73.0155754041
 20
181.6881020382
 30
0.0
 40
0.7500000000000255
100
AcDbArc
 50
64.6013157439
 51
245.1643183842
  0
ARC
  5
4C9
330
1F
100
AcDbEntity
  8
0
  6
Continuous
 62
     7
370
    25
100
AcDbCircle
 10
-70.9002474775
 20
164.9011428995
 30
0.0
 40
0.750000000000022
100
AcDbArc
 50
66.2
 51
246.2
  0
ARC
  5
4CA
330
1F
100
AcDbEntity
  8
0
  6
Continuous
 62
     7
370
    25
100
AcDbCircle
 10
-66.2210541712
 20
152.8374623564
 30
0.0
 40
0.7500000000000132
100
AcDbArc
 50
156.2
 51
336.2
  0
ARC
  5
4CB
330
1F
100
AcDbEntity
  8
0
  6
Continuous
 62
     7
370
    25
100
AcDbCircle
 10
-54.020129678
 20
157.4561238683
 30
0.0
 40
0.7500000000000173
100
AcDbArc
 50
235.649901988
 51
76.750098012
  0
ARC
  5
4CC
330
1F
100
AcDbEntity
  8
0
  6
Continuous
 62
     7
370
    25
100
AcDbCircle
 10
-58.77603514
 20
169.717580156
 30
0.0
 40
0.7499999999999972
100
AcDbArc
 50
325.649901988
 51
166.750098012
  0
ARC
  5
4CD
330
1F
100
AcDbEntity
  8
0
  6
Continuous
 62
     7
370
    25
100
AcDbCircle
 10
-5.3411670448
 20
166.3846686143
 30
0.0
 40
0.7500000000000178
100
AcDbArc
 50
219.073811411
 51
58.9832566749
  0
ARC
  5
4CE
330
1F
100
AcDbEntity
  8
0
  6
Continuous
 62
     7
370
    25
100
AcDbCircle
 10
-6.2797485403
 20
179.5026338466
 30
0.0
 40
0.7500000000000152
100
AcDbArc
 50
309.056121558
 51
150.1707310472
  0
ARC
  5
4CF
330
1F
100
AcDbEntity
  8
0
  6
Continuous
 62
     7
370
    25
100
AcDbCircle
 10
-19.2843486089
 20
178.4658263888
 30
0.0
 40
0.7500000000000199
100
AcDbArc
 50
48.3118640815
 51
229.6870425579
  0
ARC
  5
4D0
330
1F
100
AcDbEntity
  8
0
  6
Continuous
 62
     7
370
    25
100
AcDbCircle
 10
-18.3609063147
 20
165.5594522825
 30
0.0
 40
0.7500000000000555
100
AcDbArc
 50
138.3320929515
 51
229.8679070485
  0
ARC
  5
4D1
330
1F
100
AcDbEntity
  8
0
  6
Continuous
 62
     7
370
    25
100
AcDbCircle
 10
-18.3609063147
 20
165.5594522825
 30
0.0
 40
0.7500000000000234
100
AcDbArc
 50
229.8991424903
 51
318.3008575097
  0
ARC
  5
4D2
330
1F
100
AcDbEntity
  8
0
  6
Continuous
 62
     7
370
    25
100
AcDbCircle
 10
-34.7106458101
 20
162.9162331959
 30
0.0
 40
0.7500000000000508
100
AcDbArc
 50
235.4367058841
 51
324.1632941159
  0
ARC
  5
4D3
330
1F
100
AcDbEntity
  8
0
  6
Continuous
 62
     7
370
    25
100
AcDbCircle
 10
-21.8373342736
 20
165.0310482555
 30
0.0
 40
0.7500000000000154
100
AcDbArc
 50
224.68851792
 51
64.9247069432
  0
ARC
  5
4D4
330
1F
100
AcDbEntity
  8
0
  6
Continuous
 62
     7
370
    25
100
AcDbCircle
 10
-24.0747135221
 20
177.9908353355
 30
0.0
 40
0.7500000000000175
100
AcDbArc
 50
314.5684915485
 51
155.7864178892
  0
ARC
  5
4D5
330
1F
100
AcDbEntity
  8
0
  6
Continuous
 62
     7
370
    25
100
AcDbCircle
 10
-36.9119364132
 20
175.6669805435
 30
0.0
 40
0.7500000000000292
100
AcDbArc
 50
54.1702978603
 51
235.1706240796
  0
ARC
  5
4D6
330
1F
100
AcDbEntity
  8
0
  6
Continuous
 62
     7
370
    25
100
AcDbCircle
 10
-34.7106458101
 20
162.9162331959
 30
0.0
 40
0.7499999999999614
100
AcDbArc
 50
144.3082901363
 51
235.2917098637
  0
ARC
  5
4D7
330
1F
100
AcDbEntity
  8
0
  6
Continuous
 62
     7
370
    25
100
AcDbCircle
 10
11.2078645411
 20
166.0924788031
 30
0.0
 40
0.7500000000000014
100
AcDbArc
 50
213.3671085665
 51
53.0342118016
  0
ARC
  5
4D8
330
1F
100
AcDbEntity
  8
0
  6
Continuous
 62
     7
370
    25
100
AcDbCircle
 10
11.5773704364
 20
179.2387867431
 30
0.0
 40
0.7500000000000181
100
AcDbArc
 50
303.551040816
 51
144.4641029186
  0
ARC
  5
4D9
330
1F
100
AcDbEntity
  8
0
  6
Continuous
 62
     7
370
    25
100
AcDbCircle
 10
-1.4658934001
 20
179.4992884515
 30
0.0
 40
0.7500000000000234
100
AcDbArc
 50
42.558892225
 51
224.2104822915
  0
ARC
  5
4DA
330
1F
100
AcDbEntity
  8
0
  6
Continuous
 62
     7
370
    25
100
AcDbCircle
 10
-1.829439212
 20
166.5650288018
 30
0.0
 40
0.7500000000000275
100
AcDbArc
 50
132.3493984161
 51
312.5463365479
  0
ARC
  5
4DB
330
1F
100
AcDbEntity
  8
0
  6
Continuous
 62
     7
370
    25
100
AcDbCircle
 10
27.6459659598
 20
164.157370779
 30
0.0
 40
0.7500000000000254
100
AcDbArc
 50
207.5688604123
 51
47.0873564072
  0
ARC
  5
4DC
330
1F
100
AcDbEntity
  8
0
  6
Continuous
 62
     7
370
    25
100
AcDbCircle
 10
29.3199020505
 20
177.2019054592
 30
0.0
 40
0.7500000000000028
100
AcDbArc
 50
298.0434778258
 51
138.6669364511
  0
ARC
  5
4DD
330
1F
100
AcDbEntity
  8
0
  6
Continuous
 62
     7
370
    25
100
AcDbCircle
 10
16.3670705315
 20
178.7571380107
 30
0.0
 40
0.7499999999999877
100
AcDbArc
 50
36.9106070626
 51
218.7297318495
  0
ARC
  5
4DE
330
1F
100
AcDbEntity
  8
0
  6
Continuous
 62
     7
370
    25
100
AcDbCircle
 10
14.7201348189
 20
165.9230100309
 30
0.0
 40
0.7499999999999977
100
AcDbArc
 50
126.3713717121
 51
306.8995435445
  0
ARC
  5
4DF
330
1F
100
AcDbEntity
  8
0
  6
Continuous
 62
     7
370
    25
100
AcDbCircle
 10
34.0380409036
 20
176.2467205219
 30
0.0
 40
0.7500000000000078
100
AcDbArc
 50
31.3670192983
 51
213.2351509004
  0
ARC
  5
4E0
330
1F
100
AcDbEntity
  8
0
  6
Continuous
 62
     7
370
    25
100
AcDbCircle
 10
31.1240158847
 20
163.6397503692
 30
0.0
 40
0.7500000000000161
100
AcDbArc
 50
120.4075741211
 51
301.3598990044
  0
ARC
  5
4E1
330
1F
100
AcDbEntity
  8
0
  6
Continuous
 62
     7
370
    25
100
AcDbCircle
 10
43.8104406216
 20
160.5984973304
 30
0.0
 40
0.7500000000000036
100
AcDbArc
 50
201.6796252904
 51
41.1513406269
  0
ARC
  5
4E2
330
1F
100
AcDbEntity
  8
0
  6
Continuous
 62
     7
370
    25
100
AcDbCircle
 10
46.7722390763
 20
173.4121500872
 30
0.0
 40
0.7500000000000259
100
AcDbArc
 50
292.5248175491
 51
132.7791495604
  0
ARC
  5
4E3
330
1F
100
AcDbEntity
  8
0
  6
Continuous
 62
     7
370
    25
100
AcDbCircle
 10
-50.716835673
 20
158.6615328803
 30
0.0
 40
0.7499999999999799
100
AcDbArc
 50
150.2676084918
 51
240.7323915082
  0
ARC
  5
4E4
330
1F
100
AcDbEntity
  8
0
  6
Continuous
 62
     7
370
    25
100
AcDbCircle
 10
-50.716835673
 20
158.6615328803
 30
0.0
 40
0.7500000000000312
100
AcDbArc
 50
240.8692768381
 51
330.1307231619
  0
ARC
  5
4E5
330
1F
100
AcDbEntity
  8
0
  6
Continuous
 62
     7
370
    25
100
AcDbCircle
 10
-38.1173658476
 20
162.0450152238
 30
0.0
 40
0.750000000000005
100
AcDbArc
 50
230.2132146035
 51
70.8497497604
  0
ARC
  5
4E6
330
1F
100
AcDbEntity
  8
0
  6
Continuous
 62
     7
370
    25
100
AcDbCircle
 10
-41.6313983225
 20
174.7183542796
 30
0.0
 40
0.7500000000000081
100
AcDbArc
 50
320.0969774077
 51
161.3125819482
  0
ARC
  5
4E7
330
1F
100
AcDbEntity
  8
0
  6
Continuous
 62
     7
370
    25
100
AcDbCircle
 10
-54.1741872469
 20
171.1304525743
 30
0.0
 40
0.7500000000000296
100
AcDbArc
 50
60.1330893568
 51
240.6716086566
  0
ARC
  5
4E8
330
1F
100
AcDbEntity
  8
0
  6
Continuous
 62
     7
370
    25
100
AcDbCircle
 10
-80.9953420257
 20
126.5626940734
 30
0.0
 40
0.7499999999999987
100
AcDbArc
 50
165.15
 51
345.15
  0
ARC
  5
4E9
330
1F
100
AcDbEntity
  8
0
  6
Continuous
 62
     7
370
    25
100
AcDbCircle
 10
-69.6615067894
 20
133.0232491181
 30
0.0
 40
0.7500000000000353
100
AcDbArc
 50
244.599901988
 51
85.700098012
  0
ARC
  5
4EA
330
1F
100
AcDbEntity
  8
0
  6
Continuous
 62
     7
370
    25
100
AcDbCircle
 10
-76.2670518494
 20
144.3955277605
 30
0.0
 40
0.7500000000000103
100
AcDbArc
 50
334.599901988
 51
175.700098012
  0
ARC
  5
4EB
330
1F
100
AcDbEntity
  8
0
  6
Continuous
 62
     7
370
    25
100
AcDbCircle
 10
-87.4943404764
 20
137.7515392945
 30
0.0
 40
0.7500000000000197
100
AcDbArc
 50
75.15
 51
255.15
  0
ARC
  5
4EC
330
1F
100
AcDbEntity
  8
0
  6
Continuous
 62
     7
370
    25
100
AcDbCircle
 10
-40.7504967905
 20
158.1419304151
 30
0.0
 40
0.750000000000013
100
AcDbArc
 50
323.2017541413
 51
163.1537377559
  0
ARC
  5
4ED
330
1F
100
AcDbEntity
  8
0
  6
Continuous
 62
     7
370
    25
100
AcDbCircle
 10
-53.2118627424
 20
154.2807193016
 30
0.0
 40
0.7499999999999978
100
AcDbArc
 50
60.7579813002
 51
244.0120325601
  0
ARC
  5
4EE
330
1F
100
AcDbEntity
  8
0
  6
Continuous
 62
     7
370
    25
100
AcDbCircle
 10
-49.4827852396
 20
141.8903512998
 30
0.0
 40
0.7500000000000068
100
AcDbArc
 50
149.4879674399
 51
330.7404978986
  0
ARC
  5
4EF
330
1F
100
AcDbEntity
  8
0
  6
Continuous
 62
     7
370
    25
100
AcDbCircle
 10
-36.960283627
 20
145.5484308525
 30
0.0
 40
0.7500000000000179
100
AcDbArc
 50
232.062357758
 51
70.2982458587
  0
ARC
  5
4F0
330
1F
100
AcDbEntity
  8
0
  6
Continuous
 62
     7
370
    25
100
AcDbCircle
 10
-15.2759777096
 20
149.4977575501
 30
0.0
 40
0.7500000000000151
100
AcDbArc
 50
133.74820483
 51
316.8922496864
  0
ARC
  5
4F1
330
1F
100
AcDbEntity
  8
0
  6
Continuous
 62
     7
370
    25
100
AcDbCircle
 10
-2.2466379389
 20
150.1541856044
 30
0.0
 40
0.7500000000000133
100
AcDbArc
 50
219.0432282454
 51
54.6901097081
  0
ARC
  5
4F2
330
1F
100
AcDbEntity
  8
0
  6
Continuous
 62
     7
370
    25
100
AcDbCircle
 10
-3.0151487563
 20
163.2832121556
 30
0.0
 40
0.7500000000000161
100
AcDbArc
 50
312.0098902919
 51
150.1251819415
  0
ARC
  5
4F3
330
1F
100
AcDbEntity
  8
0
  6
Continuous
 62
     7
370
    25
100
AcDbCircle
 10
-16.0320925444
 20
162.4150145576
 30
0.0
 40
0.7500000000000261
100
AcDbArc
 50
46.9284387666
 51
232.95179517
  0
ARC
  5
4F4
330
1F
100
AcDbEntity
  8
0
  6
Continuous
 62
     7
370
    25
100
AcDbCircle
 10
-34.8600491361
 20
159.4360304532
 30
0.0
 40
0.7500000000000271
100
AcDbArc
 50
53.7720244346
 51
238.480221361
  0
ARC
  5
4F5
330
1F
100
AcDbEntity
  8
0
  6
Continuous
 62
     7
370
    25
100
AcDbCircle
 10
-32.6020321781
 20
146.6952063958
 30
0.0
 40
0.7500000000000057
100
AcDbArc
 50
141.619778639
 51
323.7428551129
  0
ARC
  5
4F6
330
1F
100
AcDbEntity
  8
0
  6
Continuous
 62
     7
370
    25
100
AcDbCircle
 10
-19.7382602799
 20
148.8672941478
 30
0.0
 40
0.7500000000000021
100
AcDbArc
 50
225.615406534
 51
62.5139469888
  0
ARC
  5
4F7
330
1F
100
AcDbEntity
  8
0
  6
Continuous
 62
     7
370
    25
100
AcDbCircle
 10
-22.0332958728
 20
161.816995252
 30
0.0
 40
0.7500000000000183
100
AcDbArc
 50
317.5860530112
 51
156.7008969435
  0
ARC
  5
4F8
330
1F
100
AcDbEntity
  8
0
  6
Continuous
 62
     7
370
    25
100
AcDbCircle
 10
16.0441813752
 20
162.5205545077
 30
0.0
 40
0.7500000000000374
100
AcDbArc
 50
306.4590862706
 51
143.4251819415
  0
ARC
  5
4F9
330
1F
100
AcDbEntity
  8
0
  6
Continuous
 62
     7
370
    25
100
AcDbCircle
 10
3.0148416045
 20
163.176982562
 30
0.0
 40
0.7500000000000006
100
AcDbArc
 50
40.2284387666
 51
227.4107017257
  0
ARC
  5
4FA
330
1F
100
AcDbEntity
  8
0
  6
Continuous
 62
     7
370
    25
100
AcDbCircle
 10
2.2587267697
 20
150.2597255544
 30
0.0
 40
0.7500000000000283
100
AcDbArc
 50
125.8892982743
 51
310.1922496864
  0
ARC
  5
4FB
330
1F
100
AcDbEntity
  8
0
  6
Continuous
 62
     7
370
    25
100
AcDbCircle
 10
15.2756705578
 20
149.3915279565
 30
0.0
 40
0.7499999999999959
100
AcDbArc
 50
212.3432282454
 51
46.8409137294
  0
ARC
  5
4FC
330
1F
100
AcDbEntity
  8
0
  6
Continuous
 62
     7
370
    25
100
AcDbCircle
 10
19.7625799756
 20
148.9707029158
 30
0.0
 40
0.7500000000000162
100
AcDbArc
 50
118.056491666
 51
303.6428551129
  0
ARC
  5
4FD
330
1F
100
AcDbEntity
  8
0
  6
Continuous
 62
     7
370
    25
100
AcDbCircle
 10
32.5893332389
 20
146.589738117
 30
0.0
 40
0.7500000000000236
100
AcDbArc
 50
205.515406534
 51
38.9797419659
  0
ARC
  5
4FE
330
1F
100
AcDbEntity
  8
0
  6
Continuous
 62
     7
370
    25
100
AcDbCircle
 10
34.8843688317
 20
159.5394392212
 30
0.0
 40
0.7500000000000058
100
AcDbArc
 50
300.9202580341
 51
136.6008969435
  0
ARC
  5
4FF
330
1F
100
AcDbEntity
  8
0
  6
Continuous
 62
     7
370
    25
100
AcDbCircle
 10
22.0205969336
 20
161.7115269732
 30
0.0
 40
0.7500000000000043
100
AcDbArc
 50
33.6720244346
 51
221.843508334
  0
ARC
  5
500
330
1F
100
AcDbEntity
  8
0
  6
Continuous
 62
     7
370
    25
100
AcDbCircle
 10
87.5527163884
 20
137.8402921749
 30
0.0
 40
0.7500000000000097
100
AcDbArc
 50
284.2162428354
 51
115.400098012
  0
ARC
  5
501
330
1F
100
AcDbEntity
  8
0
  6
Continuous
 62
     7
370
    25
100
AcDbCircle
 10
76.2188811521
 20
144.3008472196
 30
0.0
 40
0.7499999999999915
100
AcDbArc
 50
14.85
 51
204.8518535856
  0
ARC
  5
502
330
1F
100
AcDbEntity
  8
0
  6
Continuous
 62
     7
370
    25
100
AcDbCircle
 10
69.7198827014
 20
133.1120019986
 30
0.0
 40
0.7500000000000303
100
AcDbArc
 50
94.8481464144
 51
284.85
  0
ARC
  5
503
330
1F
100
AcDbEntity
  8
0
  6
Continuous
 62
     7
370
    25
100
AcDbCircle
 10
80.9471713284
 20
126.4680135326
 30
0.0
 40
0.7500000000000013
100
AcDbArc
 50
184.299901988
 51
15.4837571646
  0
ARC
  5
504
330
1F
100
AcDbEntity
  8
0
  6
Continuous
 62
     7
370
    25
100
AcDbCircle
 10
-65.6876677366
 20
135.1488203406
 30
0.0
 40
0.7500000000000133
100
AcDbArc
 50
157.3369239929
 51
337.8794555452
  0
ARC
  5
505
330
1F
100
AcDbEntity
  8
0
  6
Continuous
 62
     7
370
    25
100
AcDbCircle
 10
-53.677477514
 20
140.2429270795
 30
0.0
 40
0.7500000000000236
100
AcDbArc
 50
238.3881287281
 51
78.0307614798
  0
ARC
  5
506
330
1F
100
AcDbEntity
  8
0
  6
Continuous
 62
     7
370
    25
100
AcDbCircle
 10
-58.9110988601
 20
152.3082142566
 30
0.0
 40
0.7500000000000148
100
AcDbArc
 50
328.8692385202
 51
169.48548729
  0
ARC
  5
507
330
1F
100
AcDbEntity
  8
0
  6
Continuous
 62
     7
370
    25
100
AcDbCircle
 10
-70.83687143
 20
147.019495956
 30
0.0
 40
0.7499999999999947
100
AcDbArc
 50
67.8850814423
 51
249.5630760071
  0
ARC
  5
508
330
1F
100
AcDbEntity
  8
0
  6
Continuous
 62
     7
370
    25
100
AcDbCircle
 10
-94.3682738752
 20
171.5663153628
 30
0.0
 40
0.7500000000000183
100
AcDbArc
 50
345.706
 51
165.706
  0
ARC
  5
509
330
1F
100
AcDbEntity
  8
0
  6
Continuous
 62
     7
370
    25
100
AcDbCircle
 10
-105.4935267933
 20
164.9590477165
 30
0.0
 40
0.7500000000000426
100
AcDbArc
 50
75.706
 51
255.706
  0
ARC
  5
50A
330
1F
100
AcDbEntity
  8
0
  6
Continuous
 62
     7
370
    25
100
AcDbCircle
 10
-98.886259147
 20
153.8337947983
 30
0.0
 40
0.7500000000000113
100
AcDbArc
 50
165.706
 51
345.706
  0
ARC
  5
50B
330
1F
100
AcDbEntity
  8
0
  6
Continuous
 62
     7
370
    25
100
AcDbCircle
 10
-87.7610062289
 20
160.4410624447
 30
0.0
 40
0.7500000000000145
100
AcDbArc
 50
255.706
 51
75.706
  0
ARC
  5
50C
330
1F
100
AcDbEntity
  8
0
  6
Continuous
 62
     7
370
    25
100
AcDbCircle
 10
-85.9526957754
 20
142.6767377148
 30
0.0
 40
0.750000000000001
100
AcDbArc
 50
163.84
 51
343.84
  0
ARC
  5
50D
330
1F
100
AcDbEntity
  8
0
  6
Continuous
 62
     7
370
    25
100
AcDbCircle
 10
-74.6181959927
 20
148.9182401717
 30
0.0
 40
0.7499999999999952
100
AcDbArc
 50
253.84
 51
73.84
  0
ARC
  5
50E
330
1F
100
AcDbEntity
  8
0
  6
Continuous
 62
     7
370
    25
100
AcDbCircle
 10
-80.8596984496
 20
160.2527399543
 30
0.0
 40
0.7500000000000169
100
AcDbArc
 50
343.84
 51
163.84
  0
ARC
  5
50F
330
1F
100
AcDbEntity
  8
0
  6
Continuous
 62
     7
370
    25
100
AcDbCircle
 10
-92.1941982323
 20
154.0112374974
 30
0.0
 40
0.7499999999999875
100
AcDbArc
 50
73.84
 51
253.84
  0
ARC
  5
510
330
1F
100
AcDbEntity
  8
0
  6
Continuous
 62
     7
370
    25
100
AcDbCircle
 10
88.9326829187
 20
174.4458364323
 30
0.0
 40
0.7499999999999847
100
AcDbArc
 50
16.094
 51
196.094
  0
ARC
  5
511
330
1F
100
AcDbEntity
  8
0
  6
Continuous
 62
     7
370
    25
100
AcDbCircle
 10
82.6781281992
 20
163.1185338627
 30
0.0
 40
0.7500000000000139
100
AcDbArc
 50
106.094
 51
286.094
  0
ARC
  5
512
330
1F
100
AcDbEntity
  8
0
  6
Continuous
 62
     7
370
    25
100
AcDbCircle
 10
94.0054307688
 20
156.8639791431
 30
0.0
 40
0.750000000000022
100
AcDbArc
 50
196.094
 51
16.094
  0
ARC
  5
513
330
1F
100
AcDbEntity
  8
0
  6
Continuous
 62
     7
370
    25
100
AcDbCircle
 10
100.2599854883
 20
168.1912817128
 30
0.0
 40
0.7500000000000174
100
AcDbArc
 50
286.094
 51
106.094
  0
ARC
  5
514
330
1F
100
AcDbEntity
  8
0
  6
Continuous
 62
     7
370
    25
100
AcDbCircle
 10
-126.7962673367
 20
191.7568591099
 30
0.0
 40
2.113628213749975
100
AcDbArc
 50
123.9901441638
 51
217.2543129892
  0
ARC
  5
515
330
1F
100
AcDbEntity
  8
0
  6
Continuous
 62
     7
370
    25
100
AcDbCircle
 10
0.0
 20
0.0997173281
 30
0.0
 40
231.9172757156112
100
AcDbArc
 50
115.5092936651
 51
123.492347707
  0
ARC
  5
516
330
1F
100
AcDbEntity
  8
0
  6
Continuous
 62
     7
370
    25
100
AcDbCircle
 10
-100.1820706876
 20
210.0940351409
 30
0.0
 40
0.7502586173995275
100
AcDbArc
 50
294.0
 51
117.0088547228
  0
ARC
  5
517
330
1F
100
AcDbEntity
  8
0
  6
Continuous
 62
     7
370
    25
100
AcDbCircle
 10
0.0
 20
0.0997173281
 30
0.0
 40
233.4172757155926
100
AcDbArc
 50
115.5092623929
 51
119.7555813533
  0
ARC
  5
518
330
1F
100
AcDbEntity
  8
0
  6
Continuous
 62
     7
370
    25
100
AcDbCircle
 10
-116.3415459749
 20
203.6091859877
 30
0.0
 40
1.000000000000034
100
AcDbArc
 50
119.7555813533
 51
299.7555813533
  0
ARC
  5
519
330
1F
100
AcDbEntity
  8
0
  6
Continuous
 62
     7
370
    25
100
AcDbCircle
 10
0.0
 20
0.0997173281
 30
0.0
 40
235.4172757156236
100
AcDbArc
 50
108.2444186467
 51
119.7555813533
  0
ARC
  5
51A
330
1F
100
AcDbEntity
  8
0
  6
Continuous
 62
     7
370
    25
100
AcDbCircle
 10
-73.3893193671
 20
222.7327493713
 30
0.0
 40
1.000000000000123
100
AcDbArc
 50
288.2444186467
 51
108.2444186467
  0
ARC
  5
51B
330
1F
100
AcDbEntity
  8
0
  6
Continuous
 62
     7
370
    25
100
AcDbCircle
 10
0.0
 20
0.0997173281
 30
0.0
 40
233.4172757156044
100
AcDbArc
 50
108.2444186467
 51
112.5004076702
  0
ARC
  5
51C
330
1F
100
AcDbEntity
  8
0
  6
Continuous
 62
     7
370
    25
100
AcDbCircle
 10
-89.039446054
 20
215.0556156778
 30
0.0
 40
0.750000000019108
100
AcDbArc
 50
112.5
 51
292.5
  0
ARC
  5
51D
330
1F
100
AcDbEntity
  8
0
  6
Continuous
 62
     7
370
    25
100
AcDbCircle
 10
0.0
 20
0.0997173281
 30
0.0
 40
231.9172757156275
100
AcDbArc
 50
91.5092936651
 51
112.500410307
  0
ARC
  5
51E
330
1F
100
AcDbEntity
  8
0
  6
Continuous
 62
     7
370
    25
100
AcDbCircle
 10
-6.1084917217
 20
232.6867916246
 30
0.0
 40
0.7502586173921207
100
AcDbArc
 50
270.0
 51
273.0000060872
  0
ARC
  5
51F
330
1F
100
AcDbEntity
  8
0
  6
Continuous
 62
     7
370
    25
100
AcDbCircle
 10
-6.0888590105
 20
232.6873072482
 30
0.0
 40
0.7500000000191106
100
AcDbArc
 50
271.5
 51
91.5
  0
ARC
  5
520
330
1F
100
AcDbEntity
  8
0
  6
Continuous
 62
     7
370
    25
100
AcDbCircle
 10
0.0
 20
0.0997173281
 30
0.0
 40
233.4172757155756
100
AcDbArc
 50
91.4995923298
 51
95.7555813533
  0
ARC
  5
521
330
1F
100
AcDbEntity
  8
0
  6
Continuous
 62
     7
370
    25
100
AcDbCircle
 10
-23.5085327437
 20
233.3352378694
 30
0.0
 40
1.000000000000019
100
AcDbArc
 50
95.7555813533
 51
275.7555813533
  0
ARC
  5
522
330
1F
100
AcDbEntity
  8
0
  6
Continuous
 62
     7
370
    25
100
AcDbCircle
 10
0.0
 20
0.0997173281
 30
0.0
 40
235.417275715628
100
AcDbArc
 50
84.2444186467
 51
95.7555813533
  0
ARC
  5
523
330
1F
100
AcDbEntity
  8
0
  6
Continuous
 62
     7
370
    25
100
AcDbCircle
 10
23.5085327437
 20
233.3352378694
 30
0.0
 40
1.000000000000085
100
AcDbArc
 50
264.2444186467
 51
84.2444186467
  0
ARC
  5
524
330
1F
100
AcDbEntity
  8
0
  6
Continuous
 62
     7
370
    25
100
AcDbCircle
 10
0.0
 20
0.0997173281
 30
0.0
 40
233.4172757155565
100
AcDbArc
 50
84.2444186467
 51
88.4907376071
  0
ARC
  5
525
330
1F
100
AcDbEntity
  8
0
  6
Continuous
 62
     7
370
    25
100
AcDbCircle
 10
6.1084917217
 20
232.6867916246
 30
0.0
 40
0.7502586173995454
100
AcDbArc
 50
86.9911452772
 51
270.0
  0
ARC
  5
526
330
1F
100
AcDbEntity
  8
0
  6
Continuous
 62
     7
370
    25
100
AcDbCircle
 10
0.0
 20
0.0997173281
 30
0.0
 40
231.9172757156223
100
AcDbArc
 50
67.499589693
 51
88.4907063349
  0
ARC
  5
527
330
1F
100
AcDbEntity
  8
0
  6
Continuous
 62
     7
370
    25
100
AcDbCircle
 10
89.039446054
 20
215.0556156778
 30
0.0
 40
0.7500000000191026
100
AcDbArc
 50
247.5
 51
67.5
  0
ARC
  5
528
330
1F
100
AcDbEntity
  8
0
  6
Continuous
 62
     7
370
    25
100
AcDbCircle
 10
0.0
 20
0.0997173281
 30
0.0
 40
233.4172757156044
100
AcDbArc
 50
67.4995923298
 51
71.7555813533
  0
ARC
  5
529
330
1F
100
AcDbEntity
  8
0
  6
Continuous
 62
     7
370
    25
100
AcDbCircle
 10
73.3893193671
 20
222.7327493713
 30
0.0
 40
1.000000000000029
100
AcDbArc
 50
71.7555813533
 51
251.7555813533
  0
ARC
  5
52A
330
1F
100
AcDbEntity
  8
0
  6
Continuous
 62
     7
370
    25
100
AcDbCircle
 10
0.0
 20
0.0997173281
 30
0.0
 40
235.4172757156236
100
AcDbArc
 50
60.2444186467
 51
71.7555813533
  0
ARC
  5
52B
330
1F
100
AcDbEntity
  8
0
  6
Continuous
 62
     7
370
    25
100
AcDbCircle
 10
116.3415459749
 20
203.6091859877
 30
0.0
 40
1.000000000000045
100
AcDbArc
 50
240.2444186467
 51
60.2444186467
  0
ARC
  5
52C
330
1F
100
AcDbEntity
  8
0
  6
Continuous
 62
     7
370
    25
100
AcDbCircle
 10
0.0
 20
0.0997173281
 30
0.0
 40
233.4172757155926
100
AcDbArc
 50
60.2444186467
 51
64.4907376071
  0
ARC
  5
52D
330
1F
100
AcDbEntity
  8
0
  6
Continuous
 62
     7
370
    25
100
AcDbCircle
 10
100.1820706876
 20
210.0940351409
 30
0.0
 40
0.7502586173995563
100
AcDbArc
 50
62.9911452772
 51
246.0
  0
ARC
  5
52E
330
1F
100
AcDbEntity
  8
0
  6
Continuous
 62
     7
370
    25
100
AcDbCircle
 10
0.0
 20
0.0997173281
 30
0.0
 40
231.9172757156147
100
AcDbArc
 50
56.507652293
 51
64.4907063349
  0
ARC
  5
52F
330
1F
100
AcDbEntity
  8
0
  6
Continuous
 62
     7
370
    25
100
AcDbCircle
 10
126.7962673367
 20
191.7568591099
 30
0.0
 40
2.113628213749979
100
AcDbArc
 50
322.7456870108
 51
56.0098558362
  0
ARC
  5
530
330
1F
100
AcDbEntity
  8
0
  6
Continuous
 62
     7
370
    25
100
AcDbCircle
 10
123.3060884908
 20
182.8087687852
 30
0.0
 40
0.7500000000000066
100
AcDbArc
 50
55.9999964931
 51
235.9999964931
  0
ARC
  5
531
330
1F
100
AcDbEntity
  8
0
  6
Continuous
 62
     7
370
    25
100
AcDbCircle
 10
123.15653787
 20
180.7987604689
 30
0.0
 40
0.9999999999999473
100
AcDbArc
 50
325.9999964931
 51
55.9999964931
  0
ARC
  5
532
330
1F
100
AcDbEntity
  8
0
  6
Continuous
 62
     7
370
    25
100
AcDbCircle
 10
118.6829942363
 20
174.1664601623
 30
0.0
 40
1.000000000000085
100
AcDbArc
 50
235.9999964931
 51
325.9999964931
  0
ARC
  5
533
330
1F
100
AcDbEntity
  8
0
  6
Continuous
 62
     7
370
    25
100
AcDbCircle
 10
116.8753695173
 20
173.2748370944
 30
0.0
 40
0.7499999999999907
100
AcDbArc
 50
55.9999964931
 51
235.9999964931
  0
ARC
  5
534
330
1F
100
AcDbEntity
  8
0
  6
Continuous
 62
     7
370
    25
100
AcDbCircle
 10
93.8711074956
 20
139.1696206145
 30
0.0
 40
0.7500000000000066
100
AcDbArc
 50
55.9999964931
 51
235.9999964931
  0
ARC
  5
535
330
1F
100
AcDbEntity
  8
0
  6
Continuous
 62
     7
370
    25
100
AcDbCircle
 10
93.7215568749
 20
137.1596122982
 30
0.0
 40
0.9999999999999741
100
AcDbArc
 50
325.9999964931
 51
55.9999964931
  0
ARC
  5
536
330
1F
100
AcDbEntity
  8
0
  6
Continuous
 62
     7
370
    25
100
AcDbCircle
 10
89.2480132411
 20
130.5273119916
 30
0.0
 40
1.000000000000062
100
AcDbArc
 50
235.9999964931
 51
325.9999964931
  0
ARC
  5
537
330
1F
100
AcDbEntity
  8
0
  6
Continuous
 62
     7
370
    25
100
AcDbCircle
 10
87.4403885222
 20
129.6356889237
 30
0.0
 40
0.7500000000000457
100
AcDbArc
 50
55.9999964931
 51
235.9999964931
  0
ARC
  5
538
330
1F
100
AcDbEntity
  8
0
  6
Continuous
 62
     7
370
    25
100
AcDbCircle
 10
81.1031615706
 20
122.7448000388
 30
0.0
 40
1.400477781183475
100
AcDbArc
 50
232.4241123564
 51
326.2674864159
  0
ARC
  5
539
330
1F
100
AcDbEntity
  8
0
  6
Continuous
 62
     7
370
    25
100
AcDbCircle
 10
0.0
 20
0.1631627601
 30
0.0
 40
145.5860428150008
100
AcDbArc
 50
56.5496291578
 51
72.7425956176
  0
ARC
  5
53A
330
1F
100
AcDbEntity
  8
0
  6
Continuous
 62
     7
370
    25
100
AcDbCircle
 10
42.9678758314
 20
138.4788919627
 30
0.0
 40
0.7500000063279502
100
AcDbArc
 50
72.75
 51
252.75
  0
ARC
  5
53B
330
1F
100
AcDbEntity
  8
0
  6
Continuous
 62
     7
370
    25
100
AcDbCircle
 10
0.0
 20
0.1631627601
 30
0.0
 40
144.0860428150149
100
AcDbArc
 50
68.390914859
 51
72.7425185346
  0
ARC
  5
53C
330
1F
100
AcDbEntity
  8
0
  6
Continuous
 62
     7
370
    25
100
AcDbCircle
 10
52.6945801038
 20
133.1928469518
 30
0.0
 40
1.000000000000132
100
AcDbArc
 50
248.390914859
 51
68.390914859
  0
ARC
  5
53D
330
1F
100
AcDbEntity
  8
0
  6
Continuous
 62
     7
370
    25
100
AcDbCircle
 10
0.0
 20
0.1631627601
 30
0.0
 40
142.0860428150079
100
AcDbArc
 50
68.390914859
 51
79.5951561835
  0
ARC
  5
53E
330
1F
100
AcDbEntity
  8
0
  6
Continuous
 62
     7
370
    25
100
AcDbCircle
 10
25.8416678972
 20
140.8963281788
 30
0.0
 40
1.000000000000007
100
AcDbArc
 50
79.5951561835
 51
259.5951561835
  0
ARC
  5
53F
330
1F
100
AcDbEntity
  8
0
  6
Continuous
 62
     7
370
    25
100
AcDbCircle
 10
0.0
 20
0.1631627601
 30
0.0
 40
144.086042815089
100
AcDbArc
 50
75.243576632
 51
79.5951561835
  0
ARC
  5
540
330
1F
100
AcDbEntity
  8
0
  6
Continuous
 62
     7
370
    25
100
AcDbCircle
 10
36.8911594545
 20
140.2221562322
 30
0.0
 40
0.7500000046646099
100
AcDbArc
 50
255.25
 51
75.25
  0
ARC
  5
541
330
1F
100
AcDbEntity
  8
0
  6
Continuous
 62
     7
370
    25
100
AcDbCircle
 10
0.0
 20
0.1631627601
 30
0.0
 40
145.5860428150038
100
AcDbArc
 50
75.2436428132
 51
104.7563571868
  0
ARC
  5
542
330
1F
100
AcDbEntity
  8
0
  6
Continuous
 62
     7
370
    25
100
AcDbCircle
 10
-36.8911594545
 20
140.2221562322
 30
0.0
 40
0.7500000046646118
100
AcDbArc
 50
104.75
 51
284.75
  0
ARC
  5
543
330
1F
100
AcDbEntity
  8
0
  6
Continuous
 62
     7
370
    25
100
AcDbCircle
 10
0.0
 20
0.1631627601
 30
0.0
 40
144.086042815062
100
AcDbArc
 50
100.4048438165
 51
104.756423368
  0
ARC
  5
544
330
1F
100
AcDbEntity
  8
0
  6
Continuous
 62
     7
370
    25
100
AcDbCircle
 10
-25.8416678972
 20
140.8963281788
 30
0.0
 40
1.00000000000006
100
AcDbArc
 50
280.4048438165
 51
100.4048438165
  0
ARC
  5
545
330
1F
100
AcDbEntity
  8
0
  6
Continuous
 62
     7
370
    25
100
AcDbCircle
 10
0.0
 20
0.1631627601
 30
0.0
 40
142.0860428150079
100
AcDbArc
 50
100.4048438165
 51
111.609085141
  0
ARC
  5
546
330
1F
100
AcDbEntity
  8
0
  6
Continuous
 62
     7
370
    25
100
AcDbCircle
 10
-52.6945801038
 20
133.1928469518
 30
0.0
 40
0.9999999999998871
100
AcDbArc
 50
111.609085141
 51
291.609085141
  0
ARC
  5
547
330
1F
100
AcDbEntity
  8
0
  6
Continuous
 62
     7
370
    25
100
AcDbCircle
 10
0.0
 20
0.1631627602
 30
0.0
 40
144.0860428149387
100
AcDbArc
 50
107.2574814653
 51
111.609085141
  0
ARC
  5
548
330
1F
100
AcDbEntity
  8
0
  6
Continuous
 62
     7
370
    25
100
AcDbCircle
 10
-42.9678758314
 20
138.4788919627
 30
0.0
 40
0.750000006327969
100
AcDbArc
 50
287.25
 51
107.25
  0
ARC
  5
549
330
1F
100
AcDbEntity
  8
0
  6
Continuous
 62
     7
370
    25
100
AcDbCircle
 10
0.0
 20
0.1631627601
 30
0.0
 40
145.5860428149997
100
AcDbArc
 50
107.2574043824
 51
123.4503708422
  0
ARC
  5
54A
330
1F
100
AcDbEntity
  8
0
  6
Continuous
 62
     7
370
    25
100
AcDbCircle
 10
-81.1031615706
 20
122.7448000388
 30
0.0
 40
1.400477781183479
100
AcDbArc
 50
213.7325135843
 51
307.5758876436
  0
ARC
  5
54B
330
1F
100
AcDbEntity
  8
0
  6
Continuous
 62
     7
370
    25
100
AcDbCircle
 10
-87.4403885222
 20
129.6356889237
 30
0.0
 40
0.7500000000000225
100
AcDbArc
 50
304.0000035069
 51
124.0000035069
  0
ARC
  5
54C
330
1F
100
AcDbEntity
  8
0
  6
Continuous
 62
     7
370
    25
100
AcDbCircle
 10
-89.2480132411
 20
130.5273119916
 30
0.0
 40
1.000000000000014
100
AcDbArc
 50
214.0000035069
 51
304.0000035069
  0
ARC
  5
54D
330
1F
100
AcDbEntity
  8
0
  6
Continuous
 62
     7
370
    25
100
AcDbCircle
 10
-93.7215568749
 20
137.1596122982
 30
0.0
 40
1.000000000000046
100
AcDbArc
 50
124.0000035069
 51
214.0000035069
  0
ARC
  5
54E
330
1F
100
AcDbEntity
  8
0
  6
Continuous
 62
     7
370
    25
100
AcDbCircle
 10
-93.8711074956
 20
139.1696206145
 30
0.0
 40
0.7500000000000528
100
AcDbArc
 50
304.0000035069
 51
124.0000035069
  0
ARC
  5
54F
330
1F
100
AcDbEntity
  8
0
  6
Continuous
 62
     7
370
    25
100
AcDbCircle
 10
-116.8753695173
 20
173.2748370944
 30
0.0
 40
0.7499999999999907
100
AcDbArc
 50
304.0000035069
 51
124.0000035069
  0
ARC
  5
550
330
1F
100
AcDbEntity
  8
0
  6
Continuous
 62
     7
370
    25
100
AcDbCircle
 10
-118.6829942363
 20
174.1664601623
 30
0.0
 40
0.9999999999999514
100
AcDbArc
 50
214.0000035069
 51
304.0000035069
  0
ARC
  5
551
330
1F
100
AcDbEntity
  8
0
  6
Continuous
 62
     7
370
    25
100
AcDbCircle
 10
-123.15653787
 20
180.7987604689
 30
0.0
 40
1.000000000000037
100
AcDbArc
 50
124.0000035069
 51
214.0000035069
  0
ARC
  5
552
330
1F
100
AcDbEntity
  8
0
  6
Continuous
 62
     7
370
    25
100
AcDbCircle
 10
-123.3060884908
 20
182.8087687852
 30
0.0
 40
0.7500000000000607
100
AcDbArc
 50
304.0000035069
 51
124.0000035069
  0
ENDSEC
  0
SECTION
  2
OBJECTS
  0
DICTIONARY
  5
C
330
0
100
AcDbDictionary
281
     1
  3
ACAD_GROUP
350
D
  3
ACAD_LAYOUT
350
1A
  3
ACAD_MLINESTYLE
350
17
  3
ACAD_PLOTSETTINGS
350
19
  3
ACAD_PLOTSTYLENAME
350
E
  3
ACAD_SCALELIST
350
47
  3
DWGPROPS
350
553
  0
DICTIONARY
  5
D
102
{ACAD_REACTORS
330
C
102
}
330
C
100
AcDbDictionary
281
     1
  0
DICTIONARY
  5
1A
102
{ACAD_REACTORS
330
C
102
}
330
C
100
AcDbDictionary
281
     1
  3
Layout1
350
1E
  3
Layout2
350
26
  3
Model
350
22
  0
DICTIONARY
  5
17
102
{ACAD_REACTORS
330
C
102
}
330
C
100
AcDbDictionary
281
     1
  3
Standard
350
18
  0
DICTIONARY
  5
19
102
{ACAD_REACTORS
330
C
102
}
330
C
100
AcDbDictionary
281
     1
  0
ACDBDICTIONARYWDFLT
  5
E
102
{ACAD_REACTORS
330
C
102
}
330
C
100
AcDbDictionary
281
     1
  3
Normal
350
F
100
AcDbDictionaryWithDefault
340
F
  0
DICTIONARY
  5
47
102
{ACAD_REACTORS
330
C
102
}
330
C
100
AcDbDictionary
281
     1
  3
A0
350
48
  3
A1
350
49
  3
A2
350
4A
  3
A3
350
4B
  3
A4
350
4C
  3
A5
350
4D
  3
A6
350
4E
  3
A7
350
4F
  3
A8
350
50
  3
A9
350
51
  3
B0
350
52
  3
B1
350
53
  3
B2
350
54
  3
B3
350
55
  3
B4
350
56
  3
B5
350
57
  3
B6
350
58
  0
XRECORD
  5
553
102
{ACAD_REACTORS
330
C
102
}
330
C
100
AcDbXrecord
280
     1
  1
DWGPROPS COOKIE
  2

  3

  4

  6

  7

  8

  9

300
=
301
=
302
=
303
=
304
=
305
=
306
=
307
=
308
=
309
=
 40
0.0
 41
2460790.15257213
 42
2460790.152599699
  1

 90
        0
  0
LAYOUT
  5
1E
102
{ACAD_REACTORS
330
1A
102
}
330
1A
100
AcDbPlotSettings
  1

  2
none_device
  4

  6

 40
0.0
 41
0.0
 42
0.0
 43
0.0
 44
0.0
 45
0.0
 46
0.0
 47
0.0
 48
0.0
 49
0.0
140
0.0
141
0.0
142
1.0
143
1.0
 70
   688
 72
     1
 73
     0
 74
     5
  7

 75
    16
147
1.0
148
0.0
149
0.0
100
AcDbLayout
  1
Layout1
 70
     1
 71
     1
 10
0.0
 20
0.0
 11
420.0
 21
297.0
 12
0.0
 22
0.0
 32
0.0
 14
1.0000000000E+20
 24
1.0000000000E+20
 34
1.0000000000E+20
 15
-1.0000000000E+20
 25
-1.0000000000E+20
 35
-1.0000000000E+20
146
0.0
 13
0.0
 23
0.0
 33
0.0
 16
1.0
 26
0.0
 36
0.0
 17
0.0
 27
1.0
 37
0.0
 76
     0
330
1B
  0
LAYOUT
  5
26
102
{ACAD_REACTORS
330
1A
102
}
330
1A
100
AcDbPlotSettings
  1

  2
none_device
  4

  6

 40
0.0
 41
0.0
 42
0.0
 43
0.0
 44
0.0
 45
0.0
 46
0.0
 47
0.0
 48
0.0
 49
0.0
140
0.0
141
0.0
142
1.0
143
1.0
 70
   688
 72
     1
 73
     0
 74
     5
  7

 75
    16
147
1.0
148
0.0
149
0.0
100
AcDbLayout
  1
Layout2
 70
     1
 71
     2
 10
0.0
 20
0.0
 11
0.0
 21
0.0
 12
0.0
 22
0.0
 32
0.0
 14
0.0
 24
0.0
 34
0.0
 15
0.0
 25
0.0
 35
0.0
146
0.0
 13
0.0
 23
0.0
 33
0.0
 16
1.0
 26
0.0
 36
0.0
 17
0.0
 27
1.0
 37
0.0
 76
     0
330
23
  0
LAYOUT
  5
22
102
{ACAD_REACTORS
330
1A
102
}
330
1A
100
AcDbPlotSettings
  1

  2
none_device
  4
ANSI_A_(11.00_x_8.50_Inches)
  6

 40
6.35
 41
19.05
 42
6.35000508
 43
19.05000254
 44
279.4
 45
215.9
 46
133.34999746
 47
-102.532126319
 48
0.0
 49
0.0
140
0.0
141
0.0
142
0.0422388055
143
1.0
 70
  1696
 72
     0
 73
     0
 74
     0
  7

 75
     0
147
0.0179189148
148
-1300.4909072572
149
0.0
100
AcDbLayout
  1
Model
 70
     1
 71
     0
 10
0.0
 20
0.0
 11
420.0
 21
297.0
 12
0.0
 22
0.0
 32
0.0
 14
-128.9098955504
 24
121.3443222576
 34
0.0
 15
128.9098955504
 25
235.5169930437
 35
0.0
146
0.0
 13
0.0
 23
0.0
 33
0.0
 16
1.0
 26
0.0
 36
0.0
 17
0.0
 27
1.0
 37
0.0
 76
     0
330
1F
331
29
  0
MLINESTYLE
  5
18
102
{ACAD_REACTORS
330
17
102
}
330
17
100
AcDbMlineStyle
  2
Standard
 70
     0
  3

 62
   256
 51
90.0
 52
90.0
 71
     2
 49
0.5
 62
   256
  6
BYLAYER
 49
-0.5
 62
   256
  6
BYLAYER
  0
ACDBPLACEHOLDER
  5
F
102
{ACAD_REACTORS
330
E
102
}
330
E
  0
SCALE
  5
48
102
{ACAD_REACTORS
330
47
102
}
330
47
100
AcDbScale
 70
     0
300
1:1
140
1.0
141
1.0
290
     1
  0
SCALE
  5
49
102
{ACAD_REACTORS
330
47
102
}
330
47
100
AcDbScale
 70
     0
300
1:2
140
1.0
141
2.0
290
     0
  0
SCALE
  5
4A
102
{ACAD_REACTORS
330
47
102
}
330
47
100
AcDbScale
 70
     0
300
1:4
140
1.0
141
4.0
290
     0
  0
SCALE
  5
4B
102
{ACAD_REACTORS
330
47
102
}
330
47
100
AcDbScale
 70
     0
300
1:5
140
1.0
141
5.0
290
     0
  0
SCALE
  5
4C
102
{ACAD_REACTORS
330
47
102
}
330
47
100
AcDbScale
 70
     0
300
1:8
140
1.0
141
8.0
290
     0
  0
SCALE
  5
4D
102
{ACAD_REACTORS
330
47
102
}
330
47
100
AcDbScale
 70
     0
300
1:10
140
1.0
141
10.0
290
     0
  0
SCALE
  5
4E
102
{ACAD_REACTORS
330
47
102
}
330
47
100
AcDbScale
 70
     0
300
1:16
140
1.0
141
16.0
290
     0
  0
SCALE
  5
4F
102
{ACAD_REACTORS
330
47
102
}
330
47
100
AcDbScale
 70
     0
300
1:20
140
1.0
141
20.0
290
     0
  0
SCALE
  5
50
102
{ACAD_REACTORS
330
47
102
}
330
47
100
AcDbScale
 70
     0
300
1:30
140
1.0
141
30.0
290
     0
  0
SCALE
  5
51
102
{ACAD_REACTORS
330
47
102
}
330
47
100
AcDbScale
 70
     0
300
1:40
140
1.0
141
40.0
290
     0
  0
SCALE
  5
52
102
{ACAD_REACTORS
330
47
102
}
330
47
100
AcDbScale
 70
     0
300
1:50
140
1.0
141
50.0
290
     0
  0
SCALE
  5
53
102
{ACAD_REACTORS
330
47
102
}
330
47
100
AcDbScale
 70
     0
300
1:100
140
1.0
141
100.0
290
     0
  0
SCALE
  5
54
102
{ACAD_REACTORS
330
47
102
}
330
47
100
AcDbScale
 70
     0
300
2:1
140
2.0
141
1.0
290
     0
  0
SCALE
  5
55
102
{ACAD_REACTORS
330
47
102
}
330
47
100
AcDbScale
 70
     0
300
4:1
140
4.0
141
1.0
290
     0
  0
SCALE
  5
56
102
{ACAD_REACTORS
330
47
102
}
330
47
100
AcDbScale
 70
     0
300
8:1
140
8.0
141
1.0
290
     0
  0
SCALE
  5
57
102
{ACAD_REACTORS
330
47
102
}
330
47
100
AcDbScale
 70
     0
300
10:1
140
10.0
141
1.0
290
     0
  0
SCALE
  5
58
102
{ACAD_REACTORS
330
47
102
}
330
47
100
AcDbScale
 70
     0
300
100:1
140
100.0
141
1.0
290
     0
  0
ENDSEC
  0
EOF
