  0
SECTION
  2
HEADER
  9
$ACADVER
  1
AC1015
  9
$ACADMAINTVER
 70
     6
  9
$DWGCODEPAGE
  3
ANSI_936
  9
$INSBASE
 10
0.0
 20
0.0
 30
0.0
  9
$EXTMIN
 10
-128.9098955504
 20
121.3443222576
 30
0.0
  9
$EXTMAX
 10
128.9106263064
 20
235.5291136301
 30
0.0
  9
$LIMMIN
 10
0.0
 20
0.0
  9
$LIMMAX
 10
420.0
 20
297.0
  9
$ORTHOMODE
 70
     0
  9
$REGENMODE
 70
     1
  9
$FILLMODE
 70
     1
  9
$QTEXTMODE
 70
     0
  9
$MIRRTEXT
 70
     1
  9
$LTSCALE
 40
1.0
  9
$ATTMODE
 70
     1
  9
$TEXTSIZE
 40
3.5
  9
$TRACEWID
 40
1.0
  9
$TEXTSTYLE
  7
Standard
  9
$CLAYER
  8
0
  9
$CELTYPE
  6
ByLayer
  9
$CECOLOR
 62
   256
  9
$CELTSCALE
 40
1.0
  9
$DISPSILH
 70
     0
  9
$DIMSCALE
 40
1.0
  9
$DIMASZ
 40
4.08
  9
$DIMEXO
 40
0.0
  9
$DIMDLI
 40
3.75
  9
$DIMRND
 40
0.0
  9
$DIMDLE
 40
0.0
  9
$DIMEXE
 40
2.0
  9
$DIMTP
 40
0.0
  9
$DIMTM
 40
0.0
  9
$DIMTXT
 40
3.5
  9
$DIMCEN
 40
2.5
  9
$DIMTSZ
 40
0.0
  9
$DIMTOL
 70
     0
  9
$DIMLIM
 70
     0
  9
$DIMTIH
 70
     1
  9
$DIMTOH
 70
     1
  9
$DIMSE1
 70
     0
  9
$DIMSE2
 70
     0
  9
$DIMTAD
 70
     1
  9
$DIMZIN
 70
     0
  9
$DIMBLK
  1

  9
$DIMASO
 70
     1
  9
$DIMSHO
 70
     1
  9
$DIMPOST
  1

  9
$DIMAPOST
  1

  9
$DIMALT
 70
     0
  9
$DIMALTD
 70
     3
  9
$DIMALTF
 40
0.0393700787
  9
$DIMLFAC
 40
1.0
  9
$DIMTOFL
 70
     1
  9
$DIMTVP
 40
0.0
  9
$DIMTIX
 70
     0
  9
$DIMSOXD
 70
     0
  9
$DIMSAH
 70
     0
  9
$DIMBLK1
  1

  9
$DIMBLK2
  1

  9
$DIMSTYLE
  2
ISO-25
  9
$DIMCLRD
 70
     0
  9
$DIMCLRE
 70
     0
  9
$DIMCLRT
 70
     0
  9
$DIMTFAC
 40
1.0
  9
$DIMGAP
 40
1.524
  9
$DIMJUST
 70
     0
  9
$DIMSD1
 70
     0
  9
$DIMSD2
 70
     0
  9
$DIMTOLJ
 70
     0
  9
$DIMTZIN
 70
     0
  9
$DIMALTZ
 70
     0
  9
$DIMALTTZ
 70
     0
  9
$DIMUPT
 70
     0
  9
$DIMDEC
 70
     2
  9
$DIMTDEC
 70
     2
  9
$DIMALTU
 70
     2
  9
$DIMALTTD
 70
     3
  9
$DIMTXSTY
  7
Standard
  9
$DIMAUNIT
 70
     0
  9
$DIMADEC
 70
     2
  9
$DIMALTRND
 40
0.0
  9
$DIMAZIN
 70
     0
  9
$DIMDSEP
 70
    44
  9
$DIMATFIT
 70
     3
  9
$DIMFRAC
 70
     0
  9
$DIMLDRBLK
  1

  9
$DIMLUNIT
 70
     2
  9
$DIMLWD
 70
    -2
  9
$DIMLWE
 70
    -2
  9
$DIMTMOVE
 70
     0
  9
$LUNITS
 70
     2
  9
$LUPREC
 70
     2
  9
$SKETCHINC
 40
1.0
  9
$FILLETRAD
 40
0.0
  9
$AUNITS
 70
     0
  9
$AUPREC
 70
     2
  9
$MENU
  1
.
  9
$ELEVATION
 40
0.0
  9
$PELEVATION
 40
0.0
  9
$THICKNESS
 40
0.0
  9
$LIMCHECK
 70
     0
  9
$CHAMFERA
 40
0.0
  9
$CHAMFERB
 40
0.0
  9
$CHAMFERC
 40
0.0
  9
$CHAMFERD
 40
0.0
  9
$SKPOLY
 70
     0
  9
$TDCREATE
 40
2460805.407553449
  9
$TDUCREATE
 40
2460805.074220116
  9
$TDUPDATE
 40
2460805.40757787
  9
$TDUUPDATE
 40
2460805.074244537
  9
$TDINDWG
 40
0.0000000116
  9
$TDUSRTIMER
 40
0.0000000116
  9
$USRTIMER
 70
     1
  9
$ANGBASE
 50
0.0
  9
$ANGDIR
 70
     0
  9
$PDMODE
 70
     0
  9
$PDSIZE
 40
-1.0
  9
$PLINEWID
 40
0.0
  9
$SPLFRAME
 70
     0
  9
$SPLINETYPE
 70
     6
  9
$SPLINESEGS
 70
     8
  9
$HANDSEED
  5
2CF
  9
$SURFTAB1
 70
     6
  9
$SURFTAB2
 70
     6
  9
$SURFTYPE
 70
     6
  9
$SURFU
 70
     6
  9
$SURFV
 70
     6
  9
$UCSBASE
  2

  9
$UCSNAME
  2

  9
$UCSORG
 10
0.0
 20
0.0
 30
0.0
  9
$UCSXDIR
 10
1.0
 20
0.0
 30
0.0
  9
$UCSYDIR
 10
0.0
 20
1.0
 30
0.0
  9
$UCSORTHOREF
  2

  9
$UCSORTHOVIEW
 70
     0
  9
$UCSORGTOP
 10
0.0
 20
0.0
 30
0.0
  9
$UCSORGBOTTOM
 10
0.0
 20
0.0
 30
0.0
  9
$UCSORGLEFT
 10
0.0
 20
0.0
 30
0.0
  9
$UCSORGRIGHT
 10
0.0
 20
0.0
 30
0.0
  9
$UCSORGFRONT
 10
0.0
 20
0.0
 30
0.0
  9
$UCSORGBACK
 10
0.0
 20
0.0
 30
0.0
  9
$PUCSBASE
  2

  9
$PUCSNAME
  2

  9
$PUCSORG
 10
0.0
 20
0.0
 30
0.0
  9
$PUCSXDIR
 10
1.0
 20
0.0
 30
0.0
  9
$PUCSYDIR
 10
0.0
 20
1.0
 30
0.0
  9
$PUCSORTHOREF
  2

  9
$PUCSORTHOVIEW
 70
     0
  9
$PUCSORGTOP
 10
0.0
 20
0.0
 30
0.0
  9
$PUCSORGBOTTOM
 10
0.0
 20
0.0
 30
0.0
  9
$PUCSORGLEFT
 10
0.0
 20
0.0
 30
0.0
  9
$PUCSORGRIGHT
 10
0.0
 20
0.0
 30
0.0
  9
$PUCSORGFRONT
 10
0.0
 20
0.0
 30
0.0
  9
$PUCSORGBACK
 10
0.0
 20
0.0
 30
0.0
  9
$USERI1
 70
     0
  9
$USERI2
 70
     0
  9
$USERI3
 70
     0
  9
$USERI4
 70
     0
  9
$USERI5
 70
     0
  9
$USERR1
 40
0.0
  9
$USERR2
 40
0.0
  9
$USERR3
 40
0.0
  9
$USERR4
 40
0.0
  9
$USERR5
 40
0.0
  9
$WORLDVIEW
 70
     1
  9
$SHADEDGE
 70
     3
  9
$SHADEDIF
 70
    70
  9
$TILEMODE
 70
     1
  9
$MAXACTVP
 70
    64
  9
$PINSBASE
 10
0.0
 20
0.0
 30
0.0
  9
$PLIMCHECK
 70
     0
  9
$PEXTMIN
 10
1.0000000000E+20
 20
1.0000000000E+20
 30
1.0000000000E+20
  9
$PEXTMAX
 10
-1.0000000000E+20
 20
-1.0000000000E+20
 30
-1.0000000000E+20
  9
$PLIMMIN
 10
0.0
 20
0.0
  9
$PLIMMAX
 10
420.0
 20
297.0
  9
$UNITMODE
 70
     0
  9
$VISRETAIN
 70
     1
  9
$PLINEGEN
 70
     0
  9
$PSLTSCALE
 70
     1
  9
$TREEDEPTH
 70
  3020
  9
$CMLSTYLE
  2
Standard
  9
$CMLJUST
 70
     0
  9
$CMLSCALE
 40
20.0
  9
$PROXYGRAPHICS
 70
     1
  9
$MEASUREMENT
 70
     1
  9
$CELWEIGHT
370
    -1
  9
$ENDCAPS
280
     0
  9
$JOINSTYLE
280
     0
  9
$LWDISPLAY
290
     1
  9
$INSUNITS
 70
     4
  9
$HYPERLINKBASE
  1

  9
$STYLESHEET
  1

  9
$XEDIT
290
     1
  9
$CEPSNTYPE
380
     0
  9
$PSTYLEMODE
290
     1
  9
$FINGERPRINTGUID
  2
{7ea958d2-0622-431a-a89e-92b1db864a6a}
  9
$VERSIONGUID
  2
{FAEB1C32-E019-11D5-929B-00C0DF256EC4}
  9
$EXTNAMES
290
     1
  9
$PSVPSCALE
 40
0.0
  9
$OLESTARTUP
290
     0
  0
ENDSEC
  0
SECTION
  2
CLASSES
  0
CLASS
  1
ACDBDICTIONARYWDFLT
  2
AcDbDictionaryWithDefault
  3
ObjectDBX Classes
 90
        0
280
     0
281
     0
  0
CLASS
  1
VISUALSTYLE
  2
AcDbVisualStyle
  3
ObjectDBX Classes
 90
     4095
280
     0
281
     0
  0
CLASS
  1
MATERIAL
  2
AcDbMaterial
  3
ObjectDBX Classes
 90
     1153
280
     0
281
     0
  0
CLASS
  1
SCALE
  2
AcDbScale
  3
ObjectDBX Classes
 90
     1153
280
     0
281
     0
  0
CLASS
  1
TABLESTYLE
  2
AcDbTableStyle
  3
ObjectDBX Classes
 90
     4095
280
     0
281
     0
  0
CLASS
  1
MLEADERSTYLE
  2
AcDbMLeaderStyle
  3
ACDB_MLEADERSTYLE_CLASS
 90
     4095
280
     0
281
     0
  0
CLASS
  1
SUN
  2
AcDbSun
  3
SCENEOE
 90
     1153
280
     0
281
     0
  0
CLASS
  1
ACDBPLACEHOLDER
  2
AcDbPlaceHolder
  3
ObjectDBX Classes
 90
        0
280
     0
281
     0
  0
CLASS
  1
LAYOUT
  2
AcDbLayout
  3
ObjectDBX Classes
 90
        0
280
     0
281
     0
  0
ENDSEC
  0
SECTION
  2
TABLES
  0
TABLE
  2
VPORT
  5
8
330
0
100
AcDbSymbolTable
 70
     1
  0
VPORT
  5
29
330
8
100
AcDbSymbolTableRecord
100
AcDbViewportTableRecord
  2
*Active
 70
     0
 10
0.0
 20
0.0
 11
1.0
 21
1.0
 12
0.000365378
 22
178.4367179439
 13
0.0
 23
0.0
 14
10.0
 24
10.0
 15
10.0
 25
10.0
 16
0.0
 26
0.0
 36
1.0
 17
0.0
 27
0.0
 37
0.0
 40
116.4684872
 41
2.2579234831
 42
50.0
 43
0.0
 44
0.0
 50
0.0
 51
0.0
 71
     0
 72
   100
 73
     1
 74
     3
 75
     0
 76
     0
 77
     0
 78
     0
281
     0
 65
     1
110
0.0
120
0.0
130
0.0
111
1.0
121
0.0
131
0.0
112
0.0
122
1.0
132
0.0
 79
     0
146
0.0
  0
ENDTAB
  0
TABLE
  2
LTYPE
  5
5
330
0
100
AcDbSymbolTable
 70
     6
  0
LTYPE
  5
14
330
5
100
AcDbSymbolTableRecord
100
AcDbLinetypeTableRecord
  2
ByBlock
 70
     0
  3

 72
    65
 73
     0
 40
0.0
  0
LTYPE
  5
15
330
5
100
AcDbSymbolTableRecord
100
AcDbLinetypeTableRecord
  2
ByLayer
 70
     0
  3

 72
    65
 73
     0
 40
0.0
  0
LTYPE
  5
16
330
5
100
AcDbSymbolTableRecord
100
AcDbLinetypeTableRecord
  2
Continuous
 70
     0
  3
Solid line
 72
    65
 73
     0
 40
0.0
  0
LTYPE
  5
5E
330
5
100
AcDbSymbolTableRecord
100
AcDbLinetypeTableRecord
  2
HIDDEN
 70
     0
  3
Hidden __ __ __ __ __ __ __ __ __ __ __ __ __ __
 72
    65
 73
     2
 40
1.905
 49
1.27
 74
     0
 49
-0.635
 74
     0
  0
LTYPE
  5
5F
330
5
100
AcDbSymbolTableRecord
100
AcDbLinetypeTableRecord
  2
PHANTOM
 70
     0
  3
Phantom ______  __  __  ______  __  __  ______
 72
    65
 73
     6
 40
12.7
 49
6.35
 74
     0
 49
-1.27
 74
     0
 49
1.27
 74
     0
 49
-1.27
 74
     0
 49
1.27
 74
     0
 49
-1.27
 74
     0
  0
LTYPE
  5
60
330
5
100
AcDbSymbolTableRecord
100
AcDbLinetypeTableRecord
  2
CENTER
 70
     0
  3
Center ____ _ ____ _ ____ _ ____ _ ____ _ ____
 72
    65
 73
     4
 40
10.16
 49
6.35
 74
     0
 49
-1.27
 74
     0
 49
1.27
 74
     0
 49
-1.27
 74
     0
  0
LTYPE
  5
61
330
5
100
AcDbSymbolTableRecord
100
AcDbLinetypeTableRecord
  2
CENTERX2
 70
     0
  3
Center (2x) ________  __  ________  __  _____
 72
    65
 73
     4
 40
20.32
 49
12.7
 74
     0
 49
-2.54
 74
     0
 49
2.54
 74
     0
 49
-2.54
 74
     0
  0
LTYPE
  5
62
330
5
100
AcDbSymbolTableRecord
100
AcDbLinetypeTableRecord
  2
DOT2
 70
     0
  3
Dot (.5x) ........................................
 72
    65
 73
     2
 40
0.635
 49
0.0
 74
     0
 49
-0.635
 74
     0
  0
ENDTAB
  0
TABLE
  2
LAYER
  5
2
330
0
100
AcDbSymbolTable
 70
     1
  0
LAYER
  5
10
330
2
100
AcDbSymbolTableRecord
100
AcDbLayerTableRecord
  2
0
 70
     0
 62
     7
  6
Continuous
370
    -3
390
F
  0
ENDTAB
  0
TABLE
  2
STYLE
  5
3
330
0
100
AcDbSymbolTable
 70
     1
  0
STYLE
  5
11
330
3
100
AcDbSymbolTableRecord
100
AcDbTextStyleTableRecord
  2
Standard
 70
     0
 40
0.0
 41
1.0
 50
0.0
 71
     0
 42
3.5
  3
txt
  4

  0
ENDTAB
  0
TABLE
  2
VIEW
  5
6
330
0
100
AcDbSymbolTable
 70
     0
  0
ENDTAB
  0
TABLE
  2
UCS
  5
7
330
0
100
AcDbSymbolTable
 70
     0
  0
ENDTAB
  0
TABLE
  2
APPID
  5
9
330
0
100
AcDbSymbolTable
 70
     1
  0
APPID
  5
12
330
9
100
AcDbSymbolTableRecord
100
AcDbRegAppTableRecord
  2
ACAD
 70
     0
  0
ENDTAB
  0
TABLE
  2
DIMSTYLE
  5
A
330
0
100
AcDbSymbolTable
 70
     1
100
AcDbDimStyleTable
  0
DIMSTYLE
105
27
330
A
100
AcDbSymbolTableRecord
100
AcDbDimStyleTableRecord
  2
ISO-25
 70
     0
 41
2.5
 42
0.625
 43
3.75
 44
1.25
 73
     0
 74
     0
 77
     1
 78
     8
140
2.5
141
2.5
143
0.0393700787
147
0.625
171
     3
172
     1
178
     0
271
     2
272
     2
274
     3
278
    44
283
     0
284
     8
340
11
  0
ENDTAB
  0
TABLE
  2
BLOCK_RECORD
  5
1
330
0
100
AcDbSymbolTable
 70
     1
  0
BLOCK_RECORD
  5
1F
330
1
100
AcDbSymbolTableRecord
100
AcDbBlockTableRecord
  2
*Model_Space
340
22
  0
BLOCK_RECORD
  5
1B
330
1
100
AcDbSymbolTableRecord
100
AcDbBlockTableRecord
  2
*Paper_Space
340
1E
  0
BLOCK_RECORD
  5
23
330
1
100
AcDbSymbolTableRecord
100
AcDbBlockTableRecord
  2
*Paper_Space0
340
26
  0
ENDTAB
  0
ENDSEC
  0
SECTION
  2
BLOCKS
  0
BLOCK
  5
20
330
1F
100
AcDbEntity
  8
0
100
AcDbBlockBegin
  2
*Model_Space
 70
     0
 10
0.0
 20
0.0
 30
0.0
  3
*Model_Space
  1

  0
ENDBLK
  5
21
330
1F
100
AcDbEntity
  8
0
100
AcDbBlockEnd
  0
BLOCK
  5
1C
330
1B
100
AcDbEntity
 67
     1
  8
0
100
AcDbBlockBegin
  2
*Paper_Space
 70
     0
 10
0.0
 20
0.0
 30
0.0
  3
*Paper_Space
  1

  0
ENDBLK
  5
1D
330
1B
100
AcDbEntity
 67
     1
  8
0
100
AcDbBlockEnd
  0
BLOCK
  5
24
330
23
100
AcDbEntity
  8
0
100
AcDbBlockBegin
  2
*Paper_Space0
 70
     0
 10
0.0
 20
0.0
 30
0.0
  3
*Paper_Space0
  1

  0
ENDBLK
  5
25
330
23
100
AcDbEntity
  8
0
100
AcDbBlockEnd
  0
ENDSEC
  0
SECTION
  2
ENTITIES
  0
LINE
  5
63
330
1F
100
AcDbEntity
  8
0
  6
Continuous
 62
     7
370
    25
100
AcDbLine
 10
-42.0892159766
 20
157.2326200515
 30
0.0
 11
-46.9822652492
 21
155.4420199112
 31
0.0
  0
ARC
  5
64
330
1F
100
AcDbEntity
  8
0
  6
Continuous
 62
     7
370
    25
100
AcDbCircle
 10
-41.4867393602
 20
156.7062913266
 30
0.0
 40
0.8000000000000236
100
AcDbArc
 50
318.1943519155
 51
138.8592594351
  0
LINE
  5
65
330
1F
100
AcDbEntity
  8
0
  6
Continuous
 62
     7
370
    25
100
AcDbLine
 10
-40.5146958416
 20
155.1463157707
 30
0.0
 11
-40.8904111275
 21
156.1730065632
 31
0.0
  0
ARC
  5
66
330
1F
100
AcDbEntity
  8
0
  6
Continuous
 62
     7
370
    25
100
AcDbCircle
 10
-40.2051626456
 20
154.4086239647
 30
0.0
 40
0.7999999999999957
100
AcDbArc
 50
10.517085777
 51
112.762770257
  0
LINE
  5
67
330
1F
100
AcDbEntity
  8
0
  6
Continuous
 62
     7
370
    25
100
AcDbLine
 10
-38.595925571
 20
152.3065699471
 30
0.0
 11
-39.4186022291
 21
154.5546469463
 31
0.0
  0
ARC
  5
68
330
1F
100
AcDbEntity
  8
0
  6
Continuous
 62
     7
370
    25
100
AcDbCircle
 10
-39.2909397017
 20
151.9103940289
 30
0.0
 40
0.8000000000000359
100
AcDbArc
 50
287.4373543091
 51
29.6842516858
  0
LINE
  5
69
330
1F
100
AcDbEntity
  8
0
  6
Continuous
 62
     7
370
    25
100
AcDbLine
 10
-37.6308391746
 20
147.2658096753
 30
0.0
 11
-39.0512094209
 21
151.1471578974
 31
0.0
  0
ARC
  5
6A
330
1F
100
AcDbEntity
  8
0
  6
Continuous
 62
     7
370
    25
100
AcDbCircle
 10
-37.7421004148
 20
146.4735843687
 30
0.0
 40
0.8000000000000326
100
AcDbArc
 50
261.3410736027
 51
82.0055862763
  0
LINE
  5
6B
330
1F
100
AcDbEntity
  8
0
  6
Continuous
 62
     7
370
    25
100
AcDbLine
 10
-38.2026217364
 20
145.5582514226
 30
0.0
 11
-37.862542143
 21
145.6827027151
 31
0.0
  0
ARC
  5
6C
330
1F
100
AcDbEntity
  8
0
  6
Continuous
 62
     7
370
    25
100
AcDbCircle
 10
-38.8601622327
 20
145.1025755556
 30
0.0
 40
0.800000000000012
100
AcDbArc
 50
277.0215159836
 51
34.7219771105
  0
LINE
  5
6D
330
1F
100
AcDbEntity
  8
0
  6
Continuous
 62
     7
370
    25
100
AcDbLine
 10
-41.1804306413
 20
143.4236906597
 30
0.0
 11
-38.7623685844
 21
144.3085753023
 31
0.0
  0
ARC
  5
6E
330
1F
100
AcDbEntity
  8
0
  6
Continuous
 62
     7
370
    25
100
AcDbCircle
 10
-41.6182298181
 20
144.0932665559
 30
0.0
 40
0.8000000000000247
100
AcDbArc
 50
277.0214979812
 51
303.1784848245
  0
LINE
  5
6F
330
1F
100
AcDbEntity
  8
0
  6
Continuous
 62
     7
370
    25
100
AcDbLine
 10
-41.5281000762
 20
143.2964617729
 30
0.0
 11
-41.5204364192
 21
143.2992662718
 31
0.0
  0
LINE
  5
70
330
1F
100
AcDbEntity
  8
0
  6
Continuous
 62
     7
370
    25
100
AcDbLine
 10
-41.5287671084
 20
143.2982845287
 30
0.0
 11
-41.5281000762
 21
143.2964617729
 31
0.0
  0
ARC
  5
71
330
1F
100
AcDbEntity
  8
0
  6
Continuous
 62
     7
370
    25
100
AcDbCircle
 10
-41.6182298181
 20
144.0932665559
 30
0.0
 40
0.7999999999999934
100
AcDbArc
 50
185.4780414864
 51
276.4207248239
  0
LINE
  5
72
330
1F
100
AcDbEntity
  8
0
  6
Continuous
 62
     7
370
    25
100
AcDbLine
 10
-42.7555935069
 20
143.8921006654
 30
0.0
 11
-42.4145761045
 21
144.0168951467
 31
0.0
  0
ARC
  5
73
330
1F
100
AcDbEntity
  8
0
  6
Continuous
 62
     7
370
    25
100
AcDbCircle
 10
-43.3580684056
 20
144.4184313565
 30
0.0
 40
0.8000000000000089
100
AcDbArc
 50
261.3408782425
 51
318.8590724438
  0
LINE
  5
74
330
1F
100
AcDbEntity
  8
0
  6
Continuous
 62
     7
370
    25
100
AcDbLine
 10
-43.4852349505
 20
143.6250901702
 30
0.0
 11
-43.4785128304
 21
143.6275501135
 31
0.0
  0
LINE
  5
75
330
1F
100
AcDbEntity
  8
0
  6
Continuous
 62
     7
370
    25
100
AcDbLine
 10
-43.4866014621
 20
143.6288243318
 30
0.0
 11
-43.4852349505
 21
143.6250901702
 31
0.0
  0
ARC
  5
76
330
1F
100
AcDbEntity
  8
0
  6
Continuous
 62
     7
370
    25
100
AcDbCircle
 10
-43.3580684056
 20
144.4184313565
 30
0.0
 40
0.7999999999999954
100
AcDbArc
 50
139.4456408666
 51
260.7544260447
  0
LINE
  5
77
330
1F
100
AcDbEntity
  8
0
  6
Continuous
 62
     7
370
    25
100
AcDbLine
 10
-45.021018542
 20
147.8218084836
 30
0.0
 11
-43.9658999754
 21
144.9385667069
 31
0.0
  0
LINE
  5
78
330
1F
100
AcDbEntity
  8
0
  6
Continuous
 62
     7
370
    25
100
AcDbLine
 10
-46.4497602653
 20
147.2989624614
 30
0.0
 11
-45.021018542
 21
147.8218084836
 31
0.0
  0
LINE
  5
79
330
1F
100
AcDbEntity
  8
0
  6
Continuous
 62
     7
370
    25
100
AcDbLine
 10
-46.4497602653
 20
147.2989624614
 30
0.0
 11
-44.8348286652
 21
142.8859544563
 31
0.0
  0
ARC
  5
7A
330
1F
100
AcDbEntity
  8
0
  6
Continuous
 62
     7
370
    25
100
AcDbCircle
 10
-45.5861040669
 20
142.6110267006
 30
0.0
 40
0.799999999999998
100
AcDbArc
 50
200.1
 51
20.1
  0
LINE
  5
7B
330
1F
100
AcDbEntity
  8
0
  6
Continuous
 62
     7
370
    25
100
AcDbLine
 10
-46.3373794685
 20
142.336098945
 30
0.0
 11
-56.4796236374
 21
138.6245646387
 31
0.0
  0
ARC
  5
7C
330
1F
100
AcDbEntity
  8
0
  6
Continuous
 62
     7
370
    25
100
AcDbCircle
 10
-57.230899039
 20
138.349636883
 30
0.0
 40
0.800000000000015
100
AcDbArc
 50
200.1
 51
20.1
  0
LINE
  5
7D
330
1F
100
AcDbEntity
  8
0
  6
Continuous
 62
     7
370
    25
100
AcDbLine
 10
-57.986502413
 20
138.0732486665
 30
0.0
 11
-57.9822142423
 21
138.0748179147
 31
0.0
  0
LINE
  5
7E
330
1F
100
AcDbEntity
  8
0
  6
Continuous
 62
     7
370
    25
100
AcDbLine
 10
-59.6013944628
 20
142.4861468123
 30
0.0
 11
-57.986502413
 21
138.0732486665
 31
0.0
  0
LINE
  5
7F
330
1F
100
AcDbEntity
  8
0
  6
Continuous
 62
     7
370
    25
100
AcDbLine
 10
-61.0325755652
 20
141.9624104648
 30
0.0
 11
-59.6013944628
 21
142.4861468123
 31
0.0
  0
LINE
  5
80
330
1F
100
AcDbEntity
  8
0
  6
Continuous
 62
     7
370
    25
100
AcDbLine
 10
-59.978823962
 20
139.0829040846
 30
0.0
 11
-61.0325755652
 21
141.9624104648
 31
0.0
  0
ARC
  5
81
330
1F
100
AcDbEntity
  8
0
  6
Continuous
 62
     7
370
    25
100
AcDbCircle
 10
-60.0992670509
 20
138.2920226381
 30
0.0
 40
0.8000000000000039
100
AcDbArc
 50
261.3409537295
 51
81.34097503
  0
LINE
  5
82
330
1F
100
AcDbEntity
  8
0
  6
Continuous
 62
     7
370
    25
100
AcDbLine
 10
-60.5607279934
 20
137.3763463773
 30
0.0
 11
-60.2197104337
 21
137.5011412364
 31
0.0
  0
ARC
  5
83
330
1F
100
AcDbEntity
  8
0
  6
Continuous
 62
     7
370
    25
100
AcDbCircle
 10
-61.2182687341
 20
136.9206708631
 30
0.0
 40
0.8000000000000083
100
AcDbArc
 50
277.0215577014
 51
34.7219463679
  0
LINE
  5
84
330
1F
100
AcDbEntity
  8
0
  6
Continuous
 62
     7
370
    25
100
AcDbLine
 10
-63.5385370472
 20
135.2417851362
 30
0.0
 11
-61.1204745077
 21
136.1266706809
 31
0.0
  0
ARC
  5
85
330
1F
100
AcDbEntity
  8
0
  6
Continuous
 62
     7
370
    25
100
AcDbCircle
 10
-63.9763360557
 20
135.9113611425
 30
0.0
 40
0.8000000000000167
100
AcDbArc
 50
185.4779871664
 51
303.1784704238
  0
LINE
  5
86
330
1F
100
AcDbEntity
  8
0
  6
Continuous
 62
     7
370
    25
100
AcDbLine
 10
-65.112760767
 20
135.7105396499
 30
0.0
 11
-64.7726824145
 21
135.8349904882
 31
0.0
  0
ARC
  5
87
330
1F
100
AcDbEntity
  8
0
  6
Continuous
 62
     7
370
    25
100
AcDbCircle
 10
-65.7152354103
 20
136.2368706334
 30
0.0
 40
0.800000000000018
100
AcDbArc
 50
138.8590707988
 51
318.8590446385
  0
LINE
  5
88
330
1F
100
AcDbEntity
  8
0
  6
Continuous
 62
     7
370
    25
100
AcDbLine
 10
-67.739483222
 20
140.6483809002
 30
0.0
 11
-66.3177102939
 21
136.7632013418
 31
0.0
  0
ARC
  5
89
330
1F
100
AcDbEntity
  8
0
  6
Continuous
 62
     7
370
    25
100
AcDbCircle
 10
-68.0414687059
 20
141.3891944851
 30
0.0
 40
0.800000000000017
100
AcDbArc
 50
205.0674648195
 51
292.1777899175
  0
SPLINE
  5
8A
330
1F
100
AcDbEntity
  8
0
  6
Continuous
 62
     7
370
    25
100
AcDbSpline
210
0.0
220
0.0
230
1.0
 70
     8
 71
     3
 72
     8
 73
     4
 74
     0
 42
0.00000001
 43
0.00000001
 40
0.0
 40
0.0
 40
0.0
 40
0.0
 40
1.0
 40
1.0
 40
1.0
 40
1.0
 10
-68.81372843105734
 20
141.180352638576
 30
0.0
 10
-68.80165753621914
 20
141.135716632496
 30
0.0
 10
-68.78570726668639
 20
141.0921304446246
 30
0.0
 10
-68.7661163322327
 20
141.0502463804928
 30
0.0
  0
LINE
  5
8B
330
1F
100
AcDbEntity
  8
0
  6
Continuous
 62
     7
370
    25
100
AcDbLine
 10
-69.6803383245
 20
143.5484769859
 30
0.0
 11
-68.8137284311
 21
141.1803526386
 31
0.0
  0
SPLINE
  5
8C
330
1F
100
AcDbEntity
  8
0
  6
Continuous
 62
     7
370
    25
100
AcDbSpline
210
0.0
220
0.0
230
1.0
 70
     8
 71
     3
 72
     8
 73
     4
 74
     0
 42
0.00000001
 43
0.00000001
 40
0.0
 40
0.0
 40
0.0
 40
0.0
 40
1.0
 40
1.0
 40
1.0
 40
1.0
 10
-69.72795021590045
 20
143.6785826771654
 30
0.0
 10
-69.71587935688186
 20
143.6339468706131
 30
0.0
 10
-69.69992915753586
 20
143.5903608745362
 30
0.0
 10
-69.6803383245099
 20
143.5484769859229
 30
0.0
  0
ARC
  5
8D
330
1F
100
AcDbEntity
  8
0
  6
Continuous
 62
     7
370
    25
100
AcDbCircle
 10
-68.9556905698
 20
143.8874248161
 30
0.0
 40
0.8000000000000108
100
AcDbArc
 50
108.02236173
 51
195.1325332381
  0
LINE
  5
8E
330
1F
100
AcDbEntity
  8
0
  6
Continuous
 62
     7
370
    25
100
AcDbLine
 10
-69.5803186985
 20
145.6786962987
 30
0.0
 11
-69.2032010936
 21
144.6481734872
 31
0.0
  0
ARC
  5
8F
330
1F
100
AcDbEntity
  8
0
  6
Continuous
 62
     7
370
    25
100
AcDbCircle
 10
-69.4598744274
 20
146.4695775651
 30
0.0
 40
0.8000000000000256
100
AcDbArc
 50
81.3408588049
 51
261.3408893793
  0
LINE
  5
90
330
1F
100
AcDbEntity
  8
0
  6
Continuous
 62
     7
370
    25
100
AcDbLine
 10
-69.3394297343
 20
147.2604587672
 30
0.0
 11
-64.4463801285
 21
149.0510612203
 31
0.0
  0
ARC
  5
91
330
1F
100
AcDbEntity
  8
0
  6
Continuous
 62
     7
370
    25
100
AcDbCircle
 10
-63.8439060679
 20
148.5247295698
 30
0.0
 40
0.7999999999999993
100
AcDbArc
 50
318.858990594
 51
138.8589811993
  0
LINE
  5
92
330
1F
100
AcDbEntity
  8
0
  6
Continuous
 62
     7
370
    25
100
AcDbLine
 10
-62.6133756668
 20
146.2821488443
 30
0.0
 11
-63.2414319211
 21
147.998398018
 31
0.0
  0
LINE
  5
93
330
1F
100
AcDbEntity
  8
0
  6
Continuous
 62
     7
370
    25
100
AcDbLine
 10
-61.1821920244
 20
146.8058851918
 30
0.0
 11
-62.6133756668
 21
146.2821488443
 31
0.0
  0
LINE
  5
94
330
1F
100
AcDbEntity
  8
0
  6
Continuous
 62
     7
370
    25
100
AcDbLine
 10
-62.7975311151
 20
151.22000508
 30
0.0
 11
-61.1821920244
 21
146.8058851918
 31
0.0
  0
LINE
  5
95
330
1F
100
AcDbEntity
  8
0
  6
Continuous
 62
     7
370
    25
100
AcDbLine
 10
-62.7934197589
 20
151.2220548979
 30
0.0
 11
-62.7975311151
 21
151.22000508
 31
0.0
  0
ARC
  5
96
330
1F
100
AcDbEntity
  8
0
  6
Continuous
 62
     7
370
    25
100
AcDbCircle
 10
-62.0421445111
 20
151.4969825973
 30
0.0
 40
0.8000000000000048
100
AcDbArc
 50
20.1
 51
200.1
  0
LINE
  5
97
330
1F
100
AcDbEntity
  8
0
  6
Continuous
 62
     7
370
    25
100
AcDbLine
 10
-61.2908691095
 20
151.7719103529
 30
0.0
 11
-51.1486247946
 21
155.4834447126
 31
0.0
  0
ARC
  5
98
330
1F
100
AcDbEntity
  8
0
  6
Continuous
 62
     7
370
    25
100
AcDbCircle
 10
-50.3973493929
 20
155.7583724683
 30
0.0
 40
0.799999999999995
100
AcDbArc
 50
20.1
 51
200.1
  0
LINE
  5
99
330
1F
100
AcDbEntity
  8
0
  6
Continuous
 62
     7
370
    25
100
AcDbLine
 10
-49.6460739912
 20
156.033300224
 30
0.0
 11
-48.0305600693
 21
151.6187009498
 31
0.0
  0
LINE
  5
9A
330
1F
100
AcDbEntity
  8
0
  6
Continuous
 62
     7
370
    25
100
AcDbLine
 10
-46.6018186436
 20
152.1415468631
 30
0.0
 11
-48.0305600693
 21
151.6187009498
 31
0.0
  0
LINE
  5
9B
330
1F
100
AcDbEntity
  8
0
  6
Continuous
 62
     7
370
    25
100
AcDbLine
 10
-47.231241891
 20
153.8615315313
 30
0.0
 11
-46.6018186436
 21
152.1415468631
 31
0.0
  0
ARC
  5
9C
330
1F
100
AcDbEntity
  8
0
  6
Continuous
 62
     7
370
    25
100
AcDbCircle
 10
-47.1027073509
 20
154.6511383144
 30
0.0
 40
0.8000000000000098
100
AcDbArc
 50
139.4455782525
 51
260.7543183893
  0
LINE
  5
9D
330
1F
100
AcDbEntity
  8
0
  6
Continuous
 62
     7
370
    25
100
AcDbLine
 10
-47.7119050038
 20
155.17500889
 30
0.0
 11
-47.7105383524
 21
155.171274329
 31
0.0
  0
LINE
  5
9E
330
1F
100
AcDbEntity
  8
0
  6
Continuous
 62
     7
370
    25
100
AcDbLine
 10
-47.7051821593
 20
155.177469109
 30
0.0
 11
-47.7119050038
 21
155.17500889
 31
0.0
  0
ARC
  5
9F
330
1F
100
AcDbEntity
  8
0
  6
Continuous
 62
     7
370
    25
100
AcDbCircle
 10
-47.1027073509
 20
154.6511383144
 30
0.0
 40
0.8000000000000167
100
AcDbArc
 50
81.3410465394
 51
138.8590626025
  0
ARC
  5
A0
330
1F
100
AcDbEntity
  8
0
  6
Continuous
 62
     7
370
    25
100
AcDbCircle
 10
32.539122784
 20
146.7301152077
 30
0.0
 40
0.8000000000063261
100
AcDbArc
 50
214.9499543493
 51
34.9498145074
  0
LINE
  5
A1
330
1F
100
AcDbEntity
  8
0
  6
Continuous
 62
     7
370
    25
100
AcDbLine
 10
31.8834006011
 20
146.2718266318
 30
0.0
 11
20.3262140298
 21
148.3200711681
 31
0.0
  0
ARC
  5
A2
330
1F
100
AcDbEntity
  8
0
  6
Continuous
 62
     7
370
    25
100
AcDbCircle
 10
19.8679244089
 20
148.9757926208
 30
0.0
 40
0.800000000006263
100
AcDbArc
 50
124.9498145071
 51
304.9500456507
  0
LINE
  5
A3
330
1F
100
AcDbEntity
  8
0
  6
Continuous
 62
     7
370
    25
100
AcDbLine
 10
19.4096374333
 20
149.6315159222
 30
0.0
 11
21.4578814878
 21
161.1886997745
 31
0.0
  0
ARC
  5
A4
330
1F
100
AcDbEntity
  8
0
  6
Continuous
 62
     7
370
    25
100
AcDbCircle
 10
22.1136018219
 20
161.6469909958
 30
0.0
 40
0.8000000000062227
100
AcDbArc
 50
34.9500456499
 51
214.9501854929
  0
LINE
  5
A5
330
1F
100
AcDbEntity
  8
0
  6
Continuous
 62
     7
370
    25
100
AcDbLine
 10
22.7693232745
 20
162.1052806167
 30
0.0
 11
34.326511621
 21
160.0570357657
 31
0.0
  0
ARC
  5
A6
330
1F
100
AcDbEntity
  8
0
  6
Continuous
 62
     7
370
    25
100
AcDbCircle
 10
34.784800197
 20
159.4013135828
 30
0.0
 40
0.8000000000062508
100
AcDbArc
 50
304.9501854926
 51
124.9499543501
  0
LINE
  5
A7
330
1F
100
AcDbEntity
  8
0
  6
Continuous
 62
     7
370
    25
100
AcDbLine
 10
35.2430914183
 20
158.7455932488
 30
0.0
 11
33.1948460854
 21
147.1884021833
 31
0.0
  0
ARC
  5
A8
330
1F
100
AcDbEntity
  8
0
  6
Continuous
 62
     7
370
    25
100
AcDbCircle
 10
15.1977910148
 20
149.5244072675
 30
0.0
 40
0.8000000000087014
100
AcDbArc
 50
221.6499832345
 51
41.650048903
  0
LINE
  5
A9
330
1F
100
AcDbEntity
  8
0
  6
Continuous
 62
     7
370
    25
100
AcDbLine
 10
14.6000161225
 20
148.9927446131
 30
0.0
 11
2.8827868594
 21
149.6786155269
 31
0.0
  0
ARC
  5
AA
330
1F
100
AcDbEntity
  8
0
  6
Continuous
 62
     7
370
    25
100
AcDbCircle
 10
2.3511238551
 20
150.2763901081
 30
0.0
 40
0.8000000000086003
100
AcDbArc
 50
131.6500489019
 51
311.6500167655
  0
LINE
  5
AB
330
1F
100
AcDbEntity
  8
0
  6
Continuous
 62
     7
370
    25
100
AcDbLine
 10
1.8194605156
 20
150.874164391
 30
0.0
 11
2.5053315052
 21
162.5913949486
 31
0.0
  0
ARC
  5
AC
330
1F
100
AcDbEntity
  8
0
  6
Continuous
 62
     7
370
    25
100
AcDbCircle
 10
3.1031066957
 20
163.1230572678
 30
0.0
 40
0.8000000000085359
100
AcDbArc
 50
41.6500167643
 51
221.6499510981
  0
LINE
  5
AD
330
1F
100
AcDbEntity
  8
0
  6
Continuous
 62
     7
370
    25
100
AcDbLine
 10
3.7008812769
 20
163.654720272
 30
0.0
 11
15.4181112009
 21
162.9688493195
 31
0.0
  0
ARC
  5
AE
330
1F
100
AcDbEntity
  8
0
  6
Continuous
 62
     7
370
    25
100
AcDbCircle
 10
15.9497738554
 20
162.3710744272
 30
0.0
 40
0.8000000000086467
100
AcDbArc
 50
311.6499510969
 51
131.6499832357
  0
LINE
  5
AF
330
1F
100
AcDbEntity
  8
0
  6
Continuous
 62
     7
370
    25
100
AcDbLine
 10
16.4814361745
 20
161.7732992367
 30
0.0
 11
15.7955652978
 21
150.0560706071
 31
0.0
  0
ARC
  5
B0
330
1F
100
AcDbEntity
  8
0
  6
Continuous
 62
     7
370
    25
100
AcDbCircle
 10
65.6576703212
 20
135.1946431943
 30
0.0
 40
0.8000000000020541
100
AcDbArc
 50
201.5499028491
 51
21.5497496294
  0
LINE
  5
B1
330
1F
100
AcDbEntity
  8
0
  6
Continuous
 62
     7
370
    25
100
AcDbLine
 10
64.9135919181
 20
134.9007940323
 30
0.0
 11
54.1457169116
 21
139.5716302634
 31
0.0
  0
ARC
  5
B2
330
1F
100
AcDbEntity
  8
0
  6
Continuous
 62
     7
370
    25
100
AcDbCircle
 10
53.8518652263
 20
140.3157076701
 30
0.0
 40
0.8000000000019859
100
AcDbArc
 50
111.5497496302
 51
291.5500971509
  0
LINE
  5
B3
330
1F
100
AcDbEntity
  8
0
  6
Continuous
 62
     7
370
    25
100
AcDbLine
 10
53.5580180541
 20
141.059786859
 30
0.0
 11
58.2288530813
 21
151.8276590899
 31
0.0
  0
ARC
  5
B4
330
1F
100
AcDbEntity
  8
0
  6
Continuous
 62
     7
370
    25
100
AcDbCircle
 10
58.9729297021
 20
152.121512765
 30
0.0
 40
0.8000000000019886
100
AcDbArc
 50
21.5500971508
 51
201.5502503698
  0
LINE
  5
B5
330
1F
100
AcDbEntity
  8
0
  6
Continuous
 62
     7
370
    25
100
AcDbLine
 10
59.7170071087
 20
152.4153644503
 30
0.0
 11
70.484885635
 21
147.7445266923
 31
0.0
  0
ARC
  5
B6
330
1F
100
AcDbEntity
  8
0
  6
Continuous
 62
     7
370
    25
100
AcDbCircle
 10
70.778734797
 20
147.0004482892
 30
0.0
 40
0.8000000000019876
100
AcDbArc
 50
291.5502503706
 51
111.5499028492
  0
LINE
  5
B7
330
1F
100
AcDbEntity
  8
0
  6
Continuous
 62
     7
370
    25
100
AcDbLine
 10
71.0725884721
 20
146.2563716684
 30
0.0
 11
66.4017495101
 21
135.4884903664
 31
0.0
  0
ARC
  5
B8
330
1F
100
AcDbEntity
  8
0
  6
Continuous
 62
     7
370
    25
100
AcDbCircle
 10
49.4360124067
 20
141.931680388
 30
0.0
 40
0.8000000000041212
100
AcDbArc
 50
208.249917366
 51
28.2499508712
  0
LINE
  5
B9
330
1F
100
AcDbEntity
  8
0
  6
Continuous
 62
     7
370
    25
100
AcDbLine
 10
48.7312992701
 20
141.5530256706
 30
0.0
 11
37.4920116753
 21
144.9356672928
 31
0.0
  0
ARC
  5
BA
330
1F
100
AcDbEntity
  8
0
  6
Continuous
 62
     7
370
    25
100
AcDbCircle
 10
37.1133549252
 20
145.6403793372
 30
0.0
 40
0.8000000000040633
100
AcDbArc
 50
118.2499508707
 51
298.250082634
  0
LINE
  5
BB
330
1F
100
AcDbEntity
  8
0
  6
Continuous
 62
     7
370
    25
100
AcDbLine
 10
36.7346997957
 20
146.3450922525
 30
0.0
 11
40.1173416086
 21
157.5843804808
 31
0.0
  0
ARC
  5
BC
330
1F
100
AcDbEntity
  8
0
  6
Continuous
 62
     7
370
    25
100
AcDbCircle
 10
40.8220538745
 20
157.9630368188
 30
0.0
 40
0.8000000000040027
100
AcDbArc
 50
28.2500826335
 51
208.2500491293
  0
LINE
  5
BD
330
1F
100
AcDbEntity
  8
0
  6
Continuous
 62
     7
370
    25
100
AcDbLine
 10
41.5267659189
 20
158.3416935689
 30
0.0
 11
52.7660566386
 21
154.9590510062
 31
0.0
  0
ARC
  5
BE
330
1F
100
AcDbEntity
  8
0
  6
Continuous
 62
     7
370
    25
100
AcDbCircle
 10
53.144711356
 20
154.2543378695
 30
0.0
 40
0.8000000000040788
100
AcDbArc
 50
298.2500491288
 51
118.2499173665
  0
LINE
  5
BF
330
1F
100
AcDbEntity
  8
0
  6
Continuous
 62
     7
370
    25
100
AcDbLine
 10
53.523367694
 20
153.5496256036
 30
0.0
 11
50.140725322
 21
142.3103355175
 31
0.0
  0
ARC
  5
C0
330
1F
100
AcDbEntity
  8
0
  6
Continuous
 62
     7
370
    25
100
AcDbCircle
 10
-2.3511228365
 20
150.2763901677
 30
0.0
 40
0.8000000000111681
100
AcDbArc
 50
228.3502250274
 51
48.3500690404
  0
LINE
  5
C1
330
1F
100
AcDbEntity
  8
0
  6
Continuous
 62
     7
370
    25
100
AcDbLine
 10
-2.8827833181
 20
149.6786133429
 30
0.0
 11
-14.6000173475
 21
148.99274215
 31
0.0
  0
ARC
  5
C2
330
1F
100
AcDbEntity
  8
0
  6
Continuous
 62
     7
370
    25
100
AcDbCircle
 10
-15.1977899962
 20
149.5244073271
 30
0.0
 40
0.8000000000110427
100
AcDbArc
 50
138.3500690389
 51
318.3497749726
  0
LINE
  5
C3
330
1F
100
AcDbEntity
  8
0
  6
Continuous
 62
     7
370
    25
100
AcDbLine
 10
-15.7955653736
 20
150.0560694362
 30
0.0
 11
-16.4814363864
 21
161.7733003907
 31
0.0
  0
ARC
  5
C4
330
1F
100
AcDbEntity
  8
0
  6
Continuous
 62
     7
370
    25
100
AcDbCircle
 10
-15.9497728368
 20
162.3710744868
 30
0.0
 40
0.8000000000109826
100
AcDbArc
 50
48.3497749719
 51
228.3499309611
  0
LINE
  5
C5
330
1F
100
AcDbEntity
  8
0
  6
Continuous
 62
     7
370
    25
100
AcDbLine
 10
-15.4181076596
 20
162.9688471354
 30
0.0
 11
-3.7008825019
 21
163.654717809
 31
0.0
  0
ARC
  5
C6
330
1F
100
AcDbEntity
  8
0
  6
Continuous
 62
     7
370
    25
100
AcDbCircle
 10
-3.1031056771
 20
163.1230573274
 30
0.0
 40
0.8000000000110407
100
AcDbArc
 50
318.3499309596
 51
138.3502250281
  0
LINE
  5
C7
330
1F
100
AcDbEntity
  8
0
  6
Continuous
 62
     7
370
    25
100
AcDbLine
 10
-2.505331581
 20
162.5913937777
 30
0.0
 11
-1.8194607274
 21
150.8741655451
 31
0.0
  0
ARC
  5
C8
330
1F
100
AcDbEntity
  8
0
  6
Continuous
 62
     7
370
    25
100
AcDbCircle
 10
-19.8679234042
 20
148.9757927988
 30
0.0
 40
0.8000000000136204
100
AcDbArc
 50
235.0499992429
 51
55.0497782573
  0
LINE
  5
C9
330
1F
100
AcDbEntity
  8
0
  6
Continuous
 62
     7
370
    25
100
AcDbLine
 10
-20.3262125113
 20
148.3200709871
 30
0.0
 11
-31.8833999555
 21
146.271826296
 31
0.0
  0
ARC
  5
CA
330
1F
100
AcDbEntity
  8
0
  6
Continuous
 62
     7
370
    25
100
AcDbCircle
 10
-32.5391217793
 20
146.7301153858
 30
0.0
 40
0.8000000000135152
100
AcDbArc
 50
145.0497782562
 51
325.0500007571
  0
LINE
  5
CB
330
1F
100
AcDbEntity
  8
0
  6
Continuous
 62
     7
370
    25
100
AcDbLine
 10
-33.1948418234
 20
147.188407022
 30
0.0
 11
-35.2430857529
 21
158.7455901695
 31
0.0
  0
ARC
  5
CC
330
1F
100
AcDbEntity
  8
0
  6
Continuous
 62
     7
370
    25
100
AcDbCircle
 10
-34.7847991923
 20
159.4013137609
 30
0.0
 40
0.8000000000133798
100
AcDbArc
 50
55.0500007552
 51
235.0502217438
  0
LINE
  5
CD
330
1F
100
AcDbEntity
  8
0
  6
Continuous
 62
     7
370
    25
100
AcDbLine
 10
-34.3265101025
 20
160.0570355847
 30
0.0
 11
-22.7693226289
 21
162.105280281
 31
0.0
  0
ARC
  5
CE
330
1F
100
AcDbEntity
  8
0
  6
Continuous
 62
     7
370
    25
100
AcDbCircle
 10
-22.1136008172
 20
161.6469911739
 30
0.0
 40
0.8000000000134723
100
AcDbArc
 50
325.0502217427
 51
145.0499992448
  0
LINE
  5
CF
330
1F
100
AcDbEntity
  8
0
  6
Continuous
 62
     7
370
    25
100
AcDbLine
 10
-21.4578772258
 20
161.1887046132
 30
0.0
 11
-19.409631768
 21
149.6315128429
 31
0.0
  0
LINE
  5
D0
330
1F
100
AcDbEntity
  8
0
  6
Continuous
 62
     7
370
    25
100
AcDbLine
 10
87.6510441662
 20
136.9654434685
 30
0.0
 11
81.7558098351
 21
126.8160543013
 31
0.0
  0
ARC
  5
D1
330
1F
100
AcDbEntity
  8
0
  6
Continuous
 62
     7
370
    25
100
AcDbCircle
 10
80.9825297534
 20
126.6110228028
 30
0.0
 40
0.8000000000000548
100
AcDbArc
 50
194.85
 51
14.85
  0
LINE
  5
D2
330
1F
100
AcDbEntity
  8
0
  6
Continuous
 62
     7
370
    25
100
AcDbLine
 10
80.2092496718
 20
126.4059913043
 30
0.0
 11
70.0598605046
 21
132.3012256354
 31
0.0
  0
ARC
  5
D3
330
1F
100
AcDbEntity
  8
0
  6
Continuous
 62
     7
370
    25
100
AcDbCircle
 10
69.8548290061
 20
133.074505717
 30
0.0
 40
0.8000000000000337
100
AcDbArc
 50
104.85
 51
284.85
  0
LINE
  5
D4
330
1F
100
AcDbEntity
  8
0
  6
Continuous
 62
     7
370
    25
100
AcDbLine
 10
69.6497975076
 20
133.8477857986
 30
0.0
 11
75.5450318388
 21
143.9971749658
 31
0.0
  0
ARC
  5
D5
330
1F
100
AcDbEntity
  8
0
  6
Continuous
 62
     7
370
    25
100
AcDbCircle
 10
76.3183119204
 20
144.2022064643
 30
0.0
 40
0.8000000000000649
100
AcDbArc
 50
14.85
 51
194.85
  0
LINE
  5
D6
330
1F
100
AcDbEntity
  8
0
  6
Continuous
 62
     7
370
    25
100
AcDbLine
 10
77.091592002
 20
144.4072379628
 30
0.0
 11
87.2409811692
 21
138.5120036317
 31
0.0
  0
ARC
  5
D7
330
1F
100
AcDbEntity
  8
0
  6
Continuous
 62
     7
370
    25
100
AcDbCircle
 10
87.4460126677
 20
137.7387235501
 30
0.0
 40
0.8000000000000375
100
AcDbArc
 50
284.85
 51
104.85
  0
ARC
  5
D8
330
1F
100
AcDbEntity
  8
0
  6
Continuous
 62
     7
370
    25
100
AcDbCircle
 10
18.3205093633
 20
165.5904317173
 30
0.0
 40
0.800000000007443
100
AcDbArc
 50
220.9001782379
 51
40.9002010452
  0
LINE
  5
D9
330
1F
100
AcDbEntity
  8
0
  6
Continuous
 62
     7
370
    25
100
AcDbLine
 10
17.7158282174
 20
165.0666371853
 30
0.0
 11
6.0085767299
 21
165.9058234065
 31
0.0
  0
ARC
  5
DA
330
1F
100
AcDbEntity
  8
0
  6
Continuous
 62
     7
370
    25
100
AcDbCircle
 10
5.48478596
 20
166.5105078113
 30
0.0
 40
0.80000000000737
100
AcDbArc
 50
130.9002010448
 51
310.8998217621
  0
LINE
  5
DB
330
1F
100
AcDbEntity
  8
0
  6
Continuous
 62
     7
370
    25
100
AcDbLine
 10
4.9609911872
 20
167.1151887487
 30
0.0
 11
5.8001774407
 21
178.8224406853
 31
0.0
  0
ARC
  5
DC
330
1F
100
AcDbEntity
  8
0
  6
Continuous
 62
     7
370
    25
100
AcDbCircle
 10
6.4048620539
 20
179.3462312146
 30
0.0
 40
0.8000000000072786
100
AcDbArc
 50
40.8998217616
 51
220.8997989552
  0
LINE
  5
DD
330
1F
100
AcDbEntity
  8
0
  6
Continuous
 62
     7
370
    25
100
AcDbLine
 10
7.0095464587
 20
179.8700219845
 30
0.0
 11
18.7167909251
 21
179.0308362665
 31
0.0
  0
ARC
  5
DE
330
1F
100
AcDbEntity
  8
0
  6
Continuous
 62
     7
370
    25
100
AcDbCircle
 10
19.2405854572
 20
178.4261551206
 30
0.0
 40
0.8000000000073644
100
AcDbArc
 50
310.8997989548
 51
130.9001782384
  0
LINE
  5
DF
330
1F
100
AcDbEntity
  8
0
  6
Continuous
 62
     7
370
    25
100
AcDbLine
 10
19.7643759864
 20
177.8214705073
 30
0.0
 11
18.9251903007
 21
166.1142264901
 31
0.0
  0
ARC
  5
E0
330
1F
100
AcDbEntity
  8
0
  6
Continuous
 62
     7
370
    25
100
AcDbCircle
 10
1.7835246483
 20
166.5912698178
 30
0.0
 40
0.800000000010353
100
AcDbArc
 50
226.5999812975
 51
46.6001834818
  0
LINE
  5
E1
330
1F
100
AcDbEntity
  8
0
  6
Continuous
 62
     7
370
    25
100
AcDbLine
 10
1.2338544499
 20
166.0100102604
 30
0.0
 11
-10.4988552298
 21
165.6822860047
 31
0.0
  0
ARC
  5
E2
330
1F
100
AcDbEntity
  8
0
  6
Continuous
 62
     7
370
    25
100
AcDbCircle
 10
-11.080115146
 20
166.2319558236
 30
0.0
 40
0.8000000000102545
100
AcDbArc
 50
136.6001834809
 51
316.6000187025
  0
LINE
  5
E3
330
1F
100
AcDbEntity
  8
0
  6
Continuous
 62
     7
370
    25
100
AcDbLine
 10
-11.661376643
 20
166.7816239709
 30
0.0
 11
-11.9891010102
 21
178.5143376414
 31
0.0
  0
ARC
  5
E4
330
1F
100
AcDbEntity
  8
0
  6
Continuous
 62
     7
370
    25
100
AcDbCircle
 10
-11.4394291401
 20
179.0955956179
 30
0.0
 40
0.8000000000101194
100
AcDbArc
 50
46.600018701
 51
226.5998165191
  0
LINE
  5
E5
330
1F
100
AcDbEntity
  8
0
  6
Continuous
 62
     7
370
    25
100
AcDbLine
 10
-10.8897593212
 20
179.6768555341
 30
0.0
 11
0.8429510968
 21
180.0045798104
 31
0.0
  0
ARC
  5
E6
330
1F
100
AcDbEntity
  8
0
  6
Continuous
 62
     7
370
    25
100
AcDbCircle
 10
1.4242106542
 20
179.4549096121
 30
0.0
 40
0.8000000000102421
100
AcDbArc
 50
316.5998165182
 51
136.599981299
  0
LINE
  5
E7
330
1F
100
AcDbEntity
  8
0
  6
Continuous
 62
     7
370
    25
100
AcDbLine
 10
2.0054686307
 20
178.905237742
 30
0.0
 11
2.3331927956
 21
167.1725313148
 31
0.0
  0
ARC
  5
E8
330
1F
100
AcDbEntity
  8
0
  6
Continuous
 62
     7
370
    25
100
AcDbCircle
 10
50.6892315587
 20
158.7023438505
 30
0.0
 40
0.8000000000022599
100
AcDbArc
 50
209.5001485184
 51
29.5001772475
  0
LINE
  5
E9
330
1F
100
AcDbEntity
  8
0
  6
Continuous
 62
     7
370
    25
100
AcDbLine
 10
49.9929480231
 20
158.3084031976
 30
0.0
 11
38.6825387379
 21
161.4450572957
 31
0.0
  0
ARC
  5
EA
330
1F
100
AcDbEntity
  8
0
  6
Continuous
 62
     7
370
    25
100
AcDbCircle
 10
38.2886016947
 20
162.1413428736
 30
0.0
 40
0.8000000000022569
100
AcDbArc
 50
119.5001772477
 51
299.4998514816
  0
LINE
  5
EB
330
1F
100
AcDbEntity
  8
0
  6
Continuous
 62
     7
370
    25
100
AcDbLine
 10
37.8946606926
 20
162.8376262117
 30
0.0
 11
41.0313149424
 21
174.1480360435
 31
0.0
  0
ARC
  5
EC
330
1F
100
AcDbEntity
  8
0
  6
Continuous
 62
     7
370
    25
100
AcDbCircle
 10
41.7276007178
 20
174.5419727376
 30
0.0
 40
0.8000000000022175
100
AcDbArc
 50
29.4998514817
 51
209.4998227523
  0
LINE
  5
ED
330
1F
100
AcDbEntity
  8
0
  6
Continuous
 62
     7
370
    25
100
AcDbLine
 10
42.4238862957
 20
174.9359097808
 30
0.0
 11
53.7342899288
 21
171.7992572501
 31
0.0
  0
ARC
  5
EE
330
1F
100
AcDbEntity
  8
0
  6
Continuous
 62
     7
370
    25
100
AcDbCircle
 10
54.1282305818
 20
171.1029737145
 30
0.0
 40
0.8000000000022499
100
AcDbArc
 50
299.4998227525
 51
119.5001485183
  0
LINE
  5
EF
330
1F
100
AcDbEntity
  8
0
  6
Continuous
 62
     7
370
    25
100
AcDbLine
 10
54.5221672758
 20
170.4066879391
 30
0.0
 11
51.3855148968
 21
159.0962848526
 31
0.0
  0
ARC
  5
F0
330
1F
100
AcDbEntity
  8
0
  6
Continuous
 62
     7
370
    25
100
AcDbCircle
 10
34.6763251245
 20
162.9520930075
 30
0.0
 40
0.8000000000047504
100
AcDbArc
 50
215.1999982932
 51
35.1999986647
  0
LINE
  5
F1
330
1F
100
AcDbEntity
  8
0
  6
Continuous
 62
     7
370
    25
100
AcDbLine
 10
34.0226091921
 20
162.490947174
 30
0.0
 11
22.4565946574
 21
164.4887447808
 31
0.0
  0
ARC
  5
F2
330
1F
100
AcDbEntity
  8
0
  6
Continuous
 62
     7
370
    25
100
AcDbCircle
 10
21.995448785
 20
165.1424606857
 30
0.0
 40
0.8000000000047061
100
AcDbArc
 50
125.199998664
 51
305.2000017068
  0
LINE
  5
F3
330
1F
100
AcDbEntity
  8
0
  6
Continuous
 62
     7
370
    25
100
AcDbLine
 10
21.5343029473
 20
165.7961766152
 30
0.0
 11
23.5321005554
 21
177.3621911571
 31
0.0
  0
ARC
  5
F4
330
1F
100
AcDbEntity
  8
0
  6
Continuous
 62
     7
370
    25
100
AcDbCircle
 10
24.1858164633
 20
177.8233370253
 30
0.0
 40
0.8000000000046577
100
AcDbArc
 50
35.2000017061
 51
215.200001336
  0
LINE
  5
F5
330
1F
100
AcDbEntity
  8
0
  6
Continuous
 62
     7
370
    25
100
AcDbLine
 10
24.8395323682
 20
178.2844828977
 30
0.0
 11
36.4055469693
 21
176.2866852794
 31
0.0
  0
ARC
  5
F6
330
1F
100
AcDbEntity
  8
0
  6
Continuous
 62
     7
370
    25
100
AcDbCircle
 10
36.8666928028
 20
175.632969347
 30
0.0
 40
0.800000000004691
100
AcDbArc
 50
305.2000013353
 51
125.1999982939
  0
LINE
  5
F7
330
1F
100
AcDbEntity
  8
0
  6
Continuous
 62
     7
370
    25
100
AcDbLine
 10
37.327838671
 20
174.9792534391
 30
0.0
 11
35.330041054
 21
163.4132388452
 31
0.0
  0
ARC
  5
F8
330
1F
100
AcDbEntity
  8
0
  6
Continuous
 62
     7
370
    25
100
AcDbCircle
 10
-14.7710970923
 20
165.9447101608
 30
0.0
 40
0.8000000000134432
100
AcDbArc
 50
232.3001454366
 51
52.3000193684
  0
LINE
  5
F9
330
1F
100
AcDbEntity
  8
0
  6
Continuous
 62
     7
370
    25
100
AcDbLine
 10
-15.2603171177
 20
165.3117300926
 30
0.0
 11
-26.902468959
 21
163.8203360455
 31
0.0
  0
ARC
  5
FA
330
1F
100
AcDbEntity
  8
0
  6
Continuous
 62
     7
370
    25
100
AcDbCircle
 10
-27.5354465436
 20
164.3095592844
 30
0.0
 40
0.8000000000133164
100
AcDbArc
 50
142.3000193665
 51
322.2998545634
  0
LINE
  5
FB
330
1F
100
AcDbEntity
  8
0
  6
Continuous
 62
     7
370
    25
100
AcDbLine
 10
-28.1684255354
 20
164.7987807026
 30
0.0
 11
-29.6598192661
 21
176.4409300747
 31
0.0
  0
ARC
  5
FC
330
1F
100
AcDbEntity
  8
0
  6
Continuous
 62
     7
370
    25
100
AcDbCircle
 10
-29.17059742
 20
177.0739087357
 30
0.0
 40
0.800000000013132
100
AcDbArc
 50
52.2998545619
 51
232.2999806334
  0
LINE
  5
FD
330
1F
100
AcDbEntity
  8
0
  6
Continuous
 62
     7
370
    25
100
AcDbLine
 10
-28.6813741811
 20
177.7068863203
 30
0.0
 11
-17.0392280369
 21
179.1982796375
 31
0.0
  0
ARC
  5
FE
330
1F
100
AcDbEntity
  8
0
  6
Continuous
 62
     7
370
    25
100
AcDbCircle
 10
-16.4062479687
 20
178.7090596121
 30
0.0
 40
0.8000000000132815
100
AcDbArc
 50
322.2999806316
 51
142.3001454381
  0
LINE
  5
FF
330
1F
100
AcDbEntity
  8
0
  6
Continuous
 62
     7
370
    25
100
AcDbLine
 10
-15.7732693077
 20
178.219837766
 30
0.0
 11
-14.2818756741
 21
166.5776891526
 31
0.0
  0
ARC
  5
100
330
1F
100
AcDbEntity
  8
0
  6
Continuous
 62
     7
370
    25
100
AcDbCircle
 10
-31.1796495206
 20
163.6571464845
 30
0.0
 40
0.8000000000166068
100
AcDbArc
 50
238.0001337288
 51
58.0000754785
  0
LINE
  5
101
330
1F
100
AcDbEntity
  8
0
  6
Continuous
 62
     7
370
    25
100
AcDbLine
 10
-31.6035833485
 20
162.978707018
 30
0.0
 11
-43.0400462757
 21
160.3383915092
 31
0.0
  0
ARC
  5
102
330
1F
100
AcDbEntity
  8
0
  6
Continuous
 62
     7
370
    25
100
AcDbCircle
 10
-43.7184837632
 20
160.762328504
 30
0.0
 40
0.8000000000164508
100
AcDbArc
 50
148.0000754762
 51
327.9998662712
  0
LINE
  5
103
330
1F
100
AcDbEntity
  8
0
  6
Continuous
 62
     7
370
    25
100
AcDbLine
 10
-44.3969227986
 20
161.1862630217
 30
0.0
 11
-47.0372380487
 21
172.6227248282
 31
0.0
  0
ARC
  5
104
330
1F
100
AcDbEntity
  8
0
  6
Continuous
 62
     7
370
    25
100
AcDbCircle
 10
-46.6133017436
 20
173.3011627467
 30
0.0
 40
0.8000000000162509
100
AcDbArc
 50
57.9998662692
 51
237.9999245238
  0
LINE
  5
105
330
1F
100
AcDbEntity
  8
0
  6
Continuous
 62
     7
370
    25
100
AcDbLine
 10
-46.1893647487
 20
173.9796002341
 30
0.0
 11
-34.7529069674
 21
176.619914555
 31
0.0
  0
ARC
  5
106
330
1F
100
AcDbEntity
  8
0
  6
Continuous
 62
     7
370
    25
100
AcDbCircle
 10
-34.074467501
 20
176.1959807271
 30
0.0
 40
0.8000000000163929
100
AcDbArc
 50
327.9999245215
 51
148.0001337308
  0
LINE
  5
107
330
1F
100
AcDbEntity
  8
0
  6
Continuous
 62
     7
370
    25
100
AcDbLine
 10
-33.3960295825
 20
175.772044422
 30
0.0
 11
-30.7557150029
 21
164.3355855199
 31
0.0
  0
LINE
  5
108
330
1F
100
AcDbEntity
  8
0
  6
Continuous
 62
     7
370
    25
100
AcDbLine
 10
71.1773380993
 20
164.1489969818
 30
0.0
 11
66.9328470088
 21
153.2060456584
 31
0.0
  0
ARC
  5
109
330
1F
100
AcDbEntity
  8
0
  6
Continuous
 62
     7
370
    25
100
AcDbCircle
 10
66.2008792745
 20
152.8832094213
 30
0.0
 40
0.8000000000001092
100
AcDbArc
 50
203.8
 51
23.8
  0
LINE
  5
10A
330
1F
100
AcDbEntity
  8
0
  6
Continuous
 62
     7
370
    25
100
AcDbLine
 10
65.4689115402
 20
152.5603731842
 30
0.0
 11
54.5259602167
 21
156.8048642748
 31
0.0
  0
ARC
  5
10B
330
1F
100
AcDbEntity
  8
0
  6
Continuous
 62
     7
370
    25
100
AcDbCircle
 10
54.2031239796
 20
157.536832009
 30
0.0
 40
0.8000000000000733
100
AcDbArc
 50
113.8
 51
293.8
  0
LINE
  5
10C
330
1F
100
AcDbEntity
  8
0
  6
Continuous
 62
     7
370
    25
100
AcDbLine
 10
53.8802877426
 20
158.2687997433
 30
0.0
 11
58.1247788331
 21
169.2117510668
 31
0.0
  0
ARC
  5
10D
330
1F
100
AcDbEntity
  8
0
  6
Continuous
 62
     7
370
    25
100
AcDbCircle
 10
58.8567465674
 20
169.5345873039
 30
0.0
 40
0.8000000000000913
100
AcDbArc
 50
23.8
 51
203.8
  0
LINE
  5
10E
330
1F
100
AcDbEntity
  8
0
  6
Continuous
 62
     7
370
    25
100
AcDbLine
 10
59.5887143017
 20
169.857423541
 30
0.0
 11
70.5316656252
 21
165.6129324504
 31
0.0
  0
ARC
  5
10F
330
1F
100
AcDbEntity
  8
0
  6
Continuous
 62
     7
370
    25
100
AcDbCircle
 10
70.8545018622
 20
164.8809647161
 30
0.0
 40
0.8000000000000878
100
AcDbArc
 50
293.8
 51
113.8
  0
LINE
  5
110
330
1F
100
AcDbEntity
  8
0
  6
Continuous
 62
     7
370
    25
100
AcDbLine
 10
-24.6038713166
 20
180.6571254175
 30
0.0
 11
-36.176786302
 21
178.6997133636
 31
0.0
  0
ARC
  5
111
330
1F
100
AcDbEntity
  8
0
  6
Continuous
 62
     7
370
    25
100
AcDbCircle
 10
-36.8288896741
 20
179.1631367037
 30
0.0
 40
0.8000000000135676
100
AcDbArc
 50
144.6000604973
 51
324.6001403939
  0
LINE
  5
112
330
1F
100
AcDbEntity
  8
0
  6
Continuous
 62
     7
370
    25
100
AcDbLine
 10
-37.4809924001
 20
179.626560953
 30
0.0
 11
-39.4384051154
 21
191.1994798497
 31
0.0
  0
ARC
  5
113
330
1F
100
AcDbEntity
  8
0
  6
Continuous
 62
     7
370
    25
100
AcDbCircle
 10
-38.974979489
 20
191.851581597
 30
0.0
 40
0.80000000001347
100
AcDbArc
 50
54.6001403923
 51
234.5999395027
  0
LINE
  5
114
330
1F
100
AcDbEntity
  8
0
  6
Continuous
 62
     7
370
    25
100
AcDbLine
 10
-38.511556149
 20
192.5036849691
 30
0.0
 11
-26.9386356967
 21
194.4610979475
 31
0.0
  0
ARC
  5
115
330
1F
100
AcDbEntity
  8
0
  6
Continuous
 62
     7
370
    25
100
AcDbCircle
 10
-26.2865345957
 20
193.9976714118
 30
0.0
 40
0.8000000000135981
100
AcDbArc
 50
324.5999395008
 51
144.5998596077
  0
LINE
  5
116
330
1F
100
AcDbEntity
  8
0
  6
Continuous
 62
     7
370
    25
100
AcDbLine
 10
-25.6344328484
 20
193.5342457854
 30
0.0
 11
-23.6770205315
 21
181.9613292444
 31
0.0
  0
ARC
  5
117
330
1F
100
AcDbEntity
  8
0
  6
Continuous
 62
     7
370
    25
100
AcDbCircle
 10
-24.1404447808
 20
181.3092265185
 30
0.0
 40
0.8000000000136632
100
AcDbArc
 50
234.5998596061
 51
54.6000604992
  0
LINE
  5
118
330
1F
100
AcDbEntity
  8
0
  6
Continuous
 62
     7
370
    25
100
AcDbLine
 10
-40.8760307497
 20
177.6836990536
 30
0.0
 11
-52.2239144812
 21
174.6854588425
 31
0.0
  0
ARC
  5
119
330
1F
100
AcDbEntity
  8
0
  6
Continuous
 62
     7
370
    25
100
AcDbCircle
 10
-52.9153340006
 20
175.0878753533
 30
0.0
 40
0.8000000000163761
100
AcDbArc
 50
149.8000149957
 51
329.7999541351
  0
LINE
  5
11A
330
1F
100
AcDbEntity
  8
0
  6
Continuous
 62
     7
370
    25
100
AcDbLine
 10
-53.6067539475
 20
175.4902911296
 30
0.0
 11
-56.6049940029
 21
186.8381742717
 31
0.0
  0
ARC
  5
11B
330
1F
100
AcDbEntity
  8
0
  6
Continuous
 62
     7
370
    25
100
AcDbCircle
 10
-56.2025778646
 20
187.529594008
 30
0.0
 40
0.800000000016277
100
AcDbArc
 50
59.7999541328
 51
239.7999850043
  0
LINE
  5
11C
330
1F
100
AcDbEntity
  8
0
  6
Continuous
 62
     7
370
    25
100
AcDbLine
 10
-55.8001613538
 20
188.2210135274
 30
0.0
 11
-44.4522793736
 21
191.2192532758
 31
0.0
  0
ARC
  5
11D
330
1F
100
AcDbEntity
  8
0
  6
Continuous
 62
     7
370
    25
100
AcDbCircle
 10
-43.7608592099
 20
190.816837872
 30
0.0
 40
0.8000000000163262
100
AcDbArc
 50
329.7999850019
 51
149.8000458672
  0
LINE
  5
11E
330
1F
100
AcDbEntity
  8
0
  6
Continuous
 62
     7
370
    25
100
AcDbLine
 10
-43.0694394737
 20
190.4144217337
 30
0.0
 11
-40.0711995696
 21
179.0665391642
 31
0.0
  0
ARC
  5
11F
330
1F
100
AcDbEntity
  8
0
  6
Continuous
 62
     7
370
    25
100
AcDbCircle
 10
-40.4736153459
 20
178.3751192173
 30
0.0
 40
0.800000000016389
100
AcDbArc
 50
239.8000458649
 51
59.8000149981
  0
LINE
  5
120
330
1F
100
AcDbEntity
  8
0
  6
Continuous
 62
     7
370
    25
100
AcDbLine
 10
8.41240482
 20
182.1306635007
 30
0.0
 11
-3.3237362784
 21
182.2945415934
 31
0.0
  0
ARC
  5
121
330
1F
100
AcDbEntity
  8
0
  6
Continuous
 62
     7
370
    25
100
AcDbCircle
 10
-3.8814688871
 20
182.8680695677
 30
0.0
 40
0.8000000000084495
100
AcDbArc
 50
134.2000887823
 51
314.2000525822
  0
LINE
  5
122
330
1F
100
AcDbEntity
  8
0
  6
Continuous
 62
     7
370
    25
100
AcDbLine
 10
-4.4392018581
 20
183.4415971896
 30
0.0
 11
-4.2753237264
 21
195.1777410791
 31
0.0
  0
ARC
  5
123
330
1F
100
AcDbEntity
  8
0
  6
Continuous
 62
     7
370
    25
100
AcDbCircle
 10
-3.7017943761
 20
195.7354722727
 30
0.0
 40
0.8000000000083877
100
AcDbArc
 50
44.200052581
 51
224.1999112177
  0
LINE
  5
124
330
1F
100
AcDbEntity
  8
0
  6
Continuous
 62
     7
370
    25
100
AcDbLine
 10
-3.1282664018
 20
196.2932048813
 30
0.0
 11
8.6078767731
 21
196.1293267597
 31
0.0
  0
ARC
  5
125
330
1F
100
AcDbEntity
  8
0
  6
Continuous
 62
     7
370
    25
100
AcDbCircle
 10
9.165608329
 20
195.5557977617
 30
0.0
 40
0.8000000000084271
100
AcDbArc
 50
314.1999112166
 51
134.199947419
  0
LINE
  5
126
330
1F
100
AcDbEntity
  8
0
  6
Continuous
 62
     7
370
    25
100
AcDbLine
 10
9.7233395226
 20
194.9822684113
 30
0.0
 11
9.5594614399
 21
183.2461280277
 31
0.0
  0
ARC
  5
127
330
1F
100
AcDbEntity
  8
0
  6
Continuous
 62
     7
370
    25
100
AcDbCircle
 10
8.985933818
 20
182.6883950566
 30
0.0
 40
0.8000000000084397
100
AcDbArc
 50
224.1999474178
 51
44.2000887834
  0
LINE
  5
128
330
1F
100
AcDbEntity
  8
0
  6
Continuous
 62
     7
370
    25
100
AcDbLine
 10
-8.1291893466
 20
182.1435243263
 30
0.0
 11
-19.8318816835
 21
181.2430512264
 31
0.0
  0
ARC
  5
129
330
1F
100
AcDbEntity
  8
0
  6
Continuous
 62
     7
370
    25
100
AcDbCircle
 10
-20.439299289
 20
181.7636699473
 30
0.0
 40
0.8000000000109796
100
AcDbArc
 50
139.4000815308
 51
319.4000615917
  0
LINE
  5
12A
330
1F
100
AcDbEntity
  8
0
  6
Continuous
 62
     7
370
    25
100
AcDbLine
 10
-21.0467170758
 20
182.2842884567
 30
0.0
 11
-21.9471903925
 21
193.9869836114
 31
0.0
  0
ARC
  5
12B
330
1F
100
AcDbEntity
  8
0
  6
Continuous
 62
     7
370
    25
100
AcDbCircle
 10
-21.4265701543
 20
194.5943999165
 30
0.0
 40
0.8000000000108939
100
AcDbArc
 50
49.4000615902
 51
229.3999184692
  0
LINE
  5
12C
330
1F
100
AcDbEntity
  8
0
  6
Continuous
 62
     7
370
    25
100
AcDbLine
 10
-20.9059514334
 20
195.201817522
 30
0.0
 11
-9.2032566713
 21
196.1022908085
 31
0.0
  0
ARC
  5
12D
330
1F
100
AcDbEntity
  8
0
  6
Continuous
 62
     7
370
    25
100
AcDbCircle
 10
-8.5958401851
 20
195.5816707817
 30
0.0
 40
0.8000000000109062
100
AcDbArc
 50
319.3999184678
 51
139.3999384098
  0
LINE
  5
12E
330
1F
100
AcDbEntity
  8
0
  6
Continuous
 62
     7
370
    25
100
AcDbLine
 10
-7.9884238801
 20
195.0610505435
 30
0.0
 11
-7.0879508104
 21
183.3583585992
 31
0.0
  0
ARC
  5
12F
330
1F
100
AcDbEntity
  8
0
  6
Continuous
 62
     7
370
    25
100
AcDbCircle
 10
-7.6085693198
 20
182.7509408125
 30
0.0
 40
0.8000000000109747
100
AcDbArc
 50
229.3999384083
 51
49.4000815322
  0
ARC
  5
130
330
1F
100
AcDbEntity
  8
0
  6
Continuous
 62
     7
370
    25
100
AcDbCircle
 10
61.3092279279
 20
172.328103451
 30
0.0
 40
0.8000000000000742
100
AcDbArc
 50
113.4
 51
293.4
  0
LINE
  5
131
330
1F
100
AcDbEntity
  8
0
  6
Continuous
 62
     7
370
    25
100
AcDbLine
 10
60.9915096153
 20
173.0623071515
 30
0.0
 11
65.3122928623
 21
183.9753599059
 31
0.0
  0
ARC
  5
132
330
1F
100
AcDbEntity
  8
0
  6
Continuous
 62
     7
370
    25
100
AcDbCircle
 10
66.0464965628
 20
184.2930782184
 30
0.0
 40
0.800000000000063
100
AcDbArc
 50
23.4
 51
203.4
  0
LINE
  5
133
330
1F
100
AcDbEntity
  8
0
  6
Continuous
 62
     7
370
    25
100
AcDbLine
 10
66.7807002634
 20
184.6107965309
 30
0.0
 11
77.6937530177
 21
180.290013284
 31
0.0
  0
ARC
  5
134
330
1F
100
AcDbEntity
  8
0
  6
Continuous
 62
     7
370
    25
100
AcDbCircle
 10
78.0114713302
 20
179.5558095834
 30
0.0
 40
0.8000000000000687
100
AcDbArc
 50
293.4
 51
113.4
  0
LINE
  5
135
330
1F
100
AcDbEntity
  8
0
  6
Continuous
 62
     7
370
    25
100
AcDbLine
 10
78.3291896427
 20
178.8216058829
 30
0.0
 11
74.0084063958
 21
167.9085531285
 31
0.0
  0
ARC
  5
136
330
1F
100
AcDbEntity
  8
0
  6
Continuous
 62
     7
370
    25
100
AcDbCircle
 10
73.2742026952
 20
167.590834816
 30
0.0
 40
0.8000000000000578
100
AcDbArc
 50
203.4
 51
23.4
  0
LINE
  5
137
330
1F
100
AcDbEntity
  8
0
  6
Continuous
 62
     7
370
    25
100
AcDbLine
 10
72.5399989947
 20
167.2731165035
 30
0.0
 11
61.6269462404
 21
171.5938997505
 31
0.0
  0
ARC
  5
138
330
1F
100
AcDbEntity
  8
0
  6
Continuous
 62
     7
370
    25
100
AcDbCircle
 10
45.4383629282
 20
177.175483187
 30
0.0
 40
0.8000000000018674
100
AcDbArc
 50
118.5998546429
 51
298.6000724107
  0
LINE
  5
139
330
1F
100
AcDbEntity
  8
0
  6
Continuous
 62
     7
370
    25
100
AcDbLine
 10
45.0554112238
 20
177.8778705388
 30
0.0
 11
48.3693329098
 21
189.1376104988
 31
0.0
  0
ARC
  5
13A
330
1F
100
AcDbEntity
  8
0
  6
Continuous
 62
     7
370
    25
100
AcDbCircle
 10
49.0717183186
 20
189.5205657671
 30
0.0
 40
0.8000000000018467
100
AcDbArc
 50
28.6000724105
 51
208.6001453571
  0
LINE
  5
13B
330
1F
100
AcDbEntity
  8
0
  6
Continuous
 62
     7
370
    25
100
AcDbLine
 10
49.774104215
 20
189.9035201411
 30
0.0
 11
61.0338483001
 21
186.589597241
 31
0.0
  0
ARC
  5
13C
330
1F
100
AcDbEntity
  8
0
  6
Continuous
 62
     7
370
    25
100
AcDbCircle
 10
61.4168008988
 20
185.8872103767
 30
0.0
 40
0.8000000000018705
100
AcDbArc
 50
298.6001453572
 51
118.5999275895
  0
LINE
  5
13D
330
1F
100
AcDbEntity
  8
0
  6
Continuous
 62
     7
370
    25
100
AcDbLine
 10
61.7997561671
 20
185.1848249679
 30
0.0
 11
58.4858328602
 21
173.9250795009
 31
0.0
  0
ARC
  5
13E
330
1F
100
AcDbEntity
  8
0
  6
Continuous
 62
     7
370
    25
100
AcDbCircle
 10
57.7834455083
 20
173.5421277965
 30
0.0
 40
0.8000000000018853
100
AcDbArc
 50
208.5999275893
 51
28.5998546428
  0
LINE
  5
13F
330
1F
100
AcDbEntity
  8
0
  6
Continuous
 62
     7
370
    25
100
AcDbLine
 10
57.081058644
 20
173.1591751978
 30
0.0
 11
45.8213173022
 21
176.4730972906
 31
0.0
  0
LINE
  5
140
330
1F
100
AcDbEntity
  8
0
  6
Continuous
 62
     7
370
    25
100
AcDbLine
 10
-56.8117343953
 20
173.2477241024
 30
0.0
 11
-67.8411750627
 21
169.2333359988
 31
0.0
  0
ARC
  5
141
330
1F
100
AcDbEntity
  8
0
  6
Continuous
 62
     7
370
    25
100
AcDbCircle
 10
-68.5662214834
 20
169.5714301986
 30
0.0
 40
0.800000000019179
100
AcDbArc
 50
155.0000767229
 51
335.0000323675
  0
LINE
  5
142
330
1F
100
AcDbEntity
  8
0
  6
Continuous
 62
     7
370
    25
100
AcDbLine
 10
-69.2912681658
 20
169.9095238372
 30
0.0
 11
-73.305657006
 21
180.9389665288
 31
0.0
  0
ARC
  5
143
330
1F
100
AcDbEntity
  8
0
  6
Continuous
 62
     7
370
    25
100
AcDbCircle
 10
-72.9675614258
 20
181.6640123057
 30
0.0
 40
0.800000000019094
100
AcDbArc
 50
65.0000323647
 51
244.9999232771
  0
LINE
  5
144
330
1F
100
AcDbEntity
  8
0
  6
Continuous
 62
     7
370
    25
100
AcDbLine
 10
-72.6294672259
 20
182.3890587263
 30
0.0
 11
-61.6000253574
 21
186.403447267
 31
0.0
  0
ARC
  5
145
330
1F
100
AcDbEntity
  8
0
  6
Continuous
 62
     7
370
    25
100
AcDbCircle
 10
-60.8749793187
 20
186.0653522481
 30
0.0
 40
0.8000000000191254
100
AcDbArc
 50
334.9999232745
 51
154.9999676353
  0
LINE
  5
146
330
1F
100
AcDbEntity
  8
0
  6
Continuous
 62
     7
370
    25
100
AcDbLine
 10
-60.1499335418
 20
185.7272566678
 30
0.0
 11
-56.1355457378
 21
174.6978168234
 31
0.0
  0
ARC
  5
147
330
1F
100
AcDbEntity
  8
0
  6
Continuous
 62
     7
370
    25
100
AcDbCircle
 10
-56.4736393763
 20
173.972770141
 30
0.0
 40
0.8000000000191902
100
AcDbArc
 50
244.9999676325
 51
65.0000767255
  0
LINE
  5
148
330
1F
100
AcDbEntity
  8
0
  6
Continuous
 62
     7
370
    25
100
AcDbLine
 10
-72.2798070395
 20
167.3857110408
 30
0.0
 11
-82.9000221405
 21
162.3882171555
 31
0.0
  0
ARC
  5
149
330
1F
100
AcDbEntity
  8
0
  6
Continuous
 62
     7
370
    25
100
AcDbCircle
 10
-83.6527264941
 20
162.6592082184
 30
0.0
 40
0.8000000000219973
100
AcDbArc
 50
160.1999701378
 51
340.1999446859
  0
LINE
  5
14A
330
1F
100
AcDbEntity
  8
0
  6
Continuous
 62
     7
370
    25
100
AcDbLine
 10
-84.405430968
 20
162.9301989469
 30
0.0
 11
-89.4029241372
 21
173.550412526
 31
0.0
  0
ARC
  5
14B
330
1F
100
AcDbEntity
  8
0
  6
Continuous
 62
     7
370
    25
100
AcDbCircle
 10
-89.1319341933
 20
174.3031172825
 30
0.0
 40
0.8000000000218894
100
AcDbArc
 50
70.1999446828
 51
250.2000298622
  0
LINE
  5
14C
330
1F
100
AcDbEntity
  8
0
  6
Continuous
 62
     7
370
    25
100
AcDbLine
 10
-88.8609431304
 20
175.055821636
 30
0.0
 11
-78.240730006
 21
180.0533145912
 31
0.0
  0
ARC
  5
14D
330
1F
100
AcDbEntity
  8
0
  6
Continuous
 62
     7
370
    25
100
AcDbCircle
 10
-77.4880251292
 20
179.7823249817
 30
0.0
 40
0.8000000000219277
100
AcDbArc
 50
340.200029859
 51
160.2000553172
  0
LINE
  5
14E
330
1F
100
AcDbEntity
  8
0
  6
Continuous
 62
     7
370
    25
100
AcDbLine
 10
-76.7353203728
 20
179.5113350378
 30
0.0
 11
-71.7378267015
 21
168.8911203916
 31
0.0
  0
ARC
  5
14F
330
1F
100
AcDbEntity
  8
0
  6
Continuous
 62
     7
370
    25
100
AcDbCircle
 10
-72.00881743
 20
168.1384159176
 30
0.0
 40
0.8000000000220108
100
AcDbArc
 50
250.2000553141
 51
70.1999701409
  0
LINE
  5
150
330
1F
100
AcDbEntity
  8
0
  6
Continuous
 62
     7
370
    25
100
AcDbLine
 10
41.1522732
 20
177.6199242742
 30
0.0
 11
29.6385224745
 21
179.8997083092
 31
0.0
  0
ARC
  5
151
330
1F
100
AcDbEntity
  8
0
  6
Continuous
 62
     7
370
    25
100
AcDbCircle
 10
29.1934855498
 20
180.5644955953
 30
0.0
 40
0.8000000000038611
100
AcDbArc
 50
123.8000151444
 51
303.8000372561
  0
LINE
  5
152
330
1F
100
AcDbEntity
  8
0
  6
Continuous
 62
     7
370
    25
100
AcDbLine
 10
28.7484488817
 20
181.2292830531
 30
0.0
 11
31.0282331177
 21
192.7430347936
 31
0.0
  0
ARC
  5
153
330
1F
100
AcDbEntity
  8
0
  6
Continuous
 62
     7
370
    25
100
AcDbCircle
 10
31.6930208108
 20
193.1880711103
 30
0.0
 40
0.8000000000038318
100
AcDbArc
 50
33.8000372556
 51
213.7999848556
  0
LINE
  5
154
330
1F
100
AcDbEntity
  8
0
  6
Continuous
 62
     7
370
    25
100
AcDbLine
 10
32.3578080968
 20
193.633108035
 30
0.0
 11
43.8715602657
 21
191.3533237141
 31
0.0
  0
ARC
  5
155
330
1F
100
AcDbEntity
  8
0
  6
Continuous
 62
     7
370
    25
100
AcDbCircle
 10
44.3165963258
 20
190.6885358493
 30
0.0
 40
0.8000000000038567
100
AcDbArc
 50
303.7999848551
 51
123.7999627444
  0
LINE
  5
156
330
1F
100
AcDbEntity
  8
0
  6
Continuous
 62
     7
370
    25
100
AcDbLine
 10
44.7616326425
 20
190.0237481563
 30
0.0
 11
42.4818485226
 21
178.5099970024
 31
0.0
  0
ARC
  5
157
330
1F
100
AcDbEntity
  8
0
  6
Continuous
 62
     7
370
    25
100
AcDbCircle
 10
41.8170610648
 20
178.0649603343
 30
0.0
 40
0.8000000000038424
100
AcDbArc
 50
213.7999627439
 51
33.8000151449
  0
LINE
  5
158
330
1F
100
AcDbEntity
  8
0
  6
Continuous
 62
     7
370
    25
100
AcDbLine
 10
24.8847549259
 20
180.6186480334
 30
0.0
 11
13.2117672538
 21
181.8455284759
 31
0.0
  0
ARC
  5
159
330
1F
100
AcDbEntity
  8
0
  6
Continuous
 62
     7
370
    25
100
AcDbCircle
 10
12.7083106724
 20
182.4672450276
 30
0.0
 40
0.8000000000060582
100
AcDbArc
 50
128.9998469528
 51
309.0000247487
  0
LINE
  5
15A
330
1F
100
AcDbEntity
  8
0
  6
Continuous
 62
     7
370
    25
100
AcDbLine
 10
12.2048560202
 20
183.0889631416
 30
0.0
 11
13.431736198
 21
194.7619482942
 31
0.0
  0
ARC
  5
15B
330
1F
100
AcDbEntity
  8
0
  6
Continuous
 62
     7
370
    25
100
AcDbCircle
 10
14.0534516223
 20
195.2654062678
 30
0.0
 40
0.80000000000601
100
AcDbArc
 50
39.0000247478
 51
219.0001530472
  0
LINE
  5
15C
330
1F
100
AcDbEntity
  8
0
  6
Continuous
 62
     7
370
    25
100
AcDbLine
 10
14.675168174
 20
195.7688628492
 30
0.0
 11
26.3481568182
 21
194.5419823045
 31
0.0
  0
ARC
  5
15D
330
1F
100
AcDbEntity
  8
0
  6
Continuous
 62
     7
370
    25
100
AcDbCircle
 10
26.8516128625
 20
193.9202653178
 30
0.0
 40
0.8000000000060637
100
AcDbArc
 50
309.0001530467
 51
128.9999752521
  0
LINE
  5
15E
330
1F
100
AcDbEntity
  8
0
  6
Continuous
 62
     7
370
    25
100
AcDbLine
 10
27.355070836
 20
193.2985498935
 30
0.0
 11
26.1281900265
 21
181.6255587298
 31
0.0
  0
ARC
  5
15F
330
1F
100
AcDbEntity
  8
0
  6
Continuous
 62
     7
370
    25
100
AcDbCircle
 10
25.5064719125
 20
181.1221040777
 30
0.0
 40
0.8000000000061086
100
AcDbArc
 50
218.9999752513
 51
38.9998469532
  0
LINE
  5
160
330
1F
100
AcDbEntity
  8
0
  6
Continuous
 62
     7
370
    25
100
AcDbLine
 10
-88.0069763375
 20
159.6781740481
 30
0.0
 11
-98.0986809968
 21
153.6847288489
 31
0.0
  0
ARC
  5
161
330
1F
100
AcDbEntity
  8
0
  6
Continuous
 62
     7
370
    25
100
AcDbCircle
 10
-98.8739142702
 20
153.8822468779
 30
0.0
 40
0.8000000000000116
100
AcDbArc
 50
165.706
 51
345.706
  0
LINE
  5
162
330
1F
100
AcDbEntity
  8
0
  6
Continuous
 62
     7
370
    25
100
AcDbLine
 10
-99.6491475436
 20
154.0797649069
 30
0.0
 11
-105.6425927428
 21
164.1714695662
 31
0.0
  0
ARC
  5
163
330
1F
100
AcDbEntity
  8
0
  6
Continuous
 62
     7
370
    25
100
AcDbCircle
 10
-105.4450747137
 20
164.9467028396
 30
0.0
 40
0.8000000000000119
100
AcDbArc
 50
75.706
 51
255.706
  0
LINE
  5
164
330
1F
100
AcDbEntity
  8
0
  6
Continuous
 62
     7
370
    25
100
AcDbLine
 10
-105.2475566847
 20
165.7219361131
 30
0.0
 11
-95.1558520254
 21
171.7153813122
 31
0.0
  0
ARC
  5
165
330
1F
100
AcDbEntity
  8
0
  6
Continuous
 62
     7
370
    25
100
AcDbCircle
 10
-94.380618752
 20
171.5178632832
 30
0.0
 40
0.8000000000000048
100
AcDbArc
 50
345.706
 51
165.706
  0
LINE
  5
166
330
1F
100
AcDbEntity
  8
0
  6
Continuous
 62
     7
370
    25
100
AcDbLine
 10
-93.6053854786
 20
171.3203452542
 30
0.0
 11
-87.6119402794
 21
161.2286405949
 31
0.0
  0
ARC
  5
167
330
1F
100
AcDbEntity
  8
0
  6
Continuous
 62
     7
370
    25
100
AcDbCircle
 10
-87.8094583084
 20
160.4534073215
 30
0.0
 40
0.8000000000000353
100
AcDbArc
 50
255.706
 51
75.706
  0
ARC
  5
168
330
1F
100
AcDbEntity
  8
0
  6
Continuous
 62
     7
370
    25
100
AcDbCircle
 10
-46.2863991371
 20
158.7861732088
 30
0.0
 40
0.8000000000000103
100
AcDbArc
 50
203.7861355911
 51
23.315150627
  0
ARC
  5
169
330
1F
100
AcDbEntity
  8
0
  6
Continuous
 62
     7
370
    25
100
AcDbCircle
 10
-0.3207934391
 20
0.6961413791
 30
0.0
 40
164.5333235380919
100
AcDbArc
 50
106.4882559126
 51
122.9949793497
  0
ARC
  5
16A
330
1F
100
AcDbEntity
  8
0
  6
Continuous
 62
     7
370
    25
100
AcDbCircle
 10
-90.6408511643
 20
138.3463581174
 30
0.0
 40
0.8000000000000117
100
AcDbArc
 50
206.1680679292
 51
25.6971162413
  0
LINE
  5
16B
330
1F
100
AcDbEntity
  8
0
  6
Continuous
 62
     7
370
    25
100
AcDbLine
 10
-91.3588545965
 20
137.9935535379
 30
0.0
 11
-99.376274465
 21
150.103517308
 31
0.0
  0
ARC
  5
16C
330
1F
100
AcDbEntity
  8
0
  6
Continuous
 62
     7
370
    25
100
AcDbCircle
 10
-98.9567901886
 20
150.7847169423
 30
0.0
 40
0.8000000000000237
100
AcDbArc
 50
57.9933671295
 51
238.3751444364
  0
ARC
  5
16D
330
1F
100
AcDbEntity
  8
0
  6
Continuous
 62
     7
370
    25
100
AcDbCircle
 10
-0.3506915759
 20
0.7610101583
 30
0.0
 40
179.8634024527864
100
AcDbArc
 50
106.39907661
 51
123.0841551488
  0
ARC
  5
16E
330
1F
100
AcDbEntity
  8
0
  6
Continuous
 62
     7
370
    25
100
AcDbCircle
 10
-50.3396141157
 20
173.1889165365
 30
0.0
 40
0.8000000000000067
100
AcDbArc
 50
351.1080741198
 51
171.4898632721
  0
LINE
  5
16F
330
1F
100
AcDbEntity
  8
0
  6
Continuous
 62
     7
370
    25
100
AcDbLine
 10
-49.5492287895
 20
173.0652596073
 30
0.0
 11
-45.5517257325
 21
159.1028038904
 31
0.0
  0
LINE
  5
170
330
1F
100
AcDbEntity
  8
0
  6
Continuous
 62
     7
370
    25
100
AcDbLine
 10
100.4337163102
 20
167.4087744594
 30
0.0
 11
94.7602166182
 21
157.133790784
 31
0.0
  0
ARC
  5
171
330
1F
100
AcDbEntity
  8
0
  6
Continuous
 62
     7
370
    25
100
AcDbCircle
 10
93.9915700669
 20
156.9120195526
 30
0.0
 40
0.800000000000022
100
AcDbArc
 50
196.094
 51
16.094
  0
LINE
  5
172
330
1F
100
AcDbEntity
  8
0
  6
Continuous
 62
     7
370
    25
100
AcDbLine
 10
93.2229235155
 20
156.6902483212
 30
0.0
 11
82.9479398401
 21
162.3637480132
 31
0.0
  0
ARC
  5
173
330
1F
100
AcDbEntity
  8
0
  6
Continuous
 62
     7
370
    25
100
AcDbCircle
 10
82.7261686087
 20
163.1323945646
 30
0.0
 40
0.8000000000000238
100
AcDbArc
 50
106.094
 51
286.094
  0
LINE
  5
174
330
1F
100
AcDbEntity
  8
0
  6
Continuous
 62
     7
370
    25
100
AcDbLine
 10
82.5043973773
 20
163.901041116
 30
0.0
 11
88.1778970693
 21
174.1760247914
 31
0.0
  0
ARC
  5
175
330
1F
100
AcDbEntity
  8
0
  6
Continuous
 62
     7
370
    25
100
AcDbCircle
 10
88.9465436207
 20
174.3977960228
 30
0.0
 40
0.7999999999999884
100
AcDbArc
 50
16.094
 51
196.094
  0
LINE
  5
176
330
1F
100
AcDbEntity
  8
0
  6
Continuous
 62
     7
370
    25
100
AcDbLine
 10
89.7151901721
 20
174.6195672542
 30
0.0
 11
99.9901738475
 21
168.9460675622
 31
0.0
  0
ARC
  5
177
330
1F
100
AcDbEntity
  8
0
  6
Continuous
 62
     7
370
    25
100
AcDbCircle
 10
100.2119450789
 20
168.1774210108
 30
0.0
 40
0.8000000000000315
100
AcDbArc
 50
286.094
 51
106.094
  0
LINE
  5
178
330
1F
100
AcDbEntity
  8
0
  6
Continuous
 62
     7
370
    25
100
AcDbLine
 10
92.3688325474
 20
153.2289296616
 30
0.0
 11
86.7071725484
 21
142.9474174021
 31
0.0
  0
ARC
  5
179
330
1F
100
AcDbEntity
  8
0
  6
Continuous
 62
     7
370
    25
100
AcDbCircle
 10
85.938781969
 20
142.7247609008
 30
0.0
 40
0.8000000000000563
100
AcDbArc
 50
196.16
 51
16.16
  0
LINE
  5
17A
330
1F
100
AcDbEntity
  8
0
  6
Continuous
 62
     7
370
    25
100
AcDbLine
 10
85.1703913897
 20
142.5021043995
 30
0.0
 11
74.8888791302
 21
148.1637643985
 31
0.0
  0
ARC
  5
17B
330
1F
100
AcDbEntity
  8
0
  6
Continuous
 62
     7
370
    25
100
AcDbCircle
 10
74.6662226289
 20
148.9321549778
 30
0.0
 40
0.8000000000000131
100
AcDbArc
 50
106.16
 51
286.16
  0
LINE
  5
17C
330
1F
100
AcDbEntity
  8
0
  6
Continuous
 62
     7
370
    25
100
AcDbLine
 10
74.4435661276
 20
149.7005455572
 30
0.0
 11
80.1052261266
 21
159.9820578166
 31
0.0
  0
ARC
  5
17D
330
1F
100
AcDbEntity
  8
0
  6
Continuous
 62
     7
370
    25
100
AcDbCircle
 10
80.8736167059
 20
160.2047143179
 30
0.0
 40
0.8000000000000075
100
AcDbArc
 50
16.16
 51
196.16
  0
LINE
  5
17E
330
1F
100
AcDbEntity
  8
0
  6
Continuous
 62
     7
370
    25
100
AcDbLine
 10
81.6420072853
 20
160.4273708192
 30
0.0
 11
91.9235195447
 21
154.7657108202
 31
0.0
  0
ARC
  5
17F
330
1F
100
AcDbEntity
  8
0
  6
Continuous
 62
     7
370
    25
100
AcDbCircle
 10
92.1461760461
 20
153.9973202409
 30
0.0
 40
0.8000000000000171
100
AcDbArc
 50
286.16
 51
106.16
  0
LINE
  5
180
330
1F
100
AcDbEntity
  8
0
  6
Continuous
 62
     7
370
    25
100
AcDbLine
 10
-75.5450296424
 20
143.9971762416
 30
0.0
 11
-69.6497953113
 21
133.8477870744
 31
0.0
  0
ARC
  5
181
330
1F
100
AcDbEntity
  8
0
  6
Continuous
 62
     7
370
    25
100
AcDbCircle
 10
-69.8548268098
 20
133.0745069928
 30
0.0
 40
0.8000000000000099
100
AcDbArc
 50
255.15
 51
75.15
  0
LINE
  5
182
330
1F
100
AcDbEntity
  8
0
  6
Continuous
 62
     7
370
    25
100
AcDbLine
 10
-70.0598583083
 20
132.3012269111
 30
0.0
 11
-80.2092474755
 21
126.40599258
 31
0.0
  0
ARC
  5
183
330
1F
100
AcDbEntity
  8
0
  6
Continuous
 62
     7
370
    25
100
AcDbCircle
 10
-80.9825275571
 20
126.6110240785
 30
0.0
 40
0.8000000000000171
100
AcDbArc
 50
165.15
 51
345.15
  0
LINE
  5
184
330
1F
100
AcDbEntity
  8
0
  6
Continuous
 62
     7
370
    25
100
AcDbLine
 10
-81.7558076387
 20
126.816055577
 30
0.0
 11
-87.6510419698
 21
136.9654447442
 31
0.0
  0
ARC
  5
185
330
1F
100
AcDbEntity
  8
0
  6
Continuous
 62
     7
370
    25
100
AcDbCircle
 10
-87.4460104713
 20
137.7387248258
 30
0.0
 40
0.799999999999997
100
AcDbArc
 50
75.15
 51
255.15
  0
LINE
  5
186
330
1F
100
AcDbEntity
  8
0
  6
Continuous
 62
     7
370
    25
100
AcDbLine
 10
-87.2409789728
 20
138.5120049074
 30
0.0
 11
-77.0915898056
 21
144.4072392386
 31
0.0
  0
ARC
  5
187
330
1F
100
AcDbEntity
  8
0
  6
Continuous
 62
     7
370
    25
100
AcDbCircle
 10
-76.318309724
 20
144.2022077401
 30
0.0
 40
0.8000000000000034
100
AcDbArc
 50
345.15
 51
165.15
  0
ARC
  5
188
330
1F
100
AcDbEntity
  8
0
  6
Continuous
 62
     7
370
    25
100
AcDbCircle
 10
-97.6435553233
 20
173.6495113022
 30
0.0
 40
0.7999999999999956
100
AcDbArc
 50
256.2
 51
76.2
  0
LINE
  5
189
330
1F
100
AcDbEntity
  8
0
  6
Continuous
 62
     7
370
    25
100
AcDbLine
 10
-97.8343820893
 20
172.8726038783
 30
0.0
 11
-107.8740372505
 21
166.7923725891
 31
0.0
  0
ARC
  5
18A
330
1F
100
AcDbEntity
  8
0
  6
Continuous
 62
     7
370
    25
100
AcDbCircle
 10
-108.6509446745
 20
166.9831993552
 30
0.0
 40
0.8000000000000197
100
AcDbArc
 50
166.2
 51
346.2
  0
LINE
  5
18B
330
1F
100
AcDbEntity
  8
0
  6
Continuous
 62
     7
370
    25
100
AcDbLine
 10
-109.4278520984
 20
167.1740261212
 30
0.0
 11
-115.5080833876
 21
177.2136812824
 31
0.0
  0
ARC
  5
18C
330
1F
100
AcDbEntity
  8
0
  6
Continuous
 62
     7
370
    25
100
AcDbCircle
 10
-115.3172566215
 20
177.9905887064
 30
0.0
 40
0.8000000000000614
100
AcDbArc
 50
76.2
 51
256.2
  0
LINE
  5
18D
330
1F
100
AcDbEntity
  8
0
  6
Continuous
 62
     7
370
    25
100
AcDbLine
 10
-115.1264298555
 20
178.7674961303
 30
0.0
 11
-105.0867746943
 21
184.8477274195
 31
0.0
  0
ARC
  5
18E
330
1F
100
AcDbEntity
  8
0
  6
Continuous
 62
     7
370
    25
100
AcDbCircle
 10
-104.3098672703
 20
184.6569006534
 30
0.0
 40
0.8000000000000267
100
AcDbArc
 50
346.2
 51
166.2
  0
LINE
  5
18F
330
1F
100
AcDbEntity
  8
0
  6
Continuous
 62
     7
370
    25
100
AcDbLine
 10
-103.5329598464
 20
184.4660738874
 30
0.0
 11
-97.4527285572
 21
174.4264187262
 31
0.0
  0
LINE
  5
190
330
1F
100
AcDbEntity
  8
0
  6
Continuous
 62
     7
370
    25
100
AcDbLine
 10
-95.0553112144
 20
175.7444093045
 30
0.0
 11
-100.2741217519
 21
186.2576349595
 31
0.0
  0
ARC
  5
191
330
1F
100
AcDbEntity
  8
0
  6
Continuous
 62
     7
370
    25
100
AcDbCircle
 10
-100.0189540829
 20
187.0158496129
 30
0.0
 40
0.8000000000000109
100
AcDbArc
 50
71.3999175955
 51
251.3999832535
  0
LINE
  5
192
330
1F
100
AcDbEntity
  8
0
  6
Continuous
 62
     7
370
    25
100
AcDbLine
 10
-99.7637855449
 20
187.774063974
 30
0.0
 11
-89.2505617239
 21
192.9928736011
 31
0.0
  0
ARC
  5
193
330
1F
100
AcDbEntity
  8
0
  6
Continuous
 62
     7
370
    25
100
AcDbCircle
 10
-88.4923466087
 20
192.7377073043
 30
0.0
 40
0.8000000000000436
100
AcDbArc
 50
341.3999832535
 51
161.4000869458
  0
LINE
  5
194
330
1F
100
AcDbEntity
  8
0
  6
Continuous
 62
     7
370
    25
100
AcDbLine
 10
-87.7341319552
 20
192.4825396352
 30
0.0
 11
-82.5153217516
 21
181.9693146529
 31
0.0
  0
ARC
  5
195
330
1F
100
AcDbEntity
  8
0
  6
Continuous
 62
     7
370
    25
100
AcDbCircle
 10
-82.7704889174
 20
181.21109983
 30
0.0
 40
0.8000000000000596
100
AcDbArc
 50
251.4000869459
 51
71.4000212877
  0
LINE
  5
196
330
1F
100
AcDbEntity
  8
0
  6
Continuous
 62
     7
370
    25
100
AcDbLine
 10
-83.0256552142
 20
180.4528847148
 30
0.0
 11
-93.5388820305
 21
175.2340736008
 31
0.0
  0
ARC
  5
197
330
1F
100
AcDbEntity
  8
0
  6
Continuous
 62
     7
370
    25
100
AcDbCircle
 10
-94.2970963916
 20
175.4892421387
 30
0.0
 40
0.8000000000000371
100
AcDbArc
 50
161.4000212877
 51
341.3999175954
  0
ARC
  5
198
330
1F
100
AcDbEntity
  8
0
  6
Continuous
 62
     7
370
    25
100
AcDbCircle
 10
101.5533361517
 20
190.1068373678
 30
0.0
 40
0.800000000000038
100
AcDbArc
 50
198.5999755597
 51
18.5999449662
  0
LINE
  5
199
330
1F
100
AcDbEntity
  8
0
  6
Continuous
 62
     7
370
    25
100
AcDbLine
 10
100.7951213148
 20
189.8516702438
 30
0.0
 11
90.2818969103
 21
195.0704801606
 31
0.0
  0
ARC
  5
19A
330
1F
100
AcDbEntity
  8
0
  6
Continuous
 62
     7
370
    25
100
AcDbCircle
 10
90.0267284183
 20
195.828694537
 30
0.0
 40
0.7999999999999811
100
AcDbArc
 50
108.5999449663
 51
288.6000789355
  0
LINE
  5
19B
330
1F
100
AcDbEntity
  8
0
  6
Continuous
 62
     7
370
    25
100
AcDbLine
 10
89.7715616992
 20
196.5869095101
 30
0.0
 11
94.9903713473
 21
207.1001333735
 31
0.0
  0
ARC
  5
19C
330
1F
100
AcDbEntity
  8
0
  6
Continuous
 62
     7
370
    25
100
AcDbCircle
 10
95.7485855875
 20
207.3553022704
 30
0.0
 40
0.799999999999981
100
AcDbArc
 50
18.6000789356
 51
198.6001095288
  0
LINE
  5
19D
330
1F
100
AcDbEntity
  8
0
  6
Continuous
 62
     7
370
    25
100
AcDbLine
 10
96.506799964
 20
207.6104707624
 30
0.0
 11
107.0200261969
 21
202.391659938
 31
0.0
  0
ARC
  5
19E
330
1F
100
AcDbEntity
  8
0
  6
Continuous
 62
     7
370
    25
100
AcDbCircle
 10
107.2751933209
 20
201.6334451012
 30
0.0
 40
0.8000000000000252
100
AcDbArc
 50
288.600109529
 51
108.5999755596
  0
LINE
  5
19F
330
1F
100
AcDbEntity
  8
0
  6
Continuous
 62
     7
370
    25
100
AcDbLine
 10
107.5303622178
 20
200.875230861
 30
0.0
 11
102.3115511248
 21
190.362004087
 31
0.0
  0
ARC
  5
1A0
330
1F
100
AcDbEntity
  8
0
  6
Continuous
 62
     7
370
    25
100
AcDbCircle
 10
117.1049045753
 20
180.942342156
 30
0.0
 40
0.8000000000000093
100
AcDbArc
 50
193.8000295182
 51
13.8000295182
  0
LINE
  5
1A1
330
1F
100
AcDbEntity
  8
0
  6
Continuous
 62
     7
370
    25
100
AcDbLine
 10
116.3279972496
 20
180.7515149897
 30
0.0
 11
106.2883420884
 21
186.8317462789
 31
0.0
  0
ARC
  5
1A2
330
1F
100
AcDbEntity
  8
0
  6
Continuous
 62
     7
370
    25
100
AcDbCircle
 10
106.0975149221
 20
187.6086536045
 30
0.0
 40
0.8000000000000037
100
AcDbArc
 50
103.8000295182
 51
283.8000295182
  0
LINE
  5
1A3
330
1F
100
AcDbEntity
  8
0
  6
Continuous
 62
     7
370
    25
100
AcDbLine
 10
105.9066877558
 20
188.3855609301
 30
0.0
 11
111.986919045
 21
198.4252160913
 31
0.0
  0
ARC
  5
1A4
330
1F
100
AcDbEntity
  8
0
  6
Continuous
 62
     7
370
    25
100
AcDbCircle
 10
112.7638263706
 20
198.6160432576
 30
0.0
 40
0.8000000000000236
100
AcDbArc
 50
13.8000295182
 51
193.8000295182
  0
LINE
  5
1A5
330
1F
100
AcDbEntity
  8
0
  6
Continuous
 62
     7
370
    25
100
AcDbLine
 10
113.5407336962
 20
198.8068704239
 30
0.0
 11
123.5803888574
 21
192.7266391347
 31
0.0
  0
ARC
  5
1A6
330
1F
100
AcDbEntity
  8
0
  6
Continuous
 62
     7
370
    25
100
AcDbCircle
 10
123.7712160237
 20
191.9497318091
 30
0.0
 40
0.7999999999999993
100
AcDbArc
 50
283.8000295182
 51
103.8000295182
  0
LINE
  5
1A7
330
1F
100
AcDbEntity
  8
0
  6
Continuous
 62
     7
370
    25
100
AcDbLine
 10
123.9620431901
 20
191.1728244835
 30
0.0
 11
117.8818119009
 21
181.1331693223
 31
0.0
  0
ARC
  5
1A8
330
1F
100
AcDbEntity
  8
0
  6
Continuous
 62
     7
370
    25
100
AcDbCircle
 10
-47.692179693
 20
193.4266583786
 30
0.0
 40
0.8000000000000365
100
AcDbArc
 50
147.0000562555
 51
327.0001557055
  0
LINE
  5
1A9
330
1F
100
AcDbEntity
  8
0
  6
Continuous
 62
     7
370
    25
100
AcDbLine
 10
-48.3631165751
 20
193.8623689479
 30
0.0
 11
-50.8034357966
 21
205.343168234
 31
0.0
  0
ARC
  5
1AA
330
1F
100
AcDbEntity
  8
0
  6
Continuous
 62
     7
370
    25
100
AcDbCircle
 10
-50.3677241226
 20
206.0141043987
 30
0.0
 40
0.8000000000000109
100
AcDbArc
 50
57.0001557059
 51
236.9999619096
  0
LINE
  5
1AB
330
1F
100
AcDbEntity
  8
0
  6
Continuous
 62
     7
370
    25
100
AcDbLine
 10
-49.9320147179
 20
206.6850420371
 30
0.0
 11
-38.4512135109
 21
209.1253616669
 31
0.0
  0
ARC
  5
1AC
330
1F
100
AcDbEntity
  8
0
  6
Continuous
 62
     7
370
    25
100
AcDbCircle
 10
-37.7802781025
 20
208.6896488283
 30
0.0
 40
0.8000000000000247
100
AcDbArc
 50
326.9999619096
 51
146.9998624592
  0
LINE
  5
1AD
330
1F
100
AcDbEntity
  8
0
  6
Continuous
 62
     7
370
    25
100
AcDbLine
 10
-37.1093419378
 20
208.2539371543
 30
0.0
 11
-34.6690231036
 21
196.7731396903
 31
0.0
  0
ARC
  5
1AE
330
1F
100
AcDbEntity
  8
0
  6
Continuous
 62
     7
370
    25
100
AcDbCircle
 10
-35.1047336729
 20
196.1022028082
 30
0.0
 40
0.8000000000000211
100
AcDbArc
 50
236.9998624595
 51
57.0000562554
  0
LINE
  5
1AF
330
1F
100
AcDbEntity
  8
0
  6
Continuous
 62
     7
370
    25
100
AcDbLine
 10
-35.5404465115
 20
195.4312673998
 30
0.0
 11
-47.0212420545
 21
192.9909489739
 31
0.0
  0
ARC
  5
1B0
330
1F
100
AcDbEntity
  8
0
  6
Continuous
 62
     7
370
    25
100
AcDbCircle
 10
-31.3393908316
 20
196.7390624629
 30
0.0
 40
0.8000000000000613
100
AcDbArc
 50
142.2000018863
 51
322.1999950713
  0
LINE
  5
1B1
330
1F
100
AcDbEntity
  8
0
  6
Continuous
 62
     7
370
    25
100
AcDbLine
 10
-31.9715148576
 20
197.229388085
 30
0.0
 11
-33.4425868719
 21
208.8741221321
 31
0.0
  0
ARC
  5
1B2
330
1F
100
AcDbEntity
  8
0
  6
Continuous
 62
     7
370
    25
100
AcDbCircle
 10
-32.9522614587
 20
209.5062463201
 30
0.0
 40
0.8000000000000069
100
AcDbArc
 50
52.1999950713
 51
232.20002082
  0
LINE
  5
1B3
330
1F
100
AcDbEntity
  8
0
  6
Continuous
 62
     7
370
    25
100
AcDbLine
 10
-32.4619357614
 20
210.1383702879
 30
0.0
 11
-20.8172018479
 21
211.6094422853
 31
0.0
  0
ARC
  5
1B4
330
1F
100
AcDbEntity
  8
0
  6
Continuous
 62
     7
370
    25
100
AcDbCircle
 10
-20.1850776015
 20
211.1191169473
 30
0.0
 40
0.8000000000000457
100
AcDbArc
 50
322.20002082
 51
142.200027635
  0
LINE
  5
1B5
330
1F
100
AcDbEntity
  8
0
  6
Continuous
 62
     7
370
    25
100
AcDbLine
 10
-19.5529534134
 20
210.6287915341
 30
0.0
 11
-18.0818813522
 21
198.9840571161
 31
0.0
  0
ARC
  5
1B6
330
1F
100
AcDbEntity
  8
0
  6
Continuous
 62
     7
370
    25
100
AcDbCircle
 10
-18.5722069743
 20
198.3519330901
 30
0.0
 40
0.8000000000000289
100
AcDbArc
 50
232.2000276351
 51
52.2000018864
  0
LINE
  5
1B7
330
1F
100
AcDbEntity
  8
0
  6
Continuous
 62
     7
370
    25
100
AcDbLine
 10
-19.0625323124
 20
197.7198088437
 30
0.0
 11
-30.7072668638
 21
196.2487367656
 31
0.0
  0
ARC
  5
1B8
330
1F
100
AcDbEntity
  8
0
  6
Continuous
 62
     7
370
    25
100
AcDbCircle
 10
-79.2818217848
 20
182.7643540175
 30
0.0
 40
0.8000000000000445
100
AcDbArc
 50
156.5998781682
 51
336.5999126137
  0
LINE
  5
1B9
330
1F
100
AcDbEntity
  8
0
  6
Continuous
 62
     7
370
    25
100
AcDbLine
 10
-80.0160248098
 20
183.0820738912
 30
0.0
 11
-84.3368071381
 21
193.9951243254
 31
0.0
  0
ARC
  5
1BA
330
1F
100
AcDbEntity
  8
0
  6
Continuous
 62
     7
370
    25
100
AcDbCircle
 10
-84.0190905032
 20
194.7293287519
 30
0.0
 40
0.8000000000000301
100
AcDbArc
 50
66.5999126138
 51
246.6001309143
  0
LINE
  5
1BB
330
1F
100
AcDbEntity
  8
0
  6
Continuous
 62
     7
370
    25
100
AcDbLine
 10
-83.7013710709
 20
195.4635319678
 30
0.0
 11
-72.7883200043
 21
199.7843145465
 31
0.0
  0
ARC
  5
1BC
330
1F
100
AcDbEntity
  8
0
  6
Continuous
 62
     7
370
    25
100
AcDbCircle
 10
-72.0541157688
 20
199.4665974702
 30
0.0
 40
0.80000000000002
100
AcDbArc
 50
336.6001309146
 51
156.6000964687
  0
LINE
  5
1BD
330
1F
100
AcDbEntity
  8
0
  6
Continuous
 62
     7
370
    25
100
AcDbLine
 10
-71.3199113423
 20
199.1488808353
 30
0.0
 11
-66.9991271768
 21
188.2358257608
 31
0.0
  0
ARC
  5
1BE
330
1F
100
AcDbEntity
  8
0
  6
Continuous
 62
     7
370
    25
100
AcDbCircle
 10
-67.3168470505
 20
187.5016227358
 30
0.0
 40
0.8000000000000362
100
AcDbArc
 50
246.6000964689
 51
66.5998781679
  0
LINE
  5
1BF
330
1F
100
AcDbEntity
  8
0
  6
Continuous
 62
     7
370
    25
100
AcDbLine
 10
-67.6345641268
 20
186.7674185003
 30
0.0
 11
-78.5476185689
 21
182.4466345852
 31
0.0
  0
ARC
  5
1C0
330
1F
100
AcDbEntity
  8
0
  6
Continuous
 62
     7
370
    25
100
AcDbCircle
 10
-63.7104422084
 20
188.757505313
 30
0.0
 40
0.800000000000032
100
AcDbArc
 50
151.7999534145
 51
331.7999131924
  0
LINE
  5
1C1
330
1F
100
AcDbEntity
  8
0
  6
Continuous
 62
     7
370
    25
100
AcDbLine
 10
-64.4154846627
 20
189.1355464982
 30
0.0
 11
-67.8079332912
 21
200.3718784547
 31
0.0
  0
ARC
  5
1C2
330
1F
100
AcDbEntity
  8
0
  6
Continuous
 62
     7
370
    25
100
AcDbCircle
 10
-67.4298934202
 20
201.0769216136
 30
0.0
 40
0.8000000000000255
100
AcDbArc
 50
61.7999131925
 51
241.8000602093
  0
LINE
  5
1C3
330
1F
100
AcDbEntity
  8
0
  6
Continuous
 62
     7
370
    25
100
AcDbLine
 10
-67.0518517401
 20
201.7819638025
 30
0.0
 11
-55.815520544
 21
205.1744122015
 31
0.0
  0
ARC
  5
1C4
330
1F
100
AcDbEntity
  8
0
  6
Continuous
 62
     7
370
    25
100
AcDbCircle
 10
-55.1104771197
 20
204.7963728254
 30
0.0
 40
0.8000000000000427
100
AcDbArc
 50
331.8000602094
 51
151.8001004312
  0
LINE
  5
1C5
330
1F
100
AcDbEntity
  8
0
  6
Continuous
 62
     7
370
    25
100
AcDbLine
 10
-54.4054339607
 20
204.4183329544
 30
0.0
 11
-51.0129847227
 21
193.1819989791
 31
0.0
  0
ARC
  5
1C6
330
1F
100
AcDbEntity
  8
0
  6
Continuous
 62
     7
370
    25
100
AcDbCircle
 10
-51.3910259079
 20
192.4769565248
 30
0.0
 40
0.8000000000000296
100
AcDbArc
 50
241.8001004314
 51
61.7999534144
  0
LINE
  5
1C7
330
1F
100
AcDbEntity
  8
0
  6
Continuous
 62
     7
370
    25
100
AcDbLine
 10
-51.7690652839
 20
191.7719131005
 30
0.0
 11
-63.0054000195
 21
188.3794636329
 31
0.0
  0
ARC
  5
1C8
330
1F
100
AcDbEntity
  8
0
  6
Continuous
 62
     7
370
    25
100
AcDbCircle
 10
-2.5928003008
 20
215.5155832704
 30
0.0
 40
0.8000000000000214
100
AcDbArc
 50
227.3998784137
 51
47.3999265204
  0
LINE
  5
1C9
330
1F
100
AcDbEntity
  8
0
  6
Continuous
 62
     7
370
    25
100
AcDbLine
 10
-3.1343023262
 20
214.9267067498
 30
0.0
 11
-14.8612903047
 21
214.4352003273
 31
0.0
  0
ARC
  5
1CA
330
1F
100
AcDbEntity
  8
0
  6
Continuous
 62
     7
370
    25
100
AcDbCircle
 10
-15.4501693811
 20
214.9766995733
 30
0.0
 40
0.8000000000000189
100
AcDbArc
 50
137.3999265205
 51
317.4001488339
  0
LINE
  5
1CB
330
1F
100
AcDbEntity
  8
0
  6
Continuous
 62
     7
370
    25
100
AcDbLine
 10
-16.0390463563
 20
215.5182011043
 30
0.0
 11
-16.5305528186
 21
227.2451900319
 31
0.0
  0
ARC
  5
1CC
330
1F
100
AcDbEntity
  8
0
  6
Continuous
 62
     7
370
    25
100
AcDbCircle
 10
-15.9890530781
 20
227.8340686535
 30
0.0
 40
0.7999999999999993
100
AcDbArc
 50
47.4001488342
 51
227.4001007271
  0
LINE
  5
1CD
330
1F
100
AcDbEntity
  8
0
  6
Continuous
 62
     7
370
    25
100
AcDbLine
 10
-15.4475538321
 20
228.4229477299
 30
0.0
 11
-3.7205605185
 21
228.914454376
 31
0.0
  0
ARC
  5
1CE
330
1F
100
AcDbEntity
  8
0
  6
Continuous
 62
     7
370
    25
100
AcDbCircle
 10
-3.1316839979
 20
228.3729523506
 30
0.0
 40
0.799999999999996
100
AcDbArc
 50
317.4001007273
 51
137.3998784134
  0
LINE
  5
1CF
330
1F
100
AcDbEntity
  8
0
  6
Continuous
 62
     7
370
    25
100
AcDbLine
 10
-2.5428053762
 20
227.8314526101
 30
0.0
 11
-2.0512987699
 21
216.1044602456
 31
0.0
  0
ARC
  5
1D0
330
1F
100
AcDbEntity
  8
0
  6
Continuous
 62
     7
370
    25
100
AcDbCircle
 10
15.4501722222
 20
214.9766997459
 30
0.0
 40
0.8000000000000395
100
AcDbArc
 50
222.5998806843
 51
42.6001029977
  0
LINE
  5
1D1
330
1F
100
AcDbEntity
  8
0
  6
Continuous
 62
     7
370
    25
100
AcDbLine
 10
14.8612934249
 20
214.4352001965
 30
0.0
 11
3.1343054464
 21
214.926706619
 31
0.0
  0
ARC
  5
1D2
330
1F
100
AcDbEntity
  8
0
  6
Continuous
 62
     7
370
    25
100
AcDbCircle
 10
2.5928031176
 20
215.5155828606
 30
0.0
 40
0.7999999999999953
100
AcDbArc
 50
132.6001029979
 51
312.6001511045
  0
LINE
  5
1D3
330
1F
100
AcDbEntity
  8
0
  6
Continuous
 62
     7
370
    25
100
AcDbLine
 10
2.0513012832
 20
216.1044595569
 30
0.0
 11
2.5428078896
 21
227.8314519214
 31
0.0
  0
ARC
  5
1D4
330
1F
100
AcDbEntity
  8
0
  6
Continuous
 62
     7
370
    25
100
AcDbCircle
 10
3.1316862323
 20
228.3729519652
 30
0.0
 40
0.7999999999999894
100
AcDbArc
 50
42.6001511049
 51
222.599928791
  0
LINE
  5
1D5
330
1F
100
AcDbEntity
  8
0
  6
Continuous
 62
     7
370
    25
100
AcDbLine
 10
3.7205624739
 20
228.914454294
 30
0.0
 11
15.4475557875
 21
228.4229476479
 31
0.0
  0
ARC
  5
1D6
330
1F
100
AcDbEntity
  8
0
  6
Continuous
 62
     7
370
    25
100
AcDbCircle
 10
15.9890553369
 20
227.8340688505
 30
0.0
 40
0.8000000000000047
100
AcDbArc
 50
312.5999287911
 51
132.5998806841
  0
LINE
  5
1D7
330
1F
100
AcDbEntity
  8
0
  6
Continuous
 62
     7
370
    25
100
AcDbLine
 10
16.5305553808
 20
227.2451905079
 30
0.0
 11
16.0390489185
 21
215.5182015803
 31
0.0
  0
ARC
  5
1D8
330
1F
100
AcDbEntity
  8
0
  6
Continuous
 62
     7
370
    25
100
AcDbCircle
 10
-38.4977545462
 20
212.0651131186
 30
0.0
 40
0.8000000000000103
100
AcDbArc
 50
236.9998264169
 51
56.9999650027
  0
LINE
  5
1D9
330
1F
100
AcDbEntity
  8
0
  6
Continuous
 62
     7
370
    25
100
AcDbLine
 10
-38.9334678069
 20
211.3941779843
 30
0.0
 11
-50.4142626538
 21
208.9538597064
 31
0.0
  0
ARC
  5
1DA
330
1F
100
AcDbEntity
  8
0
  6
Continuous
 62
     7
370
    25
100
AcDbCircle
 10
-51.0852005663
 20
209.389568689
 30
0.0
 40
0.7999999999999947
100
AcDbArc
 50
146.9999650027
 51
327.0001917481
  0
LINE
  5
1DB
330
1F
100
AcDbEntity
  8
0
  6
Continuous
 62
     7
370
    25
100
AcDbLine
 10
-51.7561367545
 20
209.8252803269
 30
0.0
 11
-54.1964556014
 21
221.3060778505
 31
0.0
  0
ARC
  5
1DC
330
1F
100
AcDbEntity
  8
0
  6
Continuous
 62
     7
370
    25
100
AcDbCircle
 10
-53.7607449959
 20
221.9770147091
 30
0.0
 40
0.7999999999999998
100
AcDbArc
 50
57.0001917488
 51
237.0000531624
  0
LINE
  5
1DD
330
1F
100
AcDbEntity
  8
0
  6
Continuous
 62
     7
370
    25
100
AcDbLine
 10
-53.3250360133
 20
222.6479526217
 30
0.0
 11
-41.8442341101
 21
225.0882723994
 31
0.0
  0
ARC
  5
1DE
330
1F
100
AcDbEntity
  8
0
  6
Continuous
 62
     7
370
    25
100
AcDbCircle
 10
-41.1732989758
 20
224.6525591387
 30
0.0
 40
0.7999999999999966
100
AcDbArc
 50
327.0000531624
 51
146.9998264164
  0
LINE
  5
1DF
330
1F
100
AcDbEntity
  8
0
  6
Continuous
 62
     7
370
    25
100
AcDbLine
 10
-40.5023621171
 20
224.2168485333
 30
0.0
 11
-38.0620429083
 21
212.7360493068
 31
0.0
  0
ARC
  5
1E0
330
1F
100
AcDbEntity
  8
0
  6
Continuous
 62
     7
370
    25
100
AcDbCircle
 10
-20.6175861942
 20
214.5427798892
 30
0.0
 40
0.8000000000000055
100
AcDbArc
 50
232.1998641308
 51
52.2000333883
  0
LINE
  5
1E1
330
1F
100
AcDbEntity
  8
0
  6
Continuous
 62
     7
370
    25
100
AcDbLine
 10
-21.1079133361
 20
213.910657042
 30
0.0
 11
-32.7526446845
 21
212.4395853686
 31
0.0
  0
ARC
  5
1E2
330
1F
100
AcDbEntity
  8
0
  6
Continuous
 62
     7
370
    25
100
AcDbCircle
 10
-33.3847700514
 20
212.929909262
 30
0.0
 40
0.800000000000009
100
AcDbArc
 50
142.2000333883
 51
322.2001585755
  0
LINE
  5
1E3
330
1F
100
AcDbEntity
  8
0
  6
Continuous
 62
     7
370
    25
100
AcDbLine
 10
-34.0168943471
 20
213.4202345366
 30
0.0
 11
-35.4879664394
 21
225.0649692008
 31
0.0
  0
ARC
  5
1E4
330
1F
100
AcDbEntity
  8
0
  6
Continuous
 62
     7
370
    25
100
AcDbCircle
 10
-34.9976406786
 20
225.6970931193
 30
0.0
 40
0.8000000000000008
100
AcDbArc
 50
52.2001585759
 51
232.199989318
  0
LINE
  5
1E5
330
1F
100
AcDbEntity
  8
0
  6
Continuous
 62
     7
370
    25
100
AcDbLine
 10
-34.5073167852
 20
226.3292184862
 30
0.0
 11
-22.8625796685
 21
227.8002908883
 31
0.0
  0
ARC
  5
1E6
330
1F
100
AcDbEntity
  8
0
  6
Continuous
 62
     7
370
    25
100
AcDbCircle
 10
-22.2304568214
 20
227.3099637464
 30
0.0
 40
0.7999999999999977
100
AcDbArc
 50
322.199989318
 51
142.1998641305
  0
LINE
  5
1E7
330
1F
100
AcDbEntity
  8
0
  6
Continuous
 62
     7
370
    25
100
AcDbLine
 10
-21.5983329029
 20
226.8196379856
 30
0.0
 11
-20.1272609197
 21
215.1749041848
 31
0.0
  0
ARC
  5
1E8
330
1F
100
AcDbEntity
  8
0
  6
Continuous
 62
     7
370
    25
100
AcDbCircle
 10
68.4273079285
 20
204.3805102582
 30
0.0
 40
0.8000000000000509
100
AcDbArc
 50
208.1999289607
 51
28.2001148412
  0
LINE
  5
1E9
330
1F
100
AcDbEntity
  8
0
  6
Continuous
 62
     7
370
    25
100
AcDbLine
 10
67.7222646981
 20
204.0024705205
 30
0.0
 11
56.4859335043
 21
207.3949189187
 31
0.0
  0
ARC
  5
1EA
330
1F
100
AcDbEntity
  8
0
  6
Continuous
 62
     7
370
    25
100
AcDbCircle
 10
56.1078914594
 20
208.099960912
 30
0.0
 40
0.8000000000000055
100
AcDbArc
 50
118.2001148414
 51
298.2001164519
  0
LINE
  5
1EB
330
1F
100
AcDbEntity
  8
0
  6
Continuous
 62
     7
370
    25
100
AcDbLine
 10
55.7298494343
 20
208.8050029159
 30
0.0
 11
59.1222988935
 21
220.0413376235
 31
0.0
  0
ARC
  5
1EC
330
1F
100
AcDbEntity
  8
0
  6
Continuous
 62
     7
370
    25
100
AcDbCircle
 10
59.8273421132
 20
220.4193773811
 30
0.0
 40
0.7999999999999553
100
AcDbArc
 50
28.2001164521
 51
208.1999305713
  0
LINE
  5
1ED
330
1F
100
AcDbEntity
  8
0
  6
Continuous
 62
     7
370
    25
100
AcDbLine
 10
60.5323841065
 20
220.7974194259
 30
0.0
 11
71.7687188445
 21
217.4049699576
 31
0.0
  0
ARC
  5
1EE
330
1F
100
AcDbEntity
  8
0
  6
Continuous
 62
     7
370
    25
100
AcDbCircle
 10
72.1467585823
 20
216.6999267273
 30
0.0
 40
0.799999999999986
100
AcDbArc
 50
298.1999305714
 51
118.1999289606
  0
LINE
  5
1EF
330
1F
100
AcDbEntity
  8
0
  6
Continuous
 62
     7
370
    25
100
AcDbLine
 10
72.5247983398
 20
215.9948835075
 30
0.0
 11
69.1323499324
 21
204.7585522833
 31
0.0
  0
ARC
  5
1F0
330
1F
100
AcDbEntity
  8
0
  6
Continuous
 62
     7
370
    25
100
AcDbCircle
 10
85.2894441002
 20
197.9378697556
 30
0.0
 40
0.7999999999999926
100
AcDbArc
 50
203.3998741849
 51
23.3999228456
  0
LINE
  5
1F1
330
1F
100
AcDbEntity
  8
0
  6
Continuous
 62
     7
370
    25
100
AcDbLine
 10
84.555239702
 20
197.6201530553
 30
0.0
 11
73.6421897161
 21
201.9409352061
 31
0.0
  0
ARC
  5
1F2
330
1F
100
AcDbEntity
  8
0
  6
Continuous
 62
     7
370
    25
100
AcDbCircle
 10
73.3244691512
 20
202.675137932
 30
0.0
 40
0.7999999999999912
100
AcDbArc
 50
113.3999228457
 51
293.4001757689
  0
LINE
  5
1F3
330
1F
100
AcDbEntity
  8
0
  6
Continuous
 62
     7
370
    25
100
AcDbLine
 10
73.0067518274
 20
203.4093420604
 30
0.0
 11
77.3275343319
 21
214.3223929396
 31
0.0
  0
ARC
  5
1F4
330
1F
100
AcDbEntity
  8
0
  6
Continuous
 62
     7
370
    25
100
AcDbCircle
 10
78.0617373276
 20
214.6401128809
 30
0.0
 40
0.8000000000000065
100
AcDbArc
 50
23.4001757694
 51
203.4001271081
  0
LINE
  5
1F5
330
1F
100
AcDbEntity
  8
0
  6
Continuous
 62
     7
370
    25
100
AcDbLine
 10
78.7959400535
 20
214.9578334458
 30
0.0
 11
89.7089955763
 21
210.6370491027
 31
0.0
  0
ARC
  5
1F6
330
1F
100
AcDbEntity
  8
0
  6
Continuous
 62
     7
370
    25
100
AcDbCircle
 10
90.0267122766
 20
209.9028447045
 30
0.0
 40
0.7999999999999969
100
AcDbArc
 50
293.4001271084
 51
113.3998741846
  0
LINE
  5
1F7
330
1F
100
AcDbEntity
  8
0
  6
Continuous
 62
     7
370
    25
100
AcDbLine
 10
90.3444322179
 20
209.1686417088
 30
0.0
 11
86.0236482286
 21
198.2555870794
 31
0.0
  0
ARC
  5
1F8
330
1F
100
AcDbEntity
  8
0
  6
Continuous
 62
     7
370
    25
100
AcDbCircle
 10
33.3847728971
 20
212.9299091963
 30
0.0
 40
0.8000000000000149
100
AcDbArc
 50
217.7998709427
 51
37.7999961299
  0
LINE
  5
1F9
330
1F
100
AcDbEntity
  8
0
  6
Continuous
 62
     7
370
    25
100
AcDbLine
 10
32.7526477827
 20
212.4395849772
 30
0.0
 11
21.1079164344
 21
213.9106566506
 31
0.0
  0
ARC
  5
1FA
330
1F
100
AcDbEntity
  8
0
  6
Continuous
 62
     7
370
    25
100
AcDbCircle
 10
20.6175889668
 20
214.5427792452
 30
0.0
 40
0.7999999999999792
100
AcDbArc
 50
127.7999961299
 51
307.8001653874
  0
LINE
  5
1FB
330
1F
100
AcDbEntity
  8
0
  6
Continuous
 62
     7
370
    25
100
AcDbLine
 10
20.1272633666
 20
215.1749032882
 30
0.0
 11
21.5983353498
 21
226.819637089
 31
0.0
  0
ARC
  5
1FC
330
1F
100
AcDbEntity
  8
0
  6
Continuous
 62
     7
370
    25
100
AcDbCircle
 10
22.2304590157
 20
227.3099631755
 30
0.0
 40
0.7999999999999932
100
AcDbArc
 50
37.8001653878
 51
217.8000402002
  0
LINE
  5
1FD
330
1F
100
AcDbEntity
  8
0
  6
Continuous
 62
     7
370
    25
100
AcDbLine
 10
22.8625816102
 20
227.800290643
 30
0.0
 11
34.5073187269
 21
226.3292182409
 31
0.0
  0
ARC
  5
1FE
330
1F
100
AcDbEntity
  8
0
  6
Continuous
 62
     7
370
    25
100
AcDbCircle
 10
34.997642946
 20
225.6970931266
 30
0.0
 40
0.7999999999999909
100
AcDbArc
 50
307.8000402002
 51
127.7998709424
  0
LINE
  5
1FF
330
1F
100
AcDbEntity
  8
0
  6
Continuous
 62
     7
370
    25
100
AcDbLine
 10
35.4879690324
 20
225.0649694607
 30
0.0
 11
34.0168969401
 21
213.4202347965
 31
0.0
  0
ARC
  5
200
330
1F
100
AcDbEntity
  8
0
  6
Continuous
 62
     7
370
    25
100
AcDbCircle
 10
51.0852033964
 20
209.3895683854
 30
0.0
 40
0.8000000000000015
100
AcDbArc
 50
212.99983777
 51
33.0000645155
  0
LINE
  5
201
330
1F
100
AcDbEntity
  8
0
  6
Continuous
 62
     7
370
    25
100
AcDbLine
 10
50.4142657084
 20
208.9538590571
 30
0.0
 11
38.9334708615
 21
211.394177335
 31
0.0
  0
ARC
  5
202
330
1F
100
AcDbEntity
  8
0
  6
Continuous
 62
     7
370
    25
100
AcDbCircle
 10
38.4977572551
 20
212.0651122449
 30
0.0
 40
0.7999999999999747
100
AcDbArc
 50
123.0000645155
 51
303.0002031012
  0
LINE
  5
203
330
1F
100
AcDbEntity
  8
0
  6
Continuous
 62
     7
370
    25
100
AcDbLine
 10
38.0620452717
 20
212.7360482086
 30
0.0
 11
40.5023644804
 21
224.216847435
 31
0.0
  0
ARC
  5
204
330
1F
100
AcDbEntity
  8
0
  6
Continuous
 62
     7
370
    25
100
AcDbCircle
 10
41.1733011146
 20
224.6525583862
 30
0.0
 40
0.8000000000000093
100
AcDbArc
 50
33.0002031019
 51
212.9999763559
  0
LINE
  5
205
330
1F
100
AcDbEntity
  8
0
  6
Continuous
 62
     7
370
    25
100
AcDbLine
 10
41.8442360245
 20
225.0882719925
 30
0.0
 11
53.3250379276
 21
222.6479522148
 31
0.0
  0
ARC
  5
206
330
1F
100
AcDbEntity
  8
0
  6
Continuous
 62
     7
370
    25
100
AcDbCircle
 10
53.7607472559
 20
221.9770145267
 30
0.0
 40
0.8000000000000141
100
AcDbArc
 50
302.9999763559
 51
122.9998377696
  0
LINE
  5
207
330
1F
100
AcDbEntity
  8
0
  6
Continuous
 62
     7
370
    25
100
AcDbLine
 10
54.196458207
 20
221.3060778925
 30
0.0
 11
51.7561393602
 21
209.8252803689
 31
0.0
  0
ARC
  5
208
330
1F
100
AcDbEntity
  8
0
  6
Continuous
 62
     7
370
    25
100
AcDbCircle
 10
18.5722091429
 20
198.3519325224
 30
0.0
 40
0.8000000000000478
100
AcDbArc
 50
127.7999659702
 51
307.8000018832
  0
LINE
  5
209
330
1F
100
AcDbEntity
  8
0
  6
Continuous
 62
     7
370
    25
100
AcDbLine
 10
18.0818838755
 20
198.9840568235
 30
0.0
 11
19.552955784
 21
210.6287900335
 31
0.0
  0
ARC
  5
20A
330
1F
100
AcDbEntity
  8
0
  6
Continuous
 62
     7
370
    25
100
AcDbCircle
 10
20.1850791918
 20
211.1191164526
 30
0.0
 40
0.8000000000000234
100
AcDbArc
 50
37.8000018832
 51
217.8000703599
  0
LINE
  5
20B
330
1F
100
AcDbEntity
  8
0
  6
Continuous
 62
     7
370
    25
100
AcDbLine
 10
20.8172031856
 20
211.6094421163
 30
0.0
 11
32.4619370991
 21
210.1383701189
 31
0.0
  0
ARC
  5
20C
330
1F
100
AcDbEntity
  8
0
  6
Continuous
 62
     7
370
    25
100
AcDbCircle
 10
32.9522631221
 20
209.5062464038
 30
0.0
 40
0.8000000000000248
100
AcDbArc
 50
307.80007036
 51
127.8000344469
  0
LINE
  5
20D
330
1F
100
AcDbEntity
  8
0
  6
Continuous
 62
     7
370
    25
100
AcDbLine
 10
33.4425895413
 20
208.874122996
 30
0.0
 11
31.9715173743
 21
197.229387741
 31
0.0
  0
ARC
  5
20E
330
1F
100
AcDbEntity
  8
0
  6
Continuous
 62
     7
370
    25
100
AcDbCircle
 10
31.3393930732
 20
196.7390624735
 30
0.0
 40
0.8000000000000195
100
AcDbArc
 50
217.800034447
 51
37.7999659702
  0
LINE
  5
20F
330
1F
100
AcDbEntity
  8
0
  6
Continuous
 62
     7
370
    25
100
AcDbLine
 10
30.7072693581
 20
196.2487364505
 30
0.0
 11
19.0625348066
 21
197.7198085286
 31
0.0
  0
ARC
  5
210
330
1F
100
AcDbEntity
  8
0
  6
Continuous
 62
     7
370
    25
100
AcDbCircle
 10
35.1047357864
 20
196.102202061
 30
0.0
 40
0.8000000000000579
100
AcDbArc
 50
122.9999116011
 51
303.0001670586
  0
LINE
  5
211
330
1F
100
AcDbEntity
  8
0
  6
Continuous
 62
     7
370
    25
100
AcDbLine
 10
34.6690255935
 20
196.7731391876
 30
0.0
 11
37.1093441745
 21
208.2539354605
 31
0.0
  0
ARC
  5
212
330
1F
100
AcDbEntity
  8
0
  6
Continuous
 62
     7
370
    25
100
AcDbCircle
 10
37.7802796458
 20
208.6896482023
 30
0.0
 40
0.8000000000000224
100
AcDbArc
 50
33.0001670591
 51
213.0001292701
  0
LINE
  5
213
330
1F
100
AcDbEntity
  8
0
  6
Continuous
 62
     7
370
    25
100
AcDbLine
 10
38.4512148297
 20
209.1253613866
 30
0.0
 11
49.9320160368
 21
206.6850417568
 31
0.0
  0
ARC
  5
214
330
1F
100
AcDbEntity
  8
0
  6
Continuous
 62
     7
370
    25
100
AcDbCircle
 10
50.3677257871
 20
206.0141043428
 30
0.0
 40
0.8000000000000336
100
AcDbArc
 50
303.0001292704
 51
122.9998738124
  0
LINE
  5
215
330
1F
100
AcDbEntity
  8
0
  6
Continuous
 62
     7
370
    25
100
AcDbLine
 10
50.8034385289
 20
205.3431688715
 30
0.0
 11
48.3631190542
 21
193.8623683944
 31
0.0
  0
ARC
  5
216
330
1F
100
AcDbEntity
  8
0
  6
Continuous
 62
     7
370
    25
100
AcDbCircle
 10
47.6921819277
 20
193.4266582015
 30
0.0
 40
0.8000000000000204
100
AcDbArc
 50
212.9998738127
 51
32.999911601
  0
LINE
  5
217
330
1F
100
AcDbEntity
  8
0
  6
Continuous
 62
     7
370
    25
100
AcDbLine
 10
47.0212445137
 20
192.9909484512
 30
0.0
 11
35.5404489706
 21
195.4312668771
 31
0.0
  0
ARC
  5
218
330
1F
100
AcDbEntity
  8
0
  6
Continuous
 62
     7
370
    25
100
AcDbCircle
 10
-14.7667786791
 20
198.6714834332
 30
0.0
 40
0.8000000000000322
100
AcDbArc
 50
137.3999101665
 51
317.4000436945
  0
LINE
  5
219
330
1F
100
AcDbEntity
  8
0
  6
Continuous
 62
     7
370
    25
100
AcDbLine
 10
-15.3556554997
 20
199.2129851323
 30
0.0
 11
-15.8471619485
 21
210.9399737372
 31
0.0
  0
ARC
  5
21A
330
1F
100
AcDbEntity
  8
0
  6
Continuous
 62
     7
370
    25
100
AcDbCircle
 10
-15.3056623761
 20
211.5288525135
 30
0.0
 40
0.8000000000000405
100
AcDbArc
 50
47.4000436945
 51
227.400117081
  0
LINE
  5
21B
330
1F
100
AcDbEntity
  8
0
  6
Continuous
 62
     7
370
    25
100
AcDbLine
 10
-14.7641620495
 20
212.1177305961
 30
0.0
 11
-3.0371708101
 21
212.6092371553
 31
0.0
  0
ARC
  5
21C
330
1F
100
AcDbEntity
  8
0
  6
Continuous
 62
     7
370
    25
100
AcDbCircle
 10
-2.4482932959
 20
212.0677362105
 30
0.0
 40
0.8000000000000044
100
AcDbArc
 50
317.4001170813
 51
137.3999835531
  0
LINE
  5
21D
330
1F
100
AcDbEntity
  8
0
  6
Continuous
 62
     7
370
    25
100
AcDbLine
 10
-1.8594145197
 20
211.5262366381
 30
0.0
 11
-1.3679078998
 21
199.799243951
 31
0.0
  0
ARC
  5
21E
330
1F
100
AcDbEntity
  8
0
  6
Continuous
 62
     7
370
    25
100
AcDbCircle
 10
-1.9094095988
 20
199.2103671303
 30
0.0
 40
0.8000000000000717
100
AcDbArc
 50
227.3999835531
 51
47.3999101664
  0
LINE
  5
21F
330
1F
100
AcDbEntity
  8
0
  6
Continuous
 62
     7
370
    25
100
AcDbLine
 10
-2.4509105436
 20
198.621489616
 30
0.0
 11
-14.1779005964
 21
198.1299831066
 31
0.0
  0
ARC
  5
220
330
1F
100
AcDbEntity
  8
0
  6
Continuous
 62
     7
370
    25
100
AcDbCircle
 10
1.9094118073
 20
199.210366746
 30
0.0
 40
0.8000000000000189
100
AcDbArc
 50
132.6000576901
 51
312.6000459651
  0
LINE
  5
221
330
1F
100
AcDbEntity
  8
0
  6
Continuous
 62
     7
370
    25
100
AcDbLine
 10
1.3679104387
 20
199.7992438705
 30
0.0
 11
1.8594170075
 21
211.5262353411
 31
0.0
  0
ARC
  5
222
330
1F
100
AcDbEntity
  8
0
  6
Continuous
 62
     7
370
    25
100
AcDbCircle
 10
2.448294922
 20
212.0677358507
 30
0.0
 40
0.8000000000000178
100
AcDbArc
 50
42.6000459652
 51
222.5999740987
  0
LINE
  5
223
330
1F
100
AcDbEntity
  8
0
  6
Continuous
 62
     7
370
    25
100
AcDbLine
 10
3.0371721573
 20
212.6092370988
 30
0.0
 11
14.7641633966
 21
212.1177305397
 31
0.0
  0
ARC
  5
224
330
1F
100
AcDbEntity
  8
0
  6
Continuous
 62
     7
370
    25
100
AcDbCircle
 10
15.3056640267
 20
211.528852736
 30
0.0
 40
0.8000000000000287
100
AcDbArc
 50
312.5999740988
 51
132.5999858237
  0
LINE
  5
225
330
1F
100
AcDbEntity
  8
0
  6
Continuous
 62
     7
370
    25
100
AcDbLine
 10
15.8471645362
 20
210.9399748215
 30
0.0
 11
15.3556580364
 21
199.212985
 31
0.0
  0
ARC
  5
226
330
1F
100
AcDbEntity
  8
0
  6
Continuous
 62
     7
370
    25
100
AcDbCircle
 10
14.766780912
 20
198.6714836314
 30
0.0
 40
0.8000000000000822
100
AcDbArc
 50
222.5999858237
 51
42.6000576901
  0
LINE
  5
227
330
1F
100
AcDbEntity
  8
0
  6
Continuous
 62
     7
370
    25
100
AcDbLine
 10
14.1779031083
 20
198.1299830013
 30
0.0
 11
2.4509130555
 21
198.6214895108
 31
0.0
  0
ARC
  5
228
330
1F
100
AcDbEntity
  8
0
  6
Continuous
 62
     7
370
    25
100
AcDbCircle
 10
82.7704907786
 20
181.2110985807
 30
0.0
 40
0.8000000000000065
100
AcDbArc
 50
108.5999465688
 51
288.5999425723
  0
LINE
  5
229
330
1F
100
AcDbEntity
  8
0
  6
Continuous
 62
     7
370
    25
100
AcDbLine
 10
82.5153240383
 20
181.9693135467
 30
0.0
 11
87.7341337005
 21
192.4825374384
 31
0.0
  0
ARC
  5
22A
330
1F
100
AcDbEntity
  8
0
  6
Continuous
 62
     7
370
    25
100
AcDbCircle
 10
88.4923479479
 20
192.7377063141
 30
0.0
 40
0.7999999999999945
100
AcDbArc
 50
18.5999425724
 51
198.6001079263
  0
LINE
  5
22B
330
1F
100
AcDbEntity
  8
0
  6
Continuous
 62
     7
370
    25
100
AcDbLine
 10
89.2505629316
 20
192.9928730016
 30
0.0
 11
99.7637867527
 21
187.7740633744
 31
0.0
  0
ARC
  5
22C
330
1F
100
AcDbEntity
  8
0
  6
Continuous
 62
     7
370
    25
100
AcDbCircle
 10
100.0189556812
 20
187.0158491449
 30
0.0
 40
0.8000000000000427
100
AcDbArc
 50
288.6001079265
 51
108.6001119227
  0
LINE
  5
22D
330
1F
100
AcDbEntity
  8
0
  6
Continuous
 62
     7
370
    25
100
AcDbLine
 10
100.2741245569
 20
186.2576348975
 30
0.0
 11
95.055313478
 21
175.7444081519
 31
0.0
  0
ARC
  5
22E
330
1F
100
AcDbEntity
  8
0
  6
Continuous
 62
     7
370
    25
100
AcDbCircle
 10
94.297098512
 20
175.4892414115
 30
0.0
 40
0.8000000000000317
100
AcDbArc
 50
198.6001119229
 51
18.5999465688
  0
LINE
  5
22F
330
1F
100
AcDbEntity
  8
0
  6
Continuous
 62
     7
370
    25
100
AcDbLine
 10
93.5388842824
 20
175.234072483
 30
0.0
 11
83.0256574661
 21
180.452883597
 31
0.0
  0
ARC
  5
230
330
1F
100
AcDbEntity
  8
0
  6
Continuous
 62
     7
370
    25
100
AcDbCircle
 10
97.6435570735
 20
173.6495099016
 30
0.0
 40
0.8000000000000205
100
AcDbArc
 50
103.7999678565
 51
283.8000295182
  0
LINE
  5
231
330
1F
100
AcDbEntity
  8
0
  6
Continuous
 62
     7
370
    25
100
AcDbLine
 10
97.4527307433
 20
174.4264174326
 30
0.0
 11
103.5329614017
 21
184.4660715523
 31
0.0
  0
ARC
  5
232
330
1F
100
AcDbEntity
  8
0
  6
Continuous
 62
     7
370
    25
100
AcDbCircle
 10
104.309868522
 20
184.6568995547
 30
0.0
 40
0.8000000000000302
100
AcDbArc
 50
13.8000295182
 51
193.8000911798
  0
LINE
  5
233
330
1F
100
AcDbEntity
  8
0
  6
Continuous
 62
     7
370
    25
100
AcDbLine
 10
105.0867758476
 20
184.847726721
 30
0.0
 11
115.1264310088
 21
178.7674954318
 31
0.0
  0
ARC
  5
234
330
1F
100
AcDbEntity
  8
0
  6
Continuous
 62
     7
370
    25
100
AcDbCircle
 10
115.3172581751
 20
177.9905881062
 30
0.0
 40
0.8000000000000254
100
AcDbArc
 50
283.80009118
 51
103.8000295182
  0
LINE
  5
235
330
1F
100
AcDbEntity
  8
0
  6
Continuous
 62
     7
370
    25
100
AcDbLine
 10
115.5080861775
 20
177.213680986
 30
0.0
 11
109.4278542576
 21
167.1740247833
 31
0.0
  0
ARC
  5
236
330
1F
100
AcDbEntity
  8
0
  6
Continuous
 62
     7
370
    25
100
AcDbCircle
 10
108.6509467266
 20
166.9831984531
 30
0.0
 40
0.800000000000059
100
AcDbArc
 50
193.8000295182
 51
13.7999678565
  0
LINE
  5
237
330
1F
100
AcDbEntity
  8
0
  6
Continuous
 62
     7
370
    25
100
AcDbLine
 10
107.874039401
 20
166.7923712868
 30
0.0
 11
97.8343842398
 21
172.872602576
 31
0.0
  0
ARC
  5
238
330
1F
100
AcDbEntity
  8
0
  6
Continuous
 62
     7
370
    25
100
AcDbCircle
 10
51.3910279514
 20
192.4769556034
 30
0.0
 40
0.8000000000000339
100
AcDbArc
 50
118.2000144421
 51
298.1999290869
  0
LINE
  5
239
330
1F
100
AcDbEntity
  8
0
  6
Continuous
 62
     7
370
    25
100
AcDbLine
 10
51.0129871618
 20
193.1819982698
 30
0.0
 11
54.4054360479
 21
204.4183310795
 31
0.0
  0
ARC
  5
23A
330
1F
100
AcDbEntity
  8
0
  6
Continuous
 62
     7
370
    25
100
AcDbCircle
 10
55.1104786052
 20
204.7963720725
 30
0.0
 40
0.8000000000000456
100
AcDbArc
 50
28.1999290869
 51
208.2000309706
  0
LINE
  5
23B
330
1F
100
AcDbEntity
  8
0
  6
Continuous
 62
     7
370
    25
100
AcDbLine
 10
55.8155218347
 20
205.1744118118
 30
0.0
 11
67.0518530309
 21
201.7819634128
 31
0.0
  0
ARC
  5
23C
330
1F
100
AcDbEntity
  8
0
  6
Continuous
 62
     7
370
    25
100
AcDbCircle
 10
67.4298950743
 20
201.0769214187
 30
0.0
 40
0.8000000000000278
100
AcDbArc
 50
298.2000309706
 51
118.2001163256
  0
LINE
  5
23D
330
1F
100
AcDbEntity
  8
0
  6
Continuous
 62
     7
370
    25
100
AcDbLine
 10
67.8079360673
 20
200.3718788614
 30
0.0
 11
64.4154870868
 21
189.1355457392
 31
0.0
  0
ARC
  5
23E
330
1F
100
AcDbEntity
  8
0
  6
Continuous
 62
     7
370
    25
100
AcDbCircle
 10
63.7104444205
 20
188.7575049496
 30
0.0
 40
0.8000000000000017
100
AcDbArc
 50
208.2001163259
 51
28.2000144421
  0
LINE
  5
23F
330
1F
100
AcDbEntity
  8
0
  6
Continuous
 62
     7
370
    25
100
AcDbLine
 10
63.0054024263
 20
188.3794629063
 30
0.0
 11
51.7690676907
 21
191.7719123739
 31
0.0
  0
ARC
  5
240
330
1F
100
AcDbEntity
  8
0
  6
Continuous
 62
     7
370
    25
100
AcDbCircle
 10
67.3168490097
 20
187.5016216467
 30
0.0
 40
0.8000000000000338
100
AcDbArc
 50
113.4000896885
 51
293.3999330494
  0
LINE
  5
241
330
1F
100
AcDbEntity
  8
0
  6
Continuous
 62
     7
370
    25
100
AcDbLine
 10
66.9991295479
 20
188.2358248499
 30
0.0
 11
71.3199132653
 21
199.1488787923
 31
0.0
  0
ARC
  5
242
330
1F
100
AcDbEntity
  8
0
  6
Continuous
 62
     7
370
    25
100
AcDbCircle
 10
72.0541171861
 20
199.4665965956
 30
0.0
 40
0.800000000000008
100
AcDbArc
 50
23.3999330495
 51
203.3999602654
  0
LINE
  5
243
330
1F
100
AcDbEntity
  8
0
  6
Continuous
 62
     7
370
    25
100
AcDbLine
 10
72.788321258
 20
199.7843140502
 30
0.0
 11
83.7013723245
 21
195.4635314715
 31
0.0
  0
ARC
  5
244
330
1F
100
AcDbEntity
  8
0
  6
Continuous
 62
     7
370
    25
100
AcDbCircle
 10
84.0190921351
 20
194.7293284192
 30
0.0
 40
0.8000000000000386
100
AcDbArc
 50
293.3999602655
 51
113.4001169044
  0
LINE
  5
245
330
1F
100
AcDbEntity
  8
0
  6
Continuous
 62
     7
370
    25
100
AcDbLine
 10
84.3368099384
 20
193.9951244983
 30
0.0
 11
80.0160271619
 21
183.082072932
 31
0.0
  0
ARC
  5
246
330
1F
100
AcDbEntity
  8
0
  6
Continuous
 62
     7
370
    25
100
AcDbCircle
 10
79.2818239587
 20
182.7643534702
 30
0.0
 40
0.8000000000000647
100
AcDbArc
 50
203.4001169046
 51
23.4000896884
  0
LINE
  5
247
330
1F
100
AcDbEntity
  8
0
  6
Continuous
 62
     7
370
    25
100
AcDbLine
 10
78.5476209064
 20
182.4466336597
 30
0.0
 11
67.6345664643
 21
186.7674175748
 31
0.0
  0
LINE
  5
248
330
1F
100
AcDbEntity
  8
0
  6
Continuous
 62
     7
370
    25
100
AcDbLine
 10
-77.3275321849
 20
214.3223944166
 30
0.0
 11
-73.0067496833
 21
203.4093435449
 31
0.0
  0
ARC
  5
249
330
1F
100
AcDbEntity
  8
0
  6
Continuous
 62
     7
370
    25
100
AcDbCircle
 10
-73.3244666259
 20
202.6751392453
 30
0.0
 40
0.8000000057245271
100
AcDbArc
 50
246.5998533392
 51
66.6001070824
  0
LINE
  5
24A
330
1F
100
AcDbEntity
  8
0
  6
Continuous
 62
     7
370
    25
100
AcDbLine
 10
-73.6421868201
 20
201.9409363527
 30
0.0
 11
-84.5552367984
 21
197.6201542049
 31
0.0
  0
ARC
  5
24B
330
1F
100
AcDbEntity
  8
0
  6
Continuous
 62
     7
370
    25
100
AcDbCircle
 10
-85.2894413603
 20
197.9378705269
 30
0.0
 40
0.8000000000000073
100
AcDbArc
 50
156.6001066726
 51
336.6001553333
  0
LINE
  5
24C
330
1F
100
AcDbEntity
  8
0
  6
Continuous
 62
     7
370
    25
100
AcDbLine
 10
-86.0236456524
 20
198.2555874725
 30
0.0
 11
-90.3444296417
 21
209.1686421019
 31
0.0
  0
ARC
  5
24D
330
1F
100
AcDbEntity
  8
0
  6
Continuous
 62
     7
370
    25
100
AcDbCircle
 10
-90.0267100786
 20
209.9028452613
 30
0.0
 40
0.8000000000000099
100
AcDbArc
 50
66.6001553337
 51
246.5999024099
  0
LINE
  5
24E
330
1F
100
AcDbEntity
  8
0
  6
Continuous
 62
     7
370
    25
100
AcDbLine
 10
-89.7089937566
 20
210.6370498232
 30
0.0
 11
-78.7959382338
 21
214.9578341663
 31
0.0
  0
ARC
  5
24F
330
1F
100
AcDbEntity
  8
0
  6
Continuous
 62
     7
370
    25
100
AcDbCircle
 10
-78.0617353443
 20
214.6401139796
 30
0.0
 40
0.7999999999999942
100
AcDbArc
 50
336.5999024101
 51
156.5998537489
  0
LINE
  5
250
330
1F
100
AcDbEntity
  8
0
  6
Continuous
 62
     7
370
    25
100
AcDbLine
 10
-59.1222966303
 20
220.0413389157
 30
0.0
 11
-55.7298471712
 21
208.8050042081
 31
0.0
  0
ARC
  5
251
330
1F
100
AcDbEntity
  8
0
  6
Continuous
 62
     7
370
    25
100
AcDbCircle
 10
-56.107888833
 20
208.0999620094
 30
0.0
 40
0.800000000000035
100
AcDbArc
 50
241.7999130663
 51
61.7999146768
  0
LINE
  5
252
330
1F
100
AcDbEntity
  8
0
  6
Continuous
 62
     7
370
    25
100
AcDbLine
 10
-56.4859305147
 20
207.3949198213
 30
0.0
 11
-67.7222617085
 21
204.0024714231
 31
0.0
  0
ARC
  5
253
330
1F
100
AcDbEntity
  8
0
  6
Continuous
 62
     7
370
    25
100
AcDbCircle
 10
-68.4273051336
 20
204.3805107976
 30
0.0
 40
0.8000000000000018
100
AcDbArc
 50
151.799914677
 51
331.8001005575
  0
LINE
  5
254
330
1F
100
AcDbEntity
  8
0
  6
Continuous
 62
     7
370
    25
100
AcDbLine
 10
-69.1323473323
 20
204.7585524594
 30
0.0
 11
-72.5247957397
 21
215.9948836837
 31
0.0
  0
ARC
  5
255
330
1F
100
AcDbEntity
  8
0
  6
Continuous
 62
     7
370
    25
100
AcDbCircle
 10
-72.1467563454
 20
216.6999270982
 30
0.0
 40
0.8000000000000071
100
AcDbArc
 50
61.8001005576
 51
241.8000989468
  0
LINE
  5
256
330
1F
100
AcDbEntity
  8
0
  6
Continuous
 62
     7
370
    25
100
AcDbLine
 10
-71.7687169709
 20
217.4049705233
 30
0.0
 11
-60.5323822329
 21
220.7974199916
 31
0.0
  0
ARC
  5
257
330
1F
100
AcDbEntity
  8
0
  6
Continuous
 62
     7
370
    25
100
AcDbCircle
 10
-59.8273400448
 20
220.41937831
 30
0.0
 40
0.7999999999999999
100
AcDbArc
 50
331.800098947
 51
151.7999130662
  0
LINE
  5
258
330
1F
100
AcDbEntity
  8
0
  6
Continuous
 62
     7
370
    25
100
AcDbLine
 10
-111.9869171743
 20
198.4252179057
 30
0.0
 11
-105.9066858851
 21
188.3855627445
 31
0.0
  0
ARC
  5
259
330
1F
100
AcDbEntity
  8
0
  6
Continuous
 62
     7
370
    25
100
AcDbCircle
 10
-106.0975126512
 20
187.6086553205
 30
0.0
 40
0.7999999999999922
100
AcDbArc
 50
256.2
 51
76.2
  0
LINE
  5
25A
330
1F
100
AcDbEntity
  8
0
  6
Continuous
 62
     7
370
    25
100
AcDbLine
 10
-106.2883394172
 20
186.8317478966
 30
0.0
 11
-116.3279945784
 21
180.7515166074
 31
0.0
  0
ARC
  5
25B
330
1F
100
AcDbEntity
  8
0
  6
Continuous
 62
     7
370
    25
100
AcDbCircle
 10
-117.1049020024
 20
180.9423433735
 30
0.0
 40
0.7999999999999992
100
AcDbArc
 50
166.2
 51
346.2
  0
LINE
  5
25C
330
1F
100
AcDbEntity
  8
0
  6
Continuous
 62
     7
370
    25
100
AcDbLine
 10
-117.8818094263
 20
181.1331701395
 30
0.0
 11
-123.9620407155
 21
191.1728253007
 31
0.0
  0
ARC
  5
25D
330
1F
100
AcDbEntity
  8
0
  6
Continuous
 62
     7
370
    25
100
AcDbCircle
 10
-123.7712139494
 20
191.9497327247
 30
0.0
 40
0.8000000000000129
100
AcDbArc
 50
76.2
 51
256.2
  0
LINE
  5
25E
330
1F
100
AcDbEntity
  8
0
  6
Continuous
 62
     7
370
    25
100
AcDbLine
 10
-123.5803871834
 20
192.7266401486
 30
0.0
 11
-113.5407320222
 21
198.8068714378
 31
0.0
  0
ARC
  5
25F
330
1F
100
AcDbEntity
  8
0
  6
Continuous
 62
     7
370
    25
100
AcDbCircle
 10
-112.7638245982
 20
198.6160446717
 30
0.0
 40
0.7999999999999992
100
AcDbArc
 50
346.2
 51
166.2
  0
LINE
  5
260
330
1F
100
AcDbEntity
  8
0
  6
Continuous
 62
     7
370
    25
100
AcDbLine
 10
-90.2818941131
 20
195.0704815491
 30
0.0
 11
-100.7951185176
 21
189.8516716323
 31
0.0
  0
ARC
  5
261
330
1F
100
AcDbEntity
  8
0
  6
Continuous
 62
     7
370
    25
100
AcDbCircle
 10
-101.5533334859
 20
190.1068383657
 30
0.0
 40
0.7999999999999948
100
AcDbArc
 50
161.400084552
 51
341.4000539585
  0
LINE
  5
262
330
1F
100
AcDbEntity
  8
0
  6
Continuous
 62
     7
370
    25
100
AcDbLine
 10
-102.3115485905
 20
190.3620046943
 30
0.0
 11
-107.5303596835
 21
200.8752314683
 31
0.0
  0
ARC
  5
263
330
1F
100
AcDbEntity
  8
0
  6
Continuous
 62
     7
370
    25
100
AcDbCircle
 10
-107.2751911773
 20
201.6334458399
 30
0.0
 40
0.8000000000000154
100
AcDbArc
 50
71.4000539586
 51
251.3999199893
  0
LINE
  5
264
330
1F
100
AcDbEntity
  8
0
  6
Continuous
 62
     7
370
    25
100
AcDbLine
 10
-107.0200244439
 20
202.3916608083
 30
0.0
 11
-96.506798211
 21
207.6104716326
 31
0.0
  0
ARC
  5
265
330
1F
100
AcDbEntity
  8
0
  6
Continuous
 62
     7
370
    25
100
AcDbCircle
 10
-95.7485837031
 20
207.3553035313
 30
0.0
 40
0.7999999999999989
100
AcDbArc
 50
341.3999199894
 51
161.3999505827
  0
LINE
  5
266
330
1F
100
AcDbEntity
  8
0
  6
Continuous
 62
     7
370
    25
100
AcDbLine
 10
-94.9903693314
 20
207.100135025
 30
0.0
 11
-89.7715596832
 21
196.5869111616
 31
0.0
  0
ARC
  5
267
330
1F
100
AcDbEntity
  8
0
  6
Continuous
 62
     7
370
    25
100
AcDbCircle
 10
-90.0267260117
 20
195.828696057
 30
0.0
 40
0.8000000000000066
100
AcDbArc
 50
251.3999505827
 51
71.4000845519
  0
ARC
  5
268
330
1F
100
AcDbEntity
  8
0
  6
Continuous
 62
     7
370
    25
100
AcDbCircle
 10
0.1022381948
 20
0.269545508
 30
0.0
 40
143.9409281948244
100
AcDbArc
 50
76.1036574442
 51
79.756868786
  0
ARC
  5
269
330
1F
100
AcDbEntity
  8
0
  6
Continuous
 62
     7
370
    25
100
AcDbCircle
 10
25.5652472661
 20
141.1782999782
 30
0.0
 40
0.7500000000000032
100
AcDbArc
 50
79.756868786
 51
170.0
  0
LINE
  5
26A
330
1F
100
AcDbEntity
  8
0
  6
Continuous
 62
     7
370
    25
100
AcDbLine
 10
24.739816578
 20
140.816127786
 30
0.0
 11
24.8266414513
 21
141.3085361114
 31
0.0
  0
ARC
  5
26B
330
1F
100
AcDbEntity
  8
0
  6
Continuous
 62
     7
370
    25
100
AcDbCircle
 10
25.4784223928
 20
140.6858916528
 30
0.0
 40
0.7500000000000265
100
AcDbArc
 50
170.0
 51
259.7560168303
  0
ARC
  5
26C
330
1F
100
AcDbEntity
  8
0
  6
Continuous
 62
     7
370
    25
100
AcDbCircle
 10
0.1022381948
 20
0.269545508
 30
0.0
 40
141.9409281948243
100
AcDbArc
 50
68.3011546217
 51
79.7560168303
  0
ARC
  5
26D
330
1F
100
AcDbEntity
  8
0
  6
Continuous
 62
     7
370
    25
100
AcDbCircle
 10
52.8590744554
 20
132.8493977363
 30
0.0
 40
0.7500000000000286
100
AcDbArc
 50
248.3011546217
 51
338.0
  0
LINE
  5
26E
330
1F
100
AcDbEntity
  8
0
  6
Continuous
 62
     7
370
    25
100
AcDbLine
 10
53.5544623463
 20
132.5684427912
 30
0.0
 11
53.7417682214
 21
133.0320411001
 31
0.0
  0
ARC
  5
26F
330
1F
100
AcDbEntity
  8
0
  6
Continuous
 62
     7
370
    25
100
AcDbCircle
 10
53.0463803304
 20
133.3129960451
 30
0.0
 40
0.7500000000000212
100
AcDbArc
 50
338.0
 51
68.3001030279
  0
ARC
  5
270
330
1F
100
AcDbEntity
  8
0
  6
Continuous
 62
     7
370
    25
100
AcDbCircle
 10
0.1022381948
 20
0.269545508
 30
0.0
 40
143.9409281948244
100
AcDbArc
 50
68.3001030279
 51
71.9530081457
  0
ARC
  5
271
330
1F
100
AcDbEntity
  8
0
  6
Continuous
 62
     7
370
    25
100
AcDbCircle
 10
44.9270408457
 20
137.8420782651
 30
0.0
 40
0.7500000000000068
100
AcDbArc
 50
71.9530081457
 51
251.9530081457
  0
ARC
  5
272
330
1F
100
AcDbEntity
  8
0
  6
Continuous
 62
     7
370
    25
100
AcDbCircle
 10
0.1022381948
 20
0.269545508
 30
0.0
 40
145.4409281948243
100
AcDbArc
 50
56.5601333633
 51
71.9530081457
  0
ARC
  5
273
330
1F
100
AcDbEntity
  8
0
  6
Continuous
 62
     7
370
    25
100
AcDbCircle
 10
81.1031615706
 20
122.7448000388
 30
0.0
 40
1.400477781183447
100
AcDbArc
 50
232.4241123564
 51
326.2674864161
  0
LINE
  5
274
330
1F
100
AcDbEntity
  8
0
  6
Continuous
 62
     7
370
    25
100
AcDbLine
 10
82.2678536957
 20
121.9670916942
 30
0.0
 11
87.2376008291
 21
129.3350438447
 31
0.0
  0
ARC
  5
275
330
1F
100
AcDbEntity
  8
0
  6
Continuous
 62
     7
370
    25
100
AcDbCircle
 10
87.9656955315
 20
129.514983013
 30
0.0
 40
0.7499999999999979
100
AcDbArc
 50
13.8817532933
 51
193.8817532933
  0
LINE
  5
276
330
1F
100
AcDbEntity
  8
0
  6
Continuous
 62
     7
370
    25
100
AcDbLine
 10
88.693790234
 20
129.6949221812
 30
0.0
 11
88.8960801608
 21
129.5584758847
 31
0.0
  0
ARC
  5
277
330
1F
100
AcDbEntity
  8
0
  6
Continuous
 62
     7
370
    25
100
AcDbCircle
 10
89.3154748764
 20
130.1802540384
 30
0.0
 40
0.7500000000000301
100
AcDbArc
 50
235.9999964931
 51
325.9999964931
  0
LINE
  5
278
330
1F
100
AcDbEntity
  8
0
  6
Continuous
 62
     7
370
    25
100
AcDbLine
 10
94.690393141
 20
136.8076783986
 30
0.0
 11
89.9372530302
 21
129.7608593228
 31
0.0
  0
ARC
  5
279
330
1F
100
AcDbEntity
  8
0
  6
Continuous
 62
     7
370
    25
100
AcDbCircle
 10
94.0686149872
 20
137.2270731142
 30
0.0
 40
0.7500000000000145
100
AcDbArc
 50
325.9999964931
 51
55.9999964931
  0
LINE
  5
27A
330
1F
100
AcDbEntity
  8
0
  6
Continuous
 62
     7
370
    25
100
AcDbLine
 10
94.4826676399
 20
137.8524545354
 30
0.0
 11
94.4880097029
 21
137.848851268
 31
0.0
  0
ARC
  5
27B
330
1F
100
AcDbEntity
  8
0
  6
Continuous
 62
     7
370
    25
100
AcDbCircle
 10
94.20171278
 20
138.5478424608
 30
0.0
 40
0.7500000000000011
100
AcDbArc
 50
111.9999929862
 51
291.9999929862
  0
LINE
  5
27C
330
1F
100
AcDbEntity
  8
0
  6
Continuous
 62
     7
370
    25
100
AcDbLine
 10
93.92075792
 20
139.2432303861
 30
0.0
 11
116.6858606914
 21
172.993878743
 31
0.0
  0
ARC
  5
27D
330
1F
100
AcDbEntity
  8
0
  6
Continuous
 62
     7
370
    25
100
AcDbCircle
 10
117.4179510632
 20
173.156801079
 30
0.0
 40
0.7500000000000063
100
AcDbArc
 50
12.5463766363
 51
192.5463766363
  0
LINE
  5
27E
330
1F
100
AcDbEntity
  8
0
  6
Continuous
 62
     7
370
    25
100
AcDbLine
 10
118.1500414349
 20
173.319723415
 30
0.0
 11
118.3310611559
 21
173.1976240554
 31
0.0
  0
ARC
  5
27F
330
1F
100
AcDbEntity
  8
0
  6
Continuous
 62
     7
370
    25
100
AcDbCircle
 10
118.7504558715
 20
173.8194022091
 30
0.0
 40
0.7499999999999986
100
AcDbArc
 50
235.9999964931
 51
325.9999964931
  0
LINE
  5
280
330
1F
100
AcDbEntity
  8
0
  6
Continuous
 62
     7
370
    25
100
AcDbLine
 10
124.1253741361
 20
180.4468265693
 30
0.0
 11
119.3722340253
 21
173.4000074935
 31
0.0
  0
ARC
  5
281
330
1F
100
AcDbEntity
  8
0
  6
Continuous
 62
     7
370
    25
100
AcDbCircle
 10
123.5035959824
 20
180.8662212849
 30
0.0
 40
0.7500000000000616
100
AcDbArc
 50
325.9999964931
 51
55.9999964931
  0
LINE
  5
282
330
1F
100
AcDbEntity
  8
0
  6
Continuous
 62
     7
370
    25
100
AcDbLine
 10
123.8630354349
 20
181.5284397796
 30
0.0
 11
123.922990698
 21
181.4879994387
 31
0.0
  0
ARC
  5
283
330
1F
100
AcDbEntity
  8
0
  6
Continuous
 62
     7
370
    25
100
AcDbCircle
 10
123.6346137559
 20
182.2428091075
 30
0.0
 40
0.7500000000000046
100
AcDbArc
 50
107.731829078
 51
287.731829078
  0
LINE
  5
284
330
1F
100
AcDbEntity
  8
0
  6
Continuous
 62
     7
370
    25
100
AcDbLine
 10
123.406192077
 20
182.9571784353
 30
0.0
 11
128.4786233172
 21
190.4773660147
 31
0.0
  0
ARC
  5
285
330
1F
100
AcDbEntity
  8
0
  6
Continuous
 62
     7
370
    25
100
AcDbCircle
 10
126.798514161
 20
191.757307786
 30
0.0
 40
2.112112145422406
100
AcDbArc
 50
322.6991027339
 51
55.7699219741
  0
ARC
  5
286
330
1F
100
AcDbEntity
  8
0
  6
Continuous
 62
     7
370
    25
100
AcDbCircle
 10
0.0000042675
 20
0.1726798717
 30
0.0
 40
231.8564337584688
100
AcDbArc
 50
56.4951194144
 51
64.2907096849
  0
ARC
  5
287
330
1F
100
AcDbEntity
  8
0
  6
Continuous
 62
     7
370
    25
100
AcDbCircle
 10
100.9058798071
 20
209.7526302127
 30
0.0
 40
0.7500000000091204
100
AcDbArc
 50
154.5
 51
154.4997171441
  0
ARC
  5
288
330
1F
100
AcDbEntity
  8
0
  6
Continuous
 62
     7
370
    25
100
AcDbCircle
 10
-0.0000042675
 20
0.1726798717
 30
0.0
 40
233.3564337584687
100
AcDbArc
 50
60.1791384905
 51
64.2907077873
  0
ARC
  5
289
330
1F
100
AcDbEntity
  8
0
  6
Continuous
 62
     7
370
    25
100
AcDbCircle
 10
116.4187568418
 20
203.2797806557
 30
0.0
 40
0.7500000000000123
100
AcDbArc
 50
240.1791384905
 51
330.0
  0
LINE
  5
28A
330
1F
100
AcDbEntity
  8
0
  6
Continuous
 62
     7
370
    25
100
AcDbLine
 10
117.0682758946
 20
202.9047806557
 30
0.0
 11
117.3182771139
 21
203.3377954695
 31
0.0
  0
ARC
  5
28B
330
1F
100
AcDbEntity
  8
0
  6
Continuous
 62
     7
370
    25
100
AcDbCircle
 10
116.6687580611
 20
203.7127954695
 30
0.0
 40
0.7500000000000125
100
AcDbArc
 50
330.0
 51
60.1787567042
  0
ARC
  5
28C
330
1F
100
AcDbEntity
  8
0
  6
Continuous
 62
     7
370
    25
100
AcDbCircle
 10
-0.0000042675
 20
0.1726798717
 30
0.0
 40
235.3564337584687
100
AcDbArc
 50
60.1787567042
 51
71.8212412228
  0
ARC
  5
28D
330
1F
100
AcDbEntity
  8
0
  6
Continuous
 62
     7
370
    25
100
AcDbCircle
 10
73.1931478006
 20
223.0693852111
 30
0.0
 40
0.7500000000000154
100
AcDbArc
 50
71.8212412228
 51
162.0
  0
LINE
  5
28E
330
1F
100
AcDbEntity
  8
0
  6
Continuous
 62
     7
370
    25
100
AcDbLine
 10
72.3253461626
 20
222.8256173794
 30
0.0
 11
72.4798554134
 21
223.3011479569
 31
0.0
  0
ARC
  5
28F
330
1F
100
AcDbEntity
  8
0
  6
Continuous
 62
     7
370
    25
100
AcDbCircle
 10
73.0386385499
 20
222.5938546336
 30
0.0
 40
0.749999999999997
100
AcDbArc
 50
162.0
 51
251.820859432
  0
ARC
  5
290
330
1F
100
AcDbEntity
  8
0
  6
Continuous
 62
     7
370
    25
100
AcDbCircle
 10
-0.0000042675
 20
0.1726798717
 30
0.0
 40
233.3564337584687
100
AcDbArc
 50
67.7092901111
 51
71.820859432
  0
ARC
  5
291
330
1F
100
AcDbEntity
  8
0
  6
Continuous
 62
     7
370
    25
100
AcDbCircle
 10
88.2290450897
 20
215.3967244889
 30
0.0
 40
0.7500000000069732
100
AcDbArc
 50
337.5002473207
 51
337.5
  0
ARC
  5
292
330
1F
100
AcDbEntity
  8
0
  6
Continuous
 62
     7
370
    25
100
AcDbCircle
 10
0.0000042675
 20
0.1726798717
 30
0.0
 40
231.8564337584687
100
AcDbArc
 50
67.7092920534
 51
88.2907098889
  0
ARC
  5
293
330
1F
100
AcDbEntity
  8
0
  6
Continuous
 62
     7
370
    25
100
AcDbCircle
 10
6.9382623272
 20
232.6756123283
 30
0.0
 40
0.7499999999999889
100
AcDbArc
 50
88.2907098889
 51
268.290709889
  0
ARC
  5
294
330
1F
100
AcDbEntity
  8
0
  6
Continuous
 62
     7
370
    25
100
AcDbCircle
 10
0.0000042675
 20
0.1726798717
 30
0.0
 40
233.3564337584687
100
AcDbArc
 50
84.179140568
 51
88.2907098889
  0
ARC
  5
295
330
1F
100
AcDbEntity
  8
0
  6
Continuous
 62
     7
370
    25
100
AcDbCircle
 10
23.742725861
 20
233.0720261534
 30
0.0
 40
0.7499999999999952
100
AcDbArc
 50
264.179140568
 51
354.0
  0
LINE
  5
296
330
1F
100
AcDbEntity
  8
0
  6
Continuous
 62
     7
370
    25
100
AcDbLine
 10
24.4886172825
 20
232.9936298059
 30
0.0
 11
24.5408817691
 21
233.4908931789
 31
0.0
  0
ARC
  5
297
330
1F
100
AcDbEntity
  8
0
  6
Continuous
 62
     7
370
    25
100
AcDbCircle
 10
23.7949903475
 20
233.5692895264
 30
0.0
 40
0.7500000000000472
100
AcDbArc
 50
354.0
 51
84.1787587772
  0
ARC
  5
298
330
1F
100
AcDbEntity
  8
0
  6
Continuous
 62
     7
370
    25
100
AcDbCircle
 10
0.0000042675
 20
0.1726798717
 30
0.0
 40
235.3564337584688
100
AcDbArc
 50
84.1787587772
 51
95.8212432958
  0
ARC
  5
299
330
1F
100
AcDbEntity
  8
0
  6
Continuous
 62
     7
370
    25
100
AcDbCircle
 10
-23.7949902571
 20
233.5692886654
 30
0.0
 40
0.7500000000000361
100
AcDbArc
 50
95.8212432958
 51
186.0
  0
LINE
  5
29A
330
1F
100
AcDbEntity
  8
0
  6
Continuous
 62
     7
370
    25
100
AcDbLine
 10
-24.488617192
 20
232.993628945
 30
0.0
 11
-24.5408816786
 21
233.490892318
 31
0.0
  0
ARC
  5
29B
330
1F
100
AcDbEntity
  8
0
  6
Continuous
 62
     7
370
    25
100
AcDbCircle
 10
-23.7427257705
 20
233.0720252925
 30
0.0
 40
0.7500000000000059
100
AcDbArc
 50
186.0
 51
275.8208615095
  0
ARC
  5
29C
330
1F
100
AcDbEntity
  8
0
  6
Continuous
 62
     7
370
    25
100
AcDbCircle
 10
0.0000042675
 20
0.1726798717
 30
0.0
 40
233.3564337584687
100
AcDbArc
 50
91.7092922127
 51
95.8208615095
  0
ARC
  5
29D
330
1F
100
AcDbEntity
  8
0
  6
Continuous
 62
     7
370
    25
100
AcDbCircle
 10
-6.9382623205
 20
232.6756120738
 30
0.0
 40
0.7499999999999923
100
AcDbArc
 50
271.7092922127
 51
91.7092922127
  0
ARC
  5
29E
330
1F
100
AcDbEntity
  8
0
  6
Continuous
 62
     7
370
    25
100
AcDbCircle
 10
0.0000042675
 20
0.1726798717
 30
0.0
 40
231.8564337584688
100
AcDbArc
 50
91.7092922127
 51
112.2907098889
  0
ARC
  5
29F
330
1F
100
AcDbEntity
  8
0
  6
Continuous
 62
     7
370
    25
100
AcDbCircle
 10
-88.2290438508
 20
215.396721498
 30
0.0
 40
0.7500000000000205
100
AcDbArc
 50
112.2907098889
 51
292.290709889
  0
ARC
  5
2A0
330
1F
100
AcDbEntity
  8
0
  6
Continuous
 62
     7
370
    25
100
AcDbCircle
 10
0.0000042675
 20
0.1726798717
 30
0.0
 40
233.3564337584687
100
AcDbArc
 50
108.179140568
 51
112.2907098889
  0
ARC
  5
2A1
330
1F
100
AcDbEntity
  8
0
  6
Continuous
 62
     7
370
    25
100
AcDbCircle
 10
-73.0386385499
 20
222.5938546336
 30
0.0
 40
0.749999999999997
100
AcDbArc
 50
288.179140568
 51
18.0
  0
LINE
  5
2A2
330
1F
100
AcDbEntity
  8
0
  6
Continuous
 62
     7
370
    25
100
AcDbLine
 10
-72.3253461626
 20
222.8256173794
 30
0.0
 11
-72.4798554134
 21
223.3011479569
 31
0.0
  0
ARC
  5
2A3
330
1F
100
AcDbEntity
  8
0
  6
Continuous
 62
     7
370
    25
100
AcDbCircle
 10
-73.1931478006
 20
223.0693852111
 30
0.0
 40
0.7500000000000154
100
AcDbArc
 50
18.0
 51
108.1787587772
  0
ARC
  5
2A4
330
1F
100
AcDbEntity
  8
0
  6
Continuous
 62
     7
370
    25
100
AcDbCircle
 10
0.0000042675
 20
0.1726798717
 30
0.0
 40
235.3564337584687
100
AcDbArc
 50
108.1787587772
 51
119.8212432958
  0
ARC
  5
2A5
330
1F
100
AcDbEntity
  8
0
  6
Continuous
 62
     7
370
    25
100
AcDbCircle
 10
-116.6687580611
 20
203.7127954695
 30
0.0
 40
0.7500000000000125
100
AcDbArc
 50
119.8212432958
 51
210.0
  0
LINE
  5
2A6
330
1F
100
AcDbEntity
  8
0
  6
Continuous
 62
     7
370
    25
100
AcDbLine
 10
-117.0682758946
 20
202.9047806557
 30
0.0
 11
-117.3182771139
 21
203.3377954695
 31
0.0
  0
ARC
  5
2A7
330
1F
100
AcDbEntity
  8
0
  6
Continuous
 62
     7
370
    25
100
AcDbCircle
 10
-116.4187568418
 20
203.2797806557
 30
0.0
 40
0.7500000000000123
100
AcDbArc
 50
210.0
 51
299.8208615095
  0
ARC
  5
2A8
330
1F
100
AcDbEntity
  8
0
  6
Continuous
 62
     7
370
    25
100
AcDbCircle
 10
0.0000042675
 20
0.1726798717
 30
0.0
 40
233.3564337584687
100
AcDbArc
 50
115.7092922127
 51
119.8208615095
  0
ARC
  5
2A9
330
1F
100
AcDbEntity
  8
0
  6
Continuous
 62
     7
370
    25
100
AcDbCircle
 10
-100.9058798071
 20
209.7526302127
 30
0.0
 40
0.7500000000000081
100
AcDbArc
 50
295.7092922127
 51
115.7092922127
  0
ARC
  5
2AA
330
1F
100
AcDbEntity
  8
0
  6
Continuous
 62
     7
370
    25
100
AcDbCircle
 10
0.0000042675
 20
0.1726798717
 30
0.0
 40
231.8564337584688
100
AcDbArc
 50
115.7092922127
 51
123.5022981791
  0
ARC
  5
2AB
330
1F
100
AcDbEntity
  8
0
  6
Continuous
 62
     7
370
    25
100
AcDbCircle
 10
-126.7962673367
 20
191.7568591099
 30
0.0
 40
2.113628213749981
100
AcDbArc
 50
123.9901441638
 51
217.2543129892
  0
LINE
  5
2AC
330
1F
100
AcDbEntity
  8
0
  6
Continuous
 62
     7
370
    25
100
AcDbLine
 10
-128.4786233172
 20
190.4773660147
 30
0.0
 11
-123.406192077
 21
182.9571784353
 31
0.0
  0
ARC
  5
2AD
330
1F
100
AcDbEntity
  8
0
  6
Continuous
 62
     7
370
    25
100
AcDbCircle
 10
-123.6346137559
 20
182.2428091075
 30
0.0
 40
0.7500000000000046
100
AcDbArc
 50
252.268170922
 51
72.268170922
  0
LINE
  5
2AE
330
1F
100
AcDbEntity
  8
0
  6
Continuous
 62
     7
370
    25
100
AcDbLine
 10
-123.8630354349
 20
181.5284397796
 30
0.0
 11
-123.922990698
 21
181.4879994387
 31
0.0
  0
ARC
  5
2AF
330
1F
100
AcDbEntity
  8
0
  6
Continuous
 62
     7
370
    25
100
AcDbCircle
 10
-123.5035959824
 20
180.8662212849
 30
0.0
 40
0.7500000000000301
100
AcDbArc
 50
124.0000035069
 51
214.0000035069
  0
LINE
  5
2B0
330
1F
100
AcDbEntity
  8
0
  6
Continuous
 62
     7
370
    25
100
AcDbLine
 10
-124.1253741361
 20
180.4468265693
 30
0.0
 11
-119.3722340253
 21
173.4000074935
 31
0.0
  0
ARC
  5
2B1
330
1F
100
AcDbEntity
  8
0
  6
Continuous
 62
     7
370
    25
100
AcDbCircle
 10
-118.7504558715
 20
173.8194022091
 30
0.0
 40
0.7499999999999907
100
AcDbArc
 50
214.0000035069
 51
304.0000035069
  0
LINE
  5
2B2
330
1F
100
AcDbEntity
  8
0
  6
Continuous
 62
     7
370
    25
100
AcDbLine
 10
-118.1500414349
 20
173.319723415
 30
0.0
 11
-118.3310611559
 21
173.1976240554
 31
0.0
  0
ARC
  5
2B3
330
1F
100
AcDbEntity
  8
0
  6
Continuous
 62
     7
370
    25
100
AcDbCircle
 10
-117.4179510632
 20
173.156801079
 30
0.0
 40
0.7500000000000063
100
AcDbArc
 50
347.4536233637
 51
167.4536233637
  0
LINE
  5
2B4
330
1F
100
AcDbEntity
  8
0
  6
Continuous
 62
     7
370
    25
100
AcDbLine
 10
-116.6858606914
 20
172.993878743
 30
0.0
 11
-93.92075792
 21
139.2432303861
 31
0.0
  0
ARC
  5
2B5
330
1F
100
AcDbEntity
  8
0
  6
Continuous
 62
     7
370
    25
100
AcDbCircle
 10
-94.20171278
 20
138.5478424608
 30
0.0
 40
0.7500000000000011
100
AcDbArc
 50
248.0000070138
 51
68.0000070138
  0
LINE
  5
2B6
330
1F
100
AcDbEntity
  8
0
  6
Continuous
 62
     7
370
    25
100
AcDbLine
 10
-94.4826676399
 20
137.8524545354
 30
0.0
 11
-94.4880097029
 21
137.848851268
 31
0.0
  0
ARC
  5
2B7
330
1F
100
AcDbEntity
  8
0
  6
Continuous
 62
     7
370
    25
100
AcDbCircle
 10
-94.0686149872
 20
137.2270731142
 30
0.0
 40
0.7500000000000145
100
AcDbArc
 50
124.0000035069
 51
214.0000035069
  0
LINE
  5
2B8
330
1F
100
AcDbEntity
  8
0
  6
Continuous
 62
     7
370
    25
100
AcDbLine
 10
-94.690393141
 20
136.8076783986
 30
0.0
 11
-89.9372530302
 21
129.7608593228
 31
0.0
  0
ARC
  5
2B9
330
1F
100
AcDbEntity
  8
0
  6
Continuous
 62
     7
370
    25
100
AcDbCircle
 10
-89.3154748764
 20
130.1802540384
 30
0.0
 40
0.7500000000000066
100
AcDbArc
 50
214.0000035069
 51
304.0000035069
  0
LINE
  5
2BA
330
1F
100
AcDbEntity
  8
0
  6
Continuous
 62
     7
370
    25
100
AcDbLine
 10
-88.693790234
 20
129.6949221812
 30
0.0
 11
-88.8960801608
 21
129.5584758847
 31
0.0
  0
ARC
  5
2BB
330
1F
100
AcDbEntity
  8
0
  6
Continuous
 62
     7
370
    25
100
AcDbCircle
 10
-87.9656955315
 20
129.514983013
 30
0.0
 40
0.7499999999999979
100
AcDbArc
 50
346.1182467067
 51
166.1182467067
  0
LINE
  5
2BC
330
1F
100
AcDbEntity
  8
0
  6
Continuous
 62
     7
370
    25
100
AcDbLine
 10
-87.2376008291
 20
129.3350438447
 30
0.0
 11
-82.2678536957
 21
121.9670916942
 31
0.0
  0
ARC
  5
2BD
330
1F
100
AcDbEntity
  8
0
  6
Continuous
 62
     7
370
    25
100
AcDbCircle
 10
-81.1031615706
 20
122.7448000388
 30
0.0
 40
1.400477781183451
100
AcDbArc
 50
213.7325135839
 51
307.5758876436
  0
ARC
  5
2BE
330
1F
100
AcDbEntity
  8
0
  6
Continuous
 62
     7
370
    25
100
AcDbCircle
 10
-0.1022381948
 20
0.269545508
 30
0.0
 40
145.4409281948243
100
AcDbArc
 50
108.0469918543
 51
123.4398666367
  0
ARC
  5
2BF
330
1F
100
AcDbEntity
  8
0
  6
Continuous
 62
     7
370
    25
100
AcDbCircle
 10
-44.9270408457
 20
137.8420782651
 30
0.0
 40
0.7500000000000068
100
AcDbArc
 50
288.0469918543
 51
108.0469918543
  0
ARC
  5
2C0
330
1F
100
AcDbEntity
  8
0
  6
Continuous
 62
     7
370
    25
100
AcDbCircle
 10
-0.1022381948
 20
0.269545508
 30
0.0
 40
143.9409281948244
100
AcDbArc
 50
108.0469918543
 51
111.6998969721
  0
ARC
  5
2C1
330
1F
100
AcDbEntity
  8
0
  6
Continuous
 62
     7
370
    25
100
AcDbCircle
 10
-53.0463803304
 20
133.3129960451
 30
0.0
 40
0.7500000000000212
100
AcDbArc
 50
111.6998969721
 51
202.0
  0
LINE
  5
2C2
330
1F
100
AcDbEntity
  8
0
  6
Continuous
 62
     7
370
    25
100
AcDbLine
 10
-53.5544623463
 20
132.5684427912
 30
0.0
 11
-53.7417682214
 21
133.0320411001
 31
0.0
  0
ARC
  5
2C3
330
1F
100
AcDbEntity
  8
0
  6
Continuous
 62
     7
370
    25
100
AcDbCircle
 10
-52.8590744554
 20
132.8493977363
 30
0.0
 40
0.7500000000000286
100
AcDbArc
 50
202.0
 51
291.6988453783
  0
ARC
  5
2C4
330
1F
100
AcDbEntity
  8
0
  6
Continuous
 62
     7
370
    25
100
AcDbCircle
 10
-0.1022381948
 20
0.269545508
 30
0.0
 40
141.9409281948243
100
AcDbArc
 50
100.2439831697
 51
111.6988453783
  0
ARC
  5
2C5
330
1F
100
AcDbEntity
  8
0
  6
Continuous
 62
     7
370
    25
100
AcDbCircle
 10
-25.4784223928
 20
140.6858916528
 30
0.0
 40
0.7500000000000265
100
AcDbArc
 50
280.2439831697
 51
10.0
  0
LINE
  5
2C6
330
1F
100
AcDbEntity
  8
0
  6
Continuous
 62
     7
370
    25
100
AcDbLine
 10
-24.739816578
 20
140.816127786
 30
0.0
 11
-24.8266414513
 21
141.3085361114
 31
0.0
  0
ARC
  5
2C7
330
1F
100
AcDbEntity
  8
0
  6
Continuous
 62
     7
370
    25
100
AcDbCircle
 10
-25.5652472661
 20
141.1782999782
 30
0.0
 40
0.7500000000000032
100
AcDbArc
 50
10.0
 51
100.243131214
  0
ARC
  5
2C8
330
1F
100
AcDbEntity
  8
0
  6
Continuous
 62
     7
370
    25
100
AcDbCircle
 10
-0.1022381948
 20
0.269545508
 30
0.0
 40
143.9409281948244
100
AcDbArc
 50
100.243131214
 51
103.8963425558
  0
ARC
  5
2C9
330
1F
100
AcDbEntity
  8
0
  6
Continuous
 62
     7
370
    25
100
AcDbCircle
 10
-34.852090774
 20
140.7256327652
 30
0.0
 40
0.749999999999996
100
AcDbArc
 50
103.8963425558
 51
283.8963425558
  0
ARC
  5
2CA
330
1F
100
AcDbEntity
  8
0
  6
Continuous
 62
     7
370
    25
100
AcDbCircle
 10
-0.1022381948
 20
0.269545508
 30
0.0
 40
145.4409281948243
100
AcDbArc
 50
98.1042542044
 51
103.8963425558
  0
ARC
  5
2CB
330
1F
100
AcDbEntity
  8
0
  6
Continuous
 62
     7
370
    25
100
AcDbCircle
 10
0.0
 20
0.2841409395
 30
0.0
 40
145.4409281948243
100
AcDbArc
 50
81.8550611836
 51
98.1449388164
  0
ARC
  5
2CC
330
1F
100
AcDbEntity
  8
0
  6
Continuous
 62
     7
370
    25
100
AcDbCircle
 10
0.1022381948
 20
0.269545508
 30
0.0
 40
145.4409281948243
100
AcDbArc
 50
76.1036574442
 51
81.8957457956
  0
ARC
  5
2CD
330
1F
100
AcDbEntity
  8
0
  6
Continuous
 62
     7
370
    25
100
AcDbCircle
 10
34.852090774
 20
140.7256327652
 30
0.0
 40
0.7499999999999977
100
AcDbArc
 50
256.1036574442
 51
76.1036574442
  0
ENDSEC
  0
SECTION
  2
OBJECTS
  0
DICTIONARY
  5
C
330
0
100
AcDbDictionary
281
     1
  3
ACAD_GROUP
350
D
  3
ACAD_LAYOUT
350
1A
  3
ACAD_MLINESTYLE
350
17
  3
ACAD_PLOTSETTINGS
350
19
  3
ACAD_PLOTSTYLENAME
350
E
  3
ACAD_SCALELIST
350
47
  3
DWGPROPS
350
2CE
  0
DICTIONARY
  5
D
102
{ACAD_REACTORS
330
C
102
}
330
C
100
AcDbDictionary
281
     1
  0
DICTIONARY
  5
1A
102
{ACAD_REACTORS
330
C
102
}
330
C
100
AcDbDictionary
281
     1
  3
Layout1
350
1E
  3
Layout2
350
26
  3
Model
350
22
  0
DICTIONARY
  5
17
102
{ACAD_REACTORS
330
C
102
}
330
C
100
AcDbDictionary
281
     1
  3
Standard
350
18
  0
DICTIONARY
  5
19
102
{ACAD_REACTORS
330
C
102
}
330
C
100
AcDbDictionary
281
     1
  0
ACDBDICTIONARYWDFLT
  5
E
102
{ACAD_REACTORS
330
C
102
}
330
C
100
AcDbDictionary
281
     1
  3
Normal
350
F
100
AcDbDictionaryWithDefault
340
F
  0
DICTIONARY
  5
47
102
{ACAD_REACTORS
330
C
102
}
330
C
100
AcDbDictionary
281
     1
  3
A0
350
48
  3
A1
350
49
  3
A2
350
4A
  3
A3
350
4B
  3
A4
350
4C
  3
A5
350
4D
  3
A6
350
4E
  3
A7
350
4F
  3
A8
350
50
  3
A9
350
51
  3
B0
350
52
  3
B1
350
53
  3
B2
350
54
  3
B3
350
55
  3
B4
350
56
  3
B5
350
57
  3
B6
350
58
  0
XRECORD
  5
2CE
102
{ACAD_REACTORS
330
C
102
}
330
C
100
AcDbXrecord
280
     1
  1
DWGPROPS COOKIE
  2

  3

  4

  6

  7

  8

  9

300
=
301
=
302
=
303
=
304
=
305
=
306
=
307
=
308
=
309
=
 40
0.0
 41
2460805.074220116
 42
2460805.074244537
  1

 90
        0
  0
LAYOUT
  5
1E
102
{ACAD_REACTORS
330
1A
102
}
330
1A
100
AcDbPlotSettings
  1

  2
none_device
  4

  6

 40
0.0
 41
0.0
 42
0.0
 43
0.0
 44
0.0
 45
0.0
 46
0.0
 47
0.0
 48
0.0
 49
0.0
140
0.0
141
0.0
142
1.0
143
1.0
 70
   688
 72
     1
 73
     0
 74
     5
  7

 75
    16
147
1.0
148
0.0
149
0.0
100
AcDbLayout
  1
Layout1
 70
     1
 71
     1
 10
0.0
 20
0.0
 11
420.0
 21
297.0
 12
0.0
 22
0.0
 32
0.0
 14
1.0000000000E+20
 24
1.0000000000E+20
 34
1.0000000000E+20
 15
-1.0000000000E+20
 25
-1.0000000000E+20
 35
-1.0000000000E+20
146
0.0
 13
0.0
 23
0.0
 33
0.0
 16
1.0
 26
0.0
 36
0.0
 17
0.0
 27
1.0
 37
0.0
 76
     0
330
1B
  0
LAYOUT
  5
26
102
{ACAD_REACTORS
330
1A
102
}
330
1A
100
AcDbPlotSettings
  1

  2
none_device
  4

  6

 40
0.0
 41
0.0
 42
0.0
 43
0.0
 44
0.0
 45
0.0
 46
0.0
 47
0.0
 48
0.0
 49
0.0
140
0.0
141
0.0
142
1.0
143
1.0
 70
   688
 72
     1
 73
     0
 74
     5
  7

 75
    16
147
1.0
148
0.0
149
0.0
100
AcDbLayout
  1
Layout2
 70
     1
 71
     2
 10
0.0
 20
0.0
 11
0.0
 21
0.0
 12
0.0
 22
0.0
 32
0.0
 14
0.0
 24
0.0
 34
0.0
 15
0.0
 25
0.0
 35
0.0
146
0.0
 13
0.0
 23
0.0
 33
0.0
 16
1.0
 26
0.0
 36
0.0
 17
0.0
 27
1.0
 37
0.0
 76
     0
330
23
  0
LAYOUT
  5
22
102
{ACAD_REACTORS
330
1A
102
}
330
1A
100
AcDbPlotSettings
  1

  2
none_device
  4
ANSI_A_(11.00_x_8.50_Inches)
  6

 40
6.35
 41
19.05
 42
6.35000508
 43
19.05000254
 44
279.4
 45
215.9
 46
133.3496054596
 47
-102.5380855936
 48
0.0
 49
0.0
140
0.0
141
0.0
142
0.0422386857
143
1.0
 70
  1696
 72
     0
 73
     0
 74
     0
  7

 75
     0
147
0.0179189148
148
-1300.4909072572
149
0.0
100
AcDbLayout
  1
Model
 70
     1
 71
     0
 10
0.0
 20
0.0
 11
420.0
 21
297.0
 12
0.0
 22
0.0
 32
0.0
 14
-128.9098955504
 24
121.3443222576
 34
0.0
 15
128.9106263064
 25
235.5291136301
 35
0.0
146
0.0
 13
0.0
 23
0.0
 33
0.0
 16
1.0
 26
0.0
 36
0.0
 17
0.0
 27
1.0
 37
0.0
 76
     0
330
1F
331
29
  0
MLINESTYLE
  5
18
102
{ACAD_REACTORS
330
17
102
}
330
17
100
AcDbMlineStyle
  2
Standard
 70
     0
  3

 62
   256
 51
90.0
 52
90.0
 71
     2
 49
0.5
 62
   256
  6
BYLAYER
 49
-0.5
 62
   256
  6
BYLAYER
  0
ACDBPLACEHOLDER
  5
F
102
{ACAD_REACTORS
330
E
102
}
330
E
  0
SCALE
  5
48
102
{ACAD_REACTORS
330
47
102
}
330
47
100
AcDbScale
 70
     0
300
1:1
140
1.0
141
1.0
290
     1
  0
SCALE
  5
49
102
{ACAD_REACTORS
330
47
102
}
330
47
100
AcDbScale
 70
     0
300
1:2
140
1.0
141
2.0
290
     0
  0
SCALE
  5
4A
102
{ACAD_REACTORS
330
47
102
}
330
47
100
AcDbScale
 70
     0
300
1:4
140
1.0
141
4.0
290
     0
  0
SCALE
  5
4B
102
{ACAD_REACTORS
330
47
102
}
330
47
100
AcDbScale
 70
     0
300
1:5
140
1.0
141
5.0
290
     0
  0
SCALE
  5
4C
102
{ACAD_REACTORS
330
47
102
}
330
47
100
AcDbScale
 70
     0
300
1:8
140
1.0
141
8.0
290
     0
  0
SCALE
  5
4D
102
{ACAD_REACTORS
330
47
102
}
330
47
100
AcDbScale
 70
     0
300
1:10
140
1.0
141
10.0
290
     0
  0
SCALE
  5
4E
102
{ACAD_REACTORS
330
47
102
}
330
47
100
AcDbScale
 70
     0
300
1:16
140
1.0
141
16.0
290
     0
  0
SCALE
  5
4F
102
{ACAD_REACTORS
330
47
102
}
330
47
100
AcDbScale
 70
     0
300
1:20
140
1.0
141
20.0
290
     0
  0
SCALE
  5
50
102
{ACAD_REACTORS
330
47
102
}
330
47
100
AcDbScale
 70
     0
300
1:30
140
1.0
141
30.0
290
     0
  0
SCALE
  5
51
102
{ACAD_REACTORS
330
47
102
}
330
47
100
AcDbScale
 70
     0
300
1:40
140
1.0
141
40.0
290
     0
  0
SCALE
  5
52
102
{ACAD_REACTORS
330
47
102
}
330
47
100
AcDbScale
 70
     0
300
1:50
140
1.0
141
50.0
290
     0
  0
SCALE
  5
53
102
{ACAD_REACTORS
330
47
102
}
330
47
100
AcDbScale
 70
     0
300
1:100
140
1.0
141
100.0
290
     0
  0
SCALE
  5
54
102
{ACAD_REACTORS
330
47
102
}
330
47
100
AcDbScale
 70
     0
300
2:1
140
2.0
141
1.0
290
     0
  0
SCALE
  5
55
102
{ACAD_REACTORS
330
47
102
}
330
47
100
AcDbScale
 70
     0
300
4:1
140
4.0
141
1.0
290
     0
  0
SCALE
  5
56
102
{ACAD_REACTORS
330
47
102
}
330
47
100
AcDbScale
 70
     0
300
8:1
140
8.0
141
1.0
290
     0
  0
SCALE
  5
57
102
{ACAD_REACTORS
330
47
102
}
330
47
100
AcDbScale
 70
     0
300
10:1
140
10.0
141
1.0
290
     0
  0
SCALE
  5
58
102
{ACAD_REACTORS
330
47
102
}
330
47
100
AcDbScale
 70
     0
300
100:1
140
100.0
141
1.0
290
     0
  0
ENDSEC
  0
EOF
