  0
SECTION
  2
HEADER
  9
$ACADVER
  1
AC1015
  9
$ACADMAINTVER
 70
     6
  9
$DWGCODEPAGE
  3
ANSI_936
  9
$INSBASE
 10
0.0
 20
0.0
 30
0.0
  9
$EXTMIN
 10
-128.9098955504
 20
121.3443222576
 30
0.0
  9
$EXTMAX
 10
128.9106263064
 20
232.0291136301
 30
0.0
  9
$LIMMIN
 10
0.0
 20
0.0
  9
$LIMMAX
 10
420.0
 20
297.0
  9
$ORTHOMODE
 70
     0
  9
$REGENMODE
 70
     1
  9
$FILLMODE
 70
     1
  9
$QTEXTMODE
 70
     0
  9
$MIRRTEXT
 70
     1
  9
$LTSCALE
 40
1.0
  9
$ATTMODE
 70
     1
  9
$TEXTSIZE
 40
3.5
  9
$TRACEWID
 40
1.0
  9
$TEXTSTYLE
  7
Standard
  9
$CLAYER
  8
0
  9
$CELTYPE
  6
ByLayer
  9
$CECOLOR
 62
   256
  9
$CELTSCALE
 40
1.0
  9
$DISPSILH
 70
     0
  9
$DIMSCALE
 40
1.0
  9
$DIMASZ
 40
4.08
  9
$DIMEXO
 40
0.0
  9
$DIMDLI
 40
3.75
  9
$DIMRND
 40
0.0
  9
$DIMDLE
 40
0.0
  9
$DIMEXE
 40
2.0
  9
$DIMTP
 40
0.0
  9
$DIMTM
 40
0.0
  9
$DIMTXT
 40
3.5
  9
$DIMCEN
 40
2.5
  9
$DIMTSZ
 40
0.0
  9
$DIMTOL
 70
     0
  9
$DIMLIM
 70
     0
  9
$DIMTIH
 70
     1
  9
$DIMTOH
 70
     1
  9
$DIMSE1
 70
     0
  9
$DIMSE2
 70
     0
  9
$DIMTAD
 70
     1
  9
$DIMZIN
 70
     0
  9
$DIMBLK
  1

  9
$DIMASO
 70
     1
  9
$DIMSHO
 70
     1
  9
$DIMPOST
  1

  9
$DIMAPOST
  1

  9
$DIMALT
 70
     0
  9
$DIMALTD
 70
     3
  9
$DIMALTF
 40
0.0393700787
  9
$DIMLFAC
 40
1.0
  9
$DIMTOFL
 70
     1
  9
$DIMTVP
 40
0.0
  9
$DIMTIX
 70
     0
  9
$DIMSOXD
 70
     0
  9
$DIMSAH
 70
     0
  9
$DIMBLK1
  1

  9
$DIMBLK2
  1

  9
$DIMSTYLE
  2
ISO-25
  9
$DIMCLRD
 70
     0
  9
$DIMCLRE
 70
     0
  9
$DIMCLRT
 70
     0
  9
$DIMTFAC
 40
1.0
  9
$DIMGAP
 40
1.524
  9
$DIMJUST
 70
     0
  9
$DIMSD1
 70
     0
  9
$DIMSD2
 70
     0
  9
$DIMTOLJ
 70
     0
  9
$DIMTZIN
 70
     0
  9
$DIMALTZ
 70
     0
  9
$DIMALTTZ
 70
     0
  9
$DIMUPT
 70
     0
  9
$DIMDEC
 70
     2
  9
$DIMTDEC
 70
     2
  9
$DIMALTU
 70
     2
  9
$DIMALTTD
 70
     3
  9
$DIMTXSTY
  7
Standard
  9
$DIMAUNIT
 70
     0
  9
$DIMADEC
 70
     2
  9
$DIMALTRND
 40
0.0
  9
$DIMAZIN
 70
     0
  9
$DIMDSEP
 70
    44
  9
$DIMATFIT
 70
     3
  9
$DIMFRAC
 70
     0
  9
$DIMLDRBLK
  1

  9
$DIMLUNIT
 70
     2
  9
$DIMLWD
 70
    -2
  9
$DIMLWE
 70
    -2
  9
$DIMTMOVE
 70
     0
  9
$LUNITS
 70
     2
  9
$LUPREC
 70
     2
  9
$SKETCHINC
 40
1.0
  9
$FILLETRAD
 40
0.0
  9
$AUNITS
 70
     0
  9
$AUPREC
 70
     2
  9
$MENU
  1
.
  9
$ELEVATION
 40
0.0
  9
$PELEVATION
 40
0.0
  9
$THICKNESS
 40
0.0
  9
$LIMCHECK
 70
     0
  9
$CHAMFERA
 40
0.0
  9
$CHAMFERB
 40
0.0
  9
$CHAMFERC
 40
0.0
  9
$CHAMFERD
 40
0.0
  9
$SKPOLY
 70
     0
  9
$TDCREATE
 40
2460793.099648854
  9
$TDUCREATE
 40
2460792.766315521
  9
$TDUPDATE
 40
2460793.099662061
  9
$TDUUPDATE
 40
2460792.766328727
  9
$TDINDWG
 40
0.0000000116
  9
$TDUSRTIMER
 40
0.0000000116
  9
$USRTIMER
 70
     1
  9
$ANGBASE
 50
0.0
  9
$ANGDIR
 70
     0
  9
$PDMODE
 70
     0
  9
$PDSIZE
 40
-1.0
  9
$PLINEWID
 40
0.0
  9
$SPLFRAME
 70
     0
  9
$SPLINETYPE
 70
     6
  9
$SPLINESEGS
 70
     8
  9
$HANDSEED
  5
201
  9
$SURFTAB1
 70
     6
  9
$SURFTAB2
 70
     6
  9
$SURFTYPE
 70
     6
  9
$SURFU
 70
     6
  9
$SURFV
 70
     6
  9
$UCSBASE
  2

  9
$UCSNAME
  2

  9
$UCSORG
 10
0.0
 20
0.0
 30
0.0
  9
$UCSXDIR
 10
1.0
 20
0.0
 30
0.0
  9
$UCSYDIR
 10
0.0
 20
1.0
 30
0.0
  9
$UCSORTHOREF
  2

  9
$UCSORTHOVIEW
 70
     0
  9
$UCSORGTOP
 10
0.0
 20
0.0
 30
0.0
  9
$UCSORGBOTTOM
 10
0.0
 20
0.0
 30
0.0
  9
$UCSORGLEFT
 10
0.0
 20
0.0
 30
0.0
  9
$UCSORGRIGHT
 10
0.0
 20
0.0
 30
0.0
  9
$UCSORGFRONT
 10
0.0
 20
0.0
 30
0.0
  9
$UCSORGBACK
 10
0.0
 20
0.0
 30
0.0
  9
$PUCSBASE
  2

  9
$PUCSNAME
  2

  9
$PUCSORG
 10
0.0
 20
0.0
 30
0.0
  9
$PUCSXDIR
 10
1.0
 20
0.0
 30
0.0
  9
$PUCSYDIR
 10
0.0
 20
1.0
 30
0.0
  9
$PUCSORTHOREF
  2

  9
$PUCSORTHOVIEW
 70
     0
  9
$PUCSORGTOP
 10
0.0
 20
0.0
 30
0.0
  9
$PUCSORGBOTTOM
 10
0.0
 20
0.0
 30
0.0
  9
$PUCSORGLEFT
 10
0.0
 20
0.0
 30
0.0
  9
$PUCSORGRIGHT
 10
0.0
 20
0.0
 30
0.0
  9
$PUCSORGFRONT
 10
0.0
 20
0.0
 30
0.0
  9
$PUCSORGBACK
 10
0.0
 20
0.0
 30
0.0
  9
$USERI1
 70
     0
  9
$USERI2
 70
     0
  9
$USERI3
 70
     0
  9
$USERI4
 70
     0
  9
$USERI5
 70
     0
  9
$USERR1
 40
0.0
  9
$USERR2
 40
0.0
  9
$USERR3
 40
0.0
  9
$USERR4
 40
0.0
  9
$USERR5
 40
0.0
  9
$WORLDVIEW
 70
     1
  9
$SHADEDGE
 70
     3
  9
$SHADEDIF
 70
    70
  9
$TILEMODE
 70
     1
  9
$MAXACTVP
 70
    64
  9
$PINSBASE
 10
0.0
 20
0.0
 30
0.0
  9
$PLIMCHECK
 70
     0
  9
$PEXTMIN
 10
1.0000000000E+20
 20
1.0000000000E+20
 30
1.0000000000E+20
  9
$PEXTMAX
 10
-1.0000000000E+20
 20
-1.0000000000E+20
 30
-1.0000000000E+20
  9
$PLIMMIN
 10
0.0
 20
0.0
  9
$PLIMMAX
 10
420.0
 20
297.0
  9
$UNITMODE
 70
     0
  9
$VISRETAIN
 70
     1
  9
$PLINEGEN
 70
     0
  9
$PSLTSCALE
 70
     1
  9
$TREEDEPTH
 70
  3020
  9
$CMLSTYLE
  2
Standard
  9
$CMLJUST
 70
     0
  9
$CMLSCALE
 40
20.0
  9
$PROXYGRAPHICS
 70
     1
  9
$MEASUREMENT
 70
     1
  9
$CELWEIGHT
370
    -1
  9
$ENDCAPS
280
     0
  9
$JOINSTYLE
280
     0
  9
$LWDISPLAY
290
     1
  9
$INSUNITS
 70
     4
  9
$HYPERLINKBASE
  1

  9
$STYLESHEET
  1

  9
$XEDIT
290
     1
  9
$CEPSNTYPE
380
     0
  9
$PSTYLEMODE
290
     1
  9
$FINGERPRINTGUID
  2
{bc675a12-61bb-40fa-81ee-1e8b22f5aa44}
  9
$VERSIONGUID
  2
{FAEB1C32-E019-11D5-929B-00C0DF256EC4}
  9
$EXTNAMES
290
     1
  9
$PSVPSCALE
 40
0.0
  9
$OLESTARTUP
290
     0
  0
ENDSEC
  0
SECTION
  2
CLASSES
  0
CLASS
  1
ACDBDICTIONARYWDFLT
  2
AcDbDictionaryWithDefault
  3
ObjectDBX Classes
 90
        0
280
     0
281
     0
  0
CLASS
  1
VISUALSTYLE
  2
AcDbVisualStyle
  3
ObjectDBX Classes
 90
     4095
280
     0
281
     0
  0
CLASS
  1
MATERIAL
  2
AcDbMaterial
  3
ObjectDBX Classes
 90
     1153
280
     0
281
     0
  0
CLASS
  1
SCALE
  2
AcDbScale
  3
ObjectDBX Classes
 90
     1153
280
     0
281
     0
  0
CLASS
  1
TABLESTYLE
  2
AcDbTableStyle
  3
ObjectDBX Classes
 90
     4095
280
     0
281
     0
  0
CLASS
  1
MLEADERSTYLE
  2
AcDbMLeaderStyle
  3
ACDB_MLEADERSTYLE_CLASS
 90
     4095
280
     0
281
     0
  0
CLASS
  1
SUN
  2
AcDbSun
  3
SCENEOE
 90
     1153
280
     0
281
     0
  0
CLASS
  1
ACDBPLACEHOLDER
  2
AcDbPlaceHolder
  3
ObjectDBX Classes
 90
        0
280
     0
281
     0
  0
CLASS
  1
LAYOUT
  2
AcDbLayout
  3
ObjectDBX Classes
 90
        0
280
     0
281
     0
  0
ENDSEC
  0
SECTION
  2
TABLES
  0
TABLE
  2
VPORT
  5
8
330
0
100
AcDbSymbolTable
 70
     1
  0
VPORT
  5
29
330
8
100
AcDbSymbolTableRecord
100
AcDbViewportTableRecord
  2
*Active
 70
     0
 10
0.0
 20
0.0
 11
1.0
 21
1.0
 12
0.000365378
 22
176.6867179439
 13
0.0
 23
0.0
 14
10.0
 24
10.0
 15
10.0
 25
10.0
 16
0.0
 26
0.0
 36
1.0
 17
0.0
 27
0.0
 37
0.0
 40
112.8984872
 41
2.3293220203
 42
50.0
 43
0.0
 44
0.0
 50
0.0
 51
0.0
 71
     0
 72
   100
 73
     1
 74
     3
 75
     0
 76
     0
 77
     0
 78
     0
281
     0
 65
     1
110
0.0
120
0.0
130
0.0
111
1.0
121
0.0
131
0.0
112
0.0
122
1.0
132
0.0
 79
     0
146
0.0
  0
ENDTAB
  0
TABLE
  2
LTYPE
  5
5
330
0
100
AcDbSymbolTable
 70
     6
  0
LTYPE
  5
14
330
5
100
AcDbSymbolTableRecord
100
AcDbLinetypeTableRecord
  2
ByBlock
 70
     0
  3

 72
    65
 73
     0
 40
0.0
  0
LTYPE
  5
15
330
5
100
AcDbSymbolTableRecord
100
AcDbLinetypeTableRecord
  2
ByLayer
 70
     0
  3

 72
    65
 73
     0
 40
0.0
  0
LTYPE
  5
16
330
5
100
AcDbSymbolTableRecord
100
AcDbLinetypeTableRecord
  2
Continuous
 70
     0
  3
Solid line
 72
    65
 73
     0
 40
0.0
  0
LTYPE
  5
5E
330
5
100
AcDbSymbolTableRecord
100
AcDbLinetypeTableRecord
  2
HIDDEN
 70
     0
  3
Hidden __ __ __ __ __ __ __ __ __ __ __ __ __ __
 72
    65
 73
     2
 40
1.905
 49
1.27
 74
     0
 49
-0.635
 74
     0
  0
LTYPE
  5
5F
330
5
100
AcDbSymbolTableRecord
100
AcDbLinetypeTableRecord
  2
PHANTOM
 70
     0
  3
Phantom ______  __  __  ______  __  __  ______
 72
    65
 73
     6
 40
12.7
 49
6.35
 74
     0
 49
-1.27
 74
     0
 49
1.27
 74
     0
 49
-1.27
 74
     0
 49
1.27
 74
     0
 49
-1.27
 74
     0
  0
LTYPE
  5
60
330
5
100
AcDbSymbolTableRecord
100
AcDbLinetypeTableRecord
  2
CENTER
 70
     0
  3
Center ____ _ ____ _ ____ _ ____ _ ____ _ ____
 72
    65
 73
     4
 40
10.16
 49
6.35
 74
     0
 49
-1.27
 74
     0
 49
1.27
 74
     0
 49
-1.27
 74
     0
  0
LTYPE
  5
61
330
5
100
AcDbSymbolTableRecord
100
AcDbLinetypeTableRecord
  2
CENTERX2
 70
     0
  3
Center (2x) ________  __  ________  __  _____
 72
    65
 73
     4
 40
20.32
 49
12.7
 74
     0
 49
-2.54
 74
     0
 49
2.54
 74
     0
 49
-2.54
 74
     0
  0
LTYPE
  5
62
330
5
100
AcDbSymbolTableRecord
100
AcDbLinetypeTableRecord
  2
DOT2
 70
     0
  3
Dot (.5x) ........................................
 72
    65
 73
     2
 40
0.635
 49
0.0
 74
     0
 49
-0.635
 74
     0
  0
ENDTAB
  0
TABLE
  2
LAYER
  5
2
330
0
100
AcDbSymbolTable
 70
     1
  0
LAYER
  5
10
330
2
100
AcDbSymbolTableRecord
100
AcDbLayerTableRecord
  2
0
 70
     0
 62
     7
  6
Continuous
370
    -3
390
F
  0
ENDTAB
  0
TABLE
  2
STYLE
  5
3
330
0
100
AcDbSymbolTable
 70
     1
  0
STYLE
  5
11
330
3
100
AcDbSymbolTableRecord
100
AcDbTextStyleTableRecord
  2
Standard
 70
     0
 40
0.0
 41
1.0
 50
0.0
 71
     0
 42
3.5
  3
txt
  4

  0
ENDTAB
  0
TABLE
  2
VIEW
  5
6
330
0
100
AcDbSymbolTable
 70
     0
  0
ENDTAB
  0
TABLE
  2
UCS
  5
7
330
0
100
AcDbSymbolTable
 70
     0
  0
ENDTAB
  0
TABLE
  2
APPID
  5
9
330
0
100
AcDbSymbolTable
 70
     1
  0
APPID
  5
12
330
9
100
AcDbSymbolTableRecord
100
AcDbRegAppTableRecord
  2
ACAD
 70
     0
  0
ENDTAB
  0
TABLE
  2
DIMSTYLE
  5
A
330
0
100
AcDbSymbolTable
 70
     1
100
AcDbDimStyleTable
  0
DIMSTYLE
105
27
330
A
100
AcDbSymbolTableRecord
100
AcDbDimStyleTableRecord
  2
ISO-25
 70
     0
 41
2.5
 42
0.625
 43
3.75
 44
1.25
 73
     0
 74
     0
 77
     1
 78
     8
140
2.5
141
2.5
143
0.0393700787
147
0.625
171
     3
172
     1
178
     0
271
     2
272
     2
274
     3
278
    44
283
     0
284
     8
340
11
  0
ENDTAB
  0
TABLE
  2
BLOCK_RECORD
  5
1
330
0
100
AcDbSymbolTable
 70
     1
  0
BLOCK_RECORD
  5
1F
330
1
100
AcDbSymbolTableRecord
100
AcDbBlockTableRecord
  2
*Model_Space
340
22
  0
BLOCK_RECORD
  5
1B
330
1
100
AcDbSymbolTableRecord
100
AcDbBlockTableRecord
  2
*Paper_Space
340
1E
  0
BLOCK_RECORD
  5
23
330
1
100
AcDbSymbolTableRecord
100
AcDbBlockTableRecord
  2
*Paper_Space0
340
26
  0
ENDTAB
  0
ENDSEC
  0
SECTION
  2
BLOCKS
  0
BLOCK
  5
20
330
1F
100
AcDbEntity
  8
0
100
AcDbBlockBegin
  2
*Model_Space
 70
     0
 10
0.0
 20
0.0
 30
0.0
  3
*Model_Space
  1

  0
ENDBLK
  5
21
330
1F
100
AcDbEntity
  8
0
100
AcDbBlockEnd
  0
BLOCK
  5
1C
330
1B
100
AcDbEntity
 67
     1
  8
0
100
AcDbBlockBegin
  2
*Paper_Space
 70
     0
 10
0.0
 20
0.0
 30
0.0
  3
*Paper_Space
  1

  0
ENDBLK
  5
1D
330
1B
100
AcDbEntity
 67
     1
  8
0
100
AcDbBlockEnd
  0
BLOCK
  5
24
330
23
100
AcDbEntity
  8
0
100
AcDbBlockBegin
  2
*Paper_Space0
 70
     0
 10
0.0
 20
0.0
 30
0.0
  3
*Paper_Space0
  1

  0
ENDBLK
  5
25
330
23
100
AcDbEntity
  8
0
100
AcDbBlockEnd
  0
ENDSEC
  0
SECTION
  2
ENTITIES
  0
ARC
  5
63
330
1F
100
AcDbEntity
  8
0
  6
Continuous
 62
     7
370
    25
100
AcDbCircle
 10
-0.3506915759
 20
0.7610101583
 30
0.0
 40
179.8634041205771
100
AcDbArc
 50
105.9359414758
 51
123.5472902872
  0
LINE
  5
64
330
1F
100
AcDbEntity
  8
0
  6
Continuous
 62
     7
370
    25
100
AcDbLine
 10
-49.7344297689
 20
173.7121285243
 30
0.0
 11
-45.4954737109
 21
158.9063271527
 31
0.0
  0
ARC
  5
65
330
1F
100
AcDbEntity
  8
0
  6
Continuous
 62
     7
370
    25
100
AcDbCircle
 10
-0.3207934391
 20
0.6961413791
 30
0.0
 40
164.533323737628
100
AcDbArc
 50
105.935943569
 51
123.5472917056
  0
LINE
  5
66
330
1F
100
AcDbEntity
  8
0
  6
Continuous
 62
     7
370
    25
100
AcDbLine
 10
-91.2460350521
 20
137.8231445263
 30
0.0
 11
-99.7477165354
 21
150.6645643891
 31
0.0
  0
ARC
  5
67
330
1F
100
AcDbEntity
  8
0
  6
Continuous
 62
     7
370
    25
100
AcDbCircle
 10
83.9901993698
 20
147.8055871565
 30
0.0
 40
3.953166873795011
100
AcDbArc
 50
255.0935524762
 51
317.0244786353
  0
LINE
  5
68
330
1F
100
AcDbEntity
  8
0
  6
Continuous
 62
     7
370
    25
100
AcDbLine
 10
75.8574485111
 20
147.8998296615
 30
0.0
 11
82.9732806419
 21
143.9854556623
 31
0.0
  0
LINE
  5
69
330
1F
100
AcDbEntity
  8
0
  6
Continuous
 62
     7
370
    25
100
AcDbLine
 10
77.6682482205
 20
151.1882220084
 30
0.0
 11
75.8574485111
 21
147.8998296615
 31
0.0
  0
LINE
  5
6A
330
1F
100
AcDbEntity
  8
0
  6
Continuous
 62
     7
370
    25
100
AcDbLine
 10
82.3555406271
 20
148.6070982152
 30
0.0
 11
77.6682482205
 21
151.1882220084
 31
0.0
  0
ARC
  5
6B
330
1F
100
AcDbEntity
  8
0
  6
Continuous
 62
     7
370
    25
100
AcDbCircle
 10
82.9713847251
 20
151.9364186468
 30
0.0
 40
3.385799534736015
100
AcDbArc
 50
259.5201160839
 51
312.8525046726
  0
LINE
  5
6C
330
1F
100
AcDbEntity
  8
0
  6
Continuous
 62
     7
370
    25
100
AcDbLine
 10
88.3435677738
 20
147.7640265366
 30
0.0
 11
85.2741123375
 21
149.4542655426
 31
0.0
  0
LINE
  5
6D
330
1F
100
AcDbEntity
  8
0
  6
Continuous
 62
     7
370
    25
100
AcDbLine
 10
86.8825141746
 20
145.1107692772
 30
0.0
 11
88.3435677738
 21
147.7640265366
 31
0.0
  0
ARC
  5
6E
330
1F
100
AcDbEntity
  8
0
  6
Continuous
 62
     7
370
    25
100
AcDbCircle
 10
63.5941061763
 20
157.6598710602
 30
0.0
 40
3.953166873795012
100
AcDbArc
 50
262.7335524762
 51
324.6644786353
  0
LINE
  5
6F
330
1F
100
AcDbEntity
  8
0
  6
Continuous
 62
     7
370
    25
100
AcDbLine
 10
55.5210206347
 20
156.6720411071
 30
0.0
 11
63.0940948758
 21
153.7384533279
 31
0.0
  0
LINE
  5
70
330
1F
100
AcDbEntity
  8
0
  6
Continuous
 62
     7
370
    25
100
AcDbLine
 10
56.8785594545
 20
160.1719851305
 30
0.0
 11
55.5210206347
 21
156.6720411071
 31
0.0
  0
LINE
  5
71
330
1F
100
AcDbEntity
  8
0
  6
Continuous
 62
     7
370
    25
100
AcDbLine
 10
61.867398776
 20
158.2369418842
 30
0.0
 11
56.8785594545
 21
160.1719851305
 31
0.0
  0
ARC
  5
72
330
1F
100
AcDbEntity
  8
0
  6
Continuous
 62
     7
370
    25
100
AcDbCircle
 10
62.035148324
 20
161.6185832872
 30
0.0
 40
3.385799534736075
100
AcDbArc
 50
267.1601160839
 51
320.4925046726
  0
LINE
  5
73
330
1F
100
AcDbEntity
  8
0
  6
Continuous
 62
     7
370
    25
100
AcDbLine
 10
67.9143549985
 20
158.1974525519
 30
0.0
 11
64.6474327228
 21
159.4646081924
 31
0.0
  0
LINE
  5
74
330
1F
100
AcDbEntity
  8
0
  6
Continuous
 62
     7
370
    25
100
AcDbLine
 10
66.8190174145
 20
155.3735036711
 30
0.0
 11
67.9143549985
 21
158.1974525519
 31
0.0
  0
ARC
  5
75
330
1F
100
AcDbEntity
  8
0
  6
Continuous
 62
     7
370
    25
100
AcDbCircle
 10
70.7008398331
 20
172.3855794269
 30
0.0
 40
3.953166873795023
100
AcDbArc
 50
262.3335524762
 51
324.2644786353
  0
LINE
  5
76
330
1F
100
AcDbEntity
  8
0
  6
Continuous
 62
     7
370
    25
100
AcDbLine
 10
62.6210547288
 20
171.4541338581
 30
0.0
 11
70.1734642795
 21
168.4677479658
 31
0.0
  0
LINE
  5
77
330
1F
100
AcDbEntity
  8
0
  6
Continuous
 62
     7
370
    25
100
AcDbLine
 10
64.0029944866
 20
174.9445152584
 30
0.0
 11
62.6210547288
 21
171.4541338581
 31
0.0
  0
LINE
  5
78
330
1F
100
AcDbEntity
  8
0
  6
Continuous
 62
     7
370
    25
100
AcDbLine
 10
68.978203193
 20
172.9746907819
 30
0.0
 11
64.0029944866
 21
174.9445152584
 31
0.0
  0
ARC
  5
79
330
1F
100
AcDbEntity
  8
0
  6
Continuous
 62
     7
370
    25
100
AcDbCircle
 10
69.169556772
 20
176.3550786735
 30
0.0
 40
3.38579953473606
100
AcDbArc
 50
266.7601160839
 51
320.0925046726
  0
LINE
  5
7A
330
1F
100
AcDbEntity
  8
0
  6
Continuous
 62
     7
370
    25
100
AcDbLine
 10
75.0247363702
 20
172.8929870365
 30
0.0
 11
71.7667400504
 21
174.1829190321
 31
0.0
  0
LINE
  5
7B
330
1F
100
AcDbEntity
  8
0
  6
Continuous
 62
     7
370
    25
100
AcDbLine
 10
73.9097107566
 20
170.0767538102
 30
0.0
 11
75.0247363702
 21
172.8929870365
 31
0.0
  0
ARC
  5
7C
330
1F
100
AcDbEntity
  8
0
  6
Continuous
 62
     7
370
    25
100
AcDbCircle
 10
46.4664816846
 20
146.4916856062
 30
0.0
 40
3.953166873794972
100
AcDbArc
 50
267.1835524762
 51
329.1144786353
  0
LINE
  5
7D
330
1F
100
AcDbEntity
  8
0
  6
Continuous
 62
     7
370
    25
100
AcDbLine
 10
38.4943779127
 20
144.8804501704
 30
0.0
 11
46.2722369459
 21
142.5432938686
 31
0.0
  0
LINE
  5
7E
330
1F
100
AcDbEntity
  8
0
  6
Continuous
 62
     7
370
    25
100
AcDbLine
 10
39.5762668497
 20
148.4751735453
 30
0.0
 11
38.4943779127
 21
144.8804501704
 31
0.0
  0
LINE
  5
7F
330
1F
100
AcDbEntity
  8
0
  6
Continuous
 62
     7
370
    25
100
AcDbLine
 10
44.7002051764
 20
146.9330431472
 30
0.0
 11
39.5762668497
 21
148.4751735453
 31
0.0
  0
ARC
  5
80
330
1F
100
AcDbEntity
  8
0
  6
Continuous
 62
     7
370
    25
100
AcDbCircle
 10
44.6050705463
 20
150.3175058655
 30
0.0
 40
3.385799534736014
100
AcDbArc
 50
271.6101160839
 51
324.9425046726
  0
LINE
  5
81
330
1F
100
AcDbEntity
  8
0
  6
Continuous
 62
     7
370
    25
100
AcDbLine
 10
50.7319963228
 20
147.3628506979
 30
0.0
 11
47.3766049822
 21
148.3727088684
 31
0.0
  0
LINE
  5
82
330
1F
100
AcDbEntity
  8
0
  6
Continuous
 62
     7
370
    25
100
AcDbLine
 10
49.8590683467
 20
144.4624285816
 30
0.0
 11
50.7319963228
 21
147.3628506979
 31
0.0
  0
ARC
  5
83
330
1F
100
AcDbEntity
  8
0
  6
Continuous
 62
     7
370
    25
100
AcDbCircle
 10
47.6209281497
 20
163.1964837554
 30
0.0
 40
3.953166873795036
100
AcDbArc
 50
268.4335524762
 51
330.3644786353
  0
LINE
  5
84
330
1F
100
AcDbEntity
  8
0
  6
Continuous
 62
     7
370
    25
100
AcDbLine
 10
39.6858704384
 20
161.4117212227
 30
0.0
 11
47.5128633478
 21
159.2447942014
 31
0.0
  0
LINE
  5
85
330
1F
100
AcDbEntity
  8
0
  6
Continuous
 62
     7
370
    25
100
AcDbLine
 10
40.6890834379
 20
165.0291904336
 30
0.0
 11
39.6858704384
 21
161.4117212227
 31
0.0
  0
LINE
  5
86
330
1F
100
AcDbEntity
  8
0
  6
Continuous
 62
     7
370
    25
100
AcDbLine
 10
45.8454438034
 20
163.5992051462
 30
0.0
 11
40.6890834379
 21
165.0291904336
 31
0.0
  0
ARC
  5
87
330
1F
100
AcDbEntity
  8
0
  6
Continuous
 62
     7
370
    25
100
AcDbCircle
 10
45.6765001477
 20
166.980787103
 30
0.0
 40
3.385799534736023
100
AcDbArc
 50
272.8601160839
 51
326.1925046726
  0
LINE
  5
88
330
1F
100
AcDbEntity
  8
0
  6
Continuous
 62
     7
370
    25
100
AcDbLine
 10
51.8664233446
 20
164.1604932448
 30
0.0
 11
48.4898005564
 21
165.09691362
 31
0.0
  0
LINE
  5
89
330
1F
100
AcDbEntity
  8
0
  6
Continuous
 62
     7
370
    25
100
AcDbLine
 10
51.0569754767
 20
161.241718527
 30
0.0
 11
51.8664233446
 21
164.1604932448
 31
0.0
  0
ARC
  5
8A
330
1F
100
AcDbEntity
  8
0
  6
Continuous
 62
     7
370
    25
100
AcDbCircle
 10
-50.6714431246
 20
145.0908445785
 30
0.0
 40
3.953166873795025
100
AcDbArc
 50
304.0335524762
 51
5.9644786353
  0
LINE
  5
8B
330
1F
100
AcDbEntity
  8
0
  6
Continuous
 62
     7
370
    25
100
AcDbLine
 10
-56.084493322
 20
139.0204734417
 30
0.0
 11
-48.4589414369
 21
141.8148157914
 31
0.0
  0
LINE
  5
8C
330
1F
100
AcDbEntity
  8
0
  6
Continuous
 62
     7
370
    25
100
AcDbLine
 10
-57.3745919901
 20
142.5458337411
 30
0.0
 11
-56.084493322
 21
139.0204734417
 31
0.0
  0
LINE
  5
8D
330
1F
100
AcDbEntity
  8
0
  6
Continuous
 62
     7
370
    25
100
AcDbLine
 10
-52.3495241699
 20
144.3847474268
 30
0.0
 11
-57.3745919901
 21
142.5458337411
 31
0.0
  0
ARC
  5
8E
330
1F
100
AcDbEntity
  8
0
  6
Continuous
 62
     7
370
    25
100
AcDbCircle
 10
-54.4553889175
 20
147.0359683068
 30
0.0
 40
3.385799534736055
100
AcDbArc
 50
308.4601160839
 51
1.7925046726
  0
LINE
  5
8F
330
1F
100
AcDbEntity
  8
0
  6
Continuous
 62
     7
370
    25
100
AcDbLine
 10
-47.7805998178
 20
148.3460817007
 30
0.0
 11
-51.0712461868
 21
147.1418761339
 31
0.0
  0
LINE
  5
90
330
1F
100
AcDbEntity
  8
0
  6
Continuous
 62
     7
370
    25
100
AcDbLine
 10
-46.7396766872
 20
145.5016255593
 30
0.0
 11
-47.7805998178
 21
148.3460817007
 31
0.0
  0
ARC
  5
91
330
1F
100
AcDbEntity
  8
0
  6
Continuous
 62
     7
370
    25
100
AcDbCircle
 10
-77.2656231367
 20
169.5447447661
 30
0.0
 40
3.953166873795028
100
AcDbArc
 50
309.1335524762
 51
11.0644786353
  0
LINE
  5
92
330
1F
100
AcDbEntity
  8
0
  6
Continuous
 62
     7
370
    25
100
AcDbLine
 10
-82.1176220485
 20
163.0172165403
 30
0.0
 11
-74.7706603229
 21
166.4783643445
 31
0.0
  0
LINE
  5
93
330
1F
100
AcDbEntity
  8
0
  6
Continuous
 62
     7
370
    25
100
AcDbLine
 10
-83.7159977254
 20
166.4139377549
 30
0.0
 11
-82.1176220485
 21
163.0172165403
 31
0.0
  0
LINE
  5
94
330
1F
100
AcDbEntity
  8
0
  6
Continuous
 62
     7
370
    25
100
AcDbLine
 10
-78.8742927591
 20
168.6922711722
 30
0.0
 11
-83.7159977254
 21
166.4139377549
 31
0.0
  0
ARC
  5
95
330
1F
100
AcDbEntity
  8
0
  6
Continuous
 62
     7
370
    25
100
AcDbCircle
 10
-81.2074989418
 20
171.1457966761
 30
0.0
 40
3.385799534736076
100
AcDbArc
 50
313.5601160839
 51
6.8925046726
  0
LINE
  5
96
330
1F
100
AcDbEntity
  8
0
  6
Continuous
 62
     7
370
    25
100
AcDbLine
 10
-74.6755965046
 20
173.0440741006
 30
0.0
 11
-77.8461684127
 21
171.5521162096
 31
0.0
  0
LINE
  5
97
330
1F
100
AcDbEntity
  8
0
  6
Continuous
 62
     7
370
    25
100
AcDbLine
 10
-73.3859383919
 20
170.3034111048
 30
0.0
 11
-74.6755965046
 21
173.0440741006
 31
0.0
  0
ARC
  5
98
330
1F
100
AcDbEntity
  8
0
  6
Continuous
 62
     7
370
    25
100
AcDbCircle
 10
79.1506137673
 20
131.7350692004
 30
0.0
 40
3.953166873794999
100
AcDbArc
 50
253.7835524762
 51
315.7144786353
  0
LINE
  5
99
330
1F
100
AcDbEntity
  8
0
  6
Continuous
 62
     7
370
    25
100
AcDbLine
 10
71.0221430851
 20
132.01521657
 30
0.0
 11
78.0466256637
 21
127.9391847713
 31
0.0
  0
LINE
  5
9A
330
1F
100
AcDbEntity
  8
0
  6
Continuous
 62
     7
370
    25
100
AcDbLine
 10
72.9076481517
 20
135.261351265
 30
0.0
 11
71.0221430851
 21
132.01521657
 31
0.0
  0
LINE
  5
9B
330
1F
100
AcDbEntity
  8
0
  6
Continuous
 62
     7
370
    25
100
AcDbLine
 10
77.5347062707
 20
132.5737420477
 30
0.0
 11
72.9076481517
 21
135.261351265
 31
0.0
  0
ARC
  5
9C
330
1F
100
AcDbEntity
  8
0
  6
Continuous
 62
     7
370
    25
100
AcDbCircle
 10
78.2265037367
 20
135.8881129919
 30
0.0
 40
3.385799534736043
100
AcDbArc
 50
258.2101160839
 51
311.5425046726
  0
LINE
  5
9D
330
1F
100
AcDbEntity
  8
0
  6
Continuous
 62
     7
370
    25
100
AcDbLine
 10
83.5018941991
 20
131.5939935129
 30
0.0
 11
80.4718829548
 21
133.3539640901
 31
0.0
  0
LINE
  5
9E
330
1F
100
AcDbEntity
  8
0
  6
Continuous
 62
     7
370
    25
100
AcDbLine
 10
81.9805641758
 20
128.9748320699
 30
0.0
 11
83.5018941991
 21
131.5939935129
 31
0.0
  0
ARC
  5
9F
330
1F
100
AcDbEntity
  8
0
  6
Continuous
 62
     7
370
    25
100
AcDbCircle
 10
63.2404403093
 20
140.069963208
 30
0.0
 40
3.953166873795066
100
AcDbArc
 50
260.4835524762
 51
322.4144786353
  0
LINE
  5
A0
330
1F
100
AcDbEntity
  8
0
  6
Continuous
 62
     7
370
    25
100
AcDbLine
 10
55.1347968021
 20
139.399842687
 30
0.0
 11
62.5868603617
 21
136.1711990982
 31
0.0
  0
LINE
  5
A1
330
1F
100
AcDbEntity
  8
0
  6
Continuous
 62
     7
370
    25
100
AcDbLine
 10
56.6286961662
 20
142.8437916564
 30
0.0
 11
55.1347968021
 21
139.399842687
 31
0.0
  0
LINE
  5
A2
330
1F
100
AcDbEntity
  8
0
  6
Continuous
 62
     7
370
    25
100
AcDbLine
 10
61.5377198321
 20
140.7143793457
 30
0.0
 11
56.6286961662
 21
142.8437916564
 31
0.0
  0
ARC
  5
A3
330
1F
100
AcDbEntity
  8
0
  6
Continuous
 62
     7
370
    25
100
AcDbCircle
 10
61.8381026697
 20
144.0868278094
 30
0.0
 40
3.385799534736062
100
AcDbArc
 50
264.9101160839
 51
318.2425046726
  0
LINE
  5
A4
330
1F
100
AcDbEntity
  8
0
  6
Continuous
 62
     7
370
    25
100
AcDbLine
 10
67.5784637266
 20
140.437518071
 30
0.0
 11
64.3638084265
 21
141.8319555471
 31
0.0
  0
LINE
  5
A5
330
1F
100
AcDbEntity
  8
0
  6
Continuous
 62
     7
370
    25
100
AcDbLine
 10
66.3731028954
 20
137.6587491042
 30
0.0
 11
67.5784637266
 21
140.437518071
 31
0.0
  0
ARC
  5
A6
330
1F
100
AcDbEntity
  8
0
  6
Continuous
 62
     7
370
    25
100
AcDbCircle
 10
29.0578545168
 20
150.912522422
 30
0.0
 40
3.953166873794995
100
AcDbArc
 50
273.8835524762
 51
335.8144786353
  0
LINE
  5
A7
330
1F
100
AcDbEntity
  8
0
  6
Continuous
 62
     7
370
    25
100
AcDbLine
 10
21.3281790614
 20
148.3821794543
 30
0.0
 11
29.3255981179
 21
146.9684329585
 31
0.0
  0
LINE
  5
A8
330
1F
100
AcDbEntity
  8
0
  6
Continuous
 62
     7
370
    25
100
AcDbLine
 10
21.9832803739
 20
152.0785779832
 30
0.0
 11
21.3281790614
 21
148.3821794543
 31
0.0
  0
LINE
  5
A9
330
1F
100
AcDbEntity
  8
0
  6
Continuous
 62
     7
370
    25
100
AcDbLine
 10
27.2521470203
 20
151.1447929955
 30
0.0
 11
21.9832803739
 21
152.0785779832
 31
0.0
  0
ARC
  5
AA
330
1F
100
AcDbEntity
  8
0
  6
Continuous
 62
     7
370
    25
100
AcDbCircle
 10
26.7627943379
 20
154.4950426043
 30
0.0
 40
3.385799534735986
100
AcDbArc
 50
278.3101160839
 51
331.6425046726
  0
LINE
  5
AB
330
1F
100
AcDbEntity
  8
0
  6
Continuous
 62
     7
370
    25
100
AcDbLine
 10
33.1925989873
 20
152.2753987589
 30
0.0
 11
29.742301893
 21
152.886884273
 31
0.0
  0
LINE
  5
AC
330
1F
100
AcDbEntity
  8
0
  6
Continuous
 62
     7
370
    25
100
AcDbLine
 10
32.6640269285
 20
149.2929394913
 30
0.0
 11
33.1925989873
 21
152.2753987589
 31
0.0
  0
ARC
  5
AD
330
1F
100
AcDbEntity
  8
0
  6
Continuous
 62
     7
370
    25
100
AcDbCircle
 10
11.2523316972
 20
153.2720877665
 30
0.0
 40
3.953166873795006
100
AcDbArc
 50
280.5835524762
 51
342.5144786353
  0
LINE
  5
AE
330
1F
100
AcDbEntity
  8
0
  6
Continuous
 62
     7
370
    25
100
AcDbLine
 10
3.8706618836
 20
149.8571984648
 30
0.0
 11
11.9784066083
 21
149.3861717155
 31
0.0
  0
LINE
  5
AF
330
1F
100
AcDbEntity
  8
0
  6
Continuous
 62
     7
370
    25
100
AcDbLine
 10
4.0900277386
 20
153.6047841458
 30
0.0
 11
3.8706618836
 21
149.8571984648
 31
0.0
  0
LINE
  5
B0
330
1F
100
AcDbEntity
  8
0
  6
Continuous
 62
     7
370
    25
100
AcDbLine
 10
9.431856831
 20
153.2920988582
 30
0.0
 11
4.0900277386
 21
153.6047841458
 31
0.0
  0
ARC
  5
B1
330
1F
100
AcDbEntity
  8
0
  6
Continuous
 62
     7
370
    25
100
AcDbCircle
 10
8.5549700182
 20
156.5623753002
 30
0.0
 40
3.385799534736072
100
AcDbArc
 50
285.0101160839
 51
338.3425046726
  0
LINE
  5
B2
330
1F
100
AcDbEntity
  8
0
  6
Continuous
 62
     7
370
    25
100
AcDbLine
 10
15.1998307618
 20
155.1080602284
 30
0.0
 11
11.7017544899
 21
155.3128209884
 31
0.0
  0
LINE
  5
B3
330
1F
100
AcDbEntity
  8
0
  6
Continuous
 62
     7
370
    25
100
AcDbLine
 10
15.0228342279
 20
152.0843003286
 30
0.0
 11
15.1998307618
 21
155.1080602284
 31
0.0
  0
ARC
  5
B4
330
1F
100
AcDbEntity
  8
0
  6
Continuous
 62
     7
370
    25
100
AcDbCircle
 10
-6.7068836422
 20
153.5381536021
 30
0.0
 40
3.953166873795026
100
AcDbArc
 50
287.2835524762
 51
349.2144786353
  0
LINE
  5
B5
330
1F
100
AcDbEntity
  8
0
  6
Continuous
 62
     7
370
    25
100
AcDbLine
 10
-13.6397237937
 20
149.2853609181
 30
0.0
 11
-5.5323946611
 21
149.7634875287
 31
0.0
  0
LINE
  5
B6
330
1F
100
AcDbEntity
  8
0
  6
Continuous
 62
     7
370
    25
100
AcDbLine
 10
-13.8590896487
 20
153.032946599
 30
0.0
 11
-13.6397237937
 21
149.2853609181
 31
0.0
  0
LINE
  5
B7
330
1F
100
AcDbEntity
  8
0
  6
Continuous
 62
     7
370
    25
100
AcDbLine
 10
-8.5172605563
 20
153.3456318865
 30
0.0
 11
-13.8590896487
 21
153.032946599
 31
0.0
  0
ARC
  5
B8
330
1F
100
AcDbEntity
  8
0
  6
Continuous
 62
     7
370
    25
100
AcDbCircle
 10
-9.7697043648
 20
156.4912674338
 30
0.0
 40
3.385799534736012
100
AcDbArc
 50
291.7101160839
 51
345.0425046726
  0
LINE
  5
B9
330
1F
100
AcDbEntity
  8
0
  6
Continuous
 62
     7
370
    25
100
AcDbLine
 10
-3.0005476925
 20
155.8221451901
 30
0.0
 11
-6.4986239644
 21
155.6173844301
 31
0.0
  0
LINE
  5
BA
330
1F
100
AcDbEntity
  8
0
  6
Continuous
 62
     7
370
    25
100
AcDbLine
 10
-2.8235511587
 20
152.7983852904
 30
0.0
 11
-3.0005476925
 21
155.8221451901
 31
0.0
  0
ARC
  5
BB
330
1F
100
AcDbEntity
  8
0
  6
Continuous
 62
     7
370
    25
100
AcDbCircle
 10
-24.5744852497
 20
151.7070944851
 30
0.0
 40
3.953166873795031
100
AcDbArc
 50
293.9835524762
 51
355.9144786353
  0
LINE
  5
BC
330
1F
100
AcDbEntity
  8
0
  6
Continuous
 62
     7
370
    25
100
AcDbLine
 10
-30.9638021489
 20
146.6744860422
 30
0.0
 11
-22.9676241924
 21
148.0952354244
 31
0.0
  0
LINE
  5
BD
330
1F
100
AcDbEntity
  8
0
  6
Continuous
 62
     7
370
    25
100
AcDbLine
 10
-31.6189034614
 20
150.3708845711
 30
0.0
 11
-30.9638021489
 21
146.6744860422
 31
0.0
  0
LINE
  5
BE
330
1F
100
AcDbEntity
  8
0
  6
Continuous
 62
     7
370
    25
100
AcDbLine
 10
-26.350036815
 20
151.3046695589
 30
0.0
 11
-31.6189034614
 21
150.3708845711
 31
0.0
  0
ARC
  5
BF
330
1F
100
AcDbEntity
  8
0
  6
Continuous
 62
     7
370
    25
100
AcDbCircle
 10
-27.9609308636
 20
154.2826989162
 30
0.0
 40
3.385799534736043
100
AcDbArc
 50
298.4101160839
 51
351.7425046726
  0
LINE
  5
C0
330
1F
100
AcDbEntity
  8
0
  6
Continuous
 62
     7
370
    25
100
AcDbLine
 10
-21.1599361493
 20
154.4079088414
 30
0.0
 11
-24.6102332436
 21
153.7964233272
 31
0.0
  0
LINE
  5
C1
330
1F
100
AcDbEntity
  8
0
  6
Continuous
 62
     7
370
    25
100
AcDbLine
 10
-20.6313640905
 20
151.4254495738
 30
0.0
 11
-21.1599361493
 21
154.4079088414
 31
0.0
  0
ARC
  5
C2
330
1F
100
AcDbEntity
  8
0
  6
Continuous
 62
     7
370
    25
100
AcDbCircle
 10
31.176839831
 20
167.1192696821
 30
0.0
 40
3.953166873795027
100
AcDbArc
 50
274.1335524762
 51
336.0644786353
  0
LINE
  5
C3
330
1F
100
AcDbEntity
  8
0
  6
Continuous
 62
     7
370
    25
100
AcDbLine
 10
23.4582786255
 20
164.5552238369
 30
0.0
 11
31.4617901655
 21
163.1763860117
 31
0.0
  0
LINE
  5
C4
330
1F
100
AcDbEntity
  8
0
  6
Continuous
 62
     7
370
    25
100
AcDbLine
 10
24.0972451718
 20
168.2544455884
 30
0.0
 11
23.4582786255
 21
164.5552238369
 31
0.0
  0
LINE
  5
C5
330
1F
100
AcDbEntity
  8
0
  6
Continuous
 62
     7
370
    25
100
AcDbLine
 10
29.3701360551
 20
167.3436591843
 30
0.0
 11
24.0972451718
 21
168.2544455884
 31
0.0
  0
ARC
  5
C6
330
1F
100
AcDbEntity
  8
0
  6
Continuous
 62
     7
370
    25
100
AcDbCircle
 10
28.8661698558
 20
170.6917417041
 30
0.0
 40
3.385799534736048
100
AcDbArc
 50
278.5601160839
 51
331.8925046726
  0
LINE
  5
C7
330
1F
100
AcDbEntity
  8
0
  6
Continuous
 62
     7
370
    25
100
AcDbLine
 10
35.3055982907
 20
168.5001742144
 30
0.0
 11
31.8526659403
 21
169.0965991943
 31
0.0
  0
LINE
  5
C8
330
1F
100
AcDbEntity
  8
0
  6
Continuous
 62
     7
370
    25
100
AcDbLine
 10
34.7900446557
 20
165.5154370143
 30
0.0
 11
35.3055982907
 21
168.5001742144
 31
0.0
  0
ARC
  5
C9
330
1F
100
AcDbEntity
  8
0
  6
Continuous
 62
     7
370
    25
100
AcDbCircle
 10
14.4244410436
 20
169.3894335947
 30
0.0
 40
3.953166873795007
100
AcDbArc
 50
279.8335524762
 51
341.7644786353
  0
LINE
  5
CA
330
1F
100
AcDbEntity
  8
0
  6
Continuous
 62
     7
370
    25
100
AcDbLine
 10
6.9987041156
 20
166.0714599274
 30
0.0
 11
15.0995886806
 21
165.4943464326
 31
0.0
  0
LINE
  5
CB
330
1F
100
AcDbEntity
  8
0
  6
Continuous
 62
     7
370
    25
100
AcDbLine
 10
7.267105558
 20
169.8158531332
 30
0.0
 11
6.9987041156
 21
166.0714599274
 31
0.0
  0
LINE
  5
CC
330
1F
100
AcDbEntity
  8
0
  6
Continuous
 62
     7
370
    25
100
AcDbLine
 10
12.604384079
 20
169.4332722518
 30
0.0
 11
7.267105558
 21
169.8158531332
 31
0.0
  0
ARC
  5
CD
330
1F
100
AcDbEntity
  8
0
  6
Continuous
 62
     7
370
    25
100
AcDbCircle
 10
11.7703789872
 20
172.714746615
 30
0.0
 40
3.385799534736005
100
AcDbArc
 50
284.2601160839
 51
337.5925046726
  0
LINE
  5
CE
330
1F
100
AcDbEntity
  8
0
  6
Continuous
 62
     7
370
    25
100
AcDbLine
 10
18.3956340534
 20
171.1735775981
 30
0.0
 11
14.9005377057
 21
171.4241092195
 31
0.0
  0
LINE
  5
CF
330
1F
100
AcDbEntity
  8
0
  6
Continuous
 62
     7
370
    25
100
AcDbLine
 10
18.1790728891
 20
168.1523935643
 30
0.0
 11
18.3956340534
 21
171.1735775981
 31
0.0
  0
ARC
  5
D0
330
1F
100
AcDbEntity
  8
0
  6
Continuous
 62
     7
370
    25
100
AcDbCircle
 10
-2.4705949007
 20
169.9845345974
 30
0.0
 40
3.953166873794992
100
AcDbArc
 50
285.5335524762
 51
347.4644786353
  0
LINE
  5
D1
330
1F
100
AcDbEntity
  8
0
  6
Continuous
 62
     7
370
    25
100
AcDbLine
 10
-9.5300754776
 20
165.9454440855
 30
0.0
 11
-1.4119264018
 21
166.1757619156
 31
0.0
  0
LINE
  5
D2
330
1F
100
AcDbEntity
  8
0
  6
Continuous
 62
     7
370
    25
100
AcDbLine
 10
-9.6348933235
 20
169.6979809651
 30
0.0
 11
-9.5300754776
 21
165.9454440855
 31
0.0
  0
LINE
  5
D3
330
1F
100
AcDbEntity
  8
0
  6
Continuous
 62
     7
370
    25
100
AcDbLine
 10
-4.2860067654
 20
169.8473888951
 30
0.0
 11
-9.6348933235
 21
169.6979809651
 31
0.0
  0
ARC
  5
D4
330
1F
100
AcDbEntity
  8
0
  6
Continuous
 62
     7
370
    25
100
AcDbCircle
 10
-5.4418033899
 20
173.0298050609
 30
0.0
 40
3.385799534736071
100
AcDbArc
 50
289.9601160839
 51
343.2925046726
  0
LINE
  5
D5
330
1F
100
AcDbEntity
  8
0
  6
Continuous
 62
     7
370
    25
100
AcDbLine
 10
1.3037620872
 20
172.1542749215
 30
0.0
 11
-2.1989357391
 21
172.0564357122
 31
0.0
  0
LINE
  5
D6
330
1F
100
AcDbEntity
  8
0
  6
Continuous
 62
     7
370
    25
100
AcDbLine
 10
1.3883349366
 20
169.1265201201
 30
0.0
 11
1.3037620872
 21
172.1542749215
 31
0.0
  0
ARC
  5
D7
330
1F
100
AcDbEntity
  8
0
  6
Continuous
 62
     7
370
    25
100
AcDbCircle
 10
-19.3411991202
 20
168.898675995
 30
0.0
 40
3.953166873795001
100
AcDbArc
 50
291.2335524762
 51
353.1644786353
  0
LINE
  5
D8
330
1F
100
AcDbEntity
  8
0
  6
Continuous
 62
     7
370
    25
100
AcDbLine
 10
-25.9646131304
 20
164.1784106393
 30
0.0
 11
-17.909478784
 21
165.2138822136
 31
0.0
  0
LINE
  5
D9
330
1F
100
AcDbEntity
  8
0
  6
Continuous
 62
     7
370
    25
100
AcDbLine
 10
-26.4416137356
 20
167.9019828806
 30
0.0
 11
-25.9646131304
 21
164.1784106393
 31
0.0
  0
LINE
  5
DA
330
1F
100
AcDbEntity
  8
0
  6
Continuous
 62
     7
370
    25
100
AcDbLine
 10
-21.1340135311
 20
168.5819021479
 30
0.0
 11
-26.4416137356
 21
167.9019828806
 31
0.0
  0
ARC
  5
DB
330
1F
100
AcDbEntity
  8
0
  6
Continuous
 62
     7
370
    25
100
AcDbCircle
 10
-22.6001721772
 20
171.6337896481
 30
0.0
 40
3.385799534736025
100
AcDbArc
 50
295.6601160839
 51
348.9925046726
  0
LINE
  5
DC
330
1F
100
AcDbEntity
  8
0
  6
Continuous
 62
     7
370
    25
100
AcDbLine
 10
-15.8010022424
 20
171.4325563813
 30
0.0
 11
-19.2766638585
 21
170.9873138596
 31
0.0
  0
LINE
  5
DD
330
1F
100
AcDbEntity
  8
0
  6
Continuous
 62
     7
370
    25
100
AcDbLine
 10
-15.4161317084
 20
168.428171856
 30
0.0
 11
-15.8010022424
 21
171.4325563813
 31
0.0
  0
ARC
  5
DE
330
1F
100
AcDbEntity
  8
0
  6
Continuous
 62
     7
370
    25
100
AcDbCircle
 10
-36.0205435709
 20
166.1426055026
 30
0.0
 40
3.953166873795026
100
AcDbArc
 50
296.9335524762
 51
358.8644786353
  0
LINE
  5
DF
330
1F
100
AcDbEntity
  8
0
  6
Continuous
 62
     7
370
    25
100
AcDbLine
 10
-42.1423930001
 20
160.7878433468
 30
0.0
 11
-34.2299294796
 21
162.6182290318
 31
0.0
  0
LINE
  5
E0
330
1F
100
AcDbEntity
  8
0
  6
Continuous
 62
     7
370
    25
100
AcDbLine
 10
-42.9868593724
 20
164.445629065
 30
0.0
 11
-42.1423930001
 21
160.7878433468
 31
0.0
  0
LINE
  5
E1
330
1F
100
AcDbEntity
  8
0
  6
Continuous
 62
     7
370
    25
100
AcDbLine
 10
-37.7730316372
 20
165.6493360431
 30
0.0
 11
-42.9868593724
 21
164.445629065
 31
0.0
  0
ARC
  5
E2
330
1F
100
AcDbEntity
  8
0
  6
Continuous
 62
     7
370
    25
100
AcDbCircle
 10
-39.5350536672
 20
168.5405151892
 30
0.0
 40
3.385799534736009
100
AcDbArc
 50
301.3601160839
 51
354.6925046726
  0
LINE
  5
E3
330
1F
100
AcDbEntity
  8
0
  6
Continuous
 62
     7
370
    25
100
AcDbLine
 10
-32.7495153147
 20
169.0155687626
 30
0.0
 11
-36.1637703893
 21
168.2273258695
 31
0.0
  0
LINE
  5
E4
330
1F
100
AcDbEntity
  8
0
  6
Continuous
 62
     7
370
    25
100
AcDbLine
 10
-32.068153027
 20
166.0642644515
 30
0.0
 11
-32.7495153147
 21
169.0155687626
 31
0.0
  0
ARC
  5
E5
330
1F
100
AcDbEntity
  8
0
  6
Continuous
 62
     7
370
    25
100
AcDbCircle
 10
92.0488406697
 20
161.9950869328
 30
0.0
 40
3.953166873794987
100
AcDbArc
 50
255.0275524762
 51
316.9584786353
  0
LINE
  5
E6
330
1F
100
AcDbEntity
  8
0
  6
Continuous
 62
     7
370
    25
100
AcDbLine
 10
83.9162037662
 20
162.0986976297
 30
0.0
 11
91.0275221418
 21
158.1761293792
 31
0.0
  0
LINE
  5
E7
330
1F
100
AcDbEntity
  8
0
  6
Continuous
 62
     7
370
    25
100
AcDbLine
 10
85.7307902294
 20
165.3850019038
 30
0.0
 11
83.9162037662
 21
162.0986976297
 31
0.0
  0
LINE
  5
E8
330
1F
100
AcDbEntity
  8
0
  6
Continuous
 62
     7
370
    25
100
AcDbLine
 10
90.4151062858
 20
162.7984804511
 30
0.0
 11
85.7307902294
 21
165.3850019038
 31
0.0
  0
ARC
  5
E9
330
1F
100
AcDbEntity
  8
0
  6
Continuous
 62
     7
370
    25
100
AcDbCircle
 10
91.0347850761
 20
166.1270892725
 30
0.0
 40
3.385799534735999
100
AcDbArc
 50
259.4541160839
 51
312.7865046726
  0
LINE
  5
EA
330
1F
100
AcDbEntity
  8
0
  6
Continuous
 62
     7
370
    25
100
AcDbLine
 10
96.402158311
 20
161.9485116212
 30
0.0
 11
93.3346519263
 21
163.6422852639
 31
0.0
  0
LINE
  5
EB
330
1F
100
AcDbEntity
  8
0
  6
Continuous
 62
     7
370
    25
100
AcDbLine
 10
94.9380493488
 20
159.2969391347
 30
0.0
 11
96.402158311
 21
161.9485116212
 31
0.0
  0
ARC
  5
EC
330
1F
100
AcDbEntity
  8
0
  6
Continuous
 62
     7
370
    25
100
AcDbCircle
 10
54.7861162835
 20
178.0839093669
 30
0.0
 40
3.953166873795027
100
AcDbArc
 50
267.5335524762
 51
329.4644786353
  0
LINE
  5
ED
330
1F
100
AcDbEntity
  8
0
  6
Continuous
 62
     7
370
    25
100
AcDbLine
 10
46.8240036691
 20
176.4240054854
 30
0.0
 11
54.6159943716
 21
174.1344047313
 31
0.0
  0
LINE
  5
EE
330
1F
100
AcDbEntity
  8
0
  6
Continuous
 62
     7
370
    25
100
AcDbLine
 10
47.8839136415
 20
180.0252706331
 30
0.0
 11
46.8240036691
 21
176.4240054854
 31
0.0
  0
LINE
  5
EF
330
1F
100
AcDbEntity
  8
0
  6
Continuous
 62
     7
370
    25
100
AcDbLine
 10
53.017176647
 20
178.514469171
 30
0.0
 11
47.8839136415
 21
180.0252706331
 31
0.0
  0
ARC
  5
F0
330
1F
100
AcDbEntity
  8
0
  6
Continuous
 62
     7
370
    25
100
AcDbCircle
 10
52.9013694142
 20
181.8982876021
 30
0.0
 40
3.385799534736048
100
AcDbArc
 50
271.9601160839
 51
325.2925046726
  0
LINE
  5
F1
330
1F
100
AcDbEntity
  8
0
  6
Continuous
 62
     7
370
    25
100
AcDbLine
 10
59.0462297251
 20
178.9811145888
 30
0.0
 11
55.6847321544
 21
179.9704571257
 31
0.0
  0
LINE
  5
F2
330
1F
100
AcDbEntity
  8
0
  6
Continuous
 62
     7
370
    25
100
AcDbLine
 10
58.1910355962
 20
176.0754142074
 30
0.0
 11
59.0462297251
 21
178.9811145888
 31
0.0
  0
ARC
  5
F3
330
1F
100
AcDbEntity
  8
0
  6
Continuous
 62
     7
370
    25
100
AcDbCircle
 10
38.4204330651
 20
182.3163926283
 30
0.0
 40
3.953166873795
100
AcDbArc
 50
272.7335524762
 51
334.6644786353
  0
LINE
  5
F4
330
1F
100
AcDbEntity
  8
0
  6
Continuous
 62
     7
370
    25
100
AcDbLine
 10
30.6415307041
 20
179.9416934393
 30
0.0
 11
38.6089651028
 21
178.3677239915
 31
0.0
  0
LINE
  5
F5
330
1F
100
AcDbEntity
  8
0
  6
Continuous
 62
     7
370
    25
100
AcDbLine
 10
31.3706865572
 20
183.6241995908
 30
0.0
 11
30.6415307041
 21
179.9416934393
 31
0.0
  0
LINE
  5
F6
330
1F
100
AcDbEntity
  8
0
  6
Continuous
 62
     7
370
    25
100
AcDbLine
 10
36.6197509331
 20
182.5848568564
 30
0.0
 11
31.3706865572
 21
183.6241995908
 31
0.0
  0
ARC
  5
F7
330
1F
100
AcDbEntity
  8
0
  6
Continuous
 62
     7
370
    25
100
AcDbCircle
 10
36.1977361213
 20
185.9442529313
 30
0.0
 40
3.385799534736056
100
AcDbArc
 50
277.1601160839
 51
330.4925046726
  0
LINE
  5
F8
330
1F
100
AcDbEntity
  8
0
  6
Continuous
 62
     7
370
    25
100
AcDbLine
 10
42.5816975537
 20
183.5960103842
 30
0.0
 11
39.1443679003
 21
184.2766199834
 31
0.0
  0
LINE
  5
F9
330
1F
100
AcDbEntity
  8
0
  6
Continuous
 62
     7
370
    25
100
AcDbLine
 10
41.9933741858
 20
180.6247602569
 30
0.0
 11
42.5816975537
 21
183.5960103842
 31
0.0
  0
ARC
  5
FA
330
1F
100
AcDbEntity
  8
0
  6
Continuous
 62
     7
370
    25
100
AcDbCircle
 10
21.7385049707
 20
185.0481930701
 30
0.0
 40
3.953166873795029
100
AcDbArc
 50
277.9335524762
 51
339.8644786353
  0
LINE
  5
FB
330
1F
100
AcDbEntity
  8
0
  6
Continuous
 62
     7
370
    25
100
AcDbLine
 10
14.2068425858
 20
181.9782452044
 30
0.0
 11
22.2841391126
 21
181.1328627245
 31
0.0
  0
LINE
  5
FC
330
1F
100
AcDbEntity
  8
0
  6
Continuous
 62
     7
370
    25
100
AcDbLine
 10
14.59924249
 20
185.7116809048
 30
0.0
 11
14.2068425858
 21
181.9782452044
 31
0.0
  0
LINE
  5
FD
330
1F
100
AcDbEntity
  8
0
  6
Continuous
 62
     7
370
    25
100
AcDbLine
 10
19.9209021229
 20
185.1523519387
 30
0.0
 11
14.59924249
 21
185.7116809048
 31
0.0
  0
ARC
  5
FE
330
1F
100
AcDbEntity
  8
0
  6
Continuous
 62
     7
370
    25
100
AcDbCircle
 10
19.1961534218
 20
188.4596737872
 30
0.0
 40
3.385799534736006
100
AcDbArc
 50
282.3601160839
 51
335.6925046726
  0
LINE
  5
FF
330
1F
100
AcDbEntity
  8
0
  6
Continuous
 62
     7
370
    25
100
AcDbLine
 10
25.7666682946
 20
186.6996905669
 30
0.0
 11
22.2817999158
 21
187.0659649929
 31
0.0
  0
LINE
  5
100
330
1F
100
AcDbEntity
  8
0
  6
Continuous
 62
     7
370
    25
100
AcDbLine
 10
25.4500582966
 20
183.6873476559
 30
0.0
 11
25.7666682946
 21
186.6996905669
 31
0.0
  0
ARC
  5
101
330
1F
100
AcDbEntity
  8
0
  6
Continuous
 62
     7
370
    25
100
AcDbCircle
 10
4.8776406431
 20
186.2568254777
 30
0.0
 40
3.953166873795
100
AcDbArc
 50
283.1335524762
 51
345.0644786353
  0
LINE
  5
102
330
1F
100
AcDbEntity
  8
0
  6
Continuous
 62
     7
370
    25
100
AcDbLine
 10
-2.3447871256
 20
182.5168982985
 30
0.0
 11
5.7758856639
 21
182.4070613012
 31
0.0
  0
LINE
  5
103
330
1F
100
AcDbEntity
  8
0
  6
Continuous
 62
     7
370
    25
100
AcDbLine
 10
-2.2923730935
 20
186.2705328816
 30
0.0
 11
-2.3447871256
 21
182.5168982985
 31
0.0
  0
LINE
  5
104
330
1F
100
AcDbEntity
  8
0
  6
Continuous
 62
     7
370
    25
100
AcDbLine
 10
3.058078137
 20
186.1958216341
 30
0.0
 11
-2.2923730935
 21
186.2705328816
 31
0.0
  0
ARC
  5
105
330
1F
100
AcDbEntity
  8
0
  6
Continuous
 62
     7
370
    25
100
AcDbCircle
 10
2.0365611
 20
189.4238460194
 30
0.0
 40
3.385799534736026
100
AcDbArc
 50
287.5601160839
 51
340.8925046726
  0
LINE
  5
106
330
1F
100
AcDbEntity
  8
0
  6
Continuous
 62
     7
370
    25
100
AcDbLine
 10
8.7395461731
 20
188.2666089046
 30
0.0
 11
5.2358237271
 21
188.3155332782
 31
0.0
  0
LINE
  5
107
330
1F
100
AcDbEntity
  8
0
  6
Continuous
 62
     7
370
    25
100
AcDbLine
 10
8.6972556261
 20
185.2379684153
 30
0.0
 11
8.7395461731
 21
188.2666089046
 31
0.0
  0
ARC
  5
108
330
1F
100
AcDbEntity
  8
0
  6
Continuous
 62
     7
370
    25
100
AcDbCircle
 10
-12.0233687231
 20
185.9323417662
 30
0.0
 40
3.953166873794989
100
AcDbArc
 50
288.3335524762
 51
350.2644786353
  0
LINE
  5
109
330
1F
100
AcDbEntity
  8
0
  6
Continuous
 62
     7
370
    25
100
AcDbLine
 10
-18.8771126081
 20
181.5532193725
 30
0.0
 11
-10.7799064603
 21
182.1798319484
 31
0.0
  0
LINE
  5
10A
330
1F
100
AcDbEntity
  8
0
  6
Continuous
 62
     7
370
    25
100
AcDbLine
 10
-19.1651158787
 20
185.2961559109
 30
0.0
 11
-18.8771126081
 21
181.5532193725
 31
0.0
  0
LINE
  5
10B
330
1F
100
AcDbEntity
  8
0
  6
Continuous
 62
     7
370
    25
100
AcDbLine
 10
-13.8299136995
 20
185.7066773453
 30
0.0
 11
-19.1651158787
 21
185.2961559109
 31
0.0
  0
ARC
  5
10C
330
1F
100
AcDbEntity
  8
0
  6
Continuous
 62
     7
370
    25
100
AcDbCircle
 10
-15.1397907586
 20
188.8288337442
 30
0.0
 40
3.385799534736031
100
AcDbArc
 50
292.7601160839
 51
346.0925046726
  0
LINE
  5
10D
330
1F
100
AcDbEntity
  8
0
  6
Continuous
 62
     7
370
    25
100
AcDbLine
 10
-8.3595091145
 20
188.2838681883
 30
0.0
 11
-11.8532457778
 21
188.0150398031
 31
0.0
  0
LINE
  5
10E
330
1F
100
AcDbEntity
  8
0
  6
Continuous
 62
     7
370
    25
100
AcDbLine
 10
-8.1271321084
 20
185.2638594746
 30
0.0
 11
-8.3595091145
 21
188.2838681883
 31
0.0
  0
ARC
  5
10F
330
1F
100
AcDbEntity
  8
0
  6
Continuous
 62
     7
370
    25
100
AcDbCircle
 10
-28.825414995
 20
184.0774101096
 30
0.0
 40
3.953166873795033
100
AcDbArc
 50
293.5335524762
 51
355.4644786353
  0
LINE
  5
110
330
1F
100
AcDbEntity
  8
0
  6
Continuous
 62
     7
370
    25
100
AcDbLine
 10
-35.2540604406
 20
179.0951379458
 30
0.0
 11
-27.2469706801
 21
180.4530423196
 31
0.0
  0
LINE
  5
111
330
1F
100
AcDbEntity
  8
0
  6
Continuous
 62
     7
370
    25
100
AcDbLine
 10
-35.8801104004
 20
182.7965675698
 30
0.0
 11
-35.2540604406
 21
179.0951379458
 31
0.0
  0
LINE
  5
112
330
1F
100
AcDbEntity
  8
0
  6
Continuous
 62
     7
370
    25
100
AcDbLine
 10
-30.6040724035
 20
183.6889426011
 30
0.0
 11
-35.8801104004
 21
182.7965675698
 31
0.0
  0
ARC
  5
113
330
1F
100
AcDbEntity
  8
0
  6
Continuous
 62
     7
370
    25
100
AcDbCircle
 10
-32.191527621
 20
186.6795319112
 30
0.0
 40
3.385799534736027
100
AcDbArc
 50
297.9601160839
 51
351.2925046726
  0
LINE
  5
114
330
1F
100
AcDbEntity
  8
0
  6
Continuous
 62
     7
370
    25
100
AcDbLine
 10
-25.389759279
 20
186.7513236361
 30
0.0
 11
-28.8447525047
 21
186.1669552731
 31
0.0
  0
LINE
  5
115
330
1F
100
AcDbEntity
  8
0
  6
Continuous
 62
     7
370
    25
100
AcDbLine
 10
-24.8846274621
 20
183.7648050021
 30
0.0
 11
-25.389759279
 21
186.7513236361
 31
0.0
  0
ARC
  5
116
330
1F
100
AcDbEntity
  8
0
  6
Continuous
 62
     7
370
    25
100
AcDbCircle
 10
-45.3901888511
 20
180.7072970686
 30
0.0
 40
3.953166873794988
100
AcDbArc
 50
298.7335524762
 51
0.6644786353
  0
LINE
  5
117
330
1F
100
AcDbEntity
  8
0
  6
Continuous
 62
     7
370
    25
100
AcDbLine
 10
-51.3408203732
 20
175.1628852271
 30
0.0
 11
-43.4897549795
 21
177.2409042126
 31
0.0
  0
LINE
  5
118
330
1F
100
AcDbEntity
  8
0
  6
Continuous
 62
     7
370
    25
100
AcDbLine
 10
-52.2997638782
 20
178.792340719
 30
0.0
 11
-51.3408203732
 21
175.1628852271
 31
0.0
  0
LINE
  5
119
330
1F
100
AcDbEntity
  8
0
  6
Continuous
 62
     7
370
    25
100
AcDbLine
 10
-47.1263182022
 20
180.1592240272
 30
0.0
 11
-52.2997638782
 21
178.792340719
 31
0.0
  0
ARC
  5
11A
330
1F
100
AcDbEntity
  8
0
  6
Continuous
 62
     7
370
    25
100
AcDbCircle
 10
-48.9782849123
 20
182.9936301016
 30
0.0
 40
3.385799534736013
100
AcDbArc
 50
303.1601160839
 51
356.4925046726
  0
LINE
  5
11B
330
1F
100
AcDbEntity
  8
0
  6
Continuous
 62
     7
370
    25
100
AcDbLine
 10
-42.2110166067
 20
183.6815881751
 30
0.0
 11
-45.598827645
 21
182.7864898887
 31
0.0
  0
LINE
  5
11C
330
1F
100
AcDbEntity
  8
0
  6
Continuous
 62
     7
370
    25
100
AcDbLine
 10
-41.4372878214
 20
180.7531422612
 30
0.0
 11
-42.2110166067
 21
183.6815881751
 31
0.0
  0
ARC
  5
11D
330
1F
100
AcDbEntity
  8
0
  6
Continuous
 62
     7
370
    25
100
AcDbCircle
 10
-61.5813523009
 20
175.8497475537
 30
0.0
 40
3.953166873795028
100
AcDbArc
 50
303.9335524762
 51
5.8644786353
  0
LINE
  5
11E
330
1F
100
AcDbEntity
  8
0
  6
Continuous
 62
     7
370
    25
100
AcDbLine
 10
-67.0049890447
 20
169.7888332126
 30
0.0
 11
-59.374571729
 21
172.5698622143
 31
0.0
  0
LINE
  5
11F
330
1F
100
AcDbEntity
  8
0
  6
Continuous
 62
     7
370
    25
100
AcDbLine
 10
-68.2889328365
 20
173.3164397884
 30
0.0
 11
-67.0049890447
 21
169.7888332126
 31
0.0
  0
LINE
  5
120
330
1F
100
AcDbEntity
  8
0
  6
Continuous
 62
     7
370
    25
100
AcDbLine
 10
-63.2606631617
 20
175.1465802799
 30
0.0
 11
-68.2889328365
 21
173.3164397884
 31
0.0
  0
ARC
  5
121
330
1F
100
AcDbEntity
  8
0
  6
Continuous
 62
     7
370
    25
100
AcDbCircle
 10
-65.3618974509
 20
177.8014725473
 30
0.0
 40
3.385799534736037
100
AcDbArc
 50
308.3601160839
 51
1.6925046726
  0
LINE
  5
122
330
1F
100
AcDbEntity
  8
0
  6
Continuous
 62
     7
370
    25
100
AcDbLine
 10
-58.6848319395
 20
179.0999342471
 30
0.0
 11
-61.9775750307
 21
177.9014737728
 31
0.0
  0
LINE
  5
123
330
1F
100
AcDbEntity
  8
0
  6
Continuous
 62
     7
370
    25
100
AcDbLine
 10
-57.6488749043
 20
176.2536656854
 30
0.0
 11
-58.6848319395
 21
179.0999342471
 31
0.0
  0
ARC
  5
124
330
1F
100
AcDbEntity
  8
0
  6
Continuous
 62
     7
370
    25
100
AcDbCircle
 10
-75.2133742475
 20
134.0219994691
 30
0.0
 40
3.953166873795
100
AcDbArc
 50
314.0835524762
 51
16.0144786353
  0
LINE
  5
125
330
1F
100
AcDbEntity
  8
0
  6
Continuous
 62
     7
370
    25
100
AcDbLine
 10
-79.4840403419
 20
127.1001551131
 30
0.0
 11
-72.463129883
 21
131.182336766
 31
0.0
  0
LINE
  5
126
330
1F
100
AcDbEntity
  8
0
  6
Continuous
 62
     7
370
    25
100
AcDbLine
 10
-81.3695454085
 20
130.3462898081
 30
0.0
 11
-79.4840403419
 21
127.1001551131
 31
0.0
  0
LINE
  5
127
330
1F
100
AcDbEntity
  8
0
  6
Continuous
 62
     7
370
    25
100
AcDbLine
 10
-76.7424872895
 20
133.0338990253
 30
0.0
 11
-81.3695454085
 21
130.3462898081
 31
0.0
  0
ARC
  5
128
330
1F
100
AcDbEntity
  8
0
  6
Continuous
 62
     7
370
    25
100
AcDbCircle
 10
-79.2786972908
 20
135.2769499206
 30
0.0
 40
3.385799534735993
100
AcDbArc
 50
318.5101160839
 51
11.8425046726
  0
LINE
  5
129
330
1F
100
AcDbEntity
  8
0
  6
Continuous
 62
     7
370
    25
100
AcDbLine
 10
-72.9349518506
 20
137.731761608
 30
0.0
 11
-75.9649630949
 21
135.9717910308
 31
0.0
  0
LINE
  5
12A
330
1F
100
AcDbEntity
  8
0
  6
Continuous
 62
     7
370
    25
100
AcDbLine
 10
-71.4136218274
 20
135.112600165
 30
0.0
 11
-72.9349518506
 21
137.731761608
 31
0.0
  0
ARC
  5
12B
330
1F
100
AcDbEntity
  8
0
  6
Continuous
 62
     7
370
    25
100
AcDbCircle
 10
-93.1769468894
 20
161.3488569831
 30
0.0
 40
3.953166873794977
100
AcDbArc
 50
314.6395524762
 51
16.5704786353
  0
LINE
  5
12C
330
1F
100
AcDbEntity
  8
0
  6
Continuous
 62
     7
370
    25
100
AcDbLine
 10
-97.3802431694
 20
154.3858965092
 30
0.0
 11
-90.3992762753
 21
158.5360160186
 31
0.0
  0
LINE
  5
12D
330
1F
100
AcDbEntity
  8
0
  6
Continuous
 62
     7
370
    25
100
AcDbLine
 10
-99.2971595555
 20
157.6135816522
 30
0.0
 11
-97.3802431694
 21
154.3858965092
 31
0.0
  0
LINE
  5
12E
330
1F
100
AcDbEntity
  8
0
  6
Continuous
 62
     7
370
    25
100
AcDbLine
 10
-94.6963995286
 20
160.3459647359
 30
0.0
 11
-99.2971595555
 21
157.6135816522
 31
0.0
  0
ARC
  5
12F
330
1F
100
AcDbEntity
  8
0
  6
Continuous
 62
     7
370
    25
100
AcDbCircle
 10
-97.2542564086
 20
162.5642989466
 30
0.0
 40
3.385799534736045
100
AcDbArc
 50
319.0661160839
 51
12.3985046726
  0
LINE
  5
130
330
1F
100
AcDbEntity
  8
0
  6
Continuous
 62
     7
370
    25
100
AcDbLine
 10
-90.9346308497
 20
165.0805539863
 30
0.0
 11
-93.9474208893
 21
163.2912634146
 31
0.0
  0
LINE
  5
131
330
1F
100
AcDbEntity
  8
0
  6
Continuous
 62
     7
370
    25
100
AcDbLine
 10
-89.3879564323
 20
162.4762786647
 30
0.0
 11
-90.9346308497
 21
165.0805539863
 31
0.0
  0
ARC
  5
132
330
1F
100
AcDbEntity
  8
0
  6
Continuous
 62
     7
370
    25
100
AcDbCircle
 10
106.9132359653
 20
172.1399541161
 30
0.0
 40
3.953166873794975
100
AcDbArc
 50
252.7335524762
 51
314.6644786353
  0
LINE
  5
133
330
1F
100
AcDbEntity
  8
0
  6
Continuous
 62
     7
370
    25
100
AcDbLine
 10
98.7912638619
 20
172.5690081121
 30
0.0
 11
105.7398739168
 21
168.3649375816
 31
0.0
  0
LINE
  5
134
330
1F
100
AcDbEntity
  8
0
  6
Continuous
 62
     7
370
    25
100
AcDbLine
 10
100.7359375183
 20
175.7800459792
 30
0.0
 11
98.7912638619
 21
172.5690081121
 31
0.0
  0
LINE
  5
135
330
1F
100
AcDbEntity
  8
0
  6
Continuous
 62
     7
370
    25
100
AcDbLine
 10
105.3129684273
 20
173.008097531
 30
0.0
 11
100.7359375183
 21
175.7800459792
 31
0.0
  0
ARC
  5
136
330
1F
100
AcDbEntity
  8
0
  6
Continuous
 62
     7
370
    25
100
AcDbCircle
 10
106.0653853498
 20
176.3092347993
 30
0.0
 40
3.385799534736024
100
AcDbArc
 50
257.1601160839
 51
310.4925046726
  0
LINE
  5
137
330
1F
100
AcDbEntity
  8
0
  6
Continuous
 62
     7
370
    25
100
AcDbLine
 10
111.2612005467
 20
171.9191652019
 30
0.0
 11
108.2639494288
 21
173.7343650007
 31
0.0
  0
LINE
  5
138
330
1F
100
AcDbEntity
  8
0
  6
Continuous
 62
     7
370
    25
100
AcDbLine
 10
109.6921300248
 20
169.3283218254
 30
0.0
 11
111.2612005467
 21
171.9191652019
 31
0.0
  0
ARC
  5
139
330
1F
100
AcDbEntity
  8
0
  6
Continuous
 62
     7
370
    25
100
AcDbCircle
 10
92.1339753371
 20
180.4825017084
 30
0.0
 40
3.953166873794985
100
AcDbArc
 50
257.5335524762
 51
319.4644786353
  0
LINE
  5
13A
330
1F
100
AcDbEntity
  8
0
  6
Continuous
 62
     7
370
    25
100
AcDbLine
 10
84.00458582
 20
180.2304218424
 30
0.0
 11
91.2806136766
 21
176.6225402826
 31
0.0
  0
LINE
  5
13B
330
1F
100
AcDbEntity
  8
0
  6
Continuous
 62
     7
370
    25
100
AcDbLine
 10
85.6737465085
 20
183.5929242454
 30
0.0
 11
84.00458582
 21
180.2304218424
 31
0.0
  0
LINE
  5
13C
330
1F
100
AcDbEntity
  8
0
  6
Continuous
 62
     7
370
    25
100
AcDbLine
 10
90.4666757939
 20
181.2136934859
 30
0.0
 11
85.6737465085
 21
183.5929242454
 31
0.0
  0
ARC
  5
13D
330
1F
100
AcDbEntity
  8
0
  6
Continuous
 62
     7
370
    25
100
AcDbCircle
 10
90.9402218373
 20
184.5662138265
 30
0.0
 40
3.385799534736051
100
AcDbArc
 50
261.9601160839
 51
315.2925046726
  0
LINE
  5
13E
330
1F
100
AcDbEntity
  8
0
  6
Continuous
 62
     7
370
    25
100
AcDbLine
 10
96.4851661349
 20
180.6263154311
 30
0.0
 11
93.3465347942
 21
182.1843455592
 31
0.0
  0
LINE
  5
13F
330
1F
100
AcDbEntity
  8
0
  6
Continuous
 62
     7
370
    25
100
AcDbLine
 10
95.1383947504
 20
177.9132620696
 30
0.0
 11
96.4851661349
 21
180.6263154311
 31
0.0
  0
ARC
  5
140
330
1F
100
AcDbEntity
  8
0
  6
Continuous
 62
     7
370
    25
100
AcDbCircle
 10
76.7084598483
 20
187.5590973339
 30
0.0
 40
3.953166873795005
100
AcDbArc
 50
262.3335524762
 51
324.2644786353
  0
LINE
  5
141
330
1F
100
AcDbEntity
  8
0
  6
Continuous
 62
     7
370
    25
100
AcDbLine
 10
68.628674744
 20
186.6276517651
 30
0.0
 11
76.1810842948
 21
183.6412658728
 31
0.0
  0
LINE
  5
142
330
1F
100
AcDbEntity
  8
0
  6
Continuous
 62
     7
370
    25
100
AcDbLine
 10
70.0106145018
 20
190.1180331655
 30
0.0
 11
68.628674744
 21
186.6276517651
 31
0.0
  0
LINE
  5
143
330
1F
100
AcDbEntity
  8
0
  6
Continuous
 62
     7
370
    25
100
AcDbLine
 10
74.9858232083
 20
188.148208689
 30
0.0
 11
70.0106145018
 21
190.1180331655
 31
0.0
  0
ARC
  5
144
330
1F
100
AcDbEntity
  8
0
  6
Continuous
 62
     7
370
    25
100
AcDbCircle
 10
75.1771767872
 20
191.5285965805
 30
0.0
 40
3.385799534736055
100
AcDbArc
 50
266.7601160839
 51
320.0925046726
  0
LINE
  5
145
330
1F
100
AcDbEntity
  8
0
  6
Continuous
 62
     7
370
    25
100
AcDbLine
 10
81.0323563854
 20
188.0665049435
 30
0.0
 11
77.7743600656
 21
189.3564369391
 31
0.0
  0
LINE
  5
146
330
1F
100
AcDbEntity
  8
0
  6
Continuous
 62
     7
370
    25
100
AcDbLine
 10
79.9173307718
 20
185.2502717172
 30
0.0
 11
81.0323563854
 21
188.0665049435
 31
0.0
  0
ARC
  5
147
330
1F
100
AcDbEntity
  8
0
  6
Continuous
 62
     7
370
    25
100
AcDbCircle
 10
60.7448924842
 20
193.3200978797
 30
0.0
 40
3.953166873795007
100
AcDbArc
 50
267.1335524762
 51
329.0644786353
  0
LINE
  5
148
330
1F
100
AcDbEntity
  8
0
  6
Continuous
 62
     7
370
    25
100
AcDbLine
 10
52.7713856799
 20
191.7158200295
 30
0.0
 11
60.5472021981
 21
189.3718771561
 31
0.0
  0
LINE
  5
149
330
1F
100
AcDbEntity
  8
0
  6
Continuous
 62
     7
370
    25
100
AcDbLine
 10
53.8564111924
 20
195.3095979096
 30
0.0
 11
52.7713856799
 21
191.7158200295
 31
0.0
  0
LINE
  5
14A
330
1F
100
AcDbEntity
  8
0
  6
Continuous
 62
     7
370
    25
100
AcDbLine
 10
58.9790018056
 20
193.7629966195
 30
0.0
 11
53.8564111924
 21
195.3095979096
 31
0.0
  0
ARC
  5
14B
330
1F
100
AcDbEntity
  8
0
  6
Continuous
 62
     7
370
    25
100
AcDbCircle
 10
58.8868207122
 20
197.1475410697
 30
0.0
 40
3.385799534736024
100
AcDbArc
 50
271.5601160839
 51
324.8925046726
  0
LINE
  5
14C
330
1F
100
AcDbEntity
  8
0
  6
Continuous
 62
     7
370
    25
100
AcDbLine
 10
65.0111657331
 20
194.1875402765
 30
0.0
 11
61.6566569375
 21
195.2003261934
 31
0.0
  0
LINE
  5
14D
330
1F
100
AcDbEntity
  8
0
  6
Continuous
 62
     7
370
    25
100
AcDbLine
 10
64.135706994
 20
191.2878810378
 30
0.0
 11
65.0111657331
 21
194.1875402765
 31
0.0
  0
ARC
  5
14E
330
1F
100
AcDbEntity
  8
0
  6
Continuous
 62
     7
370
    25
100
AcDbCircle
 10
44.3552464461
 20
197.7251009766
 30
0.0
 40
3.953166873794979
100
AcDbArc
 50
271.9335524762
 51
333.8644786353
  0
LINE
  5
14F
330
1F
100
AcDbEntity
  8
0
  6
Continuous
 62
     7
370
    25
100
AcDbLine
 10
36.543946363
 20
195.4592437014
 30
0.0
 11
44.4886280829
 21
193.7741849219
 31
0.0
  0
LINE
  5
150
330
1F
100
AcDbEntity
  8
0
  6
Continuous
 62
     7
370
    25
100
AcDbLine
 10
37.324446956
 20
199.1312102915
 30
0.0
 11
36.543946363
 21
195.4592437014
 31
0.0
  0
LINE
  5
151
330
1F
100
AcDbEntity
  8
0
  6
Continuous
 62
     7
370
    25
100
AcDbLine
 10
42.5584881834
 20
198.0186804845
 30
0.0
 11
37.324446956
 21
199.1312102915
 31
0.0
  0
ARC
  5
152
330
1F
100
AcDbEntity
  8
0
  6
Continuous
 62
     7
370
    25
100
AcDbCircle
 10
42.1834190018
 20
201.3836413459
 30
0.0
 40
3.385799534736068
100
AcDbArc
 50
276.3601160839
 51
329.6925046726
  0
LINE
  5
153
330
1F
100
AcDbEntity
  8
0
  6
Continuous
 62
     7
370
    25
100
AcDbLine
 10
48.5339715653
 20
198.9464936752
 30
0.0
 11
45.1064797629
 21
199.6750295479
 31
0.0
  0
LINE
  5
154
330
1F
100
AcDbEntity
  8
0
  6
Continuous
 62
     7
370
    25
100
AcDbLine
 10
47.9042204147
 20
195.9837474505
 30
0.0
 11
48.5339715653
 21
198.9464936752
 31
0.0
  0
ARC
  5
155
330
1F
100
AcDbEntity
  8
0
  6
Continuous
 62
     7
370
    25
100
AcDbCircle
 10
27.6544740192
 20
200.7432016055
 30
0.0
 40
3.953166873795047
100
AcDbArc
 50
276.7335524762
 51
338.6644786353
  0
LINE
  5
156
330
1F
100
AcDbEntity
  8
0
  6
Continuous
 62
     7
370
    25
100
AcDbLine
 10
20.0601713151
 20
197.8316582661
 30
0.0
 11
28.1179920025
 21
196.8173030572
 31
0.0
  0
LINE
  5
157
330
1F
100
AcDbEntity
  8
0
  6
Continuous
 62
     7
370
    25
100
AcDbLine
 10
20.5306723375
 20
201.5560573588
 30
0.0
 11
20.0601713151
 21
197.8316582661
 31
0.0
  0
LINE
  5
158
330
1F
100
AcDbEntity
  8
0
  6
Continuous
 62
     7
370
    25
100
AcDbLine
 10
25.8394511405
 20
200.8854026323
 30
0.0
 11
20.5306723375
 21
201.5560573588
 31
0.0
  0
ARC
  5
159
330
1F
100
AcDbEntity
  8
0
  6
Continuous
 62
     7
370
    25
100
AcDbCircle
 10
25.1841247116
 20
204.2071771221
 30
0.0
 40
3.385799534736055
100
AcDbArc
 50
281.1601160839
 51
334.4925046726
  0
LINE
  5
15A
330
1F
100
AcDbEntity
  8
0
  6
Continuous
 62
     7
370
    25
100
AcDbLine
 10
31.7163402544
 20
202.3099774139
 30
0.0
 11
28.2399068375
 21
202.7491530866
 31
0.0
  0
LINE
  5
15B
330
1F
100
AcDbEntity
  8
0
  6
Continuous
 62
     7
370
    25
100
AcDbLine
 10
31.3367139441
 20
199.304925739
 30
0.0
 11
31.7163402544
 21
202.3099774139
 31
0.0
  0
ARC
  5
15C
330
1F
100
AcDbEntity
  8
0
  6
Continuous
 62
     7
370
    25
100
AcDbCircle
 10
10.7597275008
 20
202.3532333379
 30
0.0
 40
3.953166873795014
100
AcDbArc
 50
281.5335524762
 51
343.4644786353
  0
LINE
  5
15D
330
1F
100
AcDbEntity
  8
0
  6
Continuous
 62
     7
370
    25
100
AcDbLine
 10
3.4356907525
 20
198.816426319
 30
0.0
 11
11.5501305848
 21
198.4798896536
 31
0.0
  0
LINE
  5
15E
330
1F
100
AcDbEntity
  8
0
  6
Continuous
 62
     7
370
    25
100
AcDbLine
 10
3.5928919779
 20
202.5671339307
 30
0.0
 11
3.4356907525
 21
198.816426319
 31
0.0
  0
LINE
  5
15F
330
1F
100
AcDbEntity
  8
0
  6
Continuous
 62
     7
370
    25
100
AcDbLine
 10
8.9391710875
 20
202.3430584457
 30
0.0
 11
3.5928919779
 21
202.5671339307
 31
0.0
  0
ARC
  5
160
330
1F
100
AcDbEntity
  8
0
  6
Continuous
 62
     7
370
    25
100
AcDbCircle
 10
8.0081840552
 20
205.5983467025
 30
0.0
 40
3.38579953473604
100
AcDbArc
 50
285.9601160839
 51
339.2925046726
  0
LINE
  5
161
330
1F
100
AcDbEntity
  8
0
  6
Continuous
 62
     7
370
    25
100
AcDbLine
 10
14.6762437786
 20
204.2544024495
 30
0.0
 11
11.17525343
 21
204.4011374206
 31
0.0
  0
LINE
  5
162
330
1F
100
AcDbEntity
  8
0
  6
Continuous
 62
     7
370
    25
100
AcDbLine
 10
14.5494051145
 20
201.2281236029
 30
0.0
 11
14.6762437786
 21
204.2544024495
 31
0.0
  0
ARC
  5
163
330
1F
100
AcDbEntity
  8
0
  6
Continuous
 62
     7
370
    25
100
AcDbCircle
 10
-6.2104890778
 20
202.543902716
 30
0.0
 40
3.953166873795009
100
AcDbArc
 50
286.3335524762
 51
348.2644786353
  0
LINE
  5
164
330
1F
100
AcDbEntity
  8
0
  6
Continuous
 62
     7
370
    25
100
AcDbLine
 10
-13.2128870147
 20
198.4066401775
 30
0.0
 11
-5.0987450026
 21
198.7502826186
 31
0.0
  0
LINE
  5
165
330
1F
100
AcDbEntity
  8
0
  6
Continuous
 62
     7
370
    25
100
AcDbLine
 10
-13.3700882401
 20
202.1573477892
 30
0.0
 11
-13.2128870147
 21
198.4066401775
 31
0.0
  0
LINE
  5
166
330
1F
100
AcDbEntity
  8
0
  6
Continuous
 62
     7
370
    25
100
AcDbLine
 10
-8.0238091304
 20
202.3814232742
 30
0.0
 11
-13.3700882401
 21
202.1573477892
 31
0.0
  0
ARC
  5
167
330
1F
100
AcDbEntity
  8
0
  6
Continuous
 62
     7
370
    25
100
AcDbCircle
 10
-9.2239265609
 20
205.54739179
 30
0.0
 40
3.385799534736048
100
AcDbArc
 50
290.7601160839
 51
344.0925046726
  0
LINE
  5
168
330
1F
100
AcDbEntity
  8
0
  6
Continuous
 62
     7
370
    25
100
AcDbLine
 10
-2.4667943048
 20
204.7661297954
 30
0.0
 11
-5.9677846535
 21
204.6193948244
 31
0.0
  0
LINE
  5
169
330
1F
100
AcDbEntity
  8
0
  6
Continuous
 62
     7
370
    25
100
AcDbLine
 10
-2.3399556407
 20
201.7398509488
 30
0.0
 11
-2.4667943048
 21
204.7661297954
 31
0.0
  0
ARC
  5
16A
330
1F
100
AcDbEntity
  8
0
  6
Continuous
 62
     7
370
    25
100
AcDbCircle
 10
-23.1371459773
 20
201.313872601
 30
0.0
 40
3.953166873795017
100
AcDbArc
 50
291.1335524762
 51
353.0644786353
  0
LINE
  5
16B
330
1F
100
AcDbEntity
  8
0
  6
Continuous
 62
     7
370
    25
100
AcDbLine
 10
-29.7687883125
 20
196.605174467
 30
0.0
 11
-21.7118589969
 21
197.6265856098
 31
0.0
  0
LINE
  5
16C
330
1F
100
AcDbEntity
  8
0
  6
Continuous
 62
     7
370
    25
100
AcDbLine
 10
-30.239289335
 20
200.3295735598
 30
0.0
 11
-29.7687883125
 21
196.605174467
 31
0.0
  0
LINE
  5
16D
330
1F
100
AcDbEntity
  8
0
  6
Continuous
 62
     7
370
    25
100
AcDbLine
 10
-24.930510532
 20
201.0002282863
 30
0.0
 11
-30.239289335
 21
200.3295735598
 31
0.0
  0
ARC
  5
16E
330
1F
100
AcDbEntity
  8
0
  6
Continuous
 62
     7
370
    25
100
AcDbCircle
 10
-26.3913403992
 20
204.0546700664
 30
0.0
 40
3.385799534736047
100
AcDbArc
 50
295.5601160839
 51
348.8925046726
  0
LINE
  5
16F
330
1F
100
AcDbEntity
  8
0
  6
Continuous
 62
     7
370
    25
100
AcDbLine
 10
-19.5925320382
 20
203.841570322
 30
0.0
 11
-23.068965455
 21
203.4023946493
 31
0.0
  0
LINE
  5
170
330
1F
100
AcDbEntity
  8
0
  6
Continuous
 62
     7
370
    25
100
AcDbLine
 10
-19.2129057279
 20
200.8365186471
 30
0.0
 11
-19.5925320382
 21
203.841570322
 31
0.0
  0
ARC
  5
171
330
1F
100
AcDbEntity
  8
0
  6
Continuous
 62
     7
370
    25
100
AcDbCircle
 10
-39.9015118253
 20
198.6717715805
 30
0.0
 40
3.953166873795035
100
AcDbArc
 50
295.9335524762
 51
357.8644786353
  0
LINE
  5
172
330
1F
100
AcDbEntity
  8
0
  6
Continuous
 62
     7
370
    25
100
AcDbLine
 10
-46.1158823527
 20
193.4246659853
 30
0.0
 11
-38.1726793038
 21
195.1166813644
 31
0.0
  0
LINE
  5
173
330
1F
100
AcDbEntity
  8
0
  6
Continuous
 62
     7
370
    25
100
AcDbLine
 10
-46.8963829457
 20
197.0966325753
 30
0.0
 11
-46.1158823527
 21
193.4246659853
 31
0.0
  0
LINE
  5
174
330
1F
100
AcDbEntity
  8
0
  6
Continuous
 62
     7
370
    25
100
AcDbLine
 10
-41.6623417183
 20
198.2091623823
 30
0.0
 11
-46.8963829457
 21
197.0966325753
 31
0.0
  0
ARC
  5
175
330
1F
100
AcDbEntity
  8
0
  6
Continuous
 62
     7
370
    25
100
AcDbCircle
 10
-43.3736373502
 20
201.1306527125
 30
0.0
 40
3.385799534736048
100
AcDbArc
 50
300.3601160839
 51
353.6925046726
  0
LINE
  5
176
330
1F
100
AcDbEntity
  8
0
  6
Continuous
 62
     7
370
    25
100
AcDbLine
 10
-36.5808416401
 20
201.4872099597
 30
0.0
 11
-40.0083334425
 21
200.758674087
 31
0.0
  0
LINE
  5
177
330
1F
100
AcDbEntity
  8
0
  6
Continuous
 62
     7
370
    25
100
AcDbLine
 10
-35.9510904895
 20
198.5244637349
 30
0.0
 11
-36.5808416401
 21
201.4872099597
 31
0.0
  0
ARC
  5
178
330
1F
100
AcDbEntity
  8
0
  6
Continuous
 62
     7
370
    25
100
AcDbCircle
 10
-56.3859960318
 20
194.6361268454
 30
0.0
 40
3.953166873794995
100
AcDbArc
 50
300.7335524762
 51
2.6644786353
  0
LINE
  5
179
330
1F
100
AcDbEntity
  8
0
  6
Continuous
 62
     7
370
    25
100
AcDbLine
 10
-62.1395054071
 20
188.8874184646
 30
0.0
 11
-54.3657444871
 21
191.2381698079
 31
0.0
  0
LINE
  5
17A
330
1F
100
AcDbEntity
  8
0
  6
Continuous
 62
     7
370
    25
100
AcDbLine
 10
-63.2245309197
 20
192.4811963446
 30
0.0
 11
-62.1395054071
 21
188.8874184646
 31
0.0
  0
LINE
  5
17B
330
1F
100
AcDbEntity
  8
0
  6
Continuous
 62
     7
370
    25
100
AcDbLine
 10
-58.1019403065
 20
194.0277976347
 30
0.0
 11
-63.2245309197
 21
192.4811963446
 31
0.0
  0
ARC
  5
17C
330
1F
100
AcDbEntity
  8
0
  6
Continuous
 62
     7
370
    25
100
AcDbCircle
 10
-60.0516981939
 20
196.7958443594
 30
0.0
 40
3.385799534736069
100
AcDbArc
 50
305.1601160839
 51
358.4925046726
  0
LINE
  5
17D
330
1F
100
AcDbEntity
  8
0
  6
Continuous
 62
     7
370
    25
100
AcDbLine
 10
-53.3125617159
 20
197.7195576054
 30
0.0
 11
-56.6670705115
 21
196.7067716885
 31
0.0
  0
LINE
  5
17E
330
1F
100
AcDbEntity
  8
0
  6
Continuous
 62
     7
370
    25
100
AcDbLine
 10
-52.4371029768
 20
194.8198983667
 30
0.0
 11
-53.3125617159
 21
197.7195576054
 31
0.0
  0
ARC
  5
17F
330
1F
100
AcDbEntity
  8
0
  6
Continuous
 62
     7
370
    25
100
AcDbCircle
 10
-72.4749739574
 20
189.2352535112
 30
0.0
 40
3.953166873795016
100
AcDbArc
 50
305.5335524762
 51
7.4644786353
  0
LINE
  5
180
330
1F
100
AcDbEntity
  8
0
  6
Continuous
 62
     7
370
    25
100
AcDbLine
 10
-77.7272654463
 20
183.0252654037
 30
0.0
 11
-70.1774740026
 21
186.0182638796
 31
0.0
  0
LINE
  5
181
330
1F
100
AcDbEntity
  8
0
  6
Continuous
 62
     7
370
    25
100
AcDbLine
 10
-79.1092052041
 20
186.515646804
 30
0.0
 11
-77.7272654463
 21
183.0252654037
 31
0.0
  0
LINE
  5
182
330
1F
100
AcDbEntity
  8
0
  6
Continuous
 62
     7
370
    25
100
AcDbLine
 10
-74.1339964976
 20
188.4854712805
 30
0.0
 11
-79.1092052041
 21
186.515646804
 31
0.0
  0
ARC
  5
183
330
1F
100
AcDbEntity
  8
0
  6
Continuous
 62
     7
370
    25
100
AcDbCircle
 10
-76.3085404899
 20
191.0806585406
 30
0.0
 40
3.385799534736103
100
AcDbArc
 50
309.9601160839
 51
3.2925046726
  0
LINE
  5
184
330
1F
100
AcDbEntity
  8
0
  6
Continuous
 62
     7
370
    25
100
AcDbLine
 10
-69.6703334444
 20
192.5650486007
 30
0.0
 11
-72.9283297642
 21
191.2751166051
 31
0.0
  0
LINE
  5
185
330
1F
100
AcDbEntity
  8
0
  6
Continuous
 62
     7
370
    25
100
AcDbLine
 10
-68.5553078307
 20
189.7488153743
 30
0.0
 11
-69.6703334444
 21
192.5650486007
 31
0.0
  0
ARC
  5
186
330
1F
100
AcDbEntity
  8
0
  6
Continuous
 62
     7
370
    25
100
AcDbCircle
 10
-88.0555922608
 20
182.5070292208
 30
0.0
 40
3.953166873794993
100
AcDbArc
 50
310.3335524762
 51
12.2644786353
  0
LINE
  5
187
330
1F
100
AcDbEntity
  8
0
  6
Continuous
 62
     7
370
    25
100
AcDbLine
 10
-92.7698248123
 20
175.8793199913
 30
0.0
 11
-85.4969592073
 21
179.4935718659
 31
0.0
  0
LINE
  5
188
330
1F
100
AcDbEntity
  8
0
  6
Continuous
 62
     7
370
    25
100
AcDbLine
 10
-94.4389855008
 20
179.2418223942
 30
0.0
 11
-92.7698248123
 21
175.8793199913
 31
0.0
  0
LINE
  5
189
330
1F
100
AcDbEntity
  8
0
  6
Continuous
 62
     7
370
    25
100
AcDbLine
 10
-89.6460562154
 20
181.6210531537
 30
0.0
 11
-94.4389855008
 21
179.2418223942
 31
0.0
  0
ARC
  5
18A
330
1F
100
AcDbEntity
  8
0
  6
Continuous
 62
     7
370
    25
100
AcDbCircle
 10
-92.0301334488
 20
184.0251775753
 30
0.0
 40
3.385799534735969
100
AcDbArc
 50
314.7601160839
 51
8.0925046726
  0
LINE
  5
18B
330
1F
100
AcDbEntity
  8
0
  6
Continuous
 62
     7
370
    25
100
AcDbLine
 10
-85.5394180886
 20
186.0598325197
 30
0.0
 11
-88.6780494293
 21
184.5018023916
 31
0.0
  0
LINE
  5
18C
330
1F
100
AcDbEntity
  8
0
  6
Continuous
 62
     7
370
    25
100
AcDbLine
 10
-84.1926467041
 20
183.3467791583
 30
0.0
 11
-85.5394180886
 21
186.0598325197
 31
0.0
  0
ARC
  5
18D
330
1F
100
AcDbEntity
  8
0
  6
Continuous
 62
     7
370
    25
100
AcDbCircle
 10
-103.0185645475
 20
174.4986505075
 30
0.0
 40
3.953166873795007
100
AcDbArc
 50
315.1335524762
 51
17.0644786353
  0
LINE
  5
18E
330
1F
100
AcDbEntity
  8
0
  6
Continuous
 62
     7
370
    25
100
AcDbLine
 10
-107.1616712073
 20
167.4997087743
 30
0.0
 11
-100.2167453678
 21
171.7098626675
 31
0.0
  0
LINE
  5
18F
330
1F
100
AcDbEntity
  8
0
  6
Continuous
 62
     7
370
    25
100
AcDbLine
 10
-109.1063448636
 20
170.7107466414
 30
0.0
 11
-107.1616712073
 21
167.4997087743
 31
0.0
  0
LINE
  5
190
330
1F
100
AcDbEntity
  8
0
  6
Continuous
 62
     7
370
    25
100
AcDbLine
 10
-104.5293139546
 20
173.4826950896
 30
0.0
 11
-109.1063448636
 21
170.7107466414
 31
0.0
  0
ARC
  5
191
330
1F
100
AcDbEntity
  8
0
  6
Continuous
 62
     7
370
    25
100
AcDbCircle
 10
-107.1062018403
 20
175.6788934673
 30
0.0
 40
3.385799534736029
100
AcDbArc
 50
319.5601160839
 51
12.8925046726
  0
LINE
  5
192
330
1F
100
AcDbEntity
  8
0
  6
Continuous
 62
     7
370
    25
100
AcDbLine
 10
-100.8085058701
 20
178.2495416534
 30
0.0
 11
-103.8057569879
 21
176.4343418546
 31
0.0
  0
LINE
  5
193
330
1F
100
AcDbEntity
  8
0
  6
Continuous
 62
     7
370
    25
100
AcDbLine
 10
-99.2394353482
 20
175.6586982769
 30
0.0
 11
-100.8085058701
 21
178.2495416534
 31
0.0
  0
ARC
  5
194
330
1F
100
AcDbEntity
  8
0
  6
Continuous
 62
     7
370
    25
100
AcDbCircle
 10
115.3671932932
 20
186.0990981344
 30
0.0
 40
3.953166873794969
100
AcDbArc
 50
252.7335524762
 51
314.6644786353
  0
LINE
  5
195
330
1F
100
AcDbEntity
  8
0
  6
Continuous
 62
     7
370
    25
100
AcDbLine
 10
107.2452211898
 20
186.5281521304
 30
0.0
 11
114.1938312447
 21
182.3240815999
 31
0.0
  0
LINE
  5
196
330
1F
100
AcDbEntity
  8
0
  6
Continuous
 62
     7
370
    25
100
AcDbLine
 10
109.1898948462
 20
189.7391899975
 30
0.0
 11
107.2452211898
 21
186.5281521304
 31
0.0
  0
LINE
  5
197
330
1F
100
AcDbEntity
  8
0
  6
Continuous
 62
     7
370
    25
100
AcDbLine
 10
113.7669257552
 20
186.9672415493
 30
0.0
 11
109.1898948462
 21
189.7391899975
 31
0.0
  0
ARC
  5
198
330
1F
100
AcDbEntity
  8
0
  6
Continuous
 62
     7
370
    25
100
AcDbCircle
 10
114.5193426778
 20
190.2683788176
 30
0.0
 40
3.385799534736015
100
AcDbArc
 50
257.1601160839
 51
310.4925046726
  0
LINE
  5
199
330
1F
100
AcDbEntity
  8
0
  6
Continuous
 62
     7
370
    25
100
AcDbLine
 10
119.7151578746
 20
185.8783092202
 30
0.0
 11
116.7179067568
 21
187.693509019
 31
0.0
  0
LINE
  5
19A
330
1F
100
AcDbEntity
  8
0
  6
Continuous
 62
     7
370
    25
100
AcDbLine
 10
118.1460873528
 20
183.2874658437
 30
0.0
 11
119.7151578746
 21
185.8783092202
 31
0.0
  0
ARC
  5
19B
330
1F
100
AcDbEntity
  8
0
  6
Continuous
 62
     7
370
    25
100
AcDbCircle
 10
99.3902135896
 20
195.1000988636
 30
0.0
 40
3.953166873795025
100
AcDbArc
 50
257.5335524762
 51
319.4644786353
  0
LINE
  5
19C
330
1F
100
AcDbEntity
  8
0
  6
Continuous
 62
     7
370
    25
100
AcDbLine
 10
91.2608240725
 20
194.8480189976
 30
0.0
 11
98.5368519291
 21
191.2401374378
 31
0.0
  0
LINE
  5
19D
330
1F
100
AcDbEntity
  8
0
  6
Continuous
 62
     7
370
    25
100
AcDbLine
 10
92.929984761
 20
198.2105214006
 30
0.0
 11
91.2608240725
 21
194.8480189976
 31
0.0
  0
LINE
  5
19E
330
1F
100
AcDbEntity
  8
0
  6
Continuous
 62
     7
370
    25
100
AcDbLine
 10
97.7229140464
 20
195.8312906411
 30
0.0
 11
92.929984761
 21
198.2105214006
 31
0.0
  0
ARC
  5
19F
330
1F
100
AcDbEntity
  8
0
  6
Continuous
 62
     7
370
    25
100
AcDbCircle
 10
98.1964600897
 20
199.1838109817
 30
0.0
 40
3.385799534736066
100
AcDbArc
 50
261.9601160839
 51
315.2925046726
  0
LINE
  5
1A0
330
1F
100
AcDbEntity
  8
0
  6
Continuous
 62
     7
370
    25
100
AcDbLine
 10
103.7414043874
 20
195.2439125863
 30
0.0
 11
100.6027730467
 21
196.8019427144
 31
0.0
  0
LINE
  5
1A1
330
1F
100
AcDbEntity
  8
0
  6
Continuous
 62
     7
370
    25
100
AcDbLine
 10
102.3946330028
 20
192.5308592248
 30
0.0
 11
103.7414043874
 21
195.2439125863
 31
0.0
  0
ARC
  5
1A2
330
1F
100
AcDbEntity
  8
0
  6
Continuous
 62
     7
370
    25
100
AcDbCircle
 10
82.7160824036
 20
202.732615241
 30
0.0
 40
3.953166873795017
100
AcDbArc
 50
262.3335524762
 51
324.2644786353
  0
LINE
  5
1A3
330
1F
100
AcDbEntity
  8
0
  6
Continuous
 62
     7
370
    25
100
AcDbLine
 10
74.6362972993
 20
201.8011696722
 30
0.0
 11
82.18870685
 21
198.8147837799
 31
0.0
  0
LINE
  5
1A4
330
1F
100
AcDbEntity
  8
0
  6
Continuous
 62
     7
370
    25
100
AcDbLine
 10
76.0182370571
 20
205.2915510725
 30
0.0
 11
74.6362972993
 21
201.8011696722
 31
0.0
  0
LINE
  5
1A5
330
1F
100
AcDbEntity
  8
0
  6
Continuous
 62
     7
370
    25
100
AcDbLine
 10
80.9934457635
 20
203.321726596
 30
0.0
 11
76.0182370571
 21
205.2915510725
 31
0.0
  0
ARC
  5
1A6
330
1F
100
AcDbEntity
  8
0
  6
Continuous
 62
     7
370
    25
100
AcDbCircle
 10
81.1847993425
 20
206.7021144875
 30
0.0
 40
3.385799534736085
100
AcDbArc
 50
266.7601160839
 51
320.0925046726
  0
LINE
  5
1A7
330
1F
100
AcDbEntity
  8
0
  6
Continuous
 62
     7
370
    25
100
AcDbLine
 10
87.0399789407
 20
203.2400228506
 30
0.0
 11
83.7819826209
 21
204.5299548461
 31
0.0
  0
LINE
  5
1A8
330
1F
100
AcDbEntity
  8
0
  6
Continuous
 62
     7
370
    25
100
AcDbLine
 10
85.9249533271
 20
200.4237896242
 30
0.0
 11
87.0399789407
 21
203.2400228506
 31
0.0
  0
ARC
  5
1A9
330
1F
100
AcDbEntity
  8
0
  6
Continuous
 62
     7
370
    25
100
AcDbCircle
 10
65.4617555779
 20
208.9431052458
 30
0.0
 40
3.953166873794967
100
AcDbArc
 50
267.1335524762
 51
329.0644786353
  0
LINE
  5
1AA
330
1F
100
AcDbEntity
  8
0
  6
Continuous
 62
     7
370
    25
100
AcDbLine
 10
57.4882487736
 20
207.3388273956
 30
0.0
 11
65.2640652919
 21
204.9948845221
 31
0.0
  0
LINE
  5
1AB
330
1F
100
AcDbEntity
  8
0
  6
Continuous
 62
     7
370
    25
100
AcDbLine
 10
58.5732742862
 20
210.9326052756
 30
0.0
 11
57.4882487736
 21
207.3388273956
 31
0.0
  0
LINE
  5
1AC
330
1F
100
AcDbEntity
  8
0
  6
Continuous
 62
     7
370
    25
100
AcDbLine
 10
63.6958648994
 20
209.3860039855
 30
0.0
 11
58.5732742862
 21
210.9326052756
 31
0.0
  0
ARC
  5
1AD
330
1F
100
AcDbEntity
  8
0
  6
Continuous
 62
     7
370
    25
100
AcDbCircle
 10
63.603683806
 20
212.7705484357
 30
0.0
 40
3.385799534736074
100
AcDbArc
 50
271.5601160839
 51
324.8925046726
  0
LINE
  5
1AE
330
1F
100
AcDbEntity
  8
0
  6
Continuous
 62
     7
370
    25
100
AcDbLine
 10
69.7280288268
 20
209.8105476425
 30
0.0
 11
66.3735200312
 21
210.8233335594
 31
0.0
  0
LINE
  5
1AF
330
1F
100
AcDbEntity
  8
0
  6
Continuous
 62
     7
370
    25
100
AcDbLine
 10
68.8525700877
 20
206.9108884039
 30
0.0
 11
69.7280288268
 21
209.8105476425
 31
0.0
  0
ARC
  5
1B0
330
1F
100
AcDbEntity
  8
0
  6
Continuous
 62
     7
370
    25
100
AcDbCircle
 10
47.7482665122
 20
213.6880118224
 30
0.0
 40
3.953166873795018
100
AcDbArc
 50
271.9335524762
 51
333.8644786353
  0
LINE
  5
1B1
330
1F
100
AcDbEntity
  8
0
  6
Continuous
 62
     7
370
    25
100
AcDbLine
 10
39.9369664291
 20
211.4221545472
 30
0.0
 11
47.8816481489
 21
209.7370957677
 31
0.0
  0
LINE
  5
1B2
330
1F
100
AcDbEntity
  8
0
  6
Continuous
 62
     7
370
    25
100
AcDbLine
 10
40.717467022
 20
215.0941211373
 30
0.0
 11
39.9369664291
 21
211.4221545472
 31
0.0
  0
LINE
  5
1B3
330
1F
100
AcDbEntity
  8
0
  6
Continuous
 62
     7
370
    25
100
AcDbLine
 10
45.9515082494
 20
213.9815913303
 30
0.0
 11
40.717467022
 21
215.0941211373
 31
0.0
  0
ARC
  5
1B4
330
1F
100
AcDbEntity
  8
0
  6
Continuous
 62
     7
370
    25
100
AcDbCircle
 10
45.5764390678
 20
217.3465521917
 30
0.0
 40
3.385799534736072
100
AcDbArc
 50
276.3601160839
 51
329.6925046726
  0
LINE
  5
1B5
330
1F
100
AcDbEntity
  8
0
  6
Continuous
 62
     7
370
    25
100
AcDbLine
 10
51.9269916313
 20
214.9094045211
 30
0.0
 11
48.499499829
 21
215.6379403937
 31
0.0
  0
LINE
  5
1B6
330
1F
100
AcDbEntity
  8
0
  6
Continuous
 62
     7
370
    25
100
AcDbLine
 10
51.2972404807
 20
211.9466582963
 30
0.0
 11
51.9269916313
 21
214.9094045211
 31
0.0
  0
ARC
  5
1B7
330
1F
100
AcDbEntity
  8
0
  6
Continuous
 62
     7
370
    25
100
AcDbCircle
 10
29.69985375
 20
216.9340499672
 30
0.0
 40
3.953166873795047
100
AcDbArc
 50
276.7335524762
 51
338.6644786353
  0
LINE
  5
1B8
330
1F
100
AcDbEntity
  8
0
  6
Continuous
 62
     7
370
    25
100
AcDbLine
 10
22.1055510458
 20
214.0225066278
 30
0.0
 11
30.1633717332
 21
213.0081514189
 31
0.0
  0
LINE
  5
1B9
330
1F
100
AcDbEntity
  8
0
  6
Continuous
 62
     7
370
    25
100
AcDbLine
 10
22.5760520683
 20
217.7469057205
 30
0.0
 11
22.1055510458
 21
214.0225066278
 31
0.0
  0
LINE
  5
1BA
330
1F
100
AcDbEntity
  8
0
  6
Continuous
 62
     7
370
    25
100
AcDbLine
 10
27.8848308713
 20
217.076250994
 30
0.0
 11
22.5760520683
 21
217.7469057205
 31
0.0
  0
ARC
  5
1BB
330
1F
100
AcDbEntity
  8
0
  6
Continuous
 62
     7
370
    25
100
AcDbCircle
 10
27.2295044423
 20
220.3980254838
 30
0.0
 40
3.385799534736061
100
AcDbArc
 50
281.1601160839
 51
334.4925046726
  0
LINE
  5
1BC
330
1F
100
AcDbEntity
  8
0
  6
Continuous
 62
     7
370
    25
100
AcDbLine
 10
33.7617199851
 20
218.5008257756
 30
0.0
 11
30.2852865683
 21
218.9400014483
 31
0.0
  0
LINE
  5
1BD
330
1F
100
AcDbEntity
  8
0
  6
Continuous
 62
     7
370
    25
100
AcDbLine
 10
33.3820936748
 20
215.4957741007
 30
0.0
 11
33.7617199851
 21
218.5008257756
 31
0.0
  0
ARC
  5
1BE
330
1F
100
AcDbEntity
  8
0
  6
Continuous
 62
     7
370
    25
100
AcDbCircle
 10
11.4431184075
 20
218.6584505083
 30
0.0
 40
3.953166873795037
100
AcDbArc
 50
281.5335524762
 51
343.4644786353
  0
LINE
  5
1BF
330
1F
100
AcDbEntity
  8
0
  6
Continuous
 62
     7
370
    25
100
AcDbLine
 10
4.1190816593
 20
215.1216434894
 30
0.0
 11
12.2335214916
 21
214.785106824
 31
0.0
  0
LINE
  5
1C0
330
1F
100
AcDbEntity
  8
0
  6
Continuous
 62
     7
370
    25
100
AcDbLine
 10
4.2762828846
 20
218.8723511011
 30
0.0
 11
4.1190816593
 21
215.1216434894
 31
0.0
  0
LINE
  5
1C1
330
1F
100
AcDbEntity
  8
0
  6
Continuous
 62
     7
370
    25
100
AcDbLine
 10
9.6225619943
 20
218.6482756161
 30
0.0
 11
4.2762828846
 21
218.8723511011
 31
0.0
  0
ARC
  5
1C2
330
1F
100
AcDbEntity
  8
0
  6
Continuous
 62
     7
370
    25
100
AcDbCircle
 10
8.691574962
 20
221.903563873
 30
0.0
 40
3.385799534736051
100
AcDbArc
 50
285.9601160839
 51
339.2925046726
  0
LINE
  5
1C3
330
1F
100
AcDbEntity
  8
0
  6
Continuous
 62
     7
370
    25
100
AcDbLine
 10
15.3596346854
 20
220.5596196199
 30
0.0
 11
11.8586443368
 21
220.706354591
 31
0.0
  0
LINE
  5
1C4
330
1F
100
AcDbEntity
  8
0
  6
Continuous
 62
     7
370
    25
100
AcDbLine
 10
15.2327960213
 20
217.5333407733
 30
0.0
 11
15.3596346854
 21
220.5596196199
 31
0.0
  0
ARC
  5
1C5
330
1F
100
AcDbEntity
  8
0
  6
Continuous
 62
     7
370
    25
100
AcDbCircle
 10
-6.8938799846
 20
218.8491198864
 30
0.0
 40
3.953166873795046
100
AcDbArc
 50
286.3335524762
 51
348.2644786353
  0
LINE
  5
1C6
330
1F
100
AcDbEntity
  8
0
  6
Continuous
 62
     7
370
    25
100
AcDbLine
 10
-13.8962779215
 20
214.7118573479
 30
0.0
 11
-5.7821359094
 21
215.055499789
 31
0.0
  0
LINE
  5
1C7
330
1F
100
AcDbEntity
  8
0
  6
Continuous
 62
     7
370
    25
100
AcDbLine
 10
-14.0534791469
 20
218.4625649597
 30
0.0
 11
-13.8962779215
 21
214.7118573479
 31
0.0
  0
LINE
  5
1C8
330
1F
100
AcDbEntity
  8
0
  6
Continuous
 62
     7
370
    25
100
AcDbLine
 10
-8.7072000372
 20
218.6866404447
 30
0.0
 11
-14.0534791469
 21
218.4625649597
 31
0.0
  0
ARC
  5
1C9
330
1F
100
AcDbEntity
  8
0
  6
Continuous
 62
     7
370
    25
100
AcDbCircle
 10
-9.9073174677
 20
221.8526089604
 30
0.0
 40
3.385799534736031
100
AcDbArc
 50
290.7601160839
 51
344.0925046726
  0
LINE
  5
1CA
330
1F
100
AcDbEntity
  8
0
  6
Continuous
 62
     7
370
    25
100
AcDbLine
 10
-3.1501852116
 20
221.0713469659
 30
0.0
 11
-6.6511755602
 21
220.9246119948
 31
0.0
  0
LINE
  5
1CB
330
1F
100
AcDbEntity
  8
0
  6
Continuous
 62
     7
370
    25
100
AcDbLine
 10
-3.0233465475
 20
218.0450681193
 30
0.0
 11
-3.1501852116
 21
221.0713469659
 31
0.0
  0
ARC
  5
1CC
330
1F
100
AcDbEntity
  8
0
  6
Continuous
 62
     7
370
    25
100
AcDbCircle
 10
-25.1825257081
 20
217.5047209627
 30
0.0
 40
3.953166873795024
100
AcDbArc
 50
291.1335524762
 51
353.0644786353
  0
LINE
  5
1CD
330
1F
100
AcDbEntity
  8
0
  6
Continuous
 62
     7
370
    25
100
AcDbLine
 10
-31.8141680433
 20
212.7960228287
 30
0.0
 11
-23.7572387277
 21
213.8174339715
 31
0.0
  0
LINE
  5
1CE
330
1F
100
AcDbEntity
  8
0
  6
Continuous
 62
     7
370
    25
100
AcDbLine
 10
-32.2846690658
 20
216.5204219215
 30
0.0
 11
-31.8141680433
 21
212.7960228287
 31
0.0
  0
LINE
  5
1CF
330
1F
100
AcDbEntity
  8
0
  6
Continuous
 62
     7
370
    25
100
AcDbLine
 10
-26.9758902628
 20
217.1910766479
 30
0.0
 11
-32.2846690658
 21
216.5204219215
 31
0.0
  0
ARC
  5
1D0
330
1F
100
AcDbEntity
  8
0
  6
Continuous
 62
     7
370
    25
100
AcDbCircle
 10
-28.43672013
 20
220.2455184281
 30
0.0
 40
3.38579953473602
100
AcDbArc
 50
295.5601160839
 51
348.8925046726
  0
LINE
  5
1D1
330
1F
100
AcDbEntity
  8
0
  6
Continuous
 62
     7
370
    25
100
AcDbLine
 10
-21.637911769
 20
220.0324186837
 30
0.0
 11
-25.1143451858
 21
219.593243011
 31
0.0
  0
LINE
  5
1D2
330
1F
100
AcDbEntity
  8
0
  6
Continuous
 62
     7
370
    25
100
AcDbLine
 10
-21.2582854587
 20
217.0273670088
 30
0.0
 11
-21.637911769
 21
220.0324186837
 31
0.0
  0
ARC
  5
1D3
330
1F
100
AcDbEntity
  8
0
  6
Continuous
 62
     7
370
    25
100
AcDbCircle
 10
-43.2945318913
 20
214.6346824263
 30
0.0
 40
3.953166873794989
100
AcDbArc
 50
295.9335524762
 51
357.8644786353
  0
LINE
  5
1D4
330
1F
100
AcDbEntity
  8
0
  6
Continuous
 62
     7
370
    25
100
AcDbLine
 10
-49.5089024187
 20
209.3875768311
 30
0.0
 11
-41.5656993698
 21
211.0795922103
 31
0.0
  0
LINE
  5
1D5
330
1F
100
AcDbEntity
  8
0
  6
Continuous
 62
     7
370
    25
100
AcDbLine
 10
-50.2894030117
 20
213.0595434212
 30
0.0
 11
-49.5089024187
 21
209.3875768311
 31
0.0
  0
LINE
  5
1D6
330
1F
100
AcDbEntity
  8
0
  6
Continuous
 62
     7
370
    25
100
AcDbLine
 10
-45.0553617843
 20
214.1720732281
 30
0.0
 11
-50.2894030117
 21
213.0595434212
 31
0.0
  0
ARC
  5
1D7
330
1F
100
AcDbEntity
  8
0
  6
Continuous
 62
     7
370
    25
100
AcDbCircle
 10
-46.7666574163
 20
217.0935635583
 30
0.0
 40
3.385799534736037
100
AcDbArc
 50
300.3601160839
 51
353.6925046726
  0
LINE
  5
1D8
330
1F
100
AcDbEntity
  8
0
  6
Continuous
 62
     7
370
    25
100
AcDbLine
 10
-39.9738617061
 20
217.4501208055
 30
0.0
 11
-43.4013535085
 21
216.7215849329
 31
0.0
  0
LINE
  5
1D9
330
1F
100
AcDbEntity
  8
0
  6
Continuous
 62
     7
370
    25
100
AcDbLine
 10
-39.3441105555
 20
214.4873745808
 30
0.0
 11
-39.9738617061
 21
217.4501208055
 31
0.0
  0
ARC
  5
1DA
330
1F
100
AcDbEntity
  8
0
  6
Continuous
 62
     7
370
    25
100
AcDbCircle
 10
-61.1028591255
 20
210.2591342114
 30
0.0
 40
3.953166873794975
100
AcDbArc
 50
300.7335524762
 51
2.6644786353
  0
LINE
  5
1DB
330
1F
100
AcDbEntity
  8
0
  6
Continuous
 62
     7
370
    25
100
AcDbLine
 10
-66.8563685008
 20
204.5104258306
 30
0.0
 11
-59.0826075808
 21
206.8611771739
 31
0.0
  0
LINE
  5
1DC
330
1F
100
AcDbEntity
  8
0
  6
Continuous
 62
     7
370
    25
100
AcDbLine
 10
-67.9413940134
 20
208.1042037106
 30
0.0
 11
-66.8563685008
 21
204.5104258306
 31
0.0
  0
LINE
  5
1DD
330
1F
100
AcDbEntity
  8
0
  6
Continuous
 62
     7
370
    25
100
AcDbLine
 10
-62.8188034002
 20
209.6508050008
 30
0.0
 11
-67.9413940134
 21
208.1042037106
 31
0.0
  0
ARC
  5
1DE
330
1F
100
AcDbEntity
  8
0
  6
Continuous
 62
     7
370
    25
100
AcDbCircle
 10
-64.7685612876
 20
212.4188517254
 30
0.0
 40
3.385799534736018
100
AcDbArc
 50
305.1601160839
 51
358.4925046726
  0
LINE
  5
1DF
330
1F
100
AcDbEntity
  8
0
  6
Continuous
 62
     7
370
    25
100
AcDbLine
 10
-58.0294248096
 20
213.3425649714
 30
0.0
 11
-61.3839336052
 21
212.3297790545
 31
0.0
  0
LINE
  5
1E0
330
1F
100
AcDbEntity
  8
0
  6
Continuous
 62
     7
370
    25
100
AcDbLine
 10
-57.1539660705
 20
210.4429057328
 30
0.0
 11
-58.0294248096
 21
213.3425649714
 31
0.0
  0
ARC
  5
1E1
330
1F
100
AcDbEntity
  8
0
  6
Continuous
 62
     7
370
    25
100
AcDbCircle
 10
-78.4825965127
 20
204.4087714182
 30
0.0
 40
3.95316687379503
100
AcDbArc
 50
305.5335524762
 51
7.4644786353
  0
LINE
  5
1E2
330
1F
100
AcDbEntity
  8
0
  6
Continuous
 62
     7
370
    25
100
AcDbLine
 10
-83.7348880016
 20
198.1987833107
 30
0.0
 11
-76.1850965579
 21
201.1917817866
 31
0.0
  0
LINE
  5
1E3
330
1F
100
AcDbEntity
  8
0
  6
Continuous
 62
     7
370
    25
100
AcDbLine
 10
-85.1168277594
 20
201.6891647111
 30
0.0
 11
-83.7348880016
 21
198.1987833107
 31
0.0
  0
LINE
  5
1E4
330
1F
100
AcDbEntity
  8
0
  6
Continuous
 62
     7
370
    25
100
AcDbLine
 10
-80.1416190529
 20
203.6589891876
 30
0.0
 11
-85.1168277594
 21
201.6891647111
 31
0.0
  0
ARC
  5
1E5
330
1F
100
AcDbEntity
  8
0
  6
Continuous
 62
     7
370
    25
100
AcDbCircle
 10
-82.3161630452
 20
206.2541764477
 30
0.0
 40
3.385799534736059
100
AcDbArc
 50
309.9601160839
 51
3.2925046726
  0
LINE
  5
1E6
330
1F
100
AcDbEntity
  8
0
  6
Continuous
 62
     7
370
    25
100
AcDbLine
 10
-75.6779559996
 20
207.7385665077
 30
0.0
 11
-78.9359523194
 21
206.4486345122
 31
0.0
  0
LINE
  5
1E7
330
1F
100
AcDbEntity
  8
0
  6
Continuous
 62
     7
370
    25
100
AcDbLine
 10
-74.562930386
 20
204.9223332814
 30
0.0
 11
-75.6779559996
 21
207.7385665077
 31
0.0
  0
ARC
  5
1E8
330
1F
100
AcDbEntity
  8
0
  6
Continuous
 62
     7
370
    25
100
AcDbCircle
 10
-95.3118305133
 20
197.1246263759
 30
0.0
 40
3.953166873795045
100
AcDbArc
 50
310.3335524762
 51
12.2644786353
  0
LINE
  5
1E9
330
1F
100
AcDbEntity
  8
0
  6
Continuous
 62
     7
370
    25
100
AcDbLine
 10
-100.0260630647
 20
190.4969171465
 30
0.0
 11
-92.7531974598
 21
194.1111690211
 31
0.0
  0
LINE
  5
1EA
330
1F
100
AcDbEntity
  8
0
  6
Continuous
 62
     7
370
    25
100
AcDbLine
 10
-101.6952237533
 20
193.8594195494
 30
0.0
 11
-100.0260630647
 21
190.4969171465
 31
0.0
  0
LINE
  5
1EB
330
1F
100
AcDbEntity
  8
0
  6
Continuous
 62
     7
370
    25
100
AcDbLine
 10
-96.9022944679
 20
196.2386503089
 30
0.0
 11
-101.6952237533
 21
193.8594195494
 31
0.0
  0
ARC
  5
1EC
330
1F
100
AcDbEntity
  8
0
  6
Continuous
 62
     7
370
    25
100
AcDbCircle
 10
-99.2863717013
 20
198.6427747305
 30
0.0
 40
3.385799534736007
100
AcDbArc
 50
314.7601160839
 51
8.0925046726
  0
LINE
  5
1ED
330
1F
100
AcDbEntity
  8
0
  6
Continuous
 62
     7
370
    25
100
AcDbLine
 10
-92.7956563411
 20
200.6774296749
 30
0.0
 11
-95.9342876818
 21
199.1193995468
 31
0.0
  0
LINE
  5
1EE
330
1F
100
AcDbEntity
  8
0
  6
Continuous
 62
     7
370
    25
100
AcDbLine
 10
-91.4488849565
 20
197.9643763135
 30
0.0
 11
-92.7956563411
 21
200.6774296749
 31
0.0
  0
ARC
  5
1EF
330
1F
100
AcDbEntity
  8
0
  6
Continuous
 62
     7
370
    25
100
AcDbCircle
 10
-111.4725218754
 20
188.4577945258
 30
0.0
 40
3.953166873795027
100
AcDbArc
 50
315.1335524762
 51
17.0644786353
  0
LINE
  5
1F0
330
1F
100
AcDbEntity
  8
0
  6
Continuous
 62
     7
370
    25
100
AcDbLine
 10
-115.6156285352
 20
181.4588527926
 30
0.0
 11
-108.6707026957
 21
185.6690066858
 31
0.0
  0
LINE
  5
1F1
330
1F
100
AcDbEntity
  8
0
  6
Continuous
 62
     7
370
    25
100
AcDbLine
 10
-117.5603021915
 20
184.6698906597
 30
0.0
 11
-115.6156285352
 21
181.4588527926
 31
0.0
  0
LINE
  5
1F2
330
1F
100
AcDbEntity
  8
0
  6
Continuous
 62
     7
370
    25
100
AcDbLine
 10
-112.9832712825
 20
187.4418391079
 30
0.0
 11
-117.5603021915
 21
184.6698906597
 31
0.0
  0
ARC
  5
1F3
330
1F
100
AcDbEntity
  8
0
  6
Continuous
 62
     7
370
    25
100
AcDbCircle
 10
-115.5601591682
 20
189.6380374856
 30
0.0
 40
3.385799534736053
100
AcDbArc
 50
319.5601160839
 51
12.8925046726
  0
LINE
  5
1F4
330
1F
100
AcDbEntity
  8
0
  6
Continuous
 62
     7
370
    25
100
AcDbLine
 10
-109.262463198
 20
192.2086856717
 30
0.0
 11
-112.2597143159
 21
190.3934858729
 31
0.0
  0
LINE
  5
1F5
330
1F
100
AcDbEntity
  8
0
  6
Continuous
 62
     7
370
    25
100
AcDbLine
 10
-107.6933926761
 20
189.6178422952
 30
0.0
 11
-109.262463198
 21
192.2086856717
 31
0.0
  0
ARC
  5
1F6
330
1F
100
AcDbEntity
  8
0
  6
Continuous
 62
     7
370
    25
100
AcDbCircle
 10
0.021722753
 20
0.4674887013
 30
0.0
 40
145.3041059180145
100
AcDbArc
 50
62.5935176548
 51
111.5356515017
  0
ARC
  5
1F7
330
1F
100
AcDbEntity
  8
0
  6
Continuous
 62
     7
370
    25
100
AcDbCircle
 10
0.156376451
 20
0.3977606505
 30
0.0
 40
145.3041059180145
100
AcDbArc
 50
56.5500869847
 51
62.6533103921
  0
ARC
  5
1F8
330
1F
100
AcDbEntity
  8
0
  6
Continuous
 62
     7
370
    25
100
AcDbCircle
 10
81.1031615706
 20
122.7448000388
 30
0.0
 40
1.40047778118345
100
AcDbArc
 50
232.4241123564
 51
326.2674864161
  0
LINE
  5
1F9
330
1F
100
AcDbEntity
  8
0
  6
Continuous
 62
     7
370
    25
100
AcDbLine
 10
82.2678536957
 20
121.9670916942
 30
0.0
 11
128.4786233172
 21
190.4773660147
 31
0.0
  0
ARC
  5
1FA
330
1F
100
AcDbEntity
  8
0
  6
Continuous
 62
     7
370
    25
100
AcDbCircle
 10
126.798514161
 20
191.757307786
 30
0.0
 40
2.112112145422406
100
AcDbArc
 50
322.6991027339
 51
55.7699219741
  0
ARC
  5
1FB
330
1F
100
AcDbEntity
  8
0
  6
Continuous
 62
     7
370
    25
100
AcDbCircle
 10
0.0000042675
 20
0.1726798717
 30
0.0
 40
231.8564337584688
100
AcDbArc
 50
56.4951194144
 51
123.5022981791
  0
ARC
  5
1FC
330
1F
100
AcDbEntity
  8
0
  6
Continuous
 62
     7
370
    25
100
AcDbCircle
 10
-126.7962673367
 20
191.7568591099
 30
0.0
 40
2.113628213749995
100
AcDbArc
 50
123.9901441638
 51
217.2543129892
  0
LINE
  5
1FD
330
1F
100
AcDbEntity
  8
0
  6
Continuous
 62
     7
370
    25
100
AcDbLine
 10
-128.4786233172
 20
190.4773660147
 30
0.0
 11
-82.2678536957
 21
121.9670916942
 31
0.0
  0
ARC
  5
1FE
330
1F
100
AcDbEntity
  8
0
  6
Continuous
 62
     7
370
    25
100
AcDbCircle
 10
-81.1031615706
 20
122.7448000388
 30
0.0
 40
1.400477781183448
100
AcDbArc
 50
213.7325135839
 51
307.5750742672
  0
ARC
  5
1FF
330
1F
100
AcDbEntity
  8
0
  6
Continuous
 62
     7
370
    25
100
AcDbCircle
 10
-0.14978877
 20
0.3810409971
 30
0.0
 40
145.3216860596719
100
AcDbArc
 50
111.460239162
 51
123.4484543699
  0
ENDSEC
  0
SECTION
  2
OBJECTS
  0
DICTIONARY
  5
C
330
0
100
AcDbDictionary
281
     1
  3
ACAD_GROUP
350
D
  3
ACAD_LAYOUT
350
1A
  3
ACAD_MLINESTYLE
350
17
  3
ACAD_PLOTSETTINGS
350
19
  3
ACAD_PLOTSTYLENAME
350
E
  3
ACAD_SCALELIST
350
47
  3
DWGPROPS
350
200
  0
DICTIONARY
  5
D
102
{ACAD_REACTORS
330
C
102
}
330
C
100
AcDbDictionary
281
     1
  0
DICTIONARY
  5
1A
102
{ACAD_REACTORS
330
C
102
}
330
C
100
AcDbDictionary
281
     1
  3
Layout1
350
1E
  3
Layout2
350
26
  3
Model
350
22
  0
DICTIONARY
  5
17
102
{ACAD_REACTORS
330
C
102
}
330
C
100
AcDbDictionary
281
     1
  3
Standard
350
18
  0
DICTIONARY
  5
19
102
{ACAD_REACTORS
330
C
102
}
330
C
100
AcDbDictionary
281
     1
  0
ACDBDICTIONARYWDFLT
  5
E
102
{ACAD_REACTORS
330
C
102
}
330
C
100
AcDbDictionary
281
     1
  3
Normal
350
F
100
AcDbDictionaryWithDefault
340
F
  0
DICTIONARY
  5
47
102
{ACAD_REACTORS
330
C
102
}
330
C
100
AcDbDictionary
281
     1
  3
A0
350
48
  3
A1
350
49
  3
A2
350
4A
  3
A3
350
4B
  3
A4
350
4C
  3
A5
350
4D
  3
A6
350
4E
  3
A7
350
4F
  3
A8
350
50
  3
A9
350
51
  3
B0
350
52
  3
B1
350
53
  3
B2
350
54
  3
B3
350
55
  3
B4
350
56
  3
B5
350
57
  3
B6
350
58
  0
XRECORD
  5
200
102
{ACAD_REACTORS
330
C
102
}
330
C
100
AcDbXrecord
280
     1
  1
DWGPROPS COOKIE
  2

  3

  4

  6

  7

  8
admin
  9

300
=
301
=
302
=
303
=
304
=
305
=
306
=
307
=
308
=
309
=
 40
0.0
 41
2460792.766315521
 42
2460792.766328727
  1

 90
        0
  0
LAYOUT
  5
1E
102
{ACAD_REACTORS
330
1A
102
}
330
1A
100
AcDbPlotSettings
  1

  2
none_device
  4

  6

 40
0.0
 41
0.0
 42
0.0
 43
0.0
 44
0.0
 45
0.0
 46
0.0
 47
0.0
 48
0.0
 49
0.0
140
0.0
141
0.0
142
1.0
143
1.0
 70
   688
 72
     1
 73
     0
 74
     5
  7

 75
    16
147
1.0
148
0.0
149
0.0
100
AcDbLayout
  1
Layout1
 70
     1
 71
     1
 10
0.0
 20
0.0
 11
420.0
 21
297.0
 12
0.0
 22
0.0
 32
0.0
 14
1.0000000000E+20
 24
1.0000000000E+20
 34
1.0000000000E+20
 15
-1.0000000000E+20
 25
-1.0000000000E+20
 35
-1.0000000000E+20
146
0.0
 13
0.0
 23
0.0
 33
0.0
 16
1.0
 26
0.0
 36
0.0
 17
0.0
 27
1.0
 37
0.0
 76
     0
330
1B
  0
LAYOUT
  5
26
102
{ACAD_REACTORS
330
1A
102
}
330
1A
100
AcDbPlotSettings
  1

  2
none_device
  4

  6

 40
0.0
 41
0.0
 42
0.0
 43
0.0
 44
0.0
 45
0.0
 46
0.0
 47
0.0
 48
0.0
 49
0.0
140
0.0
141
0.0
142
1.0
143
1.0
 70
   688
 72
     1
 73
     0
 74
     5
  7

 75
    16
147
1.0
148
0.0
149
0.0
100
AcDbLayout
  1
Layout2
 70
     1
 71
     2
 10
0.0
 20
0.0
 11
0.0
 21
0.0
 12
0.0
 22
0.0
 32
0.0
 14
0.0
 24
0.0
 34
0.0
 15
0.0
 25
0.0
 35
0.0
146
0.0
 13
0.0
 23
0.0
 33
0.0
 16
1.0
 26
0.0
 36
0.0
 17
0.0
 27
1.0
 37
0.0
 76
     0
330
23
  0
LAYOUT
  5
22
102
{ACAD_REACTORS
330
1A
102
}
330
1A
100
AcDbPlotSettings
  1

  2
none_device
  4
ANSI_A_(11.00_x_8.50_Inches)
  6

 40
6.35
 41
19.05
 42
6.35000508
 43
19.05000254
 44
279.4
 45
215.9
 46
133.3496054596
 47
-100.6605760125
 48
0.0
 49
0.0
140
0.0
141
0.0
142
0.0422386857
143
1.0
 70
  1696
 72
     0
 73
     0
 74
     0
  7

 75
     0
147
0.0179189148
148
-1300.4909072572
149
0.0
100
AcDbLayout
  1
Model
 70
     1
 71
     0
 10
0.0
 20
0.0
 11
420.0
 21
297.0
 12
0.0
 22
0.0
 32
0.0
 14
-128.9098955504
 24
121.3443222576
 34
0.0
 15
128.9106263064
 25
232.0291136301
 35
0.0
146
0.0
 13
0.0
 23
0.0
 33
0.0
 16
1.0
 26
0.0
 36
0.0
 17
0.0
 27
1.0
 37
0.0
 76
     0
330
1F
331
29
  0
MLINESTYLE
  5
18
102
{ACAD_REACTORS
330
17
102
}
330
17
100
AcDbMlineStyle
  2
Standard
 70
     0
  3

 62
   256
 51
90.0
 52
90.0
 71
     2
 49
0.5
 62
   256
  6
BYLAYER
 49
-0.5
 62
   256
  6
BYLAYER
  0
ACDBPLACEHOLDER
  5
F
102
{ACAD_REACTORS
330
E
102
}
330
E
  0
SCALE
  5
48
102
{ACAD_REACTORS
330
47
102
}
330
47
100
AcDbScale
 70
     0
300
1:1
140
1.0
141
1.0
290
     1
  0
SCALE
  5
49
102
{ACAD_REACTORS
330
47
102
}
330
47
100
AcDbScale
 70
     0
300
1:2
140
1.0
141
2.0
290
     0
  0
SCALE
  5
4A
102
{ACAD_REACTORS
330
47
102
}
330
47
100
AcDbScale
 70
     0
300
1:4
140
1.0
141
4.0
290
     0
  0
SCALE
  5
4B
102
{ACAD_REACTORS
330
47
102
}
330
47
100
AcDbScale
 70
     0
300
1:5
140
1.0
141
5.0
290
     0
  0
SCALE
  5
4C
102
{ACAD_REACTORS
330
47
102
}
330
47
100
AcDbScale
 70
     0
300
1:8
140
1.0
141
8.0
290
     0
  0
SCALE
  5
4D
102
{ACAD_REACTORS
330
47
102
}
330
47
100
AcDbScale
 70
     0
300
1:10
140
1.0
141
10.0
290
     0
  0
SCALE
  5
4E
102
{ACAD_REACTORS
330
47
102
}
330
47
100
AcDbScale
 70
     0
300
1:16
140
1.0
141
16.0
290
     0
  0
SCALE
  5
4F
102
{ACAD_REACTORS
330
47
102
}
330
47
100
AcDbScale
 70
     0
300
1:20
140
1.0
141
20.0
290
     0
  0
SCALE
  5
50
102
{ACAD_REACTORS
330
47
102
}
330
47
100
AcDbScale
 70
     0
300
1:30
140
1.0
141
30.0
290
     0
  0
SCALE
  5
51
102
{ACAD_REACTORS
330
47
102
}
330
47
100
AcDbScale
 70
     0
300
1:40
140
1.0
141
40.0
290
     0
  0
SCALE
  5
52
102
{ACAD_REACTORS
330
47
102
}
330
47
100
AcDbScale
 70
     0
300
1:50
140
1.0
141
50.0
290
     0
  0
SCALE
  5
53
102
{ACAD_REACTORS
330
47
102
}
330
47
100
AcDbScale
 70
     0
300
1:100
140
1.0
141
100.0
290
     0
  0
SCALE
  5
54
102
{ACAD_REACTORS
330
47
102
}
330
47
100
AcDbScale
 70
     0
300
2:1
140
2.0
141
1.0
290
     0
  0
SCALE
  5
55
102
{ACAD_REACTORS
330
47
102
}
330
47
100
AcDbScale
 70
     0
300
4:1
140
4.0
141
1.0
290
     0
  0
SCALE
  5
56
102
{ACAD_REACTORS
330
47
102
}
330
47
100
AcDbScale
 70
     0
300
8:1
140
8.0
141
1.0
290
     0
  0
SCALE
  5
57
102
{ACAD_REACTORS
330
47
102
}
330
47
100
AcDbScale
 70
     0
300
10:1
140
10.0
141
1.0
290
     0
  0
SCALE
  5
58
102
{ACAD_REACTORS
330
47
102
}
330
47
100
AcDbScale
 70
     0
300
100:1
140
100.0
141
1.0
290
     0
  0
ENDSEC
  0
EOF
